<svg width="157" height="325" viewBox="0 0 157 325" fill="none" xmlns="http://www.w3.org/2000/svg">
<path d="M19.6799 13.8348C118.76 86.7648 119.55 238.375 19.6799 311.635C20.0499 312.675 20.2599 313.795 20.2599 314.965C20.2599 320.385 15.8698 324.765 10.4598 324.765C5.04984 324.765 0.659912 320.375 0.659912 314.965C0.659912 309.555 5.04984 305.165 10.4598 305.165C13.7698 305.165 16.6998 306.805 18.4698 309.325C116.22 237.255 115.95 88.2348 18.4698 16.1648C16.6998 18.6848 13.7698 20.3348 10.4498 20.3348C5.02983 20.3348 0.649902 15.9448 0.649902 10.5348C0.649902 5.12479 5.03983 0.734741 10.4498 0.734741C15.8598 0.734741 20.2499 5.12479 20.2499 10.5348C20.2499 11.6948 20.0499 12.8147 19.6699 13.8547L19.6799 13.8348Z" fill="white"/>
<path fill-rule="evenodd" clip-rule="evenodd" d="M83.46 162.895C83.46 157.475 87.85 153.095 93.26 153.095C98.67 153.095 103.06 157.485 103.06 162.895C103.06 168.305 98.67 172.695 93.26 172.695C87.85 172.695 83.46 168.305 83.46 162.895Z" fill="white"/>
<path d="M65.6101 155.995V161.425H144.51V155.995L156.71 162.705L144.51 169.415V163.995H65.6101V169.415L53.4102 162.705L65.6101 155.995Z" fill="white"/>
</svg>
