<svg width="69" height="62" viewBox="0 0 69 62" fill="none" xmlns="http://www.w3.org/2000/svg">
<path d="M43.2396 53.4147C42.9696 53.4147 42.6996 53.3547 42.4496 53.2347L26.2097 45.4947C25.2897 45.0547 24.8997 43.9547 25.3397 43.0247C25.7797 42.1047 26.8796 41.7147 27.8096 42.1547L44.0496 49.8947C44.9696 50.3347 45.3596 51.4347 44.9196 52.3647C44.5996 53.0247 43.9396 53.4147 43.2496 53.4147H43.2396Z" fill="#28348A"/>
<path d="M47.4297 37.8448C39.1697 37.8448 32.4497 31.1248 32.4497 22.8748C32.4497 15.1048 44.6897 2.07475 46.0897 0.614746C46.4397 0.254746 46.9197 0.0447998 47.4297 0.0447998C47.9397 0.0447998 48.4197 0.254746 48.7697 0.614746C50.1697 2.07475 62.4097 15.1148 62.4097 22.8748C62.4097 31.1348 55.6897 37.8448 47.4397 37.8448H47.4297ZM47.4297 4.60474C43.3697 9.11474 36.1497 18.1147 36.1497 22.8647C36.1497 29.0847 41.2097 34.1348 47.4297 34.1348C53.6497 34.1348 58.6997 29.0747 58.6997 22.8647C58.6997 18.1147 51.4797 9.11474 47.4297 4.60474Z" fill="#28348A"/>
<path d="M47.4296 37.8448C46.4096 37.8448 45.5796 37.0148 45.5796 35.9948V14.2448C45.5796 13.2248 46.4096 12.3948 47.4296 12.3948C48.4496 12.3948 49.2796 13.2248 49.2796 14.2448V35.9948C49.2796 37.0148 48.4496 37.8448 47.4296 37.8448Z" fill="#28348A"/>
<path d="M47.3595 29.6248C46.8895 29.6248 46.4095 29.4449 46.0495 29.0849L40.5595 23.5949C39.8395 22.8749 39.8395 21.7049 40.5595 20.9749C41.2795 20.2449 42.4495 20.2549 43.1795 20.9749L48.6695 26.4649C49.3895 27.1849 49.3895 28.3549 48.6695 29.0849C48.3095 29.4449 47.8395 29.6248 47.3595 29.6248Z" fill="#28348A"/>
<path d="M41.0198 61.9548C39.6598 61.9548 38.2898 61.6548 37.0198 61.0548L13.3698 49.8448L3.15985 52.4749C2.60985 52.6249 2.01981 52.4948 1.55981 52.1448C1.10981 51.7948 0.839844 51.2548 0.839844 50.6848V32.5548C0.839844 31.5348 1.66982 30.7048 2.68982 30.7048H16.9298C17.2098 30.7048 17.4798 30.7648 17.7298 30.8848L40.9498 41.9749C43.5798 43.2249 45.2298 45.7248 45.4898 48.4448L56.2298 43.3547C60.8798 41.1547 66.4599 43.1448 68.6599 47.7948C69.0999 48.7148 68.6998 49.8248 67.7798 50.2548L44.9898 61.0548C43.7198 61.6548 42.3598 61.9548 40.9898 61.9548H41.0198ZM13.5598 46.0348C13.8298 46.0348 14.0998 46.0948 14.3498 46.2148L38.6098 57.7148C40.1398 58.4448 41.8998 58.4448 43.4298 57.7148L64.2598 47.8448C62.6198 46.1848 60.0498 45.6548 57.8298 46.7048L44.0298 53.2448C43.3398 53.5748 42.5198 53.4448 41.9698 52.9148C41.4198 52.3848 41.2398 51.5748 41.5298 50.8748C42.3998 48.7448 41.4598 46.3048 39.3798 45.3148L16.5298 34.4048H4.55981V48.2948L13.0998 46.0948C13.2498 46.0548 13.4098 46.0348 13.5598 46.0348Z" fill="#28348A"/>
</svg>
