<svg width="91" height="91" viewBox="0 0 91 91" fill="none" xmlns="http://www.w3.org/2000/svg">
<path d="M45.7803 83.16C66.5849 83.16 83.4503 66.2946 83.4503 45.49C83.4503 24.6854 66.5849 7.81995 45.7803 7.81995C24.9758 7.81995 8.11035 24.6854 8.11035 45.49C8.11035 66.2946 24.9758 83.16 45.7803 83.16Z" fill="url(#paint0_linear_334_9480)"/>
<path opacity="0.8" d="M45.7804 0.640015C21.0404 0.640015 0.92041 20.77 0.92041 45.5C0.92041 70.23 21.0504 90.36 45.7804 90.36C70.5104 90.36 90.6404 70.23 90.6404 45.5C90.6404 20.77 70.5104 0.640015 45.7804 0.640015ZM45.7804 7.82996C66.5504 7.82996 83.4504 24.73 83.4504 45.5C83.4504 52.2 81.6904 58.4901 78.6204 63.9401L15.7504 22.79C22.6304 13.71 33.5404 7.82996 45.7904 7.82996H45.7804ZM45.7804 83.17C25.0104 83.17 8.11041 66.27 8.11041 45.5C8.11041 39.71 9.43039 34.2201 11.7704 29.3101L74.2204 70.1801C67.3104 78.1301 57.1204 83.17 45.7804 83.17Z" fill="#EA660A"/>
<path d="M51.2903 30.74L48.5103 27.83L51.5803 24.47L51.8002 24.67L48.9203 27.8199L51.2803 30.29L54.0303 27.04L54.2603 27.24L51.2903 30.74Z" fill="white"/>
<path d="M58.1502 71.05H21.9702V70.15H57.1402C55.5002 68.16 51.8102 62.3901 54.2702 53.1801L55.1402 53.41C52.2002 64.42 58.3902 70.21 58.4502 70.27L59.3102 71.05H58.1502Z" fill="white"/>
<path d="M22.2805 70.98L21.7905 70.22C21.8605 70.18 28.3305 65.8 26.0405 53.37L26.9205 53.21C29.3305 66.27 22.5705 70.79 22.2805 70.98Z" fill="white"/>
<path d="M40.5903 56.59C34.7403 56.59 26.0303 55.71 26.0303 53.29C26.0303 50.87 34.7403 49.99 40.5903 49.99C46.4403 49.99 55.1503 50.87 55.1503 53.29C55.1503 55.71 46.4403 56.59 40.5903 56.59ZM40.5903 50.9C31.6203 50.9 26.9302 52.46 26.9302 53.3C26.9302 54.14 31.6203 55.7 40.5903 55.7C49.5603 55.7 54.2502 54.14 54.2502 53.3C54.2502 52.46 49.5603 50.9 40.5903 50.9Z" fill="white"/>
<path d="M34.6104 62.17C34.6104 62.17 34.5704 62.17 34.5404 62.17C34.2604 62.15 33.8704 62 33.5504 61.41C33.1904 60.75 33.0504 60.0101 32.9504 59.3101C32.7904 58.1601 32.7304 56.9799 32.7604 55.8199L33.6604 55.85C33.6304 56.96 33.6904 58.0901 33.8404 59.1901C33.9204 59.8001 34.0404 60.44 34.3404 60.98C34.4604 61.2 34.5704 61.27 34.6104 61.27C34.6404 61.27 34.7404 61.25 34.9604 61C36.1904 59.59 37.0404 57.86 37.4404 55.99L38.3304 56.12C38.1404 58.16 38.6704 59.9 39.7804 60.88C39.9304 61.01 40.0004 61.04 40.0404 61.04C40.0604 61.04 40.2004 61.02 40.4204 60.6C41.2304 59.06 41.9404 57.44 42.5304 55.8L43.3804 56.1C42.7804 57.78 42.0504 59.43 41.2204 61.01C41.1004 61.24 40.7204 61.9601 40.0204 61.9301C39.6604 61.9201 39.3904 61.72 39.1904 61.54C38.3804 60.82 37.8204 59.78 37.5704 58.54C37.0904 59.64 36.4404 60.6699 35.6604 61.5699C35.4204 61.8399 35.0904 62.15 34.6404 62.15L34.6104 62.17Z" fill="white"/>
<path d="M61.7603 67.1C61.3503 67.1 60.9303 67.08 60.5103 67.03L59.8604 66.96L60.1603 66.38C61.6503 63.47 64.9803 61.56 68.2403 61.73C69.2003 61.78 69.8703 62.0101 70.3103 62.4301L70.6104 62.72L70.3403 63.04C68.9403 64.73 67.0203 66.01 64.9103 66.64C63.8903 66.94 62.8303 67.1 61.7503 67.1H61.7603ZM61.3003 66.1901C62.4503 66.2401 63.5803 66.1 64.6603 65.78C66.4303 65.25 68.0703 64.22 69.3203 62.85C69.0403 62.73 68.6603 62.65 68.1903 62.63C65.5003 62.48 62.7603 63.9201 61.3003 66.1901Z" fill="white"/>
<path d="M31.0405 27.3199C30.8105 27.3199 30.6005 27.31 30.3805 27.28C29.6705 27.2 28.9505 26.97 28.0505 26.55L27.7705 26.42L27.7905 26.12C27.8305 25.41 28.4105 24.85 28.9105 24.44C31.4305 22.37 35.0405 21.72 38.1305 22.77L38.7205 22.9699L38.3405 23.4699C36.8205 25.4599 34.5905 26.8299 32.2305 27.2199C31.8105 27.2899 31.4205 27.3199 31.0405 27.3199ZM28.7705 25.89C29.4205 26.17 29.9605 26.32 30.4805 26.39C30.9605 26.45 31.4805 26.4299 32.0705 26.3299C34.0005 26.0099 35.8305 24.97 37.1905 23.44C34.5505 22.77 31.5805 23.41 29.4705 25.14C29.3205 25.26 28.9405 25.57 28.7705 25.9V25.89Z" fill="white"/>
<path d="M43.0302 47.2L31.7202 36.23L44.8702 25.13C45.0902 24.92 47.4902 22.77 51.6402 23.71L51.7702 23.74L54.8202 26.9201C54.8502 26.9801 55.6402 28.3401 55.8302 31.5401L55.8502 31.8001L55.6402 31.9401C55.6402 31.9401 54.0102 33.07 49.8302 37.71C45.6302 42.38 43.3402 46.6301 43.3202 46.6701L43.0402 47.2H43.0302ZM33.0602 36.2801L42.8102 45.74C43.5602 44.45 45.7402 40.92 49.1602 37.12C52.6302 33.27 54.3602 31.81 54.9202 31.37C54.7402 28.87 54.1902 27.6601 54.0702 27.4301L51.3102 24.57C47.6002 23.78 45.5102 25.7801 45.4902 25.8001L45.4702 25.82L33.0702 36.2801H33.0602Z" fill="white"/>
<path d="M51.4884 35.3502L50.8604 35.9948L59.1178 44.0417L59.7459 43.3971L51.4884 35.3502Z" fill="white"/>
<path d="M55.2934 31.7775L54.6592 32.416L62.5482 40.2529L63.1825 39.6144L55.2934 31.7775Z" fill="white"/>
<path d="M70.0303 57.3L57.6104 45.11L63.0403 39.03L70.1503 45.74L70.0303 57.3ZM58.8503 45.0699L69.1503 55.1801L69.2403 46.12L63.0903 40.3101L58.8403 45.0601L58.8503 45.0699Z" fill="white"/>
<path d="M27.2104 45.9499C26.1204 45.9499 25.0404 45.6799 24.1004 45.1199C23.3704 44.6899 22.7604 44.1199 22.1604 43.5699C21.6404 43.0899 21.0904 42.5899 20.5504 42.0999L19.6704 41.31H20.8504C20.9004 41.31 20.9604 41.3099 21.0304 41.3199C21.7704 40.8699 22.5904 40.38 23.5104 40.15C24.9404 39.8 26.5504 40.08 28.0604 40.94C29.2004 41.59 30.3004 42.5699 31.3204 43.8499L31.5904 44.19L31.2604 44.4699C30.1404 45.4399 28.6704 45.94 27.2004 45.94L27.2104 45.9499ZM21.7304 41.9599C22.0804 42.2799 22.4304 42.6 22.7604 42.91C23.3204 43.43 23.9004 43.9599 24.5504 44.3499C26.3104 45.3999 28.6804 45.2699 30.3304 44.0799C29.4604 43.0599 28.5504 42.2699 27.6104 41.7399C26.3004 40.9899 24.9204 40.74 23.7204 41.04C23.0204 41.21 22.3604 41.5799 21.7204 41.9599H21.7304Z" fill="white"/>
<path d="M42.9505 27.91L42.6905 27.7299C42.0805 27.3099 41.3005 26.5399 40.9105 25.9799C40.4105 25.2599 40.2205 24.5799 40.3405 23.9499C40.5005 23.1099 41.2705 22.43 42.2105 22.3C42.9505 22.2 43.7705 22.43 44.5105 22.94C45.0905 23.35 45.5705 23.87 46.0305 24.39L46.2405 24.6199V24.7099C46.3405 25.0199 46.2005 25.5199 43.2205 27.7199L42.9605 27.91H42.9505ZM42.5605 23.17C42.4805 23.17 42.4005 23.17 42.3305 23.19C41.7905 23.26 41.3105 23.6699 41.2205 24.1199C41.1505 24.4999 41.2905 24.9499 41.6505 25.4599C41.9305 25.8699 42.4705 26.42 42.9505 26.8C44.4805 25.66 45.0405 25.0999 45.2505 24.8699C44.8405 24.4199 44.4505 24 44.0005 23.68C43.5305 23.35 43.0305 23.18 42.5705 23.18L42.5605 23.17Z" fill="white"/>
<path d="M51.2104 30.98L48.2104 27.7L51.6304 24.25L52.2604 24.88L49.4504 27.72L51.2504 29.7L54.1204 26.9301L54.7404 27.58L51.2104 30.98Z" fill="white"/>
<path d="M35.3457 33.7322L34.7192 34.3784L44.3549 43.7193L44.9813 43.0731L35.3457 33.7322Z" fill="white"/>
<path d="M38.7387 31.0093L38.1177 31.6608L46.9265 40.0581L47.5475 39.4066L38.7387 31.0093Z" fill="white"/>
<defs>
<linearGradient id="paint0_linear_334_9480" x1="8.11035" y1="45.49" x2="83.4503" y2="45.49" gradientUnits="userSpaceOnUse">
<stop stop-color="#046DB5"/>
<stop offset="1" stop-color="#253785"/>
</linearGradient>
</defs>
</svg>
