<svg width="125" height="127" viewBox="0 0 125 127" fill="none" xmlns="http://www.w3.org/2000/svg">
<path d="M17.795 7.68481C18.565 7.68481 19.195 7.05491 19.195 6.28491V1.59497C19.195 0.824971 18.565 0.194824 17.795 0.194824C17.025 0.194824 16.395 0.824971 16.395 1.59497V6.28491C16.395 7.05491 17.025 7.68481 17.795 7.68481Z" fill="url(#paint0_linear_321_6949)"/>
<path d="M84.3452 61.325C84.3452 61.325 84.3452 61.2849 84.3452 61.2749V41.095C84.5552 41.105 84.7653 41.0949 84.9753 41.0249L93.6953 38.1948L84.6653 16.2048L62.4553 7.43481L40.7852 16.585L32.5453 38.355L40.8352 41.1948C40.8352 41.1948 40.9153 41.1948 40.9553 41.2148V62.6748C40.4753 62.9248 39.9952 63.1948 39.5252 63.4648C32.6352 48.8848 6.17525 47.885 5.00525 47.855C4.07525 47.785 3.34525 48.5348 3.31525 49.4448C3.28525 50.3548 3.99524 51.1048 4.90524 51.1348C5.16524 51.1348 30.5752 52.0748 36.5852 64.9048C26.2752 69.2448 4.75525 72.7349 3.25525 72.7749C2.34525 72.7749 1.61523 73.5148 1.61523 74.4148C1.61523 75.3148 2.35525 76.0549 3.25525 76.0549C4.74525 76.0549 28.2452 72.3448 38.9052 67.4648C39.0152 67.4548 39.1352 67.4448 39.2452 67.4148C39.5052 67.3248 39.7353 67.1749 39.9153 66.9849C40.2653 66.8149 40.5952 66.6348 40.8952 66.4548C50.6452 60.8548 60.0252 59.025 72.2752 60.325C82.4352 61.405 89.3652 69.9149 89.4652 70.0349C90.0352 70.7449 91.0652 70.8649 91.7752 70.2949C92.4852 69.7349 92.6052 68.6949 92.0352 67.9849C91.8452 67.7449 89.0453 64.305 84.3553 61.325H84.3452ZM36.8152 36.335L43.3553 19.0549L62.4952 10.9648L82.1552 18.7349L89.3052 36.1548L84.3452 37.7649V33.875L79.5753 21.105L61.8952 14.6448L45.5352 21.4949L40.9453 33.1648V37.7549L36.8052 36.335H36.8152ZM44.2353 33.7849L48.0852 23.9849L61.9853 18.1648L77.0352 23.6648L81.0652 34.4648V59.5049C79.8852 58.9449 78.6252 58.4449 77.2852 58.0249C77.3052 57.9349 77.3152 57.8349 77.3152 57.7449V38.865H48.3452V59.1548C48.3452 59.2448 48.3552 59.3248 48.3752 59.4048C46.9852 59.8848 45.6152 60.4349 44.2452 61.0549V33.7849H44.2353ZM51.6252 58.4048V42.1548H74.0252V57.2749C73.5552 57.1949 73.0952 57.1149 72.6152 57.0649C64.8852 56.2349 58.0652 56.6548 51.6252 58.4048Z" fill="url(#paint1_linear_321_6949)"/>
<path d="M73.6252 23.3948H51.3452V36.0049H73.6252V23.3948ZM70.3452 32.7148H54.6252V26.6748H70.3452V32.7148Z" fill="url(#paint2_linear_321_6949)"/>
<path d="M17.265 25.9749C21.885 25.9749 25.655 22.215 25.655 17.585C25.655 12.955 21.895 9.19482 17.265 9.19482C12.635 9.19482 8.875 12.955 8.875 17.585C8.875 22.215 12.635 25.9749 17.265 25.9749ZM17.265 12.4849C20.075 12.4849 22.365 14.775 22.365 17.585C22.365 20.395 20.075 22.6848 17.265 22.6848C14.455 22.6848 12.165 20.395 12.165 17.585C12.165 14.775 14.455 12.4849 17.265 12.4849Z" fill="url(#paint3_linear_321_6949)"/>
<path d="M16.395 28.9048V33.595C16.395 34.365 17.025 34.9949 17.795 34.9949C18.565 34.9949 19.195 34.365 19.195 33.595V28.9048C19.195 28.1348 18.565 27.5049 17.795 27.5049C17.025 27.5049 16.395 28.1348 16.395 28.9048Z" fill="url(#paint4_linear_321_6949)"/>
<path d="M6.48505 18.9949C7.25505 18.9949 7.88504 18.365 7.88504 17.595C7.88504 16.825 7.25505 16.1948 6.48505 16.1948H1.79504C1.02504 16.1948 0.39502 16.825 0.39502 17.595C0.39502 18.365 1.02504 18.9949 1.79504 18.9949H6.48505Z" fill="url(#paint5_linear_321_6949)"/>
<path d="M27.7051 17.595C27.7051 18.365 28.3351 18.9949 29.1051 18.9949H33.7951C34.5651 18.9949 35.1951 18.365 35.1951 17.595C35.1951 16.825 34.5651 16.1948 33.7951 16.1948H29.1051C28.3351 16.1948 27.7051 16.825 27.7051 17.595Z" fill="url(#paint6_linear_321_6949)"/>
<path d="M8.85514 24.6547L5.55512 27.9948C5.01512 28.5448 5.01513 29.4348 5.56513 29.9748C5.83513 30.2448 6.19514 30.3749 6.54514 30.3749C6.89514 30.3749 7.26514 30.2348 7.54514 29.9548L10.8451 26.6149C11.3851 26.0649 11.3851 25.1747 10.8351 24.6347C10.2851 24.0947 9.39514 24.0947 8.85514 24.6447V24.6547Z" fill="url(#paint7_linear_321_6949)"/>
<path d="M25.7448 10.9448C26.1048 10.9448 26.4648 10.8048 26.7448 10.5248L30.0448 7.18476C30.5848 6.63476 30.5848 5.74478 30.0348 5.20478C29.4848 4.66478 28.5948 4.66479 28.0548 5.21479L24.7548 8.55488C24.2148 9.10488 24.2148 9.99486 24.7648 10.5349C25.0348 10.8049 25.3948 10.9348 25.7448 10.9348V10.9448Z" fill="url(#paint8_linear_321_6949)"/>
<path d="M8.7449 10.6747C9.0149 10.9447 9.37491 11.0748 9.72491 11.0748C10.0749 11.0748 10.4549 10.9347 10.7249 10.6547C11.2649 10.1047 11.2549 9.2147 10.7049 8.6747L7.35492 5.39467C6.80492 4.85467 5.91491 4.86469 5.37491 5.41469C4.83491 5.96469 4.8449 6.85467 5.3949 7.39467L8.7449 10.6747Z" fill="url(#paint9_linear_321_6949)"/>
<path d="M24.8651 24.5348C24.3251 25.0848 24.3351 25.9748 24.8851 26.5148L28.2352 29.7949C28.5052 30.0649 28.8651 30.1948 29.2151 30.1948C29.5651 30.1948 29.9451 30.0548 30.2151 29.7748C30.7551 29.2248 30.7451 28.3349 30.1951 27.7949L26.8451 24.5148C26.2951 23.9748 25.4051 23.9748 24.8651 24.5348Z" fill="url(#paint10_linear_321_6949)"/>
<path d="M76.3251 77.3948C76.1051 76.3048 75.9551 74.745 76.2551 74.065C77.0651 72.235 76.4951 70.4949 75.9151 69.7649C75.3251 69.0249 74.6251 69.0748 74.3551 69.1348C72.7151 69.4548 71.7851 70.9349 71.1051 72.0049C70.9751 72.2049 70.8151 72.4749 70.6651 72.6749C70.3351 72.3449 69.8851 71.7749 69.6151 71.4249C68.7651 70.3349 68.0951 69.475 67.1251 69.295C66.5851 69.195 66.0451 69.3549 65.6451 69.7249C65.4151 69.9349 64.7851 70.5049 64.7751 72.7649H35.5651C31.5251 72.7649 28.2451 76.045 28.2451 80.085V93.805H28.2751V97.6849C28.2751 98.4549 28.9051 99.085 29.6751 99.085C30.4451 99.085 31.0751 98.4549 31.0751 97.6849V93.805H33.1151V103.575C33.1151 104.345 33.7451 104.975 34.5151 104.975C35.2851 104.975 35.9151 104.345 35.9151 103.575V93.805H38.5551L38.3951 102.845C38.3851 103.615 38.9951 104.255 39.7651 104.275H39.7951C40.5551 104.275 41.1851 103.665 41.1951 102.905L41.3551 93.815H55.4551V103.495C55.4551 104.265 56.0851 104.895 56.8551 104.895C57.6251 104.895 58.2551 104.265 58.2551 103.495V93.815H61.4351V103.325C61.4351 104.095 62.0651 104.725 62.8351 104.725C63.6051 104.725 64.2351 104.095 64.2351 103.325V93.815H65.3851C68.0351 93.815 68.9851 89.0149 69.3051 86.2049C69.7651 85.7049 72.5651 85.755 73.9151 85.785C76.4851 85.835 78.5151 85.8749 79.5451 84.7249C79.9951 84.2249 80.2051 83.585 80.1451 82.875C79.9951 80.855 77.5151 78.4448 76.3251 77.4048V77.3948ZM73.9651 82.9749C70.8151 82.9149 66.8951 82.835 66.5451 85.825C66.2051 88.715 65.5051 90.5149 65.1251 91.0049H31.0451V80.095C31.0451 77.605 33.0751 75.575 35.5651 75.575H67.7651L67.6351 74.055C67.6151 73.835 67.6051 73.6148 67.5951 73.3948C68.5151 74.5648 69.4751 75.6949 70.7551 75.6949C72.0951 75.6949 72.8251 74.5349 73.4751 73.5049C73.4851 73.4849 73.4951 73.4649 73.5151 73.4449C72.9651 75.3649 73.5751 77.9649 73.7151 78.5049L73.8251 78.9449L74.1751 79.2349C75.6451 80.4649 77.0451 82.105 77.3151 82.865C76.6451 83.035 75.0651 82.9949 73.9751 82.9749H73.9651Z" fill="url(#paint11_linear_321_6949)"/>
<path d="M108.885 96.315C108.755 95.665 108.665 94.725 108.845 94.325C109.335 93.235 108.995 92.1949 108.645 91.7549C108.295 91.3149 107.875 91.345 107.705 91.375C106.725 91.565 106.175 92.445 105.765 93.095C105.685 93.215 105.585 93.3749 105.505 93.4949C105.305 93.2949 105.045 92.9549 104.875 92.7449C104.365 92.0949 103.965 91.5749 103.385 91.4749C103.065 91.4149 102.735 91.5149 102.495 91.7349C102.355 91.8649 101.985 92.205 101.975 93.555H84.5153C82.1053 93.555 80.1353 95.5149 80.1353 97.9349V106.135H80.1552V108.455C80.1552 108.915 80.5352 109.295 80.9952 109.295C81.4552 109.295 81.8352 108.915 81.8352 108.455V106.135H83.0552V111.975C83.0552 112.435 83.4352 112.815 83.8952 112.815C84.3552 112.815 84.7353 112.435 84.7353 111.975V106.135H86.3152L86.2152 111.535C86.2152 111.995 86.5752 112.375 87.0352 112.385H87.0552C87.5152 112.385 87.8852 112.025 87.8952 111.565L87.9952 106.135H96.4252V111.925C96.4252 112.385 96.8053 112.765 97.2653 112.765C97.7253 112.765 98.1053 112.385 98.1053 111.925V106.135H100.005V111.815C100.005 112.275 100.385 112.655 100.845 112.655C101.305 112.655 101.685 112.275 101.685 111.815V106.135H102.375C103.955 106.135 104.525 103.265 104.715 101.585C104.985 101.285 106.665 101.315 107.465 101.335C109.005 101.365 110.215 101.385 110.825 100.705C111.095 100.405 111.215 100.025 111.185 99.595C111.095 98.385 109.615 96.945 108.905 96.325L108.885 96.315ZM107.475 99.6548C105.595 99.6148 103.255 99.565 103.035 101.355C102.835 103.085 102.415 104.155 102.185 104.455H81.8152V97.9349C81.8152 96.4449 83.0253 95.2349 84.5153 95.2349H103.765L103.685 94.325C103.675 94.195 103.665 94.0648 103.665 93.9248C104.215 94.6248 104.795 95.305 105.555 95.305C106.355 95.305 106.795 94.6149 107.185 93.9949C107.185 93.9849 107.195 93.9749 107.205 93.9649C106.875 95.1149 107.245 96.6649 107.325 96.9949L107.395 97.2549L107.605 97.4248C108.485 98.1548 109.325 99.145 109.485 99.595C109.085 99.695 108.145 99.6748 107.495 99.6648L107.475 99.6548Z" fill="url(#paint12_linear_321_6949)"/>
<path d="M122.605 110.035C122.475 109.385 122.385 108.445 122.565 108.045C123.055 106.955 122.715 105.915 122.365 105.475C122.015 105.035 121.595 105.065 121.425 105.095C120.445 105.285 119.895 106.165 119.485 106.815C119.405 106.935 119.305 107.095 119.225 107.215C119.025 107.015 118.765 106.675 118.595 106.465C118.085 105.815 117.685 105.295 117.105 105.195C116.785 105.135 116.455 105.235 116.215 105.455C116.075 105.585 115.705 105.925 115.695 107.275H98.235C95.825 107.275 93.855 109.235 93.855 111.655V119.855H93.875V122.175C93.875 122.635 94.255 123.015 94.715 123.015C95.175 123.015 95.555 122.635 95.555 122.175V119.855H96.775V125.695C96.775 126.155 97.155 126.535 97.615 126.535C98.075 126.535 98.455 126.155 98.455 125.695V119.855H100.035L99.935 125.255C99.935 125.715 100.295 126.095 100.755 126.105H100.775C101.235 126.105 101.605 125.745 101.615 125.285L101.715 119.855H110.145V125.645C110.145 126.105 110.525 126.485 110.985 126.485C111.445 126.485 111.825 126.105 111.825 125.645V119.855H113.725V125.535C113.725 125.995 114.105 126.375 114.565 126.375C115.025 126.375 115.405 125.995 115.405 125.535V119.855H116.095C117.675 119.855 118.245 116.985 118.435 115.305C118.705 115.005 120.385 115.035 121.185 115.055C122.725 115.085 123.935 115.105 124.545 114.425C124.815 114.125 124.935 113.745 124.905 113.315C124.815 112.105 123.335 110.665 122.625 110.045L122.605 110.035ZM121.195 113.375C119.315 113.335 116.975 113.285 116.755 115.075C116.555 116.805 116.135 117.875 115.905 118.175H95.535V111.655C95.535 110.165 96.745 108.955 98.235 108.955H117.485L117.405 108.045C117.395 107.915 117.385 107.785 117.385 107.645C117.935 108.345 118.515 109.025 119.275 109.025C120.075 109.025 120.515 108.335 120.905 107.715C120.905 107.705 120.915 107.695 120.925 107.685C120.595 108.835 120.965 110.385 121.045 110.715L121.115 110.975L121.325 111.145C122.205 111.875 123.045 112.865 123.205 113.315C122.805 113.415 121.865 113.395 121.215 113.385L121.195 113.375Z" fill="url(#paint13_linear_321_6949)"/>
<defs>
<linearGradient id="paint0_linear_321_6949" x1="15.885" y1="120.775" x2="17.995" y2="-7.99516" gradientUnits="userSpaceOnUse">
<stop stop-color="#ED7225"/>
<stop offset="0.17" stop-color="#FDC80A"/>
<stop offset="0.45" stop-color="#047F45"/>
<stop offset="0.76" stop-color="#0C98CA"/>
<stop offset="0.97" stop-color="white"/>
</linearGradient>
<linearGradient id="paint1_linear_321_6949" x1="46.5952" y1="121.285" x2="48.7052" y2="-7.49521" gradientUnits="userSpaceOnUse">
<stop stop-color="#ED7225"/>
<stop offset="0.17" stop-color="#FDC80A"/>
<stop offset="0.45" stop-color="#047F45"/>
<stop offset="0.76" stop-color="#0C98CA"/>
<stop offset="0.97" stop-color="white"/>
</linearGradient>
<linearGradient id="paint2_linear_321_6949" x1="60.9752" y1="121.516" x2="63.0853" y2="-7.25548" gradientUnits="userSpaceOnUse">
<stop stop-color="#ED7225"/>
<stop offset="0.17" stop-color="#FDC80A"/>
<stop offset="0.45" stop-color="#047F45"/>
<stop offset="0.76" stop-color="#0C98CA"/>
<stop offset="0.97" stop-color="white"/>
</linearGradient>
<linearGradient id="paint3_linear_321_6949" x1="15.575" y1="120.775" x2="17.685" y2="-8.00521" gradientUnits="userSpaceOnUse">
<stop stop-color="#ED7225"/>
<stop offset="0.17" stop-color="#FDC80A"/>
<stop offset="0.45" stop-color="#047F45"/>
<stop offset="0.76" stop-color="#0C98CA"/>
<stop offset="0.97" stop-color="white"/>
</linearGradient>
<linearGradient id="paint4_linear_321_6949" x1="16.325" y1="120.785" x2="18.435" y2="-7.99507" gradientUnits="userSpaceOnUse">
<stop stop-color="#ED7225"/>
<stop offset="0.17" stop-color="#FDC80A"/>
<stop offset="0.45" stop-color="#047F45"/>
<stop offset="0.76" stop-color="#0C98CA"/>
<stop offset="0.97" stop-color="white"/>
</linearGradient>
<linearGradient id="paint5_linear_321_6949" x1="2.45502" y1="120.557" x2="4.56509" y2="-8.2156" gradientUnits="userSpaceOnUse">
<stop stop-color="#ED7225"/>
<stop offset="0.17" stop-color="#FDC80A"/>
<stop offset="0.45" stop-color="#047F45"/>
<stop offset="0.76" stop-color="#0C98CA"/>
<stop offset="0.97" stop-color="white"/>
</linearGradient>
<linearGradient id="paint6_linear_321_6949" x1="29.7551" y1="121.007" x2="31.8652" y2="-7.77559" gradientUnits="userSpaceOnUse">
<stop stop-color="#ED7225"/>
<stop offset="0.17" stop-color="#FDC80A"/>
<stop offset="0.45" stop-color="#047F45"/>
<stop offset="0.76" stop-color="#0C98CA"/>
<stop offset="0.97" stop-color="white"/>
</linearGradient>
<linearGradient id="paint7_linear_321_6949" x1="6.67512" y1="120.628" x2="8.78528" y2="-8.14649" gradientUnits="userSpaceOnUse">
<stop stop-color="#ED7225"/>
<stop offset="0.17" stop-color="#FDC80A"/>
<stop offset="0.45" stop-color="#047F45"/>
<stop offset="0.76" stop-color="#0C98CA"/>
<stop offset="0.97" stop-color="white"/>
</linearGradient>
<linearGradient id="paint8_linear_321_6949" x1="25.5348" y1="120.935" x2="27.6448" y2="-7.83519" gradientUnits="userSpaceOnUse">
<stop stop-color="#ED7225"/>
<stop offset="0.17" stop-color="#FDC80A"/>
<stop offset="0.45" stop-color="#047F45"/>
<stop offset="0.76" stop-color="#0C98CA"/>
<stop offset="0.97" stop-color="white"/>
</linearGradient>
<linearGradient id="paint9_linear_321_6949" x1="6.2049" y1="120.628" x2="8.31501" y2="-8.15568" gradientUnits="userSpaceOnUse">
<stop stop-color="#ED7225"/>
<stop offset="0.17" stop-color="#FDC80A"/>
<stop offset="0.45" stop-color="#047F45"/>
<stop offset="0.76" stop-color="#0C98CA"/>
<stop offset="0.97" stop-color="white"/>
</linearGradient>
<linearGradient id="paint10_linear_321_6949" x1="26.0051" y1="120.944" x2="28.1151" y2="-7.83475" gradientUnits="userSpaceOnUse">
<stop stop-color="#ED7225"/>
<stop offset="0.17" stop-color="#FDC80A"/>
<stop offset="0.45" stop-color="#047F45"/>
<stop offset="0.76" stop-color="#0C98CA"/>
<stop offset="0.97" stop-color="white"/>
</linearGradient>
<linearGradient id="paint11_linear_321_6949" x1="53.5451" y1="121.395" x2="55.6551" y2="-7.3853" gradientUnits="userSpaceOnUse">
<stop stop-color="#ED7225"/>
<stop offset="0.17" stop-color="#FDC80A"/>
<stop offset="0.45" stop-color="#047F45"/>
<stop offset="0.76" stop-color="#0C98CA"/>
<stop offset="0.97" stop-color="white"/>
</linearGradient>
<linearGradient id="paint12_linear_321_6949" x1="95.2652" y1="122.615" x2="96.5352" y2="45.6451" gradientUnits="userSpaceOnUse">
<stop stop-color="#ED7225"/>
<stop offset="0.17" stop-color="#FDC80A"/>
<stop offset="0.45" stop-color="#047F45"/>
<stop offset="0.76" stop-color="#0C98CA"/>
<stop offset="0.97" stop-color="white"/>
</linearGradient>
<linearGradient id="paint13_linear_321_6949" x1="108.985" y1="136.325" x2="110.245" y2="59.3551" gradientUnits="userSpaceOnUse">
<stop stop-color="#ED7225"/>
<stop offset="0.17" stop-color="#FDC80A"/>
<stop offset="0.45" stop-color="#047F45"/>
<stop offset="0.76" stop-color="#0C98CA"/>
<stop offset="0.97" stop-color="white"/>
</linearGradient>
</defs>
</svg>
