<svg width="54" height="52" viewBox="0 0 54 52" fill="none" xmlns="http://www.w3.org/2000/svg">
<path d="M33.555 16.0449C31.395 16.0449 29.645 17.8048 29.645 19.9548C29.645 22.1048 31.405 23.865 33.555 23.865C35.705 23.865 37.465 22.1048 37.465 19.9548C37.465 17.8048 35.705 16.0449 33.555 16.0449ZM33.555 21.3848C32.775 21.3848 32.135 20.7448 32.135 19.9648C32.135 19.1848 32.775 18.5449 33.555 18.5449C34.335 18.5449 34.975 19.1848 34.975 19.9648C34.975 20.7448 34.335 21.3848 33.555 21.3848Z" fill="url(#paint0_linear_321_6973)"/>
<path d="M52.645 30.6648L42.885 20.9048L45.645 18.1448C46.355 17.4348 46.755 16.4848 46.755 15.4748C46.755 14.4648 46.365 13.5149 45.645 12.8049L40.555 7.71483C39.125 6.28483 36.645 6.29483 35.215 7.71483L32.015 10.9148L22.335 1.23485C21.155 0.0548536 19.105 0.0548536 17.925 1.23485L14.555 4.60497C13.965 5.19497 13.645 5.97492 13.645 6.80492C13.645 7.63492 13.965 8.42487 14.555 9.00487L24.235 18.6848L21.945 20.9748C21.235 21.6848 20.835 22.6348 20.835 23.6448C20.835 24.6548 21.225 25.6049 21.945 26.3149L27.035 31.4048C27.745 32.1148 28.695 32.5149 29.705 32.5149C30.715 32.5149 31.665 32.1248 32.375 31.4048L35.105 28.6748L44.865 38.4348C45.455 39.0248 46.235 39.345 47.065 39.345C47.895 39.345 48.675 39.0248 49.265 38.4348L52.635 35.0649C53.225 34.4749 53.545 33.695 53.545 32.865C53.545 32.035 53.225 31.2448 52.635 30.6648H52.645ZM25.835 16.5449L22.425 13.1348L26.425 9.05492L29.865 12.4949L25.825 16.5349L25.835 16.5449ZM19.265 9.97484L23.265 5.89477L24.565 7.19481L20.565 11.2749L19.265 9.97484ZM16.295 6.81493C16.295 6.74493 16.315 6.60485 16.435 6.48485L19.805 3.11498C19.925 2.99498 20.065 2.97484 20.135 2.97484C20.205 2.97484 20.345 2.99498 20.465 3.11498L21.385 4.0349L17.385 8.11498L16.425 7.15478C16.305 7.03478 16.285 6.89494 16.285 6.82494L16.295 6.81493ZM30.625 29.6548C30.125 30.1548 29.315 30.1548 28.805 29.6548L23.715 24.5649C23.215 24.0649 23.215 23.2549 23.715 22.7449L36.975 9.48485C37.225 9.23485 37.555 9.10497 37.885 9.10497C38.215 9.10497 38.545 9.23485 38.795 9.48485L43.885 14.5749C44.385 15.0749 44.385 15.8848 43.885 16.3948L30.625 29.6548ZM42.655 32.4849L46.655 28.4048L47.955 29.7048L43.955 33.7849L42.655 32.4849ZM41.385 23.1348L44.795 26.5449L40.795 30.625L37.355 27.1848L41.395 23.1448L41.385 23.1348ZM50.785 33.2048L47.415 36.5749C47.175 36.8149 46.985 36.8149 46.745 36.5749L45.825 35.6548L49.825 31.5749L50.785 32.5349C50.905 32.6549 50.925 32.795 50.925 32.865C50.925 32.935 50.905 33.0748 50.785 33.1948V33.2048Z" fill="url(#paint1_linear_321_6973)"/>
<path d="M15.9351 27.005C14.0551 27.175 12.365 27.9651 10.925 29.3551L9.95508 30.295L22.6351 42.8651L23.475 41.3151C23.515 41.2451 24.3551 39.675 24.8251 37.535C25.4351 34.785 24.6851 31.895 22.8251 29.785C21.0551 27.775 18.5351 26.765 15.9351 27.005ZM22.235 36.975C22.125 37.485 21.9851 37.9651 21.8451 38.3751L13.8251 30.4249C14.5451 29.9749 15.325 29.7249 16.175 29.6449C17.935 29.4849 19.6351 30.175 20.8451 31.545C22.1451 33.025 22.6651 35.055 22.2451 36.975H22.235Z" fill="url(#paint2_linear_321_6973)"/>
<path d="M15.275 44.0448C8.63501 42.3248 8.80499 38.0048 8.81499 37.7948C8.86499 37.0748 8.33496 36.4449 7.60496 36.3749C6.85496 36.3049 6.23497 36.8549 6.17497 37.5849C5.98497 39.8949 7.49496 44.7549 14.605 46.5949C14.715 46.6249 14.825 46.6347 14.935 46.6347C15.525 46.6347 16.055 46.2447 16.215 45.6447C16.395 44.9347 15.975 44.2148 15.265 44.0348L15.275 44.0448Z" fill="url(#paint3_linear_321_6973)"/>
<path d="M14.1249 48.6447C4.07494 47.2347 3.43492 38.7048 3.41492 38.3248C3.37492 37.5948 2.73497 37.0248 2.02497 37.0748C1.29497 37.1148 0.734965 37.7347 0.774965 38.4647C0.774965 38.5747 1.50495 49.5448 13.7549 51.2548C13.8149 51.2548 13.8749 51.2648 13.9349 51.2648C14.5849 51.2648 15.1449 50.7849 15.2449 50.1249C15.3449 49.4049 14.8449 48.7346 14.1149 48.6346L14.1249 48.6447Z" fill="url(#paint4_linear_321_6973)"/>
<path d="M14.415 40.235L14.445 40.2049C14.995 39.7149 15.025 38.8951 14.545 38.3551C14.065 37.8051 13.215 37.775 12.665 38.255C12.115 38.735 12.075 39.5751 12.555 40.1251C12.815 40.4151 13.175 40.565 13.545 40.565C13.855 40.565 14.175 40.455 14.425 40.235H14.415Z" fill="url(#paint5_linear_321_6973)"/>
<defs>
<linearGradient id="paint0_linear_321_6973" x1="4.915" y1="49.8852" x2="52.0654" y2="0.635155" gradientUnits="userSpaceOnUse">
<stop stop-color="#ED7225"/>
<stop offset="0.17" stop-color="#FDC80A"/>
<stop offset="0.45" stop-color="#047F45"/>
<stop offset="0.76" stop-color="#0C98CA"/>
<stop offset="0.97" stop-color="white"/>
</linearGradient>
<linearGradient id="paint1_linear_321_6973" x1="4.87503" y1="49.855" x2="52.0252" y2="0.595025" gradientUnits="userSpaceOnUse">
<stop stop-color="#ED7225"/>
<stop offset="0.17" stop-color="#FDC80A"/>
<stop offset="0.45" stop-color="#047F45"/>
<stop offset="0.76" stop-color="#0C98CA"/>
<stop offset="0.97" stop-color="white"/>
</linearGradient>
<linearGradient id="paint2_linear_321_6973" x1="4.19508" y1="49.2051" x2="51.3454" y2="-0.0548519" gradientUnits="userSpaceOnUse">
<stop stop-color="#ED7225"/>
<stop offset="0.17" stop-color="#FDC80A"/>
<stop offset="0.45" stop-color="#047F45"/>
<stop offset="0.76" stop-color="#0C98CA"/>
<stop offset="0.97" stop-color="white"/>
</linearGradient>
<linearGradient id="paint3_linear_321_6973" x1="4.01496" y1="49.0246" x2="51.1638" y2="-0.225513" gradientUnits="userSpaceOnUse">
<stop stop-color="#ED7225"/>
<stop offset="0.17" stop-color="#FDC80A"/>
<stop offset="0.45" stop-color="#047F45"/>
<stop offset="0.76" stop-color="#0C98CA"/>
<stop offset="0.97" stop-color="white"/>
</linearGradient>
<linearGradient id="paint4_linear_321_6973" x1="3.68496" y1="48.7148" x2="50.8348" y2="-0.545111" gradientUnits="userSpaceOnUse">
<stop stop-color="#ED7225"/>
<stop offset="0.17" stop-color="#FDC80A"/>
<stop offset="0.45" stop-color="#047F45"/>
<stop offset="0.76" stop-color="#0C98CA"/>
<stop offset="0.97" stop-color="white"/>
</linearGradient>
<linearGradient id="paint5_linear_321_6973" x1="4.09495" y1="49.1051" x2="51.2452" y2="-0.145061" gradientUnits="userSpaceOnUse">
<stop stop-color="#ED7225"/>
<stop offset="0.17" stop-color="#FDC80A"/>
<stop offset="0.45" stop-color="#047F45"/>
<stop offset="0.76" stop-color="#0C98CA"/>
<stop offset="0.97" stop-color="white"/>
</linearGradient>
</defs>
</svg>
