<svg width="316" height="101" viewBox="0 0 316 101" fill="none" xmlns="http://www.w3.org/2000/svg">
<path fill-rule="evenodd" clip-rule="evenodd" d="M5.48993 51.1927C11.4299 -2.60734 95.01 43.8131 0.219971 100.113C35.63 74.1831 15.4399 23.6527 5.48993 51.1927Z" fill="#223F99"/>
<path fill-rule="evenodd" clip-rule="evenodd" d="M5.48993 51.1925C8.18993 -12.1275 102.84 45.8927 0.219971 100.103C44.53 68.5627 17.5599 18.4425 5.48993 51.1925Z" fill="url(#paint0_linear_321_6774)"/>
<path fill-rule="evenodd" clip-rule="evenodd" d="M40.0299 15.2127C79.9399 -32.4673 137.15 46.133 35.8599 82.533C65.4099 64.783 74.8799 -0.427345 40.0299 15.2127Z" fill="url(#paint1_linear_321_6774)"/>
<path fill-rule="evenodd" clip-rule="evenodd" d="M40.0299 15.2129C40.6299 14.5029 41.2199 13.8228 41.8299 13.1728C41.2299 13.8228 40.6299 14.5029 40.0299 15.2129ZM35.8599 82.5229C65.4099 64.7729 74.8799 -0.436907 40.0299 15.2031C68.3899 6.39309 57.3099 66.8729 35.8599 82.5229Z" fill="#007D41"/>
<path fill-rule="evenodd" clip-rule="evenodd" d="M142.5 65.7629C146.58 65.7629 149.85 63.2527 151.82 59.7927C152.95 57.8027 153.58 55.6728 153.79 53.4128C153.93 51.9528 154.03 50.3229 154.1 48.4929C154.17 46.6729 154.19 44.7326 154.16 42.6926C154.12 40.6526 154.06 38.6928 153.97 36.8328C153.88 34.9628 153.74 33.2727 153.55 31.7527C153.36 30.2327 153.14 29.0426 152.89 28.1726C152.51 26.8726 151.9 25.6128 151.06 24.3928C150.23 23.1728 149.24 22.1029 148.1 21.2029C146.18 19.6729 144.16 18.5028 142.06 17.9128C139.96 17.3228 137.86 17.033 135.78 17.033H109.2L109.24 65.8328L142.51 65.7629H142.5ZM123.69 55.863L123.71 25.9529H134.34C134.95 25.9529 135.53 26.0928 136.09 26.3728C136.65 26.6528 137.17 27.0227 137.65 27.4827C138.13 27.9427 138.55 28.4529 138.91 29.0129C139.27 29.5729 139.53 30.1228 139.68 30.6428C140.3 32.7428 140.37 39.4627 140.31 41.7527C140.27 43.3827 140.2 44.9231 140.11 46.3831C140.02 47.8331 139.91 49.1229 139.81 50.2229C139.7 51.3329 139.6 52.0829 139.49 52.4729C139.29 53.1229 139.07 53.6628 138.83 54.1028C138.59 54.5328 138.23 54.8828 137.77 55.1428C137.3 55.4028 136.68 55.5926 135.91 55.6926C135.14 55.8026 134.17 55.8528 132.99 55.8528H123.67L123.69 55.863Z" fill="#005D97"/>
<path fill-rule="evenodd" clip-rule="evenodd" d="M159.01 17.033L159.16 53.9729C159.16 56.1129 159.94 57.5929 160.71 58.9529C161.48 60.3229 162.44 61.4726 163.58 62.4026C164.72 63.3326 165.99 64.0728 167.4 64.6228C170.28 65.7328 173.37 66.2531 176.45 66.3831C178.03 66.4431 179.34 66.4827 180.82 66.4827C182.82 66.4827 184.14 66.5131 186.55 66.3831C188.96 66.2531 193.48 65.5231 195.6 64.6331C197.37 63.8931 197.82 63.6526 199.42 62.4226C200.21 61.8026 201.5 60.4429 202.29 58.9729C203.15 57.3729 203.85 55.743 203.84 54.053L203.57 16.9827H188.91C188.78 16.9827 188.7 17.003 188.67 17.053L188.91 51.5627C188.92 53.3127 187.64 54.513 186.07 55.323C182.91 56.963 178.68 57.003 175.59 55.323C174.11 54.523 173.02 53.353 173.09 51.573L172.84 17.0427H159.03L159.01 17.033Z" fill="#005D97"/>
<path fill-rule="evenodd" clip-rule="evenodd" d="M240.85 65.7629H255.22L245.57 50.6428C246.95 49.7728 248.1 48.6329 249.03 47.2229C249.96 45.8129 250.68 44.3229 251.19 42.7629C251.95 40.5929 252.3 38.2627 252.25 35.7927C252.2 33.3127 251.77 30.7927 250.97 28.2327C250.39 26.3627 249.47 24.733 248.21 23.343C246.95 21.953 245.53 20.8028 243.94 19.8928C242.35 18.9828 240.94 18.2728 239.15 17.8528C237.55 17.4828 234.99 17.0227 233.34 17.0227H209.26V65.7527H223.54V51.9426H232.53L240.83 65.7527L240.85 65.7629ZM223.55 41.9827V26.0227H231.91C232.52 26.0227 233.5 26.1626 234.09 26.4426C234.68 26.7226 235.22 27.093 235.7 27.553C236.19 28.013 236.62 28.5228 236.99 29.0828C237.36 29.6528 237.63 30.1926 237.79 30.7126C238.26 32.2326 238.44 33.6629 238.31 35.0129C237.89 39.5929 235.22 41.9827 230.61 41.9827H223.54H223.55Z" fill="#005D97"/>
<path fill-rule="evenodd" clip-rule="evenodd" d="M271.87 44.3328L271.63 17.033H257.1C257.1 21.813 257.12 26.0131 257.12 29.3831C257.12 32.7531 257.14 35.5728 257.18 37.8528C257.22 40.1328 257.26 41.9427 257.31 43.2927C257.36 44.6427 257.39 45.6929 257.41 46.4529C257.54 51.4329 258.13 56.7129 261.36 60.7229C266.29 66.8329 277.07 66.7029 284.36 66.4929C288.75 66.3629 293.23 65.8827 297.79 65.0627L297.49 53.0129C294.11 53.7529 290.66 54.2529 287.14 54.5129C283.62 54.7729 281.5 54.823 277.57 54.363C275.65 54.133 274.52 53.453 273.91 52.823C271.97 50.823 271.89 46.9628 271.86 44.3528L271.87 44.3328Z" fill="#005D97"/>
<path d="M315.78 17.033H301.26V65.7629H315.78V17.033Z" fill="#005D97"/>
<path fill-rule="evenodd" clip-rule="evenodd" d="M213.39 96.9626H209.26V75.573H213.39V96.9626ZM225.35 87.613C225.3 86.443 224.97 85.5829 224.34 85.0129C223.71 84.4529 222.98 84.1726 222.16 84.1726C221.34 84.1726 220.59 84.4727 219.99 85.0627C219.39 85.6627 219.05 86.5028 218.96 87.6028H225.35V87.613ZM218.82 90.2229C218.89 91.3829 219.23 92.3127 219.85 93.0227C220.47 93.7327 221.29 94.073 222.33 94.073C222.99 94.073 223.59 93.9228 224.12 93.6028C224.65 93.2828 224.99 92.8728 225.15 92.3528H229.41C228.93 93.9528 228.08 95.1927 226.87 96.0627C225.66 96.9327 224.21 97.3728 222.54 97.3728C217.31 97.3728 214.7 94.533 214.7 88.843C214.7 86.413 215.35 84.473 216.66 83.033C217.97 81.593 219.83 80.863 222.26 80.863C227.16 80.863 229.62 83.9826 229.62 90.2126H218.82V90.2229ZM240.41 89.2927C240 89.6327 239.27 89.9128 238.24 90.1228C236.82 90.3928 235.86 90.7228 235.35 91.1028C234.85 91.4828 234.59 92.0028 234.59 92.6628C234.59 93.8328 235.21 94.4128 236.45 94.4128C236.98 94.4128 237.49 94.3326 237.98 94.1926C238.47 94.0426 238.9 93.8227 239.27 93.5227C239.64 93.2227 239.93 92.8431 240.15 92.3831C240.37 91.9231 240.48 91.393 240.48 90.803C240.48 90.623 240.48 90.3627 240.46 90.0427C240.45 89.7227 240.43 89.473 240.41 89.283V89.2927ZM237.87 80.8728C240.09 80.8728 241.76 81.4029 242.87 82.4529C243.98 83.5029 244.54 85.0427 244.54 87.0627V96.9626H240.69C240.64 96.7826 240.6 96.5831 240.55 96.3831C240.5 96.1731 240.47 95.9426 240.45 95.6926C239.95 96.2226 239.29 96.6131 238.49 96.8831C237.69 97.1431 236.76 97.283 235.71 97.283C234.13 97.283 232.86 96.893 231.91 96.113C230.96 95.333 230.48 94.2531 230.48 92.8831C230.48 91.8031 230.66 90.943 231.01 90.303C231.37 89.663 231.86 89.1527 232.51 88.7927C233.15 88.4227 233.91 88.1529 234.8 87.9729C235.68 87.7929 236.64 87.6329 237.67 87.4929C238.5 87.3829 239.14 87.1926 239.61 86.9426C240.08 86.6926 240.31 86.3328 240.31 85.8728C240.31 85.2728 240.04 84.833 239.48 84.533C238.93 84.233 238.32 84.0828 237.66 84.0828C236.93 84.0828 236.31 84.2929 235.82 84.7229C235.33 85.1429 235.03 85.7126 234.94 86.4226H230.99C231.13 84.6826 231.72 83.3228 232.78 82.3528C233.83 81.3828 235.53 80.8928 237.87 80.8928V80.8728ZM258.91 84.2429H250.31V90.7029C250.31 91.6929 250.49 92.4529 250.86 92.9929C251.23 93.5329 251.83 93.803 252.67 93.803C253.51 93.803 254.09 93.5429 254.48 93.0129C254.86 92.4829 255.06 91.7329 255.06 90.7429V86.6526H258.91V91.1526C258.91 91.9826 258.79 92.7727 258.55 93.5227C258.31 94.2827 257.93 94.9429 257.42 95.5129C256.9 96.0829 256.25 96.5428 255.44 96.8928C254.64 97.2328 253.69 97.4128 252.59 97.4128C251.49 97.4128 250.47 97.2428 249.67 96.8928C248.87 96.5528 248.21 96.0929 247.69 95.5129C247.17 94.9429 246.8 94.2727 246.56 93.5227C246.32 92.7627 246.2 91.963 246.2 91.113V77.053H250.33V81.283H258.93V84.2429H258.91ZM264.69 83.3528C265.01 82.6428 265.6 82.0528 266.46 81.5828C267.31 81.1128 268.27 80.8831 269.32 80.8831C270.92 80.8831 272.22 81.3229 273.23 82.2029C274.23 83.0829 274.74 84.3226 274.74 85.9026V96.9729H270.61V87.2727C270.61 86.0827 270.4 85.2628 269.99 84.8328C269.58 84.4028 268.89 84.1829 267.93 84.1829C266.9 84.1829 266.1 84.553 265.54 85.303C264.98 86.043 264.7 86.9427 264.7 88.0027V96.9729H260.57V75.5828H264.7V83.3528H264.69ZM286.73 87.613C286.68 86.443 286.35 85.5829 285.72 85.0129C285.09 84.4529 284.36 84.1726 283.54 84.1726C282.72 84.1726 281.97 84.4727 281.37 85.0627C280.77 85.6627 280.43 86.5028 280.34 87.6028H286.74L286.73 87.613ZM280.2 90.2229C280.27 91.3829 280.61 92.3127 281.23 93.0227C281.85 93.7327 282.67 94.073 283.71 94.073C284.38 94.073 284.97 93.9228 285.5 93.6028C286.03 93.2828 286.37 92.8728 286.53 92.3528H290.79C290.31 93.9528 289.46 95.1927 288.25 96.0627C287.04 96.9327 285.59 97.3728 283.92 97.3728C278.69 97.3728 276.08 94.533 276.08 88.843C276.08 86.413 276.73 84.473 278.04 83.033C279.35 81.593 281.21 80.863 283.64 80.863C288.55 80.863 291 83.9826 291 90.2126H280.2V90.2229ZM301.34 85.1331C300.95 85.0631 300.57 85.033 300.21 85.033C297.67 85.033 296.39 86.2927 296.39 88.8127V96.9626H292.26V81.283H296.15V83.1726C296.49 82.6426 296.85 82.2329 297.22 81.9329C297.59 81.6329 297.97 81.4029 298.35 81.2429C298.74 81.0829 299.14 80.9829 299.55 80.9529C299.96 80.9229 300.37 80.9026 300.79 80.9026H301.34V85.1331ZM311.24 86.0227C311.03 84.6427 310.11 83.9626 308.46 83.9626C307.8 83.9626 307.22 84.1028 306.72 84.3928C306.23 84.6828 305.98 85.0529 305.98 85.5129C305.98 86.1329 306.83 86.6129 308.52 86.9529C311 87.5029 312.58 87.9429 313.26 88.2629C314.93 89.0829 315.77 90.3126 315.77 91.9426C315.77 93.7326 315.13 95.093 313.86 96.033C312.59 96.973 310.91 97.4426 308.82 97.4426C307.79 97.4426 306.82 97.3127 305.91 97.0427C305 96.7827 304.22 96.4026 303.55 95.9226C302.88 95.4426 302.36 94.8629 301.97 94.1829C301.58 93.5029 301.37 92.7529 301.35 91.9329H305.61C305.61 92.6629 305.9 93.2426 306.47 93.6726C307.04 94.0926 307.81 94.3127 308.77 94.3127C309.55 94.3127 310.22 94.1628 310.78 93.8528C311.34 93.5428 311.62 93.1528 311.62 92.6628C311.62 92.3828 311.41 92.1128 311 91.8328C310.59 91.5528 309.96 91.3328 309.11 91.1428C306.66 90.5728 305.1 90.123 304.43 89.803C302.76 89.023 301.92 87.783 301.92 86.093C301.92 85.403 302.06 84.7428 302.33 84.1028C302.6 83.4628 303.02 82.8926 303.57 82.4026C304.12 81.9126 304.81 81.5126 305.65 81.2126C306.49 80.9126 307.48 80.7629 308.62 80.7629C309.54 80.7629 310.4 80.8928 311.2 81.1428C312 81.3928 312.7 81.7526 313.28 82.2126C313.86 82.6726 314.33 83.2231 314.69 83.8831C315.05 84.5331 315.25 85.253 315.29 86.033H311.2L311.24 86.0227Z" fill="#007D41"/>
<defs>
<linearGradient id="paint0_linear_321_6774" x1="24.49" y1="71.0427" x2="9.69993" y2="45.4326" gradientUnits="userSpaceOnUse">
<stop stop-color="#007D41"/>
<stop offset="0.18" stop-color="#69A765"/>
<stop offset="0.38" stop-color="#0075BE"/>
<stop offset="0.59" stop-color="#00ADEE"/>
<stop offset="1" stop-color="#223F99"/>
</linearGradient>
<linearGradient id="paint1_linear_321_6774" x1="72.0599" y1="64.5429" x2="41.1397" y2="11.0028" gradientUnits="userSpaceOnUse">
<stop stop-color="#007D41"/>
<stop offset="0.2" stop-color="#007D41"/>
<stop offset="0.35" stop-color="#A5CD39"/>
<stop offset="0.54" stop-color="#FFCA05"/>
<stop offset="0.64" stop-color="#FFCA05"/>
<stop offset="0.87" stop-color="#F26F21"/>
<stop offset="1" stop-color="#F26F21"/>
</linearGradient>
</defs>
</svg>
