<svg width="170" height="193" viewBox="0 0 170 193" fill="none" xmlns="http://www.w3.org/2000/svg">
<path d="M45.54 56.4599L34.58 50.1099L36.95 46.0099C38.76 42.8799 42.11 41.7899 45.56 43.7799C49 45.7699 49.72 49.2199 47.91 52.3499L45.54 56.4499V56.4599ZM37.67 49.2299L44.78 53.3499L45.99 51.2499C47.22 49.1199 46.49 47.2499 44.3 45.9799C42.11 44.7099 40.12 44.9999 38.89 47.1299L37.68 49.2299H37.67Z" fill="#009EE2"/>
<path d="M55.81 42.27L55.4 41.92C55.32 42.57 55.01 43.36 54.51 43.86C52.54 45.88 50.54 45.3399 48.71 43.5499L45.23 40.1499L46.8 38.5499L50.28 41.95C51.48 43.13 52.42 43.3099 53.3 42.3999C53.82 41.8699 54 41.2899 53.95 40.6499L49.25 36.0499L50.82 34.45L57.28 40.77L55.81 42.27Z" fill="#009EE2"/>
<path d="M58.31 31.3699L57.63 31.8499C57.03 32.2799 56.73 32.9799 56.82 33.5399L60.41 38.5599L58.59 39.8599L53.33 32.4999L55.04 31.2799L55.64 32.0299C55.74 31.3599 56.12 30.3299 56.96 29.7299L57.45 29.3799L58.33 31.3499L58.31 31.3699Z" fill="#009EE2"/>
<path d="M66.23 35.2599L65.52 35.6499C64.11 36.4199 62.98 35.8299 62.35 34.6899L56.88 24.7199L58.85 23.6399L63.88 32.7999C64.58 34.0699 64.75 33.9699 65.53 33.5499L66.24 35.2599H66.23Z" fill="#009EE2"/>
<path d="M63.26 24.97L62.38 22.91L64.44 22.03L65.32 24.09L63.26 24.97ZM67.35 34.55L63.8 26.24L65.86 25.36L69.41 33.67L67.35 34.55Z" fill="#009EE2"/>
<path d="M74.91 31.7999L72.78 19.3199L75.06 18.9299L76.81 29.1999L81.94 28.3299L82.32 30.5399L74.9 31.7999H74.91Z" fill="#009EE2"/>
<path d="M84.7399 26.61C84.9399 28.3 86.1699 29.02 87.3599 29.06C88.2099 29.09 89.4099 28.78 90.1699 28.4L90.2199 30.3C89.5199 30.64 88.4599 30.93 87.1799 30.9C83.9099 30.8 82.3499 28.6 82.4299 26.07C82.5099 23.56 84.1299 21.44 86.9099 21.52C89.1899 21.59 90.8399 23.18 90.7699 25.56C90.7599 25.96 90.6899 26.35 90.5899 26.78L84.7499 26.6L84.7399 26.61ZM84.8399 25.09L88.4899 25.2C88.5099 24.39 88.1299 23.4 86.9199 23.36C85.7599 23.32 85.0899 24.06 84.8399 25.09Z" fill="#009EE2"/>
<path d="M98.85 32.89L98.06 32.71C97.07 32.48 96.51 31.93 96.32 31.24C95.59 31.76 94.45 31.89 93.39 31.64C91.98 31.32 91.06 30.08 91.44 28.41C92.01 25.93 95.45 26.06 97.12 26.39C97.3 25.37 96.99 24.84 95.87 24.58C95.08 24.4 94.34 24.45 93.3 24.7L93.51 22.88C94.68 22.61 95.8 22.59 96.89 22.84C98.86 23.29 99.85 24.56 99.27 27.11L98.72 29.49C98.42 30.81 98.54 30.93 99.17 31.08L99.45 31.14L98.84 32.89H98.85ZM96.79 27.87C95.54 27.64 93.99 27.8 93.75 28.84C93.58 29.56 93.86 29.98 94.69 30.17C95.08 30.26 95.77 30.21 96.33 29.88L96.79 27.87Z" fill="#009EE2"/>
<path d="M103.79 35.0499L102.3 34.4399C100.73 33.7899 100.51 32.4099 100.96 31.3299L102.87 26.6999L101.68 26.2099L102.57 24.5799L103.57 24.9899L104.33 23.1499L106.49 23.7899L105.64 25.8499L107.48 26.6099L106.78 28.3099L104.94 27.5499L103.38 31.3299C102.86 32.5999 102.93 32.7099 104.1 33.1899L104.67 33.4199L103.78 35.0499H103.79Z" fill="#009EE2"/>
<path d="M109.73 38.3598L112.35 34.2598C113.25 32.8398 113.24 31.8898 112.17 31.2098C111.53 30.7998 110.93 30.7598 110.32 30.9498L106.79 36.4798L104.9 35.2698L112.19 23.8398L114.08 25.0498L111.4 29.2598C112.03 29.2598 112.75 29.3898 113.32 29.7498C115.7 31.2698 115.61 33.3098 114.24 35.4598L111.62 39.5598L109.73 38.3498V38.3598Z" fill="#009EE2"/>
<path d="M116.79 38.86C115.79 40.23 116.19 41.6 117.04 42.44C117.64 43.04 118.74 43.63 119.54 43.87L118.28 45.3C117.54 45.07 116.56 44.57 115.65 43.67C113.32 41.37 113.68 38.7 115.46 36.9C117.23 35.11 119.86 34.66 121.84 36.62C123.46 38.22 123.59 40.51 121.91 42.21C121.63 42.49 121.31 42.74 120.94 42.98L116.78 38.88L116.79 38.86ZM117.9 37.82L120.5 40.39C121.07 39.81 121.46 38.82 120.6 37.97C119.78 37.16 118.78 37.24 117.9 37.82Z" fill="#009EE2"/>
<path d="M127.26 46.5598L126.78 45.8798C126.35 45.2798 125.64 44.9798 125.09 45.0698L120.08 48.6698L118.77 46.8498L126.11 41.5698L127.33 43.2698L126.58 43.8698C127.25 43.9698 128.28 44.3398 128.88 45.1798L129.23 45.6698L127.26 46.5498V46.5598Z" fill="#009EE2"/>
<path d="M122.26 50.8899L124.06 50.1899C123.93 50.8899 124.06 52.1799 124.53 53.0799C125.02 54.0499 125.64 54.0599 126.04 53.8499C126.72 53.4999 126.59 52.6999 126.42 51.7799C126.18 50.4799 125.94 49.0999 127.49 48.3099C128.62 47.7299 130.4 47.6799 131.56 49.9399C132.1 50.9899 132.33 52.1899 132.26 52.7699L130.46 53.4699C130.66 52.8599 130.65 51.6899 130.2 50.8199C129.85 50.1299 129.27 49.6099 128.63 49.9399C127.86 50.3399 128.15 51.2199 128.38 52.3799C128.63 53.6199 128.7 54.9999 127.05 55.8499C126.07 56.3499 124.48 56.6599 123.07 53.9099C122.43 52.6599 122.21 51.5099 122.27 50.8899H122.26Z" fill="#009EE2"/>
<path d="M84.19 113.1L82.67 110C82.62 109.9 81.37 107.45 78.27 105.04C74.22 101.9 69.07 100.35 62.96 100.44H61.94L53.45 89.5801L55.09 88.2101C55.17 88.1501 62.87 81.5401 63.12 73.0101C63.27 68.1601 60.98 63.4601 56.34 59.0301L55.55 58.2801L57.24 43.6501L59.01 43.5501C66.83 43.1201 76.02 40.8601 77.22 37.9401L77.77 36.6201H90.83L91.45 37.2501C91.45 37.2501 93.39 39.2001 96.53 41.0301C99.38 42.6901 103.85 44.5901 108.98 44.2601L110.45 44.1601L115.38 55.9301L113.77 56.9101C113.77 56.9101 111.4 58.3801 109.16 61.0801C106.25 64.5901 104.89 68.4601 105.13 72.5601C105.73 82.7201 113.6 88.5101 113.68 88.5701L115.42 89.8101L107.43 101.74L106.19 101.6C106.06 101.59 93.5 100.37 86.25 110.3L84.2299 113.08L84.19 113.1ZM63.44 98.7201C78.77 98.7201 83.99 108.8 84.21 109.24L84.4799 109.79L84.82 109.32C88.04 104.91 92.7699 101.88 98.4799 100.57C102.9 99.5601 106.31 99.9201 106.35 99.9201L106.55 99.9401L113.03 90.2701L112.65 90.0001C112.57 89.9401 104.04 83.7801 103.38 72.6901C102.73 61.6901 112.75 55.5201 112.85 55.4601L113.19 55.2501L109.31 45.9801L109.06 46.0001C104.65 46.2801 100 45.0801 95.62 42.5301C92.29 40.5901 90.28 38.5601 90.2 38.4701L90.09 38.3601H78.91L78.8 38.6201C77.98 40.5901 75.22 42.2301 70.59 43.4801C67.2 44.4001 62.9 45.0801 59.09 45.2901L58.77 45.3101L57.35 57.6401L57.52 57.8001C62.54 62.5701 65 67.7101 64.84 73.0801C64.73 76.9301 63.2 80.9901 60.44 84.8201C58.33 87.7401 56.28 89.4801 56.2 89.5501L55.84 89.8501L62.78 98.7401H62.95C63.12 98.7401 63.29 98.7401 63.46 98.7401L63.44 98.7201Z" fill="#005693"/>
<path d="M71.2499 86.3099L70.4399 86.2799L69.8899 86.2999V86.2599L68.0699 86.1999L67.4199 80.1899L65.9999 78.0099L65.0199 67.0799L67.5299 62.7099L71.4799 62.1399L75.6999 62.9299L89.3099 63.5399H89.3399L95.4599 64.2799L96.3199 62.9599L98.1099 62.8999L99.3399 63.3799L103.65 64.0099L102.22 64.8199L102.77 65.0199L101.53 66.8999L103.12 69.8599L102.13 72.1999L96.5199 72.7099L92.7799 76.4899L91.4799 79.9699L91.9699 85.6399L90.7499 85.6799V85.8799L87.1399 86.1399L85.9099 77.3699L76.9299 76.3699L72.7399 77.9999L72.0499 79.0499L73.2899 86.1699L71.2299 86.2499V86.3099H71.2499ZM76.7099 74.5699L87.4899 75.7699L88.6899 84.2599L88.9099 84.2399L88.6399 80.2699L89.7499 80.1699L89.7099 79.7199L91.2899 75.5099L95.7599 70.9999L100.95 70.5199L101.2 69.9299L99.5099 66.7899L100.1 65.8999L98.0699 65.1499L98.4899 64.9099L97.8399 64.6499L97.3399 64.6699L96.3799 66.1399L89.1999 65.2799L75.5299 64.6699H75.4699L71.4799 63.9099L68.6799 64.3199L66.8799 67.4599L67.2199 71.2699L68.2799 71.2299L69.2799 80.5899L70.5099 80.3799L70.5899 80.7799L70.2199 78.6399L71.5999 76.5299L76.7299 74.5399L76.7099 74.5699Z" fill="#005693"/>
<path d="M149.6 106.43C149.73 106.5 149.88 106.53 150.02 106.53C150.37 106.53 150.71 106.33 150.88 106C155.9 95.73 158.45 84.72 158.45 73.26C158.45 61.8 155.9 50.79 150.88 40.52C150.65 40.05 150.08 39.85 149.6 40.08C149.13 40.31 148.93 40.88 149.16 41.36C154.05 51.36 156.53 62.09 156.53 73.26C156.53 84.43 154.05 95.16 149.16 105.16C148.93 105.63 149.12 106.2 149.6 106.44V106.43ZM139.75 107.18C140.37 106.2 140.94 105.21 141.51 104.18C152.04 85.15 152.17 62.28 141.87 43.02C141.62 42.56 141.04 42.38 140.58 42.63C140.12 42.88 139.94 43.46 140.19 43.92C150.18 62.62 150.05 84.8 139.84 103.26C139.29 104.26 138.74 105.21 138.12 106.2C137.48 107.31 136.73 108.46 135.88 109.63C133.89 112.39 131.67 114.99 129.29 117.38C129.1 117.57 129.01 117.81 129.01 118.05C129.01 118.3 129.1 118.54 129.29 118.73L141.33 130.77C141.52 130.96 141.76 131.05 142 131.05C142.24 131.05 142.49 130.96 142.67 130.77C143.04 130.4 143.04 129.79 142.67 129.42L131.27 118.02C133.47 115.75 135.55 113.32 137.42 110.74C138.3 109.52 139.09 108.31 139.75 107.18ZM53.2899 9.28C63.2299 4.39 73.9499 1.91 85.1599 1.91C96.3699 1.91 107.06 4.39 117.06 9.28C117.2 9.35 117.34 9.38 117.48 9.38C117.83 9.38 118.17 9.18 118.34 8.85C118.57 8.38 118.38 7.81 117.9 7.57C107.63 2.55 96.6199 0 85.1599 0C73.6999 0 62.6599 2.55 52.4499 7.57C51.9799 7.8 51.7799 8.37 52.0199 8.85C52.2499 9.32 52.8199 9.51 53.2999 9.28H53.2899ZM111.98 153.34C111.98 156.6 109.33 159.26 106.06 159.26C102.79 159.26 100.14 156.61 100.14 153.34C100.14 150.07 102.79 147.42 106.06 147.42C109.33 147.42 111.98 150.07 111.98 153.34ZM110.07 153.34C110.07 151.13 108.27 149.33 106.06 149.33C103.85 149.33 102.05 151.13 102.05 153.34C102.05 155.55 103.85 157.35 106.06 157.35C108.27 157.35 110.07 155.55 110.07 153.34ZM28.3899 153.34C28.3899 156.6 25.7399 159.26 22.4699 159.26C19.1999 159.26 16.5499 156.61 16.5499 153.34C16.5499 150.07 19.1999 147.42 22.4699 147.42C25.7399 147.42 28.3899 150.07 28.3899 153.34ZM26.4799 153.34C26.4799 151.13 24.6799 149.33 22.4699 149.33C20.2599 149.33 18.4599 151.13 18.4599 153.34C18.4599 155.55 20.2599 157.35 22.4699 157.35C24.6799 157.35 26.4799 155.55 26.4799 153.34ZM151.79 150.19L146.8 155.18L143.86 152.24C143.49 151.87 142.88 151.87 142.51 152.24C142.14 152.61 142.14 153.22 142.51 153.59L146.12 157.21C146.3 157.39 146.54 157.49 146.79 157.49C147.04 157.49 147.29 157.39 147.46 157.21L153.12 151.55C153.49 151.18 153.49 150.57 153.12 150.2C152.75 149.83 152.14 149.83 151.77 150.2L151.79 150.19ZM160.38 153.34C160.38 160.25 154.76 165.87 147.85 165.87C140.94 165.87 135.86 160.76 135.37 154.29H118.53C118.04 160.75 112.64 165.87 106.05 165.87C99.4599 165.87 94.0599 160.76 93.5699 154.29H76.7299C76.2399 160.75 70.8399 165.87 64.2499 165.87C57.6599 165.87 52.2599 160.76 51.7699 154.29H34.9299C34.4399 160.75 29.0399 165.87 22.4499 165.87C15.8599 165.87 9.91992 160.25 9.91992 153.34C9.91992 146.43 15.5399 140.81 22.4499 140.81C29.3599 140.81 34.4399 145.92 34.9299 152.38H51.7699C52.2599 145.92 57.6599 140.81 64.2499 140.81C70.8399 140.81 76.2399 145.92 76.7299 152.38H93.5699C94.0599 145.92 99.4599 140.81 106.05 140.81C112.64 140.81 118.04 145.92 118.53 152.38H135.37C135.86 145.92 141.26 140.81 147.85 140.81C154.76 140.81 160.38 146.43 160.38 153.34ZM33.0899 153.34C33.0899 147.48 28.3299 142.72 22.4699 142.72C16.6099 142.72 11.8499 147.48 11.8499 153.34C11.8499 159.2 16.6099 163.96 22.4699 163.96C28.3299 163.96 33.0899 159.2 33.0899 153.34ZM74.8899 153.34C74.8899 147.48 70.1299 142.72 64.2699 142.72C58.4099 142.72 53.6499 147.48 53.6499 153.34C53.6499 159.2 58.4099 163.96 64.2699 163.96C70.1299 163.96 74.8899 159.2 74.8899 153.34ZM116.68 153.34C116.68 147.48 111.92 142.72 106.06 142.72C100.2 142.72 95.4399 147.48 95.4399 153.34C95.4399 159.2 100.2 163.96 106.06 163.96C111.92 163.96 116.68 159.2 116.68 153.34ZM158.48 153.34C158.48 147.48 153.72 142.72 147.86 142.72C142 142.72 137.24 147.48 137.24 153.34C137.24 159.2 142 163.96 147.86 163.96C153.72 163.96 158.48 159.2 158.48 153.34ZM20.3199 106.53C20.4599 106.53 20.5999 106.5 20.7399 106.43C21.2099 106.2 21.4099 105.63 21.1799 105.15C16.2899 95.15 13.8099 84.42 13.8099 73.25C13.8099 62.08 16.2899 51.35 21.1799 41.35C21.4099 40.88 21.2199 40.31 20.7399 40.07C20.2699 39.84 19.6999 40.04 19.4599 40.51C14.4399 50.77 11.8899 61.79 11.8899 73.25C11.8899 84.71 14.4399 95.72 19.4599 105.99C19.6299 106.33 19.9599 106.52 20.3199 106.52V106.53ZM54.2299 16.91C53.7699 17.16 53.5999 17.74 53.8499 18.2C54.0999 18.66 54.6799 18.83 55.1399 18.58C73.6699 8.42 95.8699 8.28 114.53 18.21C115.61 18.76 116.75 19.41 118.11 20.25C119.24 20.98 120.39 21.73 121.53 22.56C124.29 24.55 126.89 26.77 129.28 29.15C129.47 29.34 129.71 29.43 129.95 29.43C130.19 29.43 130.44 29.34 130.62 29.15C130.62 29.15 130.63 29.13 130.64 29.12L142.66 17.1C143.03 16.73 143.03 16.12 142.66 15.75C142.29 15.38 141.68 15.38 141.31 15.75L129.91 27.15C127.64 24.95 125.22 22.87 122.64 21.01C121.47 20.16 120.27 19.37 119.12 18.63C117.7 17.76 116.52 17.08 115.4 16.51C96.1899 6.28 73.3099 6.42 54.2099 16.9L54.2299 16.91ZM113.87 128.68C95.6299 138.15 73.9099 138.02 55.7799 128.33C54.5699 127.68 53.3899 127 52.2099 126.27C50.9299 125.49 49.8199 124.75 48.7899 124C46.0599 122.03 43.4699 119.83 41.0999 117.46C41.0799 117.44 41.0699 117.41 41.0499 117.39C40.6799 117.02 40.0699 117.02 39.6999 117.39L27.6599 129.43C27.2899 129.8 27.2899 130.41 27.6599 130.78C27.8499 130.97 28.0899 131.06 28.3299 131.06C28.5699 131.06 28.8199 130.97 28.9999 130.78L40.3799 119.4C42.6499 121.61 45.0799 123.69 47.6599 125.55C48.7299 126.33 49.8899 127.11 51.2099 127.91C52.4199 128.66 53.6299 129.35 54.8699 130.02C64.3299 135.08 74.7399 137.61 85.1499 137.61C95.5599 137.61 105.46 135.2 114.74 130.38C115.21 130.14 115.39 129.56 115.15 129.09C114.91 128.62 114.33 128.44 113.86 128.68H113.87ZM30.5599 39.3C29.5699 40.86 28.7099 42.47 28.0699 43.7C18.3199 62.48 18.4599 84.84 28.4299 103.52C28.5999 103.84 28.9299 104.02 29.2699 104.02C29.4199 104.02 29.5799 103.98 29.7199 103.91C30.1799 103.66 30.3599 103.09 30.1099 102.62C20.4299 84.49 20.2999 62.79 29.7599 44.58C30.3799 43.38 31.2099 41.82 32.1599 40.33C32.8899 39.2 33.6399 38.04 34.4499 36.94C36.4999 34.12 38.6599 31.57 41.0699 29.17C41.4399 28.8 41.4399 28.19 41.0699 27.82C41.0699 27.82 41.0599 27.82 41.0499 27.81L29.0099 15.78C28.6399 15.41 28.0299 15.41 27.6599 15.78C27.2899 16.15 27.2899 16.76 27.6599 17.13L39.0599 28.53C36.8499 30.81 34.8099 33.19 32.8999 35.83C32.0699 36.96 31.2999 38.15 30.5499 39.31L30.5599 39.3Z" fill="#005693"/>
<path d="M81.22 181.78C80.03 181.78 79.51 182.73 79.51 184.11C79.51 185.49 80.03 186.44 81.22 186.44C82.41 186.44 83.09 185.49 83.09 184.11C83.09 182.73 82.41 181.78 81.22 181.78Z" fill="#009EE2"/>
<path d="M130.15 185.67C130.15 186.28 130.45 186.56 131.15 186.56C131.48 186.56 132.03 186.4 132.41 186.02V184.32C131.37 184.36 130.15 184.78 130.15 185.66V185.67Z" fill="#009EE2"/>
<path d="M71.74 185.67C71.74 186.28 72.04 186.56 72.74 186.56C73.07 186.56 73.62 186.4 74 186.02V184.32C72.96 184.36 71.74 184.78 71.74 185.66V185.67Z" fill="#009EE2"/>
<path d="M152.55 181.78C151.6 181.78 151.06 182.4 150.88 183.25H153.88C153.88 182.58 153.54 181.78 152.54 181.78H152.55Z" fill="#009EE2"/>
<path d="M124.29 181.78C123.34 181.78 122.8 182.4 122.62 183.25H125.62C125.62 182.58 125.28 181.78 124.28 181.78H124.29Z" fill="#009EE2"/>
<path d="M0.609985 173.41V192.74H169.74V173.41H0.609985ZM16.64 179.26H12.13V181.48H15.61V183.32H12.13V187.83H10.23V177.42H16.64V179.26ZM23.79 187.83H22.06L22.03 187.38C21.6 187.71 20.96 187.97 20.38 187.97C18.06 187.97 17.23 186.48 17.23 184.39V180.39H19.07V184.39C19.07 185.77 19.5 186.43 20.54 186.43C21.15 186.43 21.6 186.21 21.94 185.81V180.4H23.78V187.84L23.79 187.83ZM28.09 187.98H27.42C26.1 187.98 25.52 187.1 25.52 186.03V176.68H27.36V185.28C27.36 186.47 27.52 186.47 28.25 186.47L28.09 187.99V187.98ZM32 187.98H31.33C30.01 187.98 29.43 187.1 29.43 186.03V176.68H31.27V185.28C31.27 186.47 31.43 186.47 32.16 186.47L32 187.99V187.98ZM40.89 187.83H38.99V179.26H36.05V177.42H43.84V179.26H40.9V187.83H40.89ZM47.57 182.01H46.89C46.28 182.01 45.74 182.34 45.54 182.75V187.82H43.7V180.38H45.43L45.47 181.17C45.86 180.77 46.6 180.26 47.45 180.26H47.94L47.58 182L47.57 182.01ZM54.9 187.97H54.23C53.4 187.97 52.85 187.63 52.56 187.11C52.07 187.66 51.18 187.97 50.28 187.97C49.09 187.97 48.12 187.15 48.12 185.74C48.12 183.64 50.9 183.12 52.3 183.08C52.26 182.23 51.91 181.86 50.96 181.86C50.29 181.86 49.71 182.04 48.92 182.43L48.76 180.93C49.65 180.5 50.54 180.28 51.47 180.28C53.14 180.28 54.16 181.11 54.16 183.27V185.28C54.16 186.4 54.28 186.47 54.81 186.47H55.05L54.89 187.99L54.9 187.97ZM59.41 186.45C60.12 186.45 60.72 186.24 61.33 185.84L61.49 187.42C61.01 187.72 60.45 187.97 59.26 187.97C56.88 187.97 55.65 186.2 55.65 184.12C55.65 182.04 56.88 180.27 59.26 180.27C60.45 180.27 61.01 180.52 61.49 180.82L61.33 182.4C60.72 182 60.13 181.79 59.41 181.79C58.22 181.79 57.54 182.74 57.54 184.12C57.54 185.5 58.22 186.45 59.41 186.45ZM68.97 184.5H64.17C64.38 185.88 65.4 186.45 66.39 186.45C67.09 186.45 68.07 186.17 68.68 185.84L68.77 187.4C68.2 187.7 67.34 187.97 66.29 187.97C63.6 187.97 62.26 186.2 62.26 184.12C62.26 182.04 63.54 180.27 65.83 180.27C67.7 180.27 69.1 181.53 69.1 183.5C69.1 183.83 69.06 184.15 68.98 184.51L68.97 184.5ZM76.57 187.97H75.9C75.07 187.97 74.52 187.63 74.23 187.11C73.74 187.66 72.85 187.97 71.95 187.97C70.76 187.97 69.79 187.15 69.79 185.74C69.79 183.64 72.57 183.12 73.97 183.08C73.93 182.23 73.58 181.86 72.63 181.86C71.96 181.86 71.38 182.04 70.59 182.43L70.43 180.93C71.32 180.5 72.21 180.28 73.14 180.28C74.81 180.28 75.83 181.11 75.83 183.27V185.28C75.83 186.4 75.95 186.47 76.48 186.47H76.72L76.56 187.99L76.57 187.97ZM81.33 187.97C80.51 187.97 80.02 187.76 79.5 187.4L79.47 187.82H77.74V176.67H79.58V180.76C80.06 180.45 80.55 180.27 81.32 180.27C83.7 180.27 84.96 182.04 84.96 184.12C84.96 186.2 83.7 187.97 81.32 187.97H81.33ZM88.1 187.82H86.26V180.38H88.1V187.82ZM88.1 179.25H86.26V177.41H88.1V179.25ZM92.4 187.97H91.73C90.41 187.97 89.83 187.09 89.83 186.02V176.67H91.67V185.27C91.67 186.46 91.83 186.46 92.56 186.46L92.4 187.98V187.97ZM95.58 187.82H93.74V180.38H95.58V187.82ZM95.58 179.25H93.74V177.41H95.58V179.25ZM101.22 181.9H99.58V185.26C99.58 186.39 99.67 186.45 100.71 186.45H101.22L101.06 187.97H99.74C98.34 187.97 97.75 186.99 97.75 186.02V181.9H96.69L96.85 180.38H97.74V178.74L99.58 178.55V180.38H101.22V181.9ZM104.86 191.42H103.02L104.67 187.33L101.58 180.38H103.63L105.53 185.17L107.46 180.38H109.51L104.85 191.42H104.86ZM120.22 187.82H114.03V177.41H115.93V185.98H120.21V187.82H120.22ZM127.37 184.5H122.57C122.78 185.88 123.8 186.45 124.79 186.45C125.49 186.45 126.47 186.17 127.08 185.84L127.17 187.4C126.6 187.7 125.74 187.97 124.69 187.97C122 187.97 120.66 186.2 120.66 184.12C120.66 182.04 121.94 180.27 124.23 180.27C126.1 180.27 127.5 181.53 127.5 183.5C127.5 183.83 127.46 184.15 127.38 184.51L127.37 184.5ZM134.97 187.97H134.3C133.47 187.97 132.92 187.63 132.63 187.11C132.14 187.66 131.25 187.97 130.35 187.97C129.16 187.97 128.19 187.15 128.19 185.74C128.19 183.64 130.97 183.12 132.37 183.08C132.33 182.23 131.98 181.86 131.03 181.86C130.36 181.86 129.78 182.04 128.99 182.43L128.83 180.93C129.72 180.5 130.61 180.28 131.54 180.28C133.21 180.28 134.23 181.11 134.23 183.27V185.28C134.23 186.4 134.35 186.47 134.88 186.47H135.12L134.96 187.99L134.97 187.97ZM139.95 181.9H138.31V185.26C138.31 186.39 138.4 186.45 139.44 186.45H139.95L139.79 187.97H138.47C137.07 187.97 136.48 186.99 136.48 186.02V181.9H135.42L135.58 180.38H136.47V178.74L138.31 178.55V180.38H139.95V181.9ZM147.7 187.82H145.86V183.82C145.86 182.44 145.43 181.78 144.39 181.78C143.77 181.78 143.33 182.02 142.99 182.42V187.82H141.15V176.67H142.99V180.77C143.42 180.49 143.99 180.26 144.54 180.26C146.86 180.26 147.71 181.72 147.71 183.81V187.81L147.7 187.82ZM155.63 184.5H150.83C151.04 185.88 152.06 186.45 153.05 186.45C153.75 186.45 154.73 186.17 155.34 185.84L155.43 187.4C154.86 187.7 154 187.97 152.95 187.97C150.26 187.97 148.92 186.2 148.92 184.12C148.92 182.04 150.2 180.27 152.49 180.27C154.36 180.27 155.76 181.53 155.76 183.5C155.76 183.83 155.72 184.15 155.64 184.51L155.63 184.5ZM160.9 182H160.22C159.61 182 159.07 182.33 158.87 182.74V187.81H157.03V180.37H158.76L158.8 181.16C159.19 180.76 159.93 180.25 160.78 180.25H161.27L160.91 181.99L160.9 182Z" fill="#009EE2"/>
<path d="M50.0701 185.67C50.0701 186.28 50.3701 186.56 51.0701 186.56C51.4001 186.56 51.95 186.4 52.33 186.02V184.32C51.29 184.36 50.0701 184.78 50.0701 185.66V185.67Z" fill="#009EE2"/>
<path d="M65.88 181.78C64.93 181.78 64.39 182.4 64.21 183.25H67.21C67.21 182.58 66.87 181.78 65.87 181.78H65.88Z" fill="#009EE2"/>
</svg>
