<svg width="179" height="164" viewBox="0 0 179 164" fill="none" xmlns="http://www.w3.org/2000/svg">
<path fill-rule="evenodd" clip-rule="evenodd" d="M28.8 136.295C32.33 136.295 35.16 134.125 36.86 131.135C37.84 129.415 38.38 127.575 38.56 125.615C38.68 124.355 38.77 122.935 38.83 121.365C38.89 119.785 38.91 118.115 38.88 116.355C38.85 114.585 38.79 112.895 38.71 111.285C38.63 109.665 38.51 108.205 38.35 106.895C38.19 105.585 38 104.545 37.78 103.795C37.45 102.665 36.92 101.575 36.2 100.525C35.48 99.4753 34.63 98.5453 33.64 97.7653C31.98 96.4453 30.24 95.4253 28.41 94.9153C26.59 94.4053 24.78 94.1553 22.98 94.1553H0L0.0299988 136.345L28.8 136.285V136.295ZM12.54 127.735L12.56 101.875H21.75C22.28 101.875 22.78 101.995 23.27 102.245C23.75 102.485 24.21 102.805 24.62 103.205C25.04 103.595 25.4 104.045 25.71 104.525C26.02 105.015 26.24 105.485 26.38 105.935C26.92 107.755 26.98 113.565 26.93 115.535C26.89 116.945 26.84 118.275 26.75 119.535C26.67 120.795 26.58 121.905 26.49 122.855C26.4 123.815 26.3 124.465 26.22 124.795C26.05 125.355 25.86 125.825 25.65 126.205C25.44 126.585 25.13 126.885 24.73 127.105C24.33 127.325 23.79 127.485 23.12 127.585C22.45 127.675 21.61 127.725 20.6 127.725H12.54V127.735Z" fill="#005D97"/>
<path fill-rule="evenodd" clip-rule="evenodd" d="M43.0701 94.1552L43.2001 126.095C43.2001 127.945 43.8701 129.225 44.5401 130.405C45.2101 131.585 46.0301 132.585 47.0201 133.385C48.0001 134.195 49.1001 134.835 50.3201 135.305C52.8101 136.265 55.4801 136.715 58.1401 136.825C59.5101 136.885 60.6401 136.905 61.9201 136.905C63.6501 136.905 64.7901 136.925 66.8701 136.815C68.9601 136.705 72.8601 136.065 74.6901 135.295C76.2201 134.655 76.6101 134.445 77.9901 133.375C78.6801 132.845 79.7901 131.665 80.4701 130.385C81.2101 128.995 81.8201 127.595 81.8101 126.135L81.5801 94.0852H68.9101C68.8001 94.0852 68.7301 94.1052 68.7001 94.1452L68.9101 123.985C68.9201 125.495 67.8101 126.535 66.4501 127.235C63.7201 128.655 60.0601 128.695 57.3901 127.235C56.1101 126.545 55.1701 125.525 55.2301 123.995L55.0101 94.1452H43.0701V94.1552Z" fill="#005D97"/>
<path fill-rule="evenodd" clip-rule="evenodd" d="M113.83 136.295H126.25L117.91 123.225C119.1 122.475 120.1 121.485 120.91 120.265C121.71 119.045 122.34 117.755 122.78 116.405C123.44 114.525 123.74 112.515 123.69 110.375C123.64 108.235 123.28 106.055 122.59 103.845C122.09 102.235 121.29 100.825 120.21 99.6253C119.12 98.4253 117.89 97.4253 116.52 96.6353C115.15 95.8453 113.92 95.2353 112.38 94.8753C111 94.5553 108.79 94.1653 107.36 94.1653H86.54V136.295H98.89V124.355H106.67L113.85 136.295H113.83ZM98.8801 115.735V101.935H106.11C106.64 101.935 107.49 102.055 107.99 102.305C108.5 102.545 108.96 102.865 109.39 103.265C109.81 103.655 110.19 104.105 110.51 104.585C110.83 105.075 111.06 105.545 111.2 105.995C111.61 107.305 111.76 108.545 111.65 109.715C111.28 113.675 108.98 115.745 104.99 115.745H98.8801V115.735Z" fill="#005D97"/>
<path fill-rule="evenodd" clip-rule="evenodd" d="M140.65 117.765L140.44 94.1653H127.88C127.88 98.2953 127.89 101.925 127.9 104.835C127.9 107.745 127.92 110.185 127.95 112.155C127.98 114.125 128.02 115.695 128.06 116.855C128.1 118.015 128.13 118.935 128.15 119.585C128.26 123.895 128.77 128.455 131.56 131.925C135.83 137.215 145.15 137.095 151.45 136.915C155.25 136.805 159.12 136.385 163.06 135.675L162.81 125.255C159.89 125.895 156.91 126.325 153.86 126.545C150.81 126.775 148.98 126.815 145.58 126.415C143.92 126.215 142.94 125.625 142.42 125.085C140.75 123.355 140.67 120.015 140.65 117.765Z" fill="#005D97"/>
<path d="M178.61 94.1553H166.06V136.285H178.61V94.1553Z" fill="#005D97"/>
<path fill-rule="evenodd" clip-rule="evenodd" d="M90.09 163.265H86.52V144.775H90.09V163.265ZM100.43 155.175C100.39 154.165 100.1 153.415 99.55 152.935C99 152.445 98.38 152.205 97.66 152.205C96.94 152.205 96.3 152.465 95.79 152.975C95.27 153.495 94.98 154.225 94.9 155.175H100.43ZM94.78 157.435C94.84 158.435 95.14 159.245 95.67 159.855C96.21 160.465 96.92 160.765 97.81 160.765C98.38 160.765 98.9 160.635 99.36 160.355C99.82 160.085 100.11 159.725 100.25 159.275H103.94C103.52 160.665 102.79 161.735 101.74 162.485C100.69 163.235 99.44 163.615 97.99 163.615C93.47 163.615 91.21 161.155 91.21 156.245C91.21 154.145 91.77 152.475 92.9 151.225C94.03 149.975 95.64 149.355 97.74 149.355C101.98 149.355 104.1 152.055 104.1 157.445H94.77L94.78 157.435ZM113.45 156.635C113.09 156.935 112.47 157.175 111.58 157.345C110.35 157.585 109.52 157.865 109.08 158.195C108.64 158.525 108.43 158.975 108.43 159.545C108.43 160.555 108.96 161.065 110.03 161.065C110.49 161.065 110.93 161.005 111.35 160.875C111.78 160.745 112.15 160.555 112.47 160.295C112.79 160.035 113.04 159.715 113.23 159.315C113.42 158.915 113.51 158.465 113.51 157.945C113.51 157.785 113.51 157.565 113.49 157.295C113.49 157.015 113.47 156.805 113.45 156.645V156.635ZM111.25 149.355C113.17 149.355 114.61 149.815 115.58 150.725C116.54 151.635 117.02 152.965 117.02 154.705V163.265H113.69C113.65 163.105 113.61 162.935 113.57 162.755C113.53 162.575 113.5 162.375 113.48 162.165C113.04 162.625 112.48 162.965 111.79 163.195C111.1 163.425 110.29 163.535 109.38 163.535C108.01 163.535 106.92 163.195 106.1 162.525C105.28 161.855 104.87 160.925 104.87 159.735C104.87 158.805 105.02 158.065 105.33 157.505C105.64 156.945 106.07 156.515 106.62 156.195C107.18 155.875 107.83 155.645 108.6 155.485C109.36 155.325 110.19 155.185 111.08 155.065C111.79 154.965 112.35 154.805 112.76 154.585C113.17 154.365 113.37 154.065 113.37 153.665C113.37 153.145 113.13 152.765 112.66 152.505C112.18 152.245 111.66 152.115 111.08 152.115C110.45 152.115 109.92 152.295 109.49 152.665C109.06 153.035 108.81 153.525 108.73 154.135H105.31C105.43 152.625 105.94 151.455 106.86 150.615C107.77 149.775 109.24 149.355 111.26 149.355H111.25ZM129.44 152.265H122.01V157.855C122.01 158.705 122.17 159.365 122.48 159.835C122.8 160.305 123.32 160.535 124.05 160.535C124.78 160.535 125.28 160.305 125.61 159.855C125.94 159.395 126.11 158.745 126.11 157.895V154.355H129.44V158.245C129.44 158.955 129.34 159.645 129.13 160.295C128.92 160.945 128.59 161.525 128.15 162.015C127.7 162.515 127.13 162.905 126.44 163.205C125.75 163.505 124.92 163.655 123.97 163.655C123.02 163.655 122.14 163.505 121.44 163.205C120.75 162.905 120.18 162.515 119.73 162.015C119.28 161.515 118.96 160.945 118.75 160.295C118.54 159.645 118.44 158.945 118.44 158.215V146.055H122.01V149.715H129.44V152.275V152.265ZM134.43 151.495C134.71 150.885 135.21 150.375 135.96 149.965C136.7 149.555 137.53 149.355 138.43 149.355C139.81 149.355 140.94 149.735 141.81 150.495C142.68 151.255 143.11 152.325 143.11 153.695V163.265H139.54V154.885C139.54 153.855 139.36 153.155 139 152.775C138.64 152.395 138.05 152.215 137.22 152.215C136.33 152.215 135.64 152.535 135.15 153.185C134.66 153.825 134.42 154.605 134.42 155.515V163.275H130.85V144.785H134.42V151.505L134.43 151.495ZM153.48 155.185C153.44 154.175 153.15 153.425 152.6 152.945C152.06 152.455 151.43 152.215 150.71 152.215C149.99 152.215 149.35 152.475 148.84 152.985C148.32 153.505 148.03 154.235 147.95 155.185H153.48ZM147.83 157.445C147.89 158.445 148.19 159.255 148.72 159.865C149.25 160.475 149.97 160.775 150.86 160.775C151.44 160.775 151.95 160.645 152.41 160.365C152.87 160.095 153.16 159.735 153.3 159.285H156.99C156.57 160.675 155.84 161.745 154.79 162.495C153.74 163.245 152.49 163.625 151.04 163.625C146.52 163.625 144.26 161.165 144.26 156.255C144.26 154.155 144.82 152.485 145.95 151.235C147.08 149.985 148.7 149.365 150.8 149.365C155.04 149.365 157.16 152.065 157.16 157.455H147.83V157.445ZM166.11 153.045C165.77 152.985 165.45 152.955 165.13 152.955C162.93 152.955 161.83 154.045 161.83 156.225V163.275H158.26V149.725H161.62V151.355C161.92 150.895 162.22 150.545 162.54 150.285C162.86 150.025 163.18 149.825 163.52 149.695C163.86 149.555 164.2 149.475 164.56 149.445C164.92 149.415 165.27 149.405 165.63 149.405H166.11V153.065V153.045ZM174.67 153.815C174.49 152.625 173.69 152.035 172.26 152.035C171.69 152.035 171.18 152.155 170.76 152.405C170.33 152.655 170.12 152.975 170.12 153.375C170.12 153.915 170.85 154.325 172.32 154.625C174.46 155.105 175.83 155.475 176.42 155.755C177.87 156.465 178.59 157.525 178.59 158.935C178.59 160.485 178.04 161.665 176.94 162.475C175.84 163.285 174.39 163.695 172.58 163.695C171.69 163.695 170.85 163.585 170.07 163.355C169.29 163.125 168.61 162.805 168.03 162.385C167.46 161.965 167 161.465 166.66 160.885C166.32 160.305 166.14 159.655 166.12 158.935H169.81C169.81 159.565 170.06 160.075 170.55 160.435C171.04 160.805 171.71 160.985 172.54 160.985C173.21 160.985 173.79 160.855 174.28 160.585C174.77 160.315 175.01 159.975 175.01 159.555C175.01 159.315 174.83 159.075 174.48 158.845C174.12 158.605 173.58 158.405 172.84 158.255C170.72 157.755 169.37 157.375 168.8 157.095C167.35 156.425 166.63 155.355 166.63 153.885C166.63 153.295 166.75 152.715 166.99 152.165C167.23 151.615 167.58 151.115 168.06 150.695C168.54 150.265 169.13 149.925 169.86 149.675C170.58 149.415 171.44 149.285 172.43 149.285C173.22 149.285 173.97 149.395 174.66 149.615C175.35 149.835 175.95 150.145 176.46 150.535C176.97 150.935 177.37 151.415 177.68 151.975C177.99 152.535 178.16 153.155 178.2 153.835H174.66L174.67 153.815Z" fill="#007D41"/>
<path fill-rule="evenodd" clip-rule="evenodd" d="M53.82 44.0152C58.96 -2.50485 131.22 37.6352 49.26 86.3052C79.87 63.8852 62.42 20.1952 53.82 44.0152Z" fill="#223F99"/>
<path fill-rule="evenodd" clip-rule="evenodd" d="M53.82 44.0152C56.15 -10.7348 137.98 39.4352 49.26 86.3052C87.57 59.0352 64.25 15.6952 53.82 44.0152Z" fill="url(#paint0_linear_343_11759)"/>
<path fill-rule="evenodd" clip-rule="evenodd" d="M83.69 12.9051C118.19 -28.3149 167.65 39.6351 80.09 71.1051C105.64 55.7551 113.83 -0.624866 83.69 12.9051Z" fill="url(#paint1_linear_343_11759)"/>
<path fill-rule="evenodd" clip-rule="evenodd" d="M83.69 12.9052C84.21 12.2852 84.72 11.7052 85.24 11.1352C84.72 11.7052 84.2 12.2852 83.69 12.9052ZM80.08 71.0952C105.63 55.7452 113.81 -0.624784 83.68 12.8952C108.2 5.27522 98.62 57.5652 80.08 71.0952Z" fill="#007D41"/>
<defs>
<linearGradient id="paint0_linear_343_11759" x1="70.24" y1="61.1752" x2="57.46" y2="39.0252" gradientUnits="userSpaceOnUse">
<stop stop-color="#007D41"/>
<stop offset="0.18" stop-color="#69A765"/>
<stop offset="0.38" stop-color="#0075BE"/>
<stop offset="0.59" stop-color="#00ADEE"/>
<stop offset="1" stop-color="#223F99"/>
</linearGradient>
<linearGradient id="paint1_linear_343_11759" x1="111.37" y1="55.5551" x2="84.65" y2="9.26514" gradientUnits="userSpaceOnUse">
<stop stop-color="#007D41"/>
<stop offset="0.2" stop-color="#007D41"/>
<stop offset="0.35" stop-color="#A5CD39"/>
<stop offset="0.54" stop-color="#FFCA05"/>
<stop offset="0.64" stop-color="#FFCA05"/>
<stop offset="0.87" stop-color="#F26F21"/>
<stop offset="1" stop-color="#F26F21"/>
</linearGradient>
</defs>
</svg>
