<svg width="90" height="31" viewBox="0 0 90 31" fill="none" xmlns="http://www.w3.org/2000/svg">
<path d="M32.0199 10.845H26.7699L25.6799 13.3149H24.23L28.7 3.43494H30.1L34.59 13.3149H33.11L32.0199 10.845ZM31.5299 9.71497L29.3999 4.875L27.2699 9.71497H31.5299ZM30.2699 0.794922H31.9899L29.6199 2.625H28.35L30.2699 0.794922Z" fill="white"/>
<path d="M38.2001 6.10498C38.6601 5.87498 39.22 5.76501 39.88 5.76501V7.07495C39.8 7.07495 39.7001 7.06494 39.5701 7.06494C38.8401 7.06494 38.2601 7.28498 37.8401 7.72498C37.4201 8.16498 37.2101 8.78497 37.2101 9.59497V13.325H35.8501V5.84497H37.15V7.10498C37.38 6.67498 37.7301 6.34499 38.1901 6.11499L38.2001 6.10498Z" fill="white"/>
<path d="M48.2101 10.025H42.14C42.22 10.685 42.51 11.215 43.01 11.615C43.5 12.015 44.1201 12.215 44.8501 12.215C45.7401 12.215 46.46 11.9149 47.01 11.3149L47.76 12.1949C47.42 12.5849 47 12.895 46.5 13.095C46 13.305 45.4301 13.405 44.8101 13.405C44.0201 13.405 43.3201 13.245 42.7101 12.915C42.1001 12.595 41.63 12.1349 41.29 11.5549C40.96 10.9749 40.79 10.315 40.79 9.57495C40.79 8.83495 40.95 8.19499 41.28 7.61499C41.6 7.03499 42.05 6.575 42.62 6.255C43.19 5.925 43.83 5.76501 44.55 5.76501C45.27 5.76501 45.9001 5.925 46.4601 6.255C47.0201 6.575 47.46 7.03499 47.77 7.61499C48.08 8.19499 48.24 8.86499 48.24 9.61499C48.24 9.71499 48.2401 9.85502 48.2101 10.025ZM42.91 7.495C42.47 7.885 42.22 8.40492 42.14 9.04492H46.9401C46.8601 8.41492 46.61 7.905 46.17 7.505C45.73 7.105 45.19 6.90503 44.54 6.90503C43.89 6.90503 43.35 7.105 42.91 7.495Z" fill="white"/>
<path d="M55 6.52502C55.55 7.03502 55.8301 7.79492 55.8301 8.79492V13.3149H54.55V12.325C54.32 12.675 54.0001 12.935 53.5801 13.125C53.1601 13.305 52.6601 13.405 52.0901 13.405C51.2501 13.405 50.5801 13.2049 50.0801 12.7949C49.5801 12.3949 49.3301 11.855 49.3301 11.205C49.3301 10.555 49.57 10.015 50.05 9.61499C50.53 9.21499 51.2901 9.01501 52.3401 9.01501H54.49V8.745C54.49 8.165 54.3201 7.71503 53.9801 7.40503C53.6401 7.09503 53.1401 6.93494 52.4801 6.93494C52.0401 6.93494 51.6001 7.00503 51.1801 7.15503C50.7601 7.30503 50.4001 7.49499 50.1101 7.73499L49.55 6.71497C49.94 6.40497 50.4001 6.165 50.9301 6.005C51.4701 5.845 52.04 5.755 52.64 5.755C53.68 5.755 54.47 6.00501 55.02 6.51501L55 6.52502ZM53.65 12.005C54.03 11.775 54.3001 11.445 54.4701 11.025V9.98499H52.38C51.23 9.98499 50.66 10.375 50.66 11.145C50.66 11.525 50.8101 11.815 51.1001 12.035C51.3901 12.255 51.8001 12.355 52.3101 12.355C52.8201 12.355 53.27 12.235 53.65 12.005Z" fill="white"/>
<path d="M58.7202 13.155C58.1602 12.985 57.7101 12.785 57.3901 12.525L57.9502 11.455C58.2802 11.695 58.6801 11.875 59.1501 12.015C59.6201 12.155 60.1002 12.225 60.5802 12.225C61.7702 12.225 62.3602 11.885 62.3602 11.205C62.3602 10.975 62.2801 10.805 62.1201 10.665C61.9601 10.535 61.7601 10.435 61.5201 10.375C61.2801 10.315 60.9401 10.2449 60.5001 10.1749C59.9001 10.0849 59.4102 9.97497 59.0302 9.84497C58.6502 9.72497 58.3202 9.51498 58.0502 9.22498C57.7802 8.93498 57.6401 8.525 57.6401 7.995C57.6401 7.315 57.9201 6.77499 58.4901 6.36499C59.0601 5.95499 59.8101 5.755 60.7601 5.755C61.2601 5.755 61.7601 5.81494 62.2601 5.93494C62.7601 6.05494 63.1701 6.22493 63.4901 6.42493L62.9102 7.495C62.3002 7.105 61.5801 6.90503 60.7501 6.90503C60.1801 6.90503 59.7402 6.99494 59.4402 7.18494C59.1402 7.37494 58.9901 7.62494 58.9901 7.93494C58.9901 8.18494 59.0701 8.37501 59.2401 8.51501C59.4101 8.65501 59.6201 8.75495 59.8701 8.82495C60.1201 8.89495 60.4702 8.96493 60.9202 9.05493C61.5202 9.15493 62.0101 9.26501 62.3801 9.38501C62.7501 9.50501 63.0702 9.70499 63.3302 9.98499C63.5902 10.265 63.7202 10.6649 63.7202 11.1749C63.7202 11.8549 63.4302 12.3949 62.8502 12.7949C62.2702 13.1949 61.4801 13.395 60.4901 13.395C59.8801 13.395 59.2902 13.315 58.7302 13.145L58.7202 13.155Z" fill="white"/>
<path d="M7.17004 26.875V28.105H0V18.225H6.97009V19.455H1.41003V22.485H6.36011V23.6849H1.41003V26.875H7.17004Z" fill="white"/>
<path d="M20.8501 21.365C21.4001 21.915 21.6801 22.7249 21.6801 23.7949V28.095H20.3301V23.9449C20.3301 23.2249 20.1601 22.6749 19.8301 22.3049C19.5001 21.9349 19.02 21.755 18.4 21.755C17.71 21.755 17.17 21.965 16.76 22.395C16.36 22.825 16.15 23.435 16.15 24.235V28.085H14.79V23.9349C14.79 23.2149 14.62 22.6649 14.29 22.2949C13.96 21.9249 13.4801 21.745 12.8601 21.745C12.1701 21.745 11.6301 21.955 11.2201 22.385C10.8201 22.815 10.6101 23.425 10.6101 24.225V28.075H9.25V20.595H10.55V21.715C10.82 21.325 11.18 21.035 11.62 20.835C12.06 20.635 12.57 20.535 13.13 20.535C13.69 20.535 14.2301 20.655 14.6801 20.885C15.1301 21.125 15.4801 21.465 15.7201 21.915C16.0001 21.485 16.39 21.145 16.9 20.895C17.4 20.645 17.9701 20.525 18.6001 20.525C19.5401 20.525 20.2901 20.795 20.8401 21.345L20.8501 21.365Z" fill="white"/>
<path d="M30.0902 21.035C30.6602 21.355 31.1102 21.805 31.4402 22.375C31.7602 22.945 31.9302 23.615 31.9302 24.365C31.9302 25.115 31.7702 25.785 31.4402 26.365C31.1102 26.945 30.6702 27.395 30.0902 27.715C29.5202 28.035 28.8701 28.1949 28.1401 28.1949C27.5901 28.1949 27.0801 28.085 26.6201 27.865C26.1601 27.645 25.7802 27.335 25.4802 26.915V28.105H24.1802V17.635H25.5402V21.755C25.8402 21.355 26.2202 21.065 26.6702 20.855C27.1202 20.655 27.6201 20.5549 28.1501 20.5549C28.8701 20.5549 29.5202 20.715 30.1002 21.035H30.0902ZM29.3202 26.6749C29.7002 26.4549 30.0002 26.145 30.2202 25.745C30.4402 25.345 30.5502 24.885 30.5502 24.365C30.5502 23.845 30.4402 23.385 30.2202 22.985C30.0002 22.585 29.7002 22.2749 29.3202 22.0649C28.9402 21.8449 28.5102 21.735 28.0302 21.735C27.5502 21.735 27.1301 21.8449 26.7401 22.0649C26.3501 22.2849 26.0502 22.585 25.8402 22.985C25.6202 23.385 25.5201 23.845 25.5201 24.365C25.5201 24.885 25.6302 25.345 25.8402 25.745C26.0602 26.145 26.3601 26.4549 26.7401 26.6749C27.1301 26.8949 27.5502 27.005 28.0302 27.005C28.5102 27.005 28.9402 26.8949 29.3202 26.6749Z" fill="white"/>
<path d="M38.8302 21.3149C39.3802 21.8249 39.6602 22.585 39.6602 23.585V28.105H38.3801V27.115C38.1501 27.465 37.8302 27.725 37.4102 27.915C36.9902 28.095 36.4902 28.1949 35.9202 28.1949C35.0802 28.1949 34.4102 27.995 33.9102 27.585C33.4102 27.185 33.1602 26.645 33.1602 25.995C33.1602 25.345 33.4001 24.805 33.8801 24.405C34.3601 24.005 35.1202 23.8049 36.1702 23.8049H38.3202V23.535C38.3202 22.955 38.1502 22.5049 37.8102 22.1949C37.4702 21.8849 36.9702 21.725 36.3102 21.725C35.8702 21.725 35.4301 21.7949 35.0101 21.9449C34.5901 22.0949 34.2302 22.285 33.9402 22.525L33.3801 21.505C33.7701 21.195 34.2301 20.9549 34.7601 20.7949C35.3001 20.6349 35.8702 20.5449 36.4702 20.5449C37.5102 20.5449 38.3002 20.7949 38.8502 21.3049L38.8302 21.3149ZM37.4802 26.7949C37.8602 26.5649 38.1302 26.2349 38.3002 25.8149V24.775H36.2102C35.0602 24.775 34.4901 25.1649 34.4901 25.9349C34.4901 26.3149 34.6402 26.605 34.9302 26.825C35.2202 27.045 35.6301 27.145 36.1401 27.145C36.6501 27.145 37.1002 27.0249 37.4802 26.7949Z" fill="white"/>
<path d="M44.5101 20.895C44.9701 20.665 45.5302 20.5549 46.1902 20.5549V21.865C46.1102 21.865 46.0101 21.855 45.8801 21.855C45.1501 21.855 44.5701 22.075 44.1501 22.515C43.7301 22.955 43.5201 23.575 43.5201 24.385V28.115H42.1602V20.635H43.4602V21.895C43.6902 21.465 44.0401 21.135 44.5001 20.905L44.5101 20.895Z" fill="white"/>
<path d="M54.9401 20.625V27.085C54.9401 28.395 54.6201 29.355 53.9701 29.985C53.3201 30.615 52.3501 30.9249 51.0601 30.9249C50.3501 30.9249 49.68 30.825 49.04 30.635C48.4 30.445 47.88 30.1649 47.49 29.8049L48.14 28.765C48.49 29.065 48.9201 29.305 49.4301 29.475C49.9401 29.645 50.47 29.735 51.02 29.735C51.9 29.735 52.5401 29.525 52.9601 29.115C53.3801 28.695 53.5901 28.075 53.5901 27.225V26.635C53.2701 27.025 52.88 27.305 52.41 27.505C51.94 27.695 51.44 27.7949 50.89 27.7949C50.17 27.7949 49.5301 27.645 48.9501 27.335C48.3701 27.025 47.9201 26.6049 47.5901 26.0549C47.2601 25.5049 47.1001 24.8749 47.1001 24.1749C47.1001 23.4749 47.2601 22.8449 47.5901 22.2949C47.9201 21.7449 48.3701 21.315 48.9501 21.015C49.5301 20.715 50.18 20.5649 50.89 20.5649C51.45 20.5649 51.9801 20.665 52.4601 20.875C52.9401 21.085 53.34 21.3849 53.65 21.7949V20.635H54.9301L54.9401 20.625ZM52.3601 26.2949C52.7501 26.0849 53.06 25.7949 53.28 25.4249C53.5 25.0549 53.6101 24.635 53.6101 24.165C53.6101 23.445 53.37 22.855 52.89 22.405C52.41 21.955 51.79 21.735 51.04 21.735C50.29 21.735 49.6601 21.955 49.1801 22.405C48.7001 22.855 48.4601 23.435 48.4601 24.165C48.4601 24.635 48.57 25.0549 48.79 25.4249C49.01 25.7949 49.3201 26.0849 49.7101 26.2949C50.1001 26.5049 50.54 26.605 51.04 26.605C51.54 26.605 51.9701 26.5049 52.3601 26.2949Z" fill="white"/>
<path d="M62.6201 21.3149C63.1701 21.8249 63.4502 22.585 63.4502 23.585V28.105H62.1702V27.115C61.9402 27.465 61.6202 27.725 61.2002 27.915C60.7802 28.095 60.2802 28.1949 59.7102 28.1949C58.8702 28.1949 58.2002 27.995 57.7002 27.585C57.2002 27.185 56.9502 26.645 56.9502 25.995C56.9502 25.345 57.1902 24.805 57.6702 24.405C58.1502 24.005 58.9102 23.8049 59.9602 23.8049H62.1102V23.535C62.1102 22.955 61.9402 22.5049 61.6002 22.1949C61.2602 21.8849 60.7602 21.725 60.1002 21.725C59.6602 21.725 59.2202 21.7949 58.8002 21.9449C58.3802 22.0949 58.0202 22.285 57.7302 22.525L57.1702 21.505C57.5602 21.195 58.0202 20.9549 58.5502 20.7949C59.0902 20.6349 59.6601 20.5449 60.2601 20.5449C61.3001 20.5449 62.0901 20.7949 62.6401 21.3049L62.6201 21.3149ZM61.2701 26.7949C61.6501 26.5649 61.9202 26.2349 62.0902 25.8149V24.775H60.0001C58.8501 24.775 58.2802 25.1649 58.2802 25.9349C58.2802 26.3149 58.4302 26.605 58.7202 26.825C59.0102 27.045 59.4202 27.145 59.9302 27.145C60.4402 27.145 60.8901 27.0249 61.2701 26.7949Z" fill="white"/>
<path d="M73.0601 17.635V28.105H71.76V26.915C71.46 27.325 71.08 27.645 70.62 27.865C70.16 28.085 69.6501 28.1949 69.1001 28.1949C68.3801 28.1949 67.73 28.035 67.15 27.715C66.58 27.395 66.13 26.945 65.8 26.365C65.47 25.785 65.3101 25.125 65.3101 24.365C65.3101 23.605 65.47 22.945 65.8 22.375C66.12 21.805 66.57 21.355 67.15 21.035C67.72 20.715 68.3701 20.5549 69.1001 20.5549C69.6401 20.5549 70.1301 20.655 70.5801 20.855C71.0301 21.055 71.4101 21.355 71.7101 21.755V17.635H73.0601ZM70.49 26.6749C70.88 26.4549 71.18 26.145 71.39 25.745C71.61 25.345 71.7101 24.885 71.7101 24.365C71.7101 23.845 71.6 23.385 71.39 22.985C71.17 22.585 70.87 22.2749 70.49 22.0649C70.1 21.8449 69.6801 21.735 69.2101 21.735C68.7401 21.735 68.3 21.8449 67.92 22.0649C67.54 22.2849 67.24 22.585 67.02 22.985C66.8 23.385 66.6901 23.845 66.6901 24.365C66.6901 24.885 66.8 25.345 67.02 25.745C67.24 26.145 67.54 26.4549 67.92 26.6749C68.3 26.8949 68.7301 27.005 69.2101 27.005C69.6901 27.005 70.11 26.8949 70.49 26.6749Z" fill="white"/>
<path d="M80.7301 21.3149C81.2801 21.8249 81.5601 22.585 81.5601 23.585V28.105H80.28V27.115C80.05 27.465 79.7301 27.725 79.3101 27.915C78.8901 28.095 78.3901 28.1949 77.8201 28.1949C76.9801 28.1949 76.3101 27.995 75.8101 27.585C75.3101 27.185 75.0601 26.645 75.0601 25.995C75.0601 25.345 75.3 24.805 75.78 24.405C76.26 24.005 77.0201 23.8049 78.0701 23.8049H80.2201V23.535C80.2201 22.955 80.0501 22.5049 79.7101 22.1949C79.3701 21.8849 78.8701 21.725 78.2101 21.725C77.7701 21.725 77.33 21.7949 76.91 21.9449C76.49 22.0949 76.1301 22.285 75.8401 22.525L75.28 21.505C75.67 21.195 76.13 20.9549 76.66 20.7949C77.2 20.6349 77.77 20.5449 78.37 20.5449C79.41 20.5449 80.2 20.7949 80.75 21.3049L80.7301 21.3149ZM79.38 26.7949C79.76 26.5649 80.0301 26.2349 80.2001 25.8149V24.775H78.1101C76.9601 24.775 76.39 25.1649 76.39 25.9349C76.39 26.3149 76.5401 26.605 76.8301 26.825C77.1201 27.045 77.53 27.145 78.04 27.145C78.55 27.145 79 27.0249 79.38 26.7949Z" fill="white"/>
<path d="M84.4502 27.9349C83.8902 27.7649 83.4401 27.5649 83.1201 27.3049L83.6802 26.235C84.0102 26.475 84.4101 26.6549 84.8801 26.7949C85.3501 26.9349 85.8302 27.005 86.3102 27.005C87.5002 27.005 88.0902 26.665 88.0902 25.985C88.0902 25.755 88.0102 25.5849 87.8502 25.4449C87.6902 25.3149 87.4901 25.215 87.2501 25.155C87.0101 25.095 86.6702 25.025 86.2302 24.955C85.6302 24.865 85.1401 24.755 84.7601 24.625C84.3801 24.505 84.0502 24.295 83.7802 24.005C83.5102 23.715 83.3701 23.305 83.3701 22.775C83.3701 22.095 83.6502 21.555 84.2202 21.145C84.7902 20.735 85.5401 20.535 86.4901 20.535C86.9901 20.535 87.4901 20.595 87.9901 20.715C88.4901 20.835 88.9002 21.005 89.2202 21.205L88.6401 22.275C88.0301 21.885 87.3102 21.6849 86.4802 21.6849C85.9102 21.6849 85.4702 21.775 85.1702 21.965C84.8702 22.155 84.7202 22.405 84.7202 22.715C84.7202 22.965 84.8002 23.1549 84.9702 23.2949C85.1402 23.4349 85.3502 23.535 85.6002 23.605C85.8502 23.675 86.2001 23.745 86.6501 23.835C87.2501 23.935 87.7402 24.045 88.1102 24.165C88.4802 24.285 88.8002 24.485 89.0602 24.765C89.3202 25.045 89.4502 25.445 89.4502 25.955C89.4502 26.635 89.1602 27.175 88.5802 27.575C88.0002 27.975 87.2102 28.1749 86.2202 28.1749C85.6102 28.1749 85.0202 28.0949 84.4602 27.9249L84.4502 27.9349Z" fill="white"/>
</svg>
