<svg width="274" height="140" viewBox="0 0 274 140" fill="none" xmlns="http://www.w3.org/2000/svg">
<g filter="url(#filter0_d_334_9213)">
<path d="M48.7598 135.195C48.8698 87.3448 87.6997 48.5748 135.57 48.5748C183.44 48.5748 222.27 87.3348 222.38 135.195H218.62C218.51 89.4148 181.37 52.3448 135.57 52.3448C89.7697 52.3448 52.6298 89.4248 52.5198 135.195H48.7598Z" fill="url(#paint0_linear_334_9213)" stroke="white" stroke-miterlimit="10"/>
<path d="M135.57 2.21484C209.05 2.21484 268.63 61.7348 268.74 135.185H264.98C264.87 63.8048 206.97 5.97485 135.57 5.97485C64.1698 5.97485 6.26991 63.8048 6.15991 135.185H2.3999C2.5099 61.7248 62.0898 2.21484 135.57 2.21484Z" fill="url(#paint1_linear_334_9213)" stroke="white" stroke-miterlimit="10"/>
<path d="M16.7798 135.195C16.8898 69.6748 70.0297 16.5948 135.58 16.5948C201.13 16.5948 254.27 69.6748 254.38 135.195H234.32C234.21 80.7548 190.05 36.6548 135.58 36.6548C81.1097 36.6548 36.9497 80.7548 36.8397 135.195H16.7798Z" fill="url(#paint2_linear_334_9213)" stroke="white" stroke-miterlimit="10"/>
</g>
<defs>
<filter id="filter0_d_334_9213" x="0.478926" y="0.294844" width="273.022" height="139.66" filterUnits="userSpaceOnUse" color-interpolation-filters="sRGB">
<feFlood flood-opacity="0" result="BackgroundImageFix"/>
<feColorMatrix in="SourceAlpha" type="matrix" values="0 0 0 0 0 0 0 0 0 0 0 0 0 0 0 0 0 0 127 0" result="hardAlpha"/>
<feOffset dx="1.42" dy="1.42"/>
<feGaussianBlur stdDeviation="1.42"/>
<feColorMatrix type="matrix" values="0 0 0 0 1 0 0 0 0 1 0 0 0 0 1 0 0 0 0.5 0"/>
<feBlend mode="normal" in2="BackgroundImageFix" result="effect1_dropShadow_334_9213"/>
<feBlend mode="normal" in="SourceGraphic" in2="effect1_dropShadow_334_9213" result="shape"/>
</filter>
<linearGradient id="paint0_linear_334_9213" x1="48.7598" y1="-1891.33" x2="222.39" y2="-1891.33" gradientUnits="userSpaceOnUse">
<stop stop-color="#005693"/>
<stop offset="0.18" stop-color="#6DA55B"/>
<stop offset="0.38" stop-color="#009EE2"/>
<stop offset="0.59" stop-color="#28348A"/>
<stop offset="0.72" stop-color="#AEC90B"/>
<stop offset="0.85" stop-color="#FFCB00"/>
<stop offset="1" stop-color="#EB6608"/>
</linearGradient>
<linearGradient id="paint1_linear_334_9213" x1="2.3999" y1="68.7048" x2="268.74" y2="68.7048" gradientUnits="userSpaceOnUse">
<stop stop-color="#005693"/>
<stop offset="0.18" stop-color="#6DA55B"/>
<stop offset="0.38" stop-color="#009EE2"/>
<stop offset="0.59" stop-color="#28348A"/>
<stop offset="0.72" stop-color="#AEC90B"/>
<stop offset="0.85" stop-color="#FFCB00"/>
<stop offset="1" stop-color="#EB6608"/>
</linearGradient>
<linearGradient id="paint2_linear_334_9213" x1="16.7798" y1="75.8948" x2="254.37" y2="75.8948" gradientUnits="userSpaceOnUse">
<stop stop-color="#005693"/>
<stop offset="0.18" stop-color="#6DA55B"/>
<stop offset="0.38" stop-color="#009EE2"/>
<stop offset="0.59" stop-color="#28348A"/>
<stop offset="0.72" stop-color="#AEC90B"/>
<stop offset="0.85" stop-color="#FFCB00"/>
<stop offset="1" stop-color="#EB6608"/>
</linearGradient>
</defs>
</svg>
