<svg width="54" height="52" viewBox="0 0 54 52" fill="none" xmlns="http://www.w3.org/2000/svg">
<path d="M33.3748 16.0449C31.2148 16.0449 29.4648 17.8048 29.4648 19.9548C29.4648 22.1048 31.2248 23.865 33.3748 23.865C35.5248 23.865 37.2848 22.1048 37.2848 19.9548C37.2848 17.8048 35.5248 16.0449 33.3748 16.0449ZM33.3748 21.3848C32.5948 21.3848 31.9548 20.7448 31.9548 19.9648C31.9548 19.1848 32.5948 18.5449 33.3748 18.5449C34.1548 18.5449 34.7948 19.1848 34.7948 19.9648C34.7948 20.7448 34.1548 21.3848 33.3748 21.3848Z" fill="url(#paint0_linear_321_6980)"/>
<path d="M52.4551 30.6648L42.6951 20.9048L45.4551 18.1448C46.1651 17.4348 46.5651 16.4848 46.5651 15.4748C46.5651 14.4648 46.1751 13.5149 45.4551 12.8049L40.3651 7.71483C38.8951 6.24483 36.4951 6.24483 35.0251 7.71483L31.8251 10.9148L22.1451 1.23485C20.9651 0.0548536 18.915 0.0548536 17.735 1.23485L14.3651 4.60497C13.7751 5.19497 13.4551 5.97492 13.4551 6.80492C13.4551 7.63492 13.7751 8.42487 14.3651 9.00487L24.045 18.6848L21.7551 20.9748C21.0451 21.6848 20.6451 22.6348 20.6451 23.6448C20.6451 24.6548 21.0351 25.6049 21.7551 26.3149L26.8451 31.4048C27.5551 32.1148 28.5051 32.5149 29.5151 32.5149C30.5251 32.5149 31.4751 32.1248 32.1851 31.4048L34.915 28.6748L44.675 38.4348C45.285 39.0448 46.0751 39.345 46.8751 39.345C47.6751 39.345 48.4651 39.0448 49.0751 38.4348L52.4451 35.0649C53.0351 34.4749 53.355 33.695 53.355 32.865C53.355 32.035 53.0351 31.2448 52.4451 30.6648H52.4551ZM25.6451 16.5449L22.235 13.1348L26.235 9.05492L29.675 12.4949L25.6351 16.5349L25.6451 16.5449ZM19.0651 9.97484L23.0651 5.89477L24.3651 7.19481L20.3651 11.2749L19.0651 9.97484ZM16.0951 6.81493C16.0951 6.74493 16.115 6.60485 16.235 6.48485L19.605 3.11498C19.725 2.99498 19.8651 2.97484 19.9351 2.97484C20.0051 2.97484 20.1451 2.99498 20.2651 3.11498L21.1851 4.0349L17.1851 8.11498L16.225 7.15478C16.105 7.03478 16.0851 6.89494 16.0851 6.82494L16.0951 6.81493ZM30.425 29.6548C29.925 30.1548 29.115 30.1548 28.605 29.6548L23.5151 24.5649C23.0151 24.0649 23.0151 23.2549 23.5151 22.7449L36.7751 9.48485C37.0251 9.23485 37.3551 9.10497 37.6851 9.10497C38.0151 9.10497 38.3451 9.23485 38.5951 9.48485L43.6851 14.5749C44.1851 15.0749 44.1851 15.8848 43.6851 16.3948L30.425 29.6548ZM42.4551 32.4849L46.4551 28.4048L47.7551 29.7048L43.7551 33.7849L42.4551 32.4849ZM41.1851 23.1348L44.5951 26.5449L40.5951 30.625L37.1551 27.1848L41.1951 23.1448L41.1851 23.1348ZM50.5851 33.2048L47.2151 36.5749C47.0251 36.7549 46.725 36.7649 46.545 36.5749L45.6251 35.6548L49.6251 31.5749L50.5851 32.5349C50.7051 32.6549 50.725 32.795 50.725 32.865C50.725 32.935 50.7051 33.0748 50.5851 33.1948V33.2048Z" fill="url(#paint1_linear_321_6980)"/>
<path d="M15.7451 27.005C13.8651 27.175 12.1751 27.9651 10.7351 29.3551L9.76514 30.295L22.4451 42.8651L23.2851 41.3151C23.3251 41.2451 24.1651 39.675 24.6351 37.535C25.2451 34.785 24.4951 31.895 22.6351 29.785C20.8651 27.775 18.3451 26.765 15.7451 27.005ZM22.0551 36.975C21.9451 37.485 21.8051 37.9651 21.6651 38.3751L13.6451 30.4249C14.3651 29.9749 15.1551 29.7149 15.9951 29.6449C17.7551 29.4849 19.4551 30.175 20.6651 31.545C21.9651 33.025 22.4851 35.055 22.0651 36.975H22.0551Z" fill="url(#paint2_linear_321_6980)"/>
<path d="M15.0851 44.0448C8.44507 42.3248 8.61505 38.0148 8.62505 37.7948C8.67505 37.0748 8.14502 36.4449 7.41502 36.3749C6.64502 36.3049 6.04503 36.8549 5.98503 37.5849C5.79503 39.8949 7.30502 44.7549 14.415 46.5949C14.525 46.6249 14.635 46.6347 14.745 46.6347C15.335 46.6347 15.8651 46.2447 16.0251 45.6447C16.2051 44.9347 15.7851 44.2148 15.0751 44.0348L15.0851 44.0448Z" fill="url(#paint3_linear_321_6980)"/>
<path d="M13.935 48.6447C3.885 47.2347 3.24498 38.7048 3.22498 38.3248C3.18498 37.5948 2.56502 37.0248 1.83502 37.0748C1.10502 37.1148 0.545024 37.7347 0.585024 38.4647C0.585024 38.5747 1.315 49.5448 13.565 51.2548C13.625 51.2548 13.685 51.2648 13.745 51.2648C14.395 51.2648 14.955 50.7849 15.055 50.1249C15.155 49.4049 14.655 48.7346 13.925 48.6346L13.935 48.6447Z" fill="url(#paint4_linear_321_6980)"/>
<path d="M14.225 40.235L14.2551 40.2049C14.8051 39.7149 14.835 38.8951 14.355 38.3551C13.875 37.8051 13.025 37.775 12.475 38.255C11.925 38.735 11.885 39.5751 12.365 40.1251C12.625 40.4151 12.985 40.565 13.355 40.565C13.665 40.565 13.985 40.455 14.235 40.235H14.225Z" fill="url(#paint5_linear_321_6980)"/>
<defs>
<linearGradient id="paint0_linear_321_6980" x1="5.42501" y1="39.2151" x2="57.5052" y2="3.33557" gradientUnits="userSpaceOnUse">
<stop stop-color="#ED7225"/>
<stop offset="0.17" stop-color="#FDC80A"/>
<stop offset="0.45" stop-color="#047F45"/>
<stop offset="0.76" stop-color="#0C98CA"/>
<stop offset="0.97" stop-color="white"/>
</linearGradient>
<linearGradient id="paint1_linear_321_6980" x1="5.38508" y1="39.155" x2="57.4552" y2="3.26504" gradientUnits="userSpaceOnUse">
<stop stop-color="#ED7225"/>
<stop offset="0.17" stop-color="#FDC80A"/>
<stop offset="0.45" stop-color="#047F45"/>
<stop offset="0.76" stop-color="#0C98CA"/>
<stop offset="0.97" stop-color="white"/>
</linearGradient>
<linearGradient id="paint2_linear_321_6980" x1="7.53514" y1="42.2751" x2="59.6054" y2="6.3852" gradientUnits="userSpaceOnUse">
<stop stop-color="#ED7225"/>
<stop offset="0.17" stop-color="#FDC80A"/>
<stop offset="0.45" stop-color="#047F45"/>
<stop offset="0.76" stop-color="#0C98CA"/>
<stop offset="0.97" stop-color="white"/>
</linearGradient>
<linearGradient id="paint3_linear_321_6980" x1="8.29504" y1="43.3847" x2="60.3743" y2="7.49427" gradientUnits="userSpaceOnUse">
<stop stop-color="#ED7225"/>
<stop offset="0.17" stop-color="#FDC80A"/>
<stop offset="0.45" stop-color="#047F45"/>
<stop offset="0.76" stop-color="#0C98CA"/>
<stop offset="0.97" stop-color="white"/>
</linearGradient>
<linearGradient id="paint4_linear_321_6980" x1="8.51501" y1="43.7048" x2="60.5948" y2="7.81485" gradientUnits="userSpaceOnUse">
<stop stop-color="#ED7225"/>
<stop offset="0.17" stop-color="#FDC80A"/>
<stop offset="0.45" stop-color="#047F45"/>
<stop offset="0.76" stop-color="#0C98CA"/>
<stop offset="0.97" stop-color="white"/>
</linearGradient>
<linearGradient id="paint5_linear_321_6980" x1="7.99502" y1="42.9451" x2="60.0653" y2="7.05498" gradientUnits="userSpaceOnUse">
<stop stop-color="#ED7225"/>
<stop offset="0.17" stop-color="#FDC80A"/>
<stop offset="0.45" stop-color="#047F45"/>
<stop offset="0.76" stop-color="#0C98CA"/>
<stop offset="0.97" stop-color="white"/>
</linearGradient>
</defs>
</svg>
