<svg width="91" height="90" viewBox="0 0 91 90" fill="none" xmlns="http://www.w3.org/2000/svg">
<path d="M45.6603 82.775C66.4648 82.775 83.3302 65.9095 83.3302 45.105C83.3302 24.3004 66.4648 7.43494 45.6603 7.43494C24.8557 7.43494 7.99023 24.3004 7.99023 45.105C7.99023 65.9095 24.8557 82.775 45.6603 82.775Z" fill="url(#paint0_linear_334_9607)"/>
<mask id="mask0_334_9607" style="mask-type:luminance" maskUnits="userSpaceOnUse" x="32" y="28" width="14" height="40">
<path d="M45.7803 28.875H32.2002V67.025H45.7803V28.875Z" fill="white"/>
</mask>
<g mask="url(#mask0_334_9607)">
<path d="M45.8203 67.025C44.8203 67.025 38.6903 66.745 37.4403 60.005V59.9649C37.4403 59.9649 37.0904 56.575 36.3804 52.775C35.6804 49.015 33.0504 43.345 33.0304 43.295V43.265C32.9604 43.115 31.6403 39.575 32.4803 36.035C33.2203 32.905 36.3904 31.335 36.8004 31.145C37.1404 30.915 39.8204 29.1849 43.0004 28.9749C46.1804 28.7649 46.8904 28.9349 47.0004 28.9749L46.7303 29.8349C46.7303 29.8349 46.0703 29.685 43.0603 29.885C39.9703 30.085 37.3004 31.895 37.2804 31.915L37.2103 31.9549C37.2103 31.9549 34.0303 33.415 33.3603 36.255C32.6103 39.425 33.7703 42.7049 33.8603 42.9449C34.0503 43.3549 36.5704 48.815 37.2804 52.625C37.9704 56.315 38.3103 59.585 38.3403 59.865C39.5603 66.365 45.6704 66.145 45.9304 66.135L45.9803 67.035C45.9803 67.035 45.9303 67.035 45.8403 67.035L45.8203 67.025Z" fill="white"/>
</g>
<mask id="mask1_334_9607" style="mask-type:luminance" maskUnits="userSpaceOnUse" x="45" y="28" width="15" height="40">
<path d="M59.3602 28.875H45.7803V67.025H59.3602V28.875Z" fill="white"/>
</mask>
<g mask="url(#mask1_334_9607)">
<path d="M45.7401 67.025C45.6601 67.025 45.6101 67.025 45.6001 67.025L45.6501 66.125C45.9101 66.135 52.0201 66.365 53.2401 59.855C53.2701 59.575 53.6102 56.305 54.3002 52.615C55.0102 48.805 57.5201 43.3449 57.7201 42.9349C57.8101 42.6949 58.9701 39.405 58.2201 36.245C57.5501 33.415 54.4001 31.9649 54.3701 31.9449L54.3002 31.905C54.3002 31.905 51.6001 30.075 48.5201 29.875C45.5101 29.675 44.8601 29.825 44.8301 29.835L44.5801 28.975C44.6901 28.945 45.4001 28.775 48.5801 28.975C51.7601 29.185 54.4402 30.915 54.7802 31.145C55.1802 31.335 58.3601 32.915 59.1001 36.035C59.9401 39.575 58.6201 43.115 58.5601 43.265V43.295C58.5201 43.355 55.8901 49.015 55.1901 52.775C54.4801 56.575 54.1401 59.925 54.1401 59.965V60.005C52.8801 66.745 46.7501 67.025 45.7501 67.025H45.7401Z" fill="white"/>
</g>
<path d="M33.4704 43.945C32.4704 43.595 31.2504 43.435 30.0704 43.285C29.4904 43.215 28.9305 43.1451 28.4005 43.0451C24.0905 42.2951 20.2404 39.555 18.1104 35.735C18.0204 35.575 17.7805 35.135 18.0105 34.715C18.1405 34.475 18.3704 34.3649 18.5004 34.3049C19.9504 33.5949 21.2404 33.215 22.4604 33.125C24.2204 33.005 26.1605 33.505 28.0505 34.575C29.7205 35.515 31.3904 36.905 32.8204 38.125L32.2404 38.8049C30.8404 37.6049 29.2204 36.255 27.6104 35.355C25.8704 34.375 24.1105 33.915 22.5205 34.025C21.4205 34.105 20.2305 34.455 18.8905 35.115C18.8805 35.115 18.8404 35.135 18.8204 35.155C18.8304 35.185 18.8505 35.2349 18.8905 35.3049C20.8905 38.8949 24.5005 41.4649 28.5505 42.1749C29.0605 42.2649 29.6005 42.335 30.1705 42.405C31.4005 42.555 32.6605 42.715 33.7605 43.105L33.4604 43.955L33.4704 43.945Z" fill="white"/>
<path d="M58.0802 43.945L57.7803 43.095C58.8703 42.705 60.1402 42.545 61.3702 42.395C61.9402 42.325 62.4902 42.255 62.9902 42.165C67.0402 41.455 70.6503 38.8951 72.6503 35.2951C72.6903 35.2151 72.7102 35.165 72.7202 35.135C72.7002 35.135 72.6603 35.105 72.6503 35.105C71.3103 34.445 70.1203 34.095 69.0203 34.015C67.4303 33.905 65.6703 34.365 63.9303 35.345C62.3303 36.245 60.7003 37.6051 59.3003 38.7951L58.7202 38.115C60.1502 36.895 61.8102 35.505 63.4902 34.565C65.3902 33.495 67.3202 32.995 69.0802 33.115C70.3002 33.195 71.5903 33.5851 73.0403 34.2951C73.1603 34.3551 73.4003 34.465 73.5303 34.705C73.7603 35.125 73.5303 35.565 73.4303 35.725C71.3003 39.555 67.4503 42.285 63.1403 43.035C62.6103 43.125 62.0602 43.195 61.4702 43.275C60.2902 43.425 59.0702 43.5749 58.0702 43.9349L58.0802 43.945Z" fill="white"/>
<path d="M40.8101 44.1949C41.1801 44.1949 41.4801 43.8951 41.4801 43.525C41.4801 43.155 41.1801 42.855 40.8101 42.855C40.44 42.855 40.1401 43.155 40.1401 43.525C40.1401 43.8951 40.44 44.1949 40.8101 44.1949Z" fill="white"/>
<path d="M40.8102 44.345C40.3602 44.345 39.9902 43.975 39.9902 43.525C39.9902 43.075 40.3602 42.705 40.8102 42.705C41.2602 42.705 41.6302 43.075 41.6302 43.525C41.6302 43.975 41.2602 44.345 40.8102 44.345ZM40.8102 42.995C40.5202 42.995 40.2903 43.235 40.2903 43.515C40.2903 43.795 40.5302 44.035 40.8102 44.035C41.0902 44.035 41.3302 43.795 41.3302 43.515C41.3302 43.235 41.0902 42.995 40.8102 42.995Z" fill="white"/>
<path d="M50.3707 44.1949C50.7408 44.1949 51.0408 43.8951 51.0408 43.525C51.0408 43.155 50.7408 42.855 50.3707 42.855C50.0007 42.855 49.7007 43.155 49.7007 43.525C49.7007 43.8951 50.0007 44.1949 50.3707 44.1949Z" fill="white"/>
<path d="M50.3707 44.345C49.9207 44.345 49.5508 43.975 49.5508 43.525C49.5508 43.075 49.9207 42.705 50.3707 42.705C50.8207 42.705 51.1907 43.075 51.1907 43.525C51.1907 43.975 50.8207 44.345 50.3707 44.345ZM50.3707 42.995C50.0807 42.995 49.8507 43.235 49.8507 43.515C49.8507 43.795 50.0907 44.035 50.3707 44.035C50.6507 44.035 50.8907 43.795 50.8907 43.515C50.8907 43.235 50.6507 42.995 50.3707 42.995Z" fill="white"/>
<mask id="mask2_334_9607" style="mask-type:luminance" maskUnits="userSpaceOnUse" x="37" y="52" width="9" height="11">
<path d="M45.7206 52.115H37.1206V62.6849H45.7206V52.115Z" fill="white"/>
</mask>
<g mask="url(#mask2_334_9607)">
<path d="M41.3404 62.6849C40.8004 62.6849 39.8304 62.565 38.9604 61.855C37.8404 60.945 37.2304 59.395 37.1404 57.245C37.1004 56.875 36.8905 53.855 40.6705 52.545H40.7204C40.8204 52.505 43.1004 52.005 45.7404 52.125L45.7004 53.025C43.3204 52.915 41.1904 53.355 40.9404 53.405C37.6804 54.545 38.0105 57.035 38.0305 57.135V57.1849C38.1105 59.0649 38.6104 60.395 39.5104 61.135C40.4804 61.925 41.6204 61.755 41.6304 61.755H41.7104H41.7905C41.7905 61.755 42.2204 61.795 42.7304 61.235C43.0604 60.875 43.3004 60.595 43.5104 60.355C43.6704 60.165 43.8204 59.995 43.9704 59.835L44.0204 59.775C44.4104 59.355 45.0504 58.645 45.8604 58.745L45.7504 59.635C45.4004 59.595 44.9505 60.085 44.6805 60.375L44.6304 60.4349C44.4804 60.5949 44.3504 60.7549 44.1904 60.9349C43.9804 61.1849 43.7304 61.465 43.3904 61.835C42.6604 62.635 41.9604 62.665 41.7104 62.645C41.6404 62.645 41.5104 62.665 41.3404 62.665V62.6849Z" fill="white"/>
</g>
<mask id="mask3_334_9607" style="mask-type:luminance" maskUnits="userSpaceOnUse" x="45" y="52" width="10" height="11">
<path d="M54.3207 52.115H45.7207V62.6849H54.3207V52.115Z" fill="white"/>
</mask>
<g mask="url(#mask3_334_9607)">
<path d="M50.1006 62.6849C49.9306 62.6849 49.8006 62.675 49.7306 62.665C49.4806 62.685 48.7807 62.6549 48.0507 61.8549C47.7107 61.4849 47.4706 61.2049 47.2506 60.9549C47.0906 60.7749 46.9505 60.6149 46.8105 60.4549L46.7606 60.395C46.4906 60.105 46.0406 59.615 45.6906 59.655L45.5806 58.765C46.3906 58.665 47.0407 59.375 47.4207 59.795L47.4706 59.8549C47.6206 60.0249 47.7707 60.185 47.9307 60.375C48.1407 60.615 48.3806 60.895 48.7106 61.255C49.2306 61.825 49.6507 61.775 49.6707 61.775H49.7506H49.8105C49.8105 61.775 50.9607 61.945 51.9307 61.155C52.8307 60.415 53.3306 59.0849 53.4106 57.2049V57.155C53.4306 57.055 53.7606 54.5649 50.5006 53.4249C50.2606 53.3749 48.1206 52.935 45.7406 53.045L45.7006 52.145C48.3406 52.025 50.6306 52.5349 50.7206 52.5549H50.7706C54.5606 53.8749 54.3507 56.895 54.3007 57.265C54.2107 59.415 53.6006 60.965 52.4806 61.875C51.6006 62.585 50.6406 62.7049 50.1006 62.7049V62.6849Z" fill="white"/>
</g>
<path d="M41.4304 57.395C41.8943 57.395 42.2704 57.0189 42.2704 56.5549C42.2704 56.091 41.8943 55.715 41.4304 55.715C40.9665 55.715 40.5903 56.091 40.5903 56.5549C40.5903 57.0189 40.9665 57.395 41.4304 57.395Z" fill="white"/>
<path d="M41.4305 57.545C40.8805 57.545 40.4404 57.1049 40.4404 56.5549C40.4404 56.0049 40.8805 55.5649 41.4305 55.5649C41.9805 55.5649 42.4205 56.0049 42.4205 56.5549C42.4205 57.1049 41.9805 57.545 41.4305 57.545ZM41.4305 55.865C41.0505 55.865 40.7405 56.1749 40.7405 56.5549C40.7405 56.9349 41.0505 57.245 41.4305 57.245C41.8105 57.245 42.1205 56.9349 42.1205 56.5549C42.1205 56.1749 41.8105 55.865 41.4305 55.865Z" fill="white"/>
<path d="M49.8702 57.395C50.3342 57.395 50.7102 57.0189 50.7102 56.5549C50.7102 56.091 50.3342 55.715 49.8702 55.715C49.4063 55.715 49.0303 56.091 49.0303 56.5549C49.0303 57.0189 49.4063 57.395 49.8702 57.395Z" fill="white"/>
<path d="M49.8704 57.545C49.3304 57.545 48.8804 57.1049 48.8804 56.5549C48.8804 56.0049 49.3204 55.5649 49.8704 55.5649C50.4204 55.5649 50.8604 56.0049 50.8604 56.5549C50.8604 57.1049 50.4204 57.545 49.8704 57.545ZM49.8704 55.865C49.4904 55.865 49.1804 56.1749 49.1804 56.5549C49.1804 56.9349 49.4904 57.245 49.8704 57.245C50.2504 57.245 50.5603 56.9349 50.5603 56.5549C50.5603 56.1749 50.2504 55.865 49.8704 55.865Z" fill="white"/>
<path opacity="0.8" d="M45.7203 0.244995C20.9803 0.244995 0.860352 20.375 0.860352 45.105C0.860352 69.835 20.9903 89.965 45.7203 89.965C70.4503 89.965 90.5803 69.835 90.5803 45.105C90.5803 20.375 70.4503 0.244995 45.7203 0.244995ZM45.7203 7.43494C66.4903 7.43494 83.3904 24.335 83.3904 45.105C83.3904 51.805 81.6303 58.095 78.5603 63.545L15.6903 22.395C22.5703 13.315 33.4803 7.43494 45.7303 7.43494H45.7203ZM45.7203 82.775C24.9503 82.775 8.05042 65.875 8.05042 45.105C8.05042 39.315 9.37033 33.825 11.7103 28.915L74.1604 69.785C67.2504 77.735 57.0603 82.775 45.7203 82.775Z" fill="#EA660A"/>
<defs>
<linearGradient id="paint0_linear_334_9607" x1="7.98023" y1="45.105" x2="83.3302" y2="45.105" gradientUnits="userSpaceOnUse">
<stop stop-color="#046DB5"/>
<stop offset="1" stop-color="#253785"/>
</linearGradient>
</defs>
</svg>
