<svg width="53" height="52" viewBox="0 0 53 52" fill="none" xmlns="http://www.w3.org/2000/svg">
<path d="M6.5801 6.0248C-1.3099 13.9148 -1.3099 26.7548 6.5801 34.6448C13.1601 41.2248 23.1902 42.3148 30.9202 37.9148C31.9902 37.3048 33.0101 36.5948 33.9701 35.7748C34.3901 35.4148 34.8001 35.0348 35.2001 34.6448C35.6001 34.2448 35.9801 33.8348 36.3301 33.4148C37.1501 32.4548 37.8601 31.4348 38.4701 30.3648C42.8801 22.6448 41.7901 12.6048 35.2001 6.0248C27.3101 -1.8652 14.4701 -1.8652 6.5801 6.0248ZM35.7602 27.6548C35.2102 28.7648 34.5401 29.8248 33.7301 30.8148C33.3801 31.2448 33.0101 31.6548 32.6101 32.0548C32.2101 32.4548 31.8001 32.8248 31.3701 33.1748C30.3801 33.9848 29.3201 34.6549 28.2101 35.2049C22.0201 38.2449 14.3102 37.1948 9.17019 32.0548C2.71019 25.5948 2.71019 15.0848 9.17019 8.61477C15.6302 2.15477 26.1401 2.15477 32.6101 8.61477C37.7501 13.7548 38.8002 21.4648 35.7602 27.6548Z" fill="#FF6700"/>
<path d="M12.9403 12.3848C8.56027 16.7648 8.56027 23.9048 12.9403 28.2848C13.6603 29.0048 14.8202 29.0048 15.5302 28.2848C16.2502 27.5648 16.2502 26.4048 15.5302 25.6948C12.5802 22.7448 12.5802 17.9349 15.5302 14.9749C16.2502 14.2549 16.2502 13.0948 15.5302 12.3848C14.8102 11.6748 13.6503 11.6648 12.9403 12.3848Z" fill="#FF6700"/>
<path d="M38.9302 36.0148L48.3201 45.4048C48.9701 46.0548 48.9701 47.1148 48.3201 47.7648C47.6701 48.4148 46.6101 48.4148 45.9601 47.7648L36.5701 38.3748C36.4901 38.4448 36.4201 38.5048 36.3401 38.5748C35.4801 39.3048 34.5601 39.9848 33.6001 40.5848L43.3801 50.3647C45.4601 52.4447 48.8502 52.4447 50.9302 50.3647C53.0102 48.2847 53.0102 44.8948 50.9302 42.8148L41.1501 33.0348C40.5501 33.9948 39.8701 34.9148 39.1401 35.7848C39.0801 35.8648 39.0102 35.9348 38.9402 36.0148H38.9302Z" fill="#FF6700"/>
</svg>
