<svg width="56" height="74" viewBox="0 0 56 74" fill="none" xmlns="http://www.w3.org/2000/svg">
<path d="M41.83 3.4847C42.74 3.8347 43.12 4.65481 42.82 5.47481C42.52 6.28481 41.68 6.7047 40.78 6.3547C38.21 5.3547 26.23 0.804739 11.86 6.27474C10.95 6.62474 10.14 6.44476 9.72002 5.67476C9.30002 4.91476 9.57998 4.06479 10.43 3.57479C25.29 -1.67521 38.38 2.16471 41.83 3.49471V3.4847Z" fill="white"/>
<path d="M22.7804 73.1748C21.8204 72.7148 21.5804 71.9648 21.7004 70.9448C21.9804 68.5848 22.3804 66.2647 23.4704 64.1247C24.1304 62.8247 25.0204 61.7447 26.4704 61.2447C27.8204 60.7847 29.0704 61.2148 30.2804 61.6948C32.4004 62.5348 34.0304 63.9848 35.2004 65.9548C35.5304 66.5148 35.9904 66.9947 36.3804 67.5147C37.0004 68.3647 36.9504 69.2047 36.2704 69.7747C35.5704 70.3547 34.6704 70.2348 34.0004 69.4148C33.1204 68.3448 32.3004 67.2248 31.4104 66.1648C30.6104 65.2148 29.6704 64.4148 28.3904 64.1748C27.4304 63.9948 27.0004 64.2148 26.4804 65.0648C25.7104 66.3348 25.3404 67.7448 25.0704 69.1848C24.9204 69.9548 24.8204 70.7449 24.7504 71.5249C24.6804 72.3149 24.2904 72.8448 23.5804 73.1648H22.7704L22.7804 73.1748Z" fill="white"/>
<path d="M7.88017 46.9348C7.70017 46.0548 7.3402 44.3248 6.9702 42.5948C6.2602 39.2348 6.3302 35.9047 7.3402 32.6147C8.8102 27.8647 11.6602 24.1547 15.8802 21.5147C17.8902 20.2547 20.0702 19.4048 22.4002 18.9648C26.2002 18.2448 29.9102 18.5947 33.5002 20.0247C36.6902 21.3047 39.3701 23.2848 41.5401 25.9548C42.9801 27.7148 44.0502 29.6848 44.8402 31.8148C44.9502 32.1048 45.1502 32.3948 45.3902 32.5948C48.3002 35.0248 51.2202 37.4447 54.1402 39.8647C54.6302 40.2747 55.0401 40.7148 54.9801 41.4148C54.9301 42.0248 54.6102 42.4648 54.0602 42.7148C53.4702 42.9748 52.9202 42.8148 52.4402 42.4348C51.6602 41.8148 50.8802 41.1748 50.1102 40.5348C47.7102 38.5148 45.3002 36.5048 42.9302 34.4448C42.5302 34.0948 42.2002 33.5848 42.0302 33.0748C40.8502 29.7048 38.8502 26.9447 35.9502 24.8547C33.0702 22.7747 29.8502 21.6848 26.3002 21.6948C20.5202 21.7148 15.9002 24.1048 12.5702 28.8048C10.0402 32.3748 9.1202 36.4147 9.7802 40.7547C10.0202 42.3047 10.4702 43.8347 10.7402 45.3847C11.2802 48.4647 10.9502 51.4148 9.21019 54.0948C7.89019 56.1248 6.01015 57.4548 3.73015 58.2148C2.90015 58.4848 2.04019 58.0748 1.77019 57.3348C1.47019 56.5248 1.82016 55.6947 2.68016 55.3647C3.99016 54.8547 5.19016 54.1947 6.12016 53.1247C7.44016 51.6047 7.90017 49.7948 7.88017 46.9548V46.9348Z" fill="white"/>
<path d="M26.2703 24.5148C31.8703 24.6148 37.2003 28.3147 39.0003 33.6147C39.6703 35.5947 40.8903 37.1248 42.3103 38.5448C45.5603 41.7948 49.1403 44.6448 52.7103 47.5248C53.4703 48.1348 53.7003 48.7548 53.4703 49.4248C53.1203 50.4148 51.9103 50.7948 51.0503 50.0948C46.9603 46.8248 42.8503 43.5648 39.2403 39.7548C37.8503 38.2848 36.8503 36.6148 36.1503 34.6748C34.7303 30.7648 31.8303 28.4448 27.7203 27.8348C23.7003 27.2348 20.4003 28.7248 17.9403 31.9148C15.8403 34.6348 15.2903 37.7448 16.0303 41.0948C16.8203 44.6748 17.4903 48.2648 17.4703 51.9448C17.4703 54.2548 17.1703 56.5148 16.0403 58.5848C14.9703 60.5648 13.3303 61.9148 11.3503 62.8748C10.4903 63.2948 9.58027 63.6148 8.67027 63.9348C7.76027 64.2548 6.90029 63.8648 6.63029 63.0648C6.35029 62.2348 6.7403 61.4448 7.6403 61.0748C8.5803 60.6848 9.55031 60.3648 10.4603 59.9048C12.7503 58.7248 13.9203 56.7648 14.2603 54.2548C14.6703 51.2548 14.2803 48.3047 13.7603 45.3547C13.4203 43.4047 12.9103 41.4748 12.7303 39.5048C12.1603 33.0748 16.2603 27.0648 22.4503 25.1948C23.6903 24.8248 25.0103 24.7248 26.2903 24.5048L26.2703 24.5148Z" fill="white"/>
<path d="M27.4199 31.0948C29.7599 31.2648 32.19 32.8348 33.4 35.9948C34.32 38.3848 35.7599 40.3948 37.4399 42.2648C40.7499 45.9448 44.49 49.1447 48.34 52.2347C48.94 52.7147 49.55 53.1848 50.13 53.6948C50.87 54.3348 50.99 55.2448 50.47 55.8948C49.91 56.5848 48.99 56.6748 48.2 56.0548C43.57 52.3748 38.9999 48.6248 35.0399 44.2048C33.5099 42.4948 32.12 40.6748 31.15 38.5648C30.87 37.9548 30.67 37.3148 30.41 36.6848C29.49 34.4048 26.9899 33.2048 24.8099 33.9948C22.3299 34.8948 21.1399 37.3348 21.9199 39.8048C22.8399 42.7048 24.3499 45.2848 26.1699 47.6848C29.2199 51.6948 32.88 55.1047 36.7 58.3547C38.56 59.9447 40.4799 61.4548 42.3699 63.0048C43.1499 63.6448 43.3899 64.2748 43.1199 64.9448C42.7099 65.9748 41.57 66.2648 40.65 65.5348C39.5 64.6348 38.3599 63.7148 37.2299 62.7848C33.8799 60.0348 30.6199 57.1848 27.6199 54.0448C24.3599 50.6248 21.47 46.9448 19.66 42.5248C19.1 41.1648 18.65 39.7848 18.71 38.2848C18.89 34.2048 22.31 30.9847 27.4 31.1047L27.4199 31.0948Z" fill="white"/>
<path d="M27.4001 12.5849C30.5101 12.6249 33.5201 13.1748 36.4001 14.3548C39.3801 15.5648 41.9001 17.4148 44.0601 19.7748C46.1301 22.0348 47.7001 24.6449 49.3401 27.2049C49.9701 28.1949 50.6301 29.1648 51.3201 30.1148C52.0101 31.0648 52.8601 31.8148 53.9601 32.2948C54.9101 32.7148 55.2701 33.5349 54.9201 34.3349C54.5501 35.1849 53.7201 35.4449 52.7401 35.0649C50.8901 34.3649 49.6001 33.0049 48.5001 31.4549C47.5101 30.0549 46.6101 28.5948 45.6901 27.1548C44.2101 24.8248 42.6601 22.5548 40.6201 20.6548C37.8901 18.1148 34.6501 16.6149 31.0001 15.9749C27.1501 15.3049 23.3201 15.4049 19.5801 16.5649C14.8701 18.0349 11.0001 20.7549 8.03014 24.7149C5.93014 27.5149 4.5401 30.6449 3.9201 34.0849C3.6601 35.5149 3.63014 36.9949 3.46014 38.4449C3.34014 39.4349 2.48014 39.9748 1.53014 39.7348C0.870143 39.5648 0.450136 38.9249 0.460136 38.0749C0.510136 35.0849 0.990111 32.1748 2.06011 29.3748C4.68011 22.4948 9.39014 17.5749 16.0901 14.5949C18.9401 13.3249 21.9501 12.6249 25.1001 12.5749C25.8701 12.5649 26.6401 12.5749 27.4101 12.5749L27.4001 12.5849Z" fill="white"/>
<path d="M24.6902 9.44482C20.4202 9.51482 16.3002 10.2548 12.4002 12.0348C9.44025 13.3848 6.80023 15.1648 4.82023 17.8148C3.98023 18.9348 2.65021 18.8848 2.11021 17.7648C1.82021 17.1648 1.95023 16.6148 2.32023 16.0848C3.59023 14.2748 5.20022 12.8348 7.00022 11.5848C10.6302 9.08483 14.6502 7.58479 18.9902 6.91479C25.7602 5.85479 32.3402 6.6048 38.6902 9.1748C42.1402 10.5748 45.3402 12.3948 47.9002 15.1748C48.2802 15.5948 48.6202 16.0847 48.8502 16.6047C49.1502 17.2647 48.8202 18.0148 48.1902 18.3848C47.6102 18.7348 46.7702 18.6547 46.3502 18.1047C44.2202 15.3147 41.2703 13.6848 38.1603 12.2848C35.4303 11.0648 32.5502 10.2648 29.5802 9.87475C27.9602 9.66475 26.3302 9.58482 24.7002 9.44482H24.6902Z" fill="white"/>
<path d="M47.4403 59.2748C47.4203 60.1348 47.1503 60.5748 46.6303 60.8548C46.0703 61.1548 45.5103 61.1049 45.0103 60.7149C44.0403 59.9549 43.1003 59.1548 42.1203 58.4148C38.5303 55.6948 34.9803 52.9249 31.8103 49.6949C29.6003 47.4449 27.6103 45.0249 26.1803 42.1949C25.6303 41.1149 25.2003 39.9849 24.8003 38.8449C24.4803 37.9349 24.9303 37.1249 25.7603 36.8449C26.5403 36.5749 27.3903 36.9748 27.6703 37.8748C29.1103 42.4048 32.1503 45.7948 35.4803 48.9948C38.3303 51.7348 41.5304 54.0548 44.6404 56.4848C45.3804 57.0648 46.1203 57.6549 46.8103 58.3049C47.1303 58.6149 47.3203 59.0748 47.4503 59.2748H47.4403Z" fill="white"/>
<path d="M22.1099 55.9448C21.8999 60.2548 20.9199 63.8448 18.6099 66.9848C17.6099 68.3448 16.3699 69.4048 14.7699 70.0148C13.9299 70.3348 13.0699 70.0148 12.7199 69.2648C12.3699 68.5148 12.6299 67.6148 13.4599 67.2748C15.6499 66.3748 16.8299 64.5948 17.6899 62.5548C18.6899 60.1748 19.2699 57.6948 18.9499 55.0748C18.8999 54.6548 18.7799 54.2449 18.6899 53.8349C18.4899 52.8949 18.9399 52.1448 19.8099 51.9248C20.6199 51.7248 21.4399 52.2248 21.6299 53.1048C21.8599 54.1848 22.0099 55.2948 22.1299 55.9448H22.1099Z" fill="white"/>
<path d="M53.48 27.6648C52.72 27.6548 52.32 27.1948 52.02 26.5548C51.38 25.1648 50.72 23.7748 50.04 22.3948C49.8 21.8948 49.47 21.4348 49.21 20.9448C48.77 20.0948 48.97 19.2548 49.69 18.8248C50.45 18.3648 51.36 18.5548 51.82 19.4148C52.89 21.4348 53.93 23.4648 54.88 25.5448C55.37 26.6048 54.59 27.6848 53.48 27.6748V27.6648Z" fill="white"/>
<path d="M1.99002 42.8647C2.70002 42.8647 3.24004 43.3448 3.45004 44.0348C3.87004 45.3848 4.31 46.7348 4.79 48.0648C5.08 48.8748 5.05001 49.4947 4.55001 49.9847C4.07001 50.4547 3.36001 50.6048 2.80001 50.2548C2.49001 50.0648 2.21 49.7448 2.04 49.4248C1.24 47.9148 0.740007 46.3148 0.480007 44.6248C0.330007 43.6648 1.04003 42.8548 2.00003 42.8748L1.99002 42.8647Z" fill="white"/>
</svg>
