<svg width="274" height="140" viewBox="0 0 274 140" fill="none" xmlns="http://www.w3.org/2000/svg">
<g filter="url(#filter0_d_334_9198)">
<path d="M48.9497 135.195C49.0597 87.3448 87.8797 48.5748 135.76 48.5748C183.64 48.5748 222.46 87.3348 222.57 135.195H218.81C218.7 89.4148 181.56 52.3448 135.76 52.3448C89.9597 52.3448 52.8197 89.4248 52.7097 135.195H48.9497Z" fill="url(#paint0_linear_334_9198)" stroke="white" stroke-width="0.7" stroke-miterlimit="10"/>
<path d="M135.76 2.21484C209.24 2.21484 268.82 61.7348 268.93 135.185H265.17C265.06 63.8048 207.17 5.97485 135.76 5.97485C64.3499 5.97485 6.45985 63.8048 6.34985 135.185H2.58984C2.69984 61.7248 62.2799 2.21484 135.76 2.21484Z" fill="url(#paint1_linear_334_9198)" stroke="white" stroke-width="0.7" stroke-miterlimit="10"/>
<path d="M16.96 135.195C17.07 69.6748 70.22 16.5948 135.76 16.5948C201.3 16.5948 254.45 69.6748 254.56 135.195H234.5C234.39 80.7548 190.23 36.6548 135.76 36.6548C81.29 36.6548 37.13 80.7548 37.02 135.195H16.96Z" fill="url(#paint2_linear_334_9198)" stroke="white" stroke-width="0.7" stroke-miterlimit="10"/>
</g>
<defs>
<filter id="filter0_d_334_9198" x="0.819258" y="0.444868" width="272.721" height="139.36" filterUnits="userSpaceOnUse" color-interpolation-filters="sRGB">
<feFlood flood-opacity="0" result="BackgroundImageFix"/>
<feColorMatrix in="SourceAlpha" type="matrix" values="0 0 0 0 0 0 0 0 0 0 0 0 0 0 0 0 0 0 127 0" result="hardAlpha"/>
<feOffset dx="1.42" dy="1.42"/>
<feGaussianBlur stdDeviation="1.42"/>
<feColorMatrix type="matrix" values="0 0 0 0 1 0 0 0 0 1 0 0 0 0 1 0 0 0 0.5 0"/>
<feBlend mode="normal" in2="BackgroundImageFix" result="effect1_dropShadow_334_9198"/>
<feBlend mode="normal" in="SourceGraphic" in2="effect1_dropShadow_334_9198" result="shape"/>
</filter>
<linearGradient id="paint0_linear_334_9198" x1="48.9497" y1="91.8848" x2="222.57" y2="91.8848" gradientUnits="userSpaceOnUse">
<stop stop-color="#005693"/>
<stop offset="0.18" stop-color="#6DA55B"/>
<stop offset="0.38" stop-color="#009EE2"/>
<stop offset="0.59" stop-color="#28348A"/>
<stop offset="0.72" stop-color="#AEC90B"/>
<stop offset="0.85" stop-color="#FFCB00"/>
<stop offset="1" stop-color="#EB6608"/>
</linearGradient>
<linearGradient id="paint1_linear_334_9198" x1="2.58984" y1="68.7048" x2="268.93" y2="68.7048" gradientUnits="userSpaceOnUse">
<stop stop-color="#005693"/>
<stop offset="0.18" stop-color="#6DA55B"/>
<stop offset="0.38" stop-color="#009EE2"/>
<stop offset="0.59" stop-color="#28348A"/>
<stop offset="0.72" stop-color="#AEC90B"/>
<stop offset="0.85" stop-color="#FFCB00"/>
<stop offset="1" stop-color="#EB6608"/>
</linearGradient>
<linearGradient id="paint2_linear_334_9198" x1="16.96" y1="75.8948" x2="254.56" y2="75.8948" gradientUnits="userSpaceOnUse">
<stop stop-color="#005693"/>
<stop offset="0.18" stop-color="#6DA55B"/>
<stop offset="0.38" stop-color="#009EE2"/>
<stop offset="0.59" stop-color="#28348A"/>
<stop offset="0.72" stop-color="#AEC90B"/>
<stop offset="0.85" stop-color="#FFCB00"/>
<stop offset="1" stop-color="#EB6608"/>
</linearGradient>
</defs>
</svg>
