<svg width="42" height="55" viewBox="0 0 42 55" fill="none" xmlns="http://www.w3.org/2000/svg">
<path d="M31.1846 2.12494C31.8646 2.38494 32.1546 3.00494 31.9346 3.62494C31.7146 4.23494 31.0745 4.55485 30.3945 4.28485C28.4645 3.52485 19.4346 0.104789 8.61463 4.22479C7.93463 4.48479 7.32464 4.35484 6.99464 3.77484C6.68464 3.20484 6.88455 2.55476 7.53455 2.19476C18.7246 -1.76524 28.5846 1.1347 31.1846 2.1347V2.12494Z" fill="url(#paint0_linear_321_7077)"/>
<path d="M16.8246 54.605C16.1046 54.265 15.9245 53.6948 16.0145 52.9248C16.2245 51.1448 16.5246 49.395 17.3446 47.785C17.8446 46.805 18.5046 45.995 19.6046 45.615C20.6146 45.275 21.5546 45.5949 22.4746 45.9549C24.0746 46.5849 25.3046 47.6748 26.1846 49.1648C26.4346 49.5848 26.7846 49.945 27.0746 50.345C27.5446 50.985 27.5046 51.625 26.9946 52.045C26.4646 52.475 25.7846 52.3849 25.2846 51.7749C24.6246 50.9749 24.0046 50.125 23.3346 49.335C22.7246 48.615 22.0246 48.015 21.0546 47.835C20.3246 47.695 20.0146 47.8649 19.6146 48.5049C19.0346 49.4649 18.7546 50.525 18.5546 51.605C18.4446 52.185 18.3746 52.775 18.3146 53.365C18.2646 53.965 17.9646 54.355 17.4346 54.605H16.8246Z" fill="url(#paint1_linear_321_7077)"/>
<path d="M5.61482 34.8449C5.47482 34.1849 5.20477 32.8749 4.93477 31.5849C4.39477 29.0549 4.4548 26.5448 5.2148 24.0648C6.3148 20.4848 8.46473 17.6947 11.6447 15.7047C13.1547 14.7547 14.7948 14.1148 16.5548 13.7848C19.4148 13.2448 22.2147 13.5049 24.9147 14.5849C27.3147 15.5449 29.3348 17.0448 30.9748 19.0448C32.0548 20.3748 32.8648 21.8547 33.4548 23.4547C33.5348 23.6747 33.6848 23.8948 33.8648 24.0348C36.0548 25.8648 38.2548 27.6948 40.4548 29.5148C40.8248 29.8248 41.1348 30.1547 41.0848 30.6747C41.0448 31.1347 40.8047 31.4647 40.3947 31.6547C39.9547 31.8447 39.5348 31.7347 39.1748 31.4447C38.5848 30.9747 38.0048 30.4948 37.4248 30.0148C35.6148 28.4948 33.8047 26.9747 32.0147 25.4247C31.7147 25.1647 31.4648 24.7747 31.3348 24.3947C30.4448 21.8547 28.9347 19.7747 26.7547 18.2047C24.5847 16.6447 22.1548 15.8148 19.4848 15.8248C15.1348 15.8448 11.6547 17.6447 9.14473 21.1747C7.23473 23.8647 6.54475 26.9047 7.04475 30.1747C7.22475 31.3447 7.56472 32.4947 7.76472 33.6547C8.17472 35.9747 7.92482 38.1947 6.61482 40.2147C5.62482 41.7447 4.20483 42.7448 2.49483 43.3148C1.87483 43.5248 1.22472 43.2047 1.01472 42.6547C0.794724 42.0447 1.05479 41.4147 1.70479 41.1647C2.69479 40.7847 3.59475 40.2847 4.29475 39.4747C5.28475 38.3347 5.63482 36.9648 5.61482 34.8248V34.8449Z" fill="url(#paint2_linear_321_7077)"/>
<path d="M19.4547 17.9648C23.6747 18.0448 27.6846 20.8249 29.0446 24.8149C29.5546 26.3049 30.4646 27.4549 31.5346 28.5249C33.9746 30.9749 36.6847 33.1249 39.3647 35.2949C39.9347 35.7549 40.1146 36.2149 39.9346 36.7249C39.6646 37.4749 38.7647 37.7549 38.1047 37.2349C35.0247 34.7749 31.9347 32.3148 29.2047 29.4448C28.1547 28.3448 27.4047 27.075 26.8747 25.625C25.8047 22.685 23.6146 20.9349 20.5246 20.4749C17.4946 20.0249 15.0146 21.1449 13.1646 23.5449C11.5846 25.5949 11.1647 27.9348 11.7247 30.4548C12.3147 33.1448 12.8246 35.855 12.8146 38.625C12.8146 40.365 12.5847 42.065 11.7347 43.625C10.9247 45.115 9.69465 46.135 8.19465 46.855C7.54465 47.165 6.85463 47.4148 6.17463 47.6548C5.48463 47.8948 4.84459 47.6049 4.63459 46.9949C4.42459 46.3649 4.7146 45.7749 5.3946 45.4949C6.1046 45.2049 6.83459 44.965 7.51459 44.615C9.23459 43.725 10.1147 42.245 10.3747 40.365C10.6847 38.105 10.3847 35.8848 9.99469 33.6648C9.73469 32.1948 9.35468 30.7449 9.22468 29.2649C8.79468 24.4249 11.8846 19.8949 16.5446 18.4949C17.4746 18.2149 18.4746 18.1449 19.4346 17.9749L19.4547 17.9648Z" fill="url(#paint3_linear_321_7077)"/>
<path d="M20.3247 22.9248C22.0847 23.0548 23.9147 24.235 24.8347 26.615C25.5247 28.415 26.6048 29.9249 27.8748 31.3349C30.3648 34.1049 33.1847 36.515 36.0847 38.845C36.5347 39.205 36.9947 39.5648 37.4347 39.9448C37.9947 40.4348 38.0847 41.115 37.6947 41.605C37.2747 42.125 36.5748 42.1948 35.9848 41.7248C32.4948 38.9548 29.0547 36.1249 26.0747 32.7949C24.9247 31.5049 23.8747 30.1349 23.1447 28.5549C22.9347 28.0949 22.7847 27.6148 22.5947 27.1448C21.9047 25.4248 20.0148 24.525 18.3748 25.115C16.5148 25.795 15.6147 27.6248 16.2047 29.4848C16.8947 31.6748 18.0347 33.6148 19.4047 35.4248C21.6947 38.4448 24.4647 41.0148 27.3347 43.4648C28.7347 44.6648 30.1847 45.7948 31.6047 46.9648C32.1947 47.4448 32.3747 47.9248 32.1747 48.4248C31.8647 49.2048 31.0147 49.415 30.3147 48.865C29.4447 48.185 28.5848 47.4949 27.7348 46.7949C25.2148 44.7249 22.7546 42.5748 20.5046 40.2048C18.0546 37.6248 15.8747 34.8549 14.5147 31.5249C14.0947 30.5049 13.7547 29.4649 13.8047 28.3249C13.9447 25.2549 16.5147 22.8248 20.3447 22.9148L20.3247 22.9248Z" fill="url(#paint4_linear_321_7077)"/>
<path d="M20.3149 8.98486C22.6549 9.01486 24.9249 9.43494 27.0949 10.3149C29.3349 11.2249 31.235 12.6148 32.865 14.3948C34.425 16.0948 35.6049 18.0649 36.8349 19.9949C37.3149 20.7349 37.8049 21.4748 38.3249 22.1848C38.8449 22.8948 39.4849 23.465 40.3149 23.825C41.0349 24.145 41.2949 24.765 41.0449 25.355C40.7649 25.995 40.1449 26.1848 39.4049 25.9048C38.0149 25.3748 37.0349 24.3548 36.2149 23.1848C35.4749 22.1348 34.7949 21.0348 34.0949 19.9448C32.9849 18.1948 31.8149 16.4749 30.2849 15.0549C28.2249 13.1449 25.7949 12.0049 23.0349 11.5349C20.1349 11.0349 17.2449 11.1049 14.4349 11.9849C10.8849 13.0949 7.97496 15.145 5.73496 18.125C4.15496 20.235 3.10487 22.5948 2.64487 25.1848C2.45487 26.2648 2.4249 27.3748 2.2949 28.4648C2.2049 29.2148 1.55495 29.6248 0.844948 29.4348C0.354948 29.3048 0.0248891 28.8248 0.0348891 28.1848C0.0748891 25.9348 0.434962 23.7448 1.23496 21.6348C3.20496 16.4548 6.75491 12.7449 11.8049 10.5049C13.9549 9.55488 16.2249 9.01486 18.5849 8.98486C19.1649 8.98486 19.7449 8.98486 20.3249 8.98486H20.3149Z" fill="url(#paint5_linear_321_7077)"/>
<path d="M18.2749 6.61503C15.0549 6.67503 11.9549 7.22498 9.01489 8.56498C6.78489 9.58498 4.79493 10.9248 3.30493 12.9148C2.67493 13.7548 1.67489 13.725 1.26489 12.875C1.04489 12.425 1.14493 12.005 1.42493 11.615C2.37493 10.255 3.59496 9.16489 4.95496 8.22489C7.68496 6.34489 10.715 5.21487 13.985 4.70487C19.085 3.90487 24.045 4.47482 28.825 6.40482C31.425 7.45482 33.8349 8.82484 35.7549 10.9248C36.0449 11.2348 36.295 11.6149 36.475 11.9949C36.705 12.4949 36.455 13.055 35.975 13.335C35.535 13.595 34.905 13.535 34.585 13.125C32.975 11.025 30.7549 9.79491 28.4149 8.74491C26.3549 7.82491 24.195 7.22485 21.955 6.93485C20.735 6.77485 19.5049 6.71502 18.2749 6.60502V6.61503Z" fill="url(#paint6_linear_321_7077)"/>
<path d="M35.4045 44.1447C35.3845 44.7847 35.1846 45.1249 34.7946 45.3349C34.3746 45.5549 33.9446 45.5248 33.5746 45.2348C32.8446 44.6648 32.1345 44.0648 31.3945 43.5048C28.6845 41.4548 26.0145 39.3648 23.6345 36.9348C21.9745 35.2448 20.4745 33.4149 19.3945 31.2849C18.9845 30.4749 18.6546 29.6148 18.3546 28.7548C18.1146 28.0748 18.4546 27.4648 19.0846 27.2448C19.6746 27.0448 20.3145 27.3449 20.5245 28.0249C21.6045 31.4349 23.8945 33.9947 26.4045 36.3947C28.5545 38.4547 30.9646 40.2049 33.3046 42.0349C33.8646 42.4749 34.4246 42.9147 34.9346 43.4047C35.1746 43.6347 35.3146 43.9847 35.4146 44.1347L35.4045 44.1447Z" fill="url(#paint7_linear_321_7077)"/>
<path d="M16.3351 41.6347C16.1751 44.8847 15.445 47.5848 13.695 49.9448C12.945 50.9648 12.005 51.7748 10.805 52.2248C10.175 52.4648 9.52498 52.2247 9.25498 51.6547C8.98498 51.0947 9.18504 50.4147 9.81504 50.1647C11.465 49.4847 12.3551 48.1449 12.9951 46.6049C13.7451 44.8149 14.185 42.9448 13.945 40.9748C13.905 40.6648 13.8151 40.3549 13.7451 40.0449C13.5951 39.3349 13.9351 38.7649 14.5951 38.6049C15.2051 38.4549 15.8251 38.8248 15.9651 39.4948C16.1351 40.3148 16.2551 41.1447 16.3351 41.6347Z" fill="url(#paint8_linear_321_7077)"/>
<path d="M39.945 20.3349C39.375 20.3349 39.065 19.9849 38.845 19.5049C38.365 18.4549 37.865 17.405 37.355 16.375C37.175 15.995 36.925 15.6549 36.735 15.2849C36.405 14.6449 36.555 14.0148 37.095 13.6848C37.665 13.3448 38.355 13.475 38.695 14.125C39.505 15.645 40.2849 17.1748 41.0049 18.7348C41.3749 19.5348 40.785 20.3449 39.945 20.3349Z" fill="url(#paint9_linear_321_7077)"/>
<path d="M1.17476 31.785C1.71476 31.785 2.11473 32.1549 2.27473 32.6649C2.58473 33.6849 2.92474 34.6949 3.28474 35.6949C3.50474 36.3049 3.47481 36.7749 3.10481 37.1449C2.74481 37.4949 2.20475 37.6151 1.79475 37.3451C1.56475 37.1951 1.35481 36.965 1.22481 36.715C0.624806 35.585 0.244752 34.3651 0.0447522 33.1051C-0.0652478 32.3851 0.464767 31.775 1.18477 31.785H1.17476Z" fill="url(#paint10_linear_321_7077)"/>
<defs>
<linearGradient id="paint0_linear_321_7077" x1="6.85462" y1="2.2748" x2="32.0046" y2="2.2748" gradientUnits="userSpaceOnUse">
<stop stop-color="#ED7225"/>
<stop offset="0.17" stop-color="#FDC80A"/>
<stop offset="0.45" stop-color="#047F45"/>
<stop offset="0.76" stop-color="#0C98CA"/>
<stop offset="0.97" stop-color="white"/>
</linearGradient>
<linearGradient id="paint1_linear_321_7077" x1="15.9945" y1="50.045" x2="27.4046" y2="50.045" gradientUnits="userSpaceOnUse">
<stop stop-color="#ED7225"/>
<stop offset="0.17" stop-color="#FDC80A"/>
<stop offset="0.45" stop-color="#047F45"/>
<stop offset="0.76" stop-color="#0C98CA"/>
<stop offset="0.97" stop-color="white"/>
</linearGradient>
<linearGradient id="paint2_linear_321_7077" x1="0.924733" y1="28.4548" x2="41.0848" y2="28.4548" gradientUnits="userSpaceOnUse">
<stop stop-color="#ED7225"/>
<stop offset="0.17" stop-color="#FDC80A"/>
<stop offset="0.45" stop-color="#047F45"/>
<stop offset="0.76" stop-color="#0C98CA"/>
<stop offset="0.97" stop-color="white"/>
</linearGradient>
<linearGradient id="paint3_linear_321_7077" x1="4.58459" y1="32.8548" x2="40.0046" y2="32.8548" gradientUnits="userSpaceOnUse">
<stop stop-color="#ED7225"/>
<stop offset="0.17" stop-color="#FDC80A"/>
<stop offset="0.45" stop-color="#047F45"/>
<stop offset="0.76" stop-color="#0C98CA"/>
<stop offset="0.97" stop-color="white"/>
</linearGradient>
<linearGradient id="paint4_linear_321_7077" x1="13.7747" y1="36.0448" x2="37.9247" y2="36.0448" gradientUnits="userSpaceOnUse">
<stop stop-color="#ED7225"/>
<stop offset="0.17" stop-color="#FDC80A"/>
<stop offset="0.45" stop-color="#047F45"/>
<stop offset="0.76" stop-color="#0C98CA"/>
<stop offset="0.97" stop-color="white"/>
</linearGradient>
<linearGradient id="paint5_linear_321_7077" x1="0.0148891" y1="19.2348" x2="41.1349" y2="19.2348" gradientUnits="userSpaceOnUse">
<stop stop-color="#ED7225"/>
<stop offset="0.17" stop-color="#FDC80A"/>
<stop offset="0.45" stop-color="#047F45"/>
<stop offset="0.76" stop-color="#0C98CA"/>
<stop offset="0.97" stop-color="white"/>
</linearGradient>
<linearGradient id="paint6_linear_321_7077" x1="1.1449" y1="8.9449" x2="36.545" y2="8.9449" gradientUnits="userSpaceOnUse">
<stop stop-color="#ED7225"/>
<stop offset="0.17" stop-color="#FDC80A"/>
<stop offset="0.45" stop-color="#047F45"/>
<stop offset="0.76" stop-color="#0C98CA"/>
<stop offset="0.97" stop-color="white"/>
</linearGradient>
<linearGradient id="paint7_linear_321_7077" x1="18.2746" y1="36.3249" x2="35.4046" y2="36.3249" gradientUnits="userSpaceOnUse">
<stop stop-color="#ED7225"/>
<stop offset="0.17" stop-color="#FDC80A"/>
<stop offset="0.45" stop-color="#047F45"/>
<stop offset="0.76" stop-color="#0C98CA"/>
<stop offset="0.97" stop-color="white"/>
</linearGradient>
<linearGradient id="paint8_linear_321_7077" x1="9.13499" y1="45.4449" x2="16.3351" y2="45.4449" gradientUnits="userSpaceOnUse">
<stop stop-color="#ED7225"/>
<stop offset="0.17" stop-color="#FDC80A"/>
<stop offset="0.45" stop-color="#047F45"/>
<stop offset="0.76" stop-color="#0C98CA"/>
<stop offset="0.97" stop-color="white"/>
</linearGradient>
<linearGradient id="paint9_linear_321_7077" x1="36.565" y1="16.9149" x2="41.1249" y2="16.9149" gradientUnits="userSpaceOnUse">
<stop stop-color="#ED7225"/>
<stop offset="0.17" stop-color="#FDC80A"/>
<stop offset="0.45" stop-color="#047F45"/>
<stop offset="0.76" stop-color="#0C98CA"/>
<stop offset="0.97" stop-color="white"/>
</linearGradient>
<linearGradient id="paint10_linear_321_7077" x1="0.0147524" y1="34.645" x2="3.41477" y2="34.645" gradientUnits="userSpaceOnUse">
<stop stop-color="#ED7225"/>
<stop offset="0.17" stop-color="#FDC80A"/>
<stop offset="0.45" stop-color="#047F45"/>
<stop offset="0.76" stop-color="#0C98CA"/>
<stop offset="0.97" stop-color="white"/>
</linearGradient>
</defs>
</svg>
