<svg width="90" height="90" viewBox="0 0 90 90" fill="none" xmlns="http://www.w3.org/2000/svg">
<path d="M44.86 82.605C65.6646 82.605 82.53 65.7395 82.53 44.9349C82.53 24.1304 65.6646 7.26489 44.86 7.26489C24.0554 7.26489 7.18994 24.1304 7.18994 44.9349C7.18994 65.7395 24.0554 82.605 44.86 82.605Z" fill="url(#paint0_linear_334_9555)"/>
<path d="M60.4799 64.725L28.0698 64.595V21.9449H49.1598L60.4799 31.8949V46.325H59.5798V32.3049L48.8198 22.845H28.9698V63.6949L59.5798 63.825V60.6849H60.4799V64.725Z" fill="white"/>
<path d="M51.65 39.365H35.96V40.2649H51.65V39.365Z" fill="white"/>
<path d="M51.65 48.5649H35.96V49.465H51.65V48.5649Z" fill="white"/>
<path d="M62.939 49.2918L55.5391 56.9093L56.1846 57.5364L63.5845 49.919L62.939 49.2918Z" fill="white"/>
<path d="M57.2175 49.9258L56.5518 50.5314L62.9575 57.5737L63.6232 56.9682L57.2175 49.9258Z" fill="white"/>
<path opacity="0.8" d="M44.86 0.0749512C20.12 0.0749512 0 20.2049 0 44.9349C0 69.6649 20.13 89.7949 44.86 89.7949C69.59 89.7949 89.72 69.6649 89.72 44.9349C89.72 20.2049 69.59 0.0749512 44.86 0.0749512ZM44.86 7.26489C65.63 7.26489 82.53 24.1649 82.53 44.9349C82.53 51.6349 80.77 57.925 77.7 63.375L14.83 22.225C21.71 13.145 32.62 7.26489 44.87 7.26489H44.86ZM44.86 82.605C24.09 82.605 7.18994 65.7049 7.18994 44.9349C7.18994 39.1449 8.50998 33.655 10.85 28.745L73.2999 69.615C66.3899 77.565 56.2 82.605 44.86 82.605Z" fill="#EA660A"/>
<defs>
<linearGradient id="paint0_linear_334_9555" x1="7.17994" y1="44.9349" x2="82.53" y2="44.9349" gradientUnits="userSpaceOnUse">
<stop stop-color="#046DB5"/>
<stop offset="1" stop-color="#253785"/>
</linearGradient>
</defs>
</svg>
