<svg width="805" height="84" viewBox="0 0 805 84" fill="none" xmlns="http://www.w3.org/2000/svg">
<path d="M296.985 69.9448L299.245 67.9749" stroke="white" stroke-width="1.5" stroke-miterlimit="10"/>
<path d="M301.465 66.0349L367.075 8.76489" stroke="white" stroke-width="1.5" stroke-miterlimit="10"/>
<path d="M368.185 7.79492L370.445 5.82495" stroke="white" stroke-width="1.5" stroke-miterlimit="10"/>
<path d="M292.195 74.125L301.345 70.9949L297.335 69.6348L296.535 65.4849L292.195 74.125Z" fill="white"/>
<path d="M375.225 1.64478L370.895 10.2849L370.085 6.13477L366.075 4.7749L375.225 1.64478Z" fill="white"/>
<path d="M432.065 4.90479L434.045 7.16479" stroke="white" stroke-width="1.5" stroke-miterlimit="10"/>
<path d="M435.985 9.39478L493.245 74.9949" stroke="white" stroke-width="1.5" stroke-miterlimit="10"/>
<path d="M494.215 76.105L496.195 78.365" stroke="white" stroke-width="1.5" stroke-miterlimit="10"/>
<path d="M427.895 0.11499L431.025 9.2749L432.385 5.26489L436.535 4.45483L427.895 0.11499Z" fill="white"/>
<path d="M500.375 83.1548L491.725 78.8149L495.875 78.0149L497.235 74.0049L500.375 83.1548Z" fill="white"/>
<path d="M645.355 9.57495L643.095 11.5449" stroke="white" stroke-width="1.5" stroke-miterlimit="10"/>
<path d="M640.875 13.4849L575.265 70.7549" stroke="white" stroke-width="1.5" stroke-miterlimit="10"/>
<path d="M574.155 71.7249L571.895 73.6948" stroke="white" stroke-width="1.5" stroke-miterlimit="10"/>
<path d="M650.145 5.39478L640.985 8.5249L644.995 9.88477L645.805 14.0449L650.145 5.39478Z" fill="white"/>
<path d="M567.105 77.875L571.445 69.2349L572.255 73.3848L576.255 74.7449L567.105 77.875Z" fill="white"/>
<path d="M800.425 78.365L798.455 76.105" stroke="white" stroke-width="1.5" stroke-miterlimit="10"/>
<path d="M796.515 73.8848L739.245 8.2749" stroke="white" stroke-width="1.5" stroke-miterlimit="10"/>
<path d="M738.275 7.16479L736.305 4.90479" stroke="white" stroke-width="1.5" stroke-miterlimit="10"/>
<path d="M804.605 83.1548L801.475 74.0049L800.115 78.0149L795.955 78.8149L804.605 83.1548Z" fill="white"/>
<path d="M732.125 0.11499L740.765 4.45483L736.615 5.26489L735.255 9.2749L732.125 0.11499Z" fill="white"/>
<path d="M78.2551 9.57495L75.9951 11.5449" stroke="white" stroke-width="1.5" stroke-miterlimit="10"/>
<path d="M73.775 13.4849L8.16504 70.7549" stroke="white" stroke-width="1.5" stroke-miterlimit="10"/>
<path d="M7.05493 71.7249L4.79492 73.6948" stroke="white" stroke-width="1.5" stroke-miterlimit="10"/>
<path d="M83.045 5.39478L73.895 8.5249L77.895 9.88477L78.705 14.0449L83.045 5.39478Z" fill="white"/>
<path d="M0.00488281 77.875L4.34488 69.2349L5.15488 73.3848L9.15488 74.7449L0.00488281 77.875Z" fill="white"/>
<path d="M221.445 78.365L219.475 76.105" stroke="white" stroke-width="1.5" stroke-miterlimit="10"/>
<path d="M217.535 73.8848L160.265 8.2749" stroke="white" stroke-width="1.5" stroke-miterlimit="10"/>
<path d="M159.295 7.16479L157.325 4.90479" stroke="white" stroke-width="1.5" stroke-miterlimit="10"/>
<path d="M225.625 83.1548L222.495 74.0049L221.135 78.0149L216.985 78.8149L225.625 83.1548Z" fill="white"/>
<path d="M153.145 0.11499L161.795 4.45483L157.635 5.26489L156.275 9.2749L153.145 0.11499Z" fill="white"/>
</svg>
