<svg width="93" height="52" viewBox="0 0 93 52" fill="none" xmlns="http://www.w3.org/2000/svg">
<path d="M0.484863 19.9648V1.57495H11.7049V3.83496H2.98486V9.22485H9.71484V11.4849H2.98486V19.9749H0.484863V19.9648Z" fill="white"/>
<path d="M16.7249 20.2249C15.9249 20.2249 15.2349 20.0649 14.6349 19.7349C14.0349 19.4149 13.5749 18.9648 13.2449 18.4048C12.9149 17.8448 12.7549 17.2049 12.7549 16.4849C12.7549 15.7649 12.9149 15.135 13.2349 14.615C13.5549 14.095 13.9849 13.6649 14.5249 13.3149C15.0649 12.9649 15.6649 12.6949 16.3349 12.4849C17.0049 12.2749 17.6949 12.1349 18.4049 12.0349C19.1149 11.9449 19.8049 11.8948 20.4649 11.8848C20.4649 10.6548 20.2249 9.85486 19.7449 9.48486C19.2649 9.10486 18.5649 8.91479 17.6549 8.91479C17.1749 8.91479 16.6549 8.98477 16.1149 9.13477C15.5649 9.28477 14.9549 9.59494 14.2649 10.0649L13.9249 8.14478C14.4449 7.75478 15.0849 7.4248 15.8549 7.1748C16.6249 6.9248 17.4349 6.80493 18.2849 6.80493C19.3749 6.80493 20.2449 6.995 20.9149 7.375C21.5849 7.755 22.0649 8.39492 22.3749 9.29492C22.6849 10.1949 22.8349 11.4249 22.8349 12.9749V15.605C22.8349 16.215 22.8649 16.725 22.9149 17.125C22.9649 17.525 23.1049 17.8249 23.3049 18.0149C23.5149 18.2149 23.8449 18.3149 24.2949 18.3149H24.5349L24.1649 20.2048H23.9849C23.2249 20.2048 22.6349 20.1349 22.2149 19.9849C21.7949 19.8349 21.4849 19.625 21.2649 19.345C21.0449 19.065 20.8449 18.725 20.6749 18.325C20.1949 18.885 19.6249 19.3448 18.9649 19.6948C18.3049 20.0448 17.5649 20.2249 16.7349 20.2249H16.7249ZM17.1749 18.335C17.8049 18.335 18.4149 18.175 19.0049 17.865C19.5949 17.545 20.0849 17.125 20.4549 16.605V13.5349C19.2049 13.5749 18.1849 13.7048 17.4149 13.9048C16.6349 14.1048 16.0749 14.4049 15.7149 14.8149C15.3549 15.2149 15.1749 15.735 15.1749 16.375C15.1749 17.065 15.3649 17.565 15.7349 17.875C16.1049 18.185 16.5849 18.345 17.1749 18.345V18.335Z" fill="white"/>
<path d="M25.3149 19.9648L33.2749 7.98486L33.5649 9.16479H25.735V7.08496H36.455L28.4949 19.0649L28.205 17.8848H36.325V19.9648H25.3149Z" fill="white"/>
<path d="M44.8851 20.2249C43.3751 20.2249 42.0951 19.9149 41.0651 19.2949C40.0351 18.6749 39.2451 17.8449 38.7251 16.8149C38.1951 15.7849 37.9351 14.6548 37.9351 13.4148C37.9351 12.1748 38.185 11.115 38.675 10.115C39.165 9.11499 39.8851 8.31484 40.8251 7.71484C41.7651 7.11484 42.9051 6.81494 44.2351 6.81494C45.3051 6.81494 46.2551 7.02483 47.0951 7.45483C47.9351 7.87483 48.5851 8.49493 49.0651 9.30493C49.5451 10.1149 49.7851 11.0949 49.7851 12.2549C49.7851 12.4349 49.7851 12.635 49.7651 12.855C49.7551 13.065 49.725 13.2949 49.675 13.5149H40.3451C40.4551 14.7049 40.7451 15.6349 41.1951 16.3049C41.6551 16.9749 42.2251 17.4348 42.9151 17.7148C43.6051 17.9848 44.355 18.125 45.175 18.125C45.775 18.125 46.3951 18.0648 47.0451 17.9448C47.6951 17.8248 48.3051 17.625 48.8851 17.365L49.2051 19.2349C48.7051 19.4549 48.0951 19.6748 47.3751 19.8948C46.6551 20.1148 45.8351 20.2249 44.8951 20.2249H44.8851ZM40.5551 11.8948H47.3351C47.3351 11.2948 47.2251 10.7649 46.9951 10.3149C46.7651 9.86494 46.4251 9.52491 45.9551 9.28491C45.4951 9.04491 44.8951 8.9248 44.1851 8.9248C43.1351 8.9248 42.3251 9.18483 41.7651 9.70483C41.2051 10.2248 40.8051 10.9548 40.5651 11.8948H40.5551Z" fill="white"/>
<path d="M52.165 19.9648V7.09497H54.005L54.475 9.56494L53.555 9.1748C54.425 8.2148 55.265 7.58491 56.095 7.28491C56.925 6.98491 57.735 6.83496 58.515 6.83496C60.395 6.83496 61.745 7.37484 62.555 8.46484C63.365 9.55484 63.765 11.025 63.765 12.875V19.9648H61.405V12.875C61.405 11.505 61.155 10.5148 60.645 9.88477C60.135 9.25477 59.265 8.93481 58.045 8.93481C57.175 8.93481 56.385 9.12488 55.665 9.50488C54.945 9.88488 54.465 10.495 54.245 11.325L54.535 9.88477V19.9749H52.175L52.165 19.9648Z" fill="white"/>
<path d="M71.945 20.2249C70.855 20.2249 69.865 19.925 68.975 19.335C68.095 18.745 67.385 17.9348 66.865 16.9348C66.345 15.9248 66.085 14.8049 66.085 13.5549C66.085 12.3049 66.325 11.2649 66.805 10.2449C67.285 9.22487 67.955 8.39489 68.835 7.76489C69.715 7.13489 70.745 6.82495 71.945 6.82495C72.805 6.82495 73.635 7.01477 74.435 7.38477C75.235 7.75477 75.885 8.37487 76.385 9.24487L75.885 9.58496V0.254883H78.245V19.9548H76.145L75.695 17.2249L76.295 17.6448C75.915 18.4948 75.325 19.1349 74.525 19.5649C73.715 19.9949 72.855 20.2148 71.935 20.2148L71.945 20.2249ZM72.365 18.125C72.965 18.125 73.545 17.9748 74.135 17.6648C74.715 17.3548 75.195 16.8748 75.585 16.2048C75.975 15.5348 76.155 14.6549 76.155 13.5549C76.155 12.5349 75.965 11.6849 75.585 11.0049C75.205 10.3249 74.725 9.80483 74.135 9.45483C73.555 9.10483 72.965 8.93481 72.365 8.93481C71.555 8.93481 70.865 9.13491 70.285 9.53491C69.705 9.93491 69.265 10.4848 68.955 11.1848C68.645 11.8848 68.495 12.6749 68.495 13.5549C68.495 14.3849 68.645 15.145 68.955 15.845C69.265 16.535 69.705 17.0949 70.285 17.5049C70.865 17.9149 71.555 18.125 72.365 18.125Z" fill="white"/>
<path d="M84.425 20.2249C83.625 20.2249 82.9351 20.0649 82.3351 19.7349C81.7351 19.4149 81.2751 18.9648 80.9451 18.4048C80.6151 17.8448 80.4551 17.2049 80.4551 16.4849C80.4551 15.7649 80.6151 15.135 80.9351 14.615C81.2551 14.095 81.6851 13.6649 82.2251 13.3149C82.7651 12.9649 83.3651 12.6949 84.0351 12.4849C84.7051 12.2749 85.3851 12.1349 86.1051 12.0349C86.8251 11.9349 87.5051 11.8948 88.1651 11.8848C88.1651 10.6548 87.9251 9.85486 87.4451 9.48486C86.9651 9.10486 86.2651 8.91479 85.3551 8.91479C84.8751 8.91479 84.3551 8.98477 83.8151 9.13477C83.2651 9.28477 82.6551 9.59494 81.9651 10.0649L81.6251 8.14478C82.1451 7.75478 82.7851 7.4248 83.5551 7.1748C84.3251 6.9248 85.1351 6.80493 85.9851 6.80493C87.0751 6.80493 87.9451 6.995 88.6151 7.375C89.2851 7.755 89.7651 8.39492 90.0751 9.29492C90.3851 10.1949 90.5351 11.4249 90.5351 12.9749V15.605C90.5351 16.215 90.5651 16.725 90.6251 17.125C90.6851 17.525 90.8151 17.8249 91.0151 18.0149C91.2251 18.2149 91.5551 18.3149 92.0051 18.3149H92.2451L91.8751 20.2048H91.6951C90.9351 20.2048 90.345 20.1349 89.925 19.9849C89.505 19.8349 89.1951 19.625 88.9751 19.345C88.7551 19.065 88.5551 18.725 88.3851 18.325C87.9051 18.885 87.335 19.3448 86.675 19.6948C86.015 20.0448 85.2751 20.2249 84.4451 20.2249H84.425ZM84.8751 18.335C85.5051 18.335 86.1151 18.175 86.7051 17.865C87.2951 17.555 87.7851 17.125 88.1551 16.605V13.5349C86.9051 13.5749 85.8851 13.7048 85.1151 13.9048C84.3451 14.1048 83.7751 14.4049 83.4151 14.8149C83.0551 15.2149 82.8751 15.735 82.8751 16.375C82.8751 17.065 83.0651 17.565 83.4351 17.875C83.8051 18.185 84.2851 18.345 84.8751 18.345V18.335Z" fill="white"/>
<path d="M0.484863 51.4949V33.105H7.28485C9.06485 33.105 10.6349 33.4648 12.0149 34.1948C13.3949 34.9248 14.4649 35.975 15.2549 37.345C16.0349 38.715 16.4348 40.3649 16.4348 42.3049C16.4348 44.2449 16.0449 45.8949 15.2549 47.2649C14.4749 48.6349 13.3949 49.6848 12.0149 50.4148C10.6349 51.1448 9.06485 51.5049 7.28485 51.5049H0.484863V51.4949ZM2.98486 49.2349H7.29486C8.69486 49.2349 9.87486 48.945 10.8249 48.365C11.7749 47.785 12.4949 46.9748 12.9749 45.9248C13.4649 44.8848 13.7049 43.6749 13.7049 42.2949C13.7049 40.9149 13.4649 39.7148 12.9749 38.6748C12.4849 37.6348 11.7649 36.8249 10.8249 36.2349C9.87486 35.6549 8.69486 35.365 7.29486 35.365H2.98486V49.2349Z" fill="white"/>
<path d="M19.085 35.7249V33.095H21.445V35.7249H19.085ZM19.085 51.4849V38.615H21.445V51.4849H19.085Z" fill="white"/>
<path d="M24.655 51.4949V38.625H26.595L26.885 40.7549C27.545 39.9449 28.175 39.3348 28.775 38.9448C29.375 38.5548 30.015 38.365 30.695 38.365C30.915 38.365 31.115 38.3948 31.295 38.4448L31.055 41.0449C30.945 41.0149 30.825 40.9949 30.695 40.9849C30.565 40.9749 30.425 40.9648 30.265 40.9648C29.585 40.9648 28.955 41.1148 28.385 41.4148C27.815 41.7148 27.405 42.0448 27.165 42.4048V51.4949H24.645H24.655Z" fill="white"/>
<path d="M39.1351 51.7549C37.6151 51.7549 36.3451 51.445 35.3151 50.825C34.2851 50.205 33.5051 49.375 32.9751 48.345C32.4451 47.315 32.1851 46.1848 32.1851 44.9448C32.1851 43.7048 32.435 42.6448 32.925 41.6448C33.415 40.6448 34.1351 39.8449 35.0751 39.2449C36.0151 38.6449 37.1551 38.345 38.4851 38.345C39.5551 38.345 40.5051 38.5549 41.3451 38.9849C42.1851 39.4049 42.8351 40.025 43.3151 40.835C43.7951 41.645 44.0351 42.6249 44.0351 43.7849C44.0351 43.9649 44.0351 44.1648 44.0151 44.3848C44.0051 44.5948 43.9751 44.8249 43.9351 45.0449H34.6051C34.7151 46.2349 35.0051 47.165 35.4551 47.835C35.9151 48.505 36.485 48.9649 37.175 49.2449C37.865 49.5249 38.6251 49.6548 39.4351 49.6548C40.0251 49.6548 40.6551 49.5949 41.3051 49.4749C41.9551 49.3549 42.5651 49.1548 43.1451 48.8948L43.4651 50.7649C42.9651 50.9849 42.3551 51.2048 41.6351 51.4248C40.9151 51.6448 40.0851 51.7549 39.1551 51.7549H39.1351ZM34.8051 43.4248H41.5851C41.5851 42.8248 41.4751 42.295 41.2451 41.845C41.0151 41.395 40.6751 41.0549 40.2051 40.8149C39.7451 40.5749 39.1551 40.4548 38.4351 40.4548C37.3851 40.4548 36.5751 40.7149 36.0151 41.2349C35.4451 41.7549 35.0451 42.4848 34.8151 43.4248H34.8051Z" fill="white"/>
<path d="M50.8547 51.7549C50.0447 51.7549 49.3847 51.6049 48.8947 51.3049C48.4047 51.0049 48.0447 50.6248 47.8247 50.1548C47.6047 49.6848 47.4947 49.1948 47.4947 48.6748V40.4548H45.2847L45.4947 38.615H47.4947V35.4348L49.8547 35.1948V38.615H53.2447V40.4548H49.8547V47.2349C49.8547 48.0549 49.9047 48.6549 49.9947 49.0249C50.0947 49.3949 50.3247 49.6249 50.7147 49.7249C51.0947 49.8249 51.7147 49.865 52.5647 49.865H53.1647L52.9847 51.7549H50.8547Z" fill="white"/>
<path d="M58.2547 51.7549C57.4547 51.7549 56.7647 51.5949 56.1647 51.2649C55.5647 50.9449 55.1047 50.4948 54.7747 49.9348C54.4447 49.3748 54.2847 48.7349 54.2847 48.0149C54.2847 47.2949 54.4447 46.6648 54.7647 46.1448C55.0847 45.6248 55.5147 45.195 56.0547 44.845C56.5947 44.495 57.1947 44.2249 57.8647 44.0149C58.5347 43.8049 59.2247 43.6649 59.9347 43.5649C60.6447 43.4749 61.3347 43.4248 61.9947 43.4148C61.9947 42.1848 61.7547 41.3849 61.2747 41.0149C60.7947 40.6349 60.0947 40.4448 59.1847 40.4448C58.7047 40.4448 58.1847 40.5148 57.6447 40.6648C57.0947 40.8148 56.4847 41.125 55.7947 41.595L55.4547 39.6748C55.9747 39.2848 56.6147 38.9548 57.3847 38.7048C58.1547 38.4548 58.9647 38.335 59.8147 38.335C60.9047 38.335 61.7747 38.5248 62.4447 38.9048C63.1147 39.2848 63.5947 39.925 63.9047 40.825C64.2147 41.725 64.3647 42.9549 64.3647 44.5049V47.1348C64.3647 47.7448 64.3947 48.2548 64.4447 48.6548C64.4947 49.0548 64.6347 49.3549 64.8347 49.5449C65.0447 49.7449 65.3747 49.845 65.8247 49.845H66.0647L65.6947 51.7349H65.5147C64.7547 51.7349 64.1647 51.6649 63.7447 51.5149C63.3247 51.3649 63.0147 51.155 62.7947 50.875C62.5747 50.595 62.3747 50.255 62.2047 49.855C61.7247 50.415 61.1547 50.8749 60.4947 51.2249C59.8347 51.5749 59.0947 51.7549 58.2647 51.7549H58.2547ZM58.7047 49.865C59.3347 49.865 59.9447 49.7048 60.5347 49.3948C61.1247 49.0748 61.6147 48.6548 61.9847 48.1348V45.0649C60.7347 45.1049 59.7147 45.2348 58.9447 45.4348C58.1647 45.6348 57.6047 45.935 57.2447 46.345C56.8847 46.745 56.7047 47.2648 56.7047 47.9048C56.7047 48.5948 56.8947 49.0948 57.2647 49.4048C57.6347 49.7148 58.1147 49.875 58.7047 49.875V49.865Z" fill="white"/>
</svg>
