<svg width="1337" height="122" viewBox="0 0 1337 122" fill="none" xmlns="http://www.w3.org/2000/svg">
<path d="M693.275 118.275H185.015" stroke="white" stroke-width="1.5" stroke-miterlimit="10"/>
<path d="M699.635 118.275L690.675 114.615L692.805 118.275L690.675 121.925L699.635 118.275Z" fill="white"/>
<path d="M178.665 118.275L187.615 114.615L185.495 118.275L187.615 121.925L178.665 118.275Z" fill="white"/>
<path d="M153.885 118.275H16.9854" stroke="white" stroke-width="1.5" stroke-miterlimit="10"/>
<path d="M160.245 118.275L151.285 114.615L153.415 118.275L151.285 121.925L160.245 118.275Z" fill="white"/>
<path d="M10.6353 118.275L19.5852 114.615L17.4652 118.275L19.5852 121.925L10.6353 118.275Z" fill="white"/>
<path d="M171.735 100.655V6.875" stroke="white" stroke-width="1.5" stroke-miterlimit="10"/>
<path d="M171.735 107.015L175.395 98.0549L171.735 100.185L168.075 98.0549L171.735 107.015Z" fill="white"/>
<path d="M171.735 0.514893L175.395 9.47485L171.735 7.34497L168.075 9.47485L171.735 0.514893Z" fill="white"/>
<path d="M4.625 100.655V6.875" stroke="white" stroke-width="1.5" stroke-miterlimit="10"/>
<path d="M4.62509 107.015L8.2851 98.0549L4.62509 100.185L0.975098 98.0549L4.62509 107.015Z" fill="white"/>
<path d="M4.62509 0.514893L8.2851 9.47485L4.62509 7.34497L0.975098 9.47485L4.62509 0.514893Z" fill="white"/>
<path d="M751.785 68.9949V42.9949" stroke="white" stroke-width="1.5" stroke-miterlimit="10"/>
<path d="M751.785 75.345L755.445 66.3948L751.785 68.5149L748.135 66.3948L751.785 75.345Z" fill="white"/>
<path d="M751.785 36.6448L755.445 45.595L751.785 43.4749L748.135 45.595L751.785 36.6448Z" fill="white"/>
<path d="M1333.2 100.655V50.0349" stroke="white" stroke-width="1.5" stroke-miterlimit="10"/>
<path d="M1333.2 107.015L1336.86 98.0549L1333.2 100.185L1329.54 98.0549L1333.2 107.015Z" fill="white"/>
<path d="M1333.2 43.6748L1336.86 52.6348L1333.2 50.5049L1329.54 52.6348L1333.2 43.6748Z" fill="white"/>
<path d="M1305.75 118.275H821.005" stroke="white" stroke-width="1.5" stroke-miterlimit="10"/>
<path d="M1312.11 118.275L1303.16 114.615L1305.28 118.275L1303.16 121.925L1312.11 118.275Z" fill="white"/>
<path d="M814.645 118.275L823.605 114.615L821.475 118.275L823.605 121.925L814.645 118.275Z" fill="white"/>
</svg>
