<svg width="88" height="94" viewBox="0 0 88 94" fill="none" xmlns="http://www.w3.org/2000/svg">
<path fill-rule="evenodd" clip-rule="evenodd" d="M8.20038 49.2347C13.6104 0.28474 89.6504 42.5148 3.40039 93.7448C35.6204 70.1448 17.2504 24.1747 8.20038 49.2347Z" fill="#223F99"/>
<path fill-rule="evenodd" clip-rule="evenodd" d="M8.20038 49.2348C10.6504 -8.37523 96.7704 44.4148 3.40039 93.7348C43.7204 65.0448 19.1804 19.4348 8.20038 49.2348Z" fill="url(#paint0_linear_334_9266)"/>
<path fill-rule="evenodd" clip-rule="evenodd" d="M39.6406 16.4948C75.9506 -26.8852 128.001 44.6248 35.8506 77.7448C62.7406 61.5948 71.3506 2.26479 39.6406 16.4948Z" fill="url(#paint1_linear_334_9266)"/>
<path fill-rule="evenodd" clip-rule="evenodd" d="M39.6406 16.4947C40.1806 15.8447 40.7306 15.2247 41.2706 14.6347C40.7206 15.2347 40.1806 15.8447 39.6406 16.4947ZM35.8506 77.7347C62.7406 61.5847 71.3506 2.2547 39.6406 16.4847C65.4406 8.4747 55.3606 63.4947 35.8506 77.7347Z" fill="#007D41"/>
<path d="M55.5302 36.5348C54.0902 48.6748 48.6402 62.8147 41.1202 71.3747C69.1702 60.0447 81.7102 45.0048 84.6802 31.8048C86.2802 24.6948 85.0902 18.1348 82.0502 13.0348C79.0402 7.96477 74.2102 4.32475 68.5002 3.02476C60.8102 1.26476 51.5102 3.74473 42.8202 12.6247C45.5602 12.3847 47.8602 12.9548 49.7302 14.1648C52.5002 15.9548 54.2702 19.1247 55.1702 23.1347C56.0302 26.9747 56.1102 31.6148 55.5202 36.5448M39.2002 12.8448L39.2702 12.7647C49.1102 1.64475 60.0402 -1.46518 69.0502 0.594823C75.4402 2.05482 80.8402 6.11476 84.2002 11.7748C87.5402 17.3948 88.8602 24.5847 87.1102 32.3547C83.7802 47.1647 71.4402 63.2948 38.2702 75.1648H38.2602H38.2402L31.6302 76.8048L34.9202 74.1347L35.0202 74.0648C44.3402 67.1848 51.3602 50.2147 53.0102 36.2547C53.5602 31.5747 53.5002 27.2148 52.7102 23.6648C51.9502 20.2848 50.5302 17.6647 48.3502 16.2547C46.2902 14.9247 43.4702 14.6347 39.7702 15.7647L35.5102 16.8348C36.8602 15.4848 37.9302 14.2648 39.1902 12.8348L39.2002 12.8448ZM19.3402 22.4548C25.7002 19.4248 33.2502 20.7648 38.9502 25.1548C44.6002 29.5148 48.4502 36.8748 47.4802 45.9448C45.5902 65.2548 26.2102 78.7348 13.1502 86.5448C5.24021 91.2748 0.720215 92.0848 0.720215 92.0848L3.72021 89.5648C17.6802 78.7248 21.3102 62.9247 20.1202 52.1447C19.7202 48.5147 18.7802 45.4848 17.5402 43.4448C16.4902 41.7048 15.2802 40.7448 14.1202 40.9148C12.9202 41.0848 11.6002 42.3947 10.3102 45.1447C9.39018 47.1747 8.48019 48.9447 7.38019 50.8847C6.52019 40.5347 8.93021 27.4048 19.3402 22.4548ZM10.9002 37.5248L11.2202 36.7748L10.6602 40.1347C11.6602 39.1447 12.7102 38.6048 13.7602 38.4448C16.0002 38.1148 18.0902 39.5248 19.6802 42.1648C21.0902 44.5048 22.1602 47.8847 22.6002 51.8747C23.6202 61.0447 21.3502 73.5947 12.3302 84.1247C35.0102 70.2847 43.8202 56.6148 44.9802 45.6948C45.8502 37.5648 42.4302 30.9947 37.4102 27.1247C32.4302 23.2847 25.8802 22.0948 20.4102 24.7048C16.3002 26.6648 12.7602 30.7748 10.8902 37.5248H10.9002Z" fill="white"/>
<path fill-rule="evenodd" clip-rule="evenodd" d="M8.29004 46.8448C13.64 -1.39518 88.96 40.2248 3.54004 90.6948C35.45 67.4448 17.26 22.1448 8.29004 46.8448Z" fill="#28348A"/>
<mask id="mask0_334_9266" style="mask-type:luminance" maskUnits="userSpaceOnUse" x="35" y="1" width="52" height="74">
<path d="M39.4201 14.5848C75.3801 -28.1652 126.94 42.3048 35.6602 74.9348C62.2902 59.0248 70.8201 0.554825 39.4201 14.5848Z" fill="white"/>
</mask>
<g mask="url(#mask0_334_9266)">
<path d="M126.93 -28.1652H35.6602V74.9348H126.93V-28.1652Z" fill="url(#paint2_linear_334_9266)"/>
</g>
<path fill-rule="evenodd" clip-rule="evenodd" d="M35.6602 74.9348C54.9802 60.9048 64.9702 6.68483 39.4102 14.5848C70.8202 0.554831 62.2802 59.0248 35.6602 74.9348ZM39.4201 14.5848C39.9601 13.9448 40.5001 13.3348 41.0401 12.7548C40.5001 13.3448 39.9601 13.9548 39.4201 14.5848Z" fill="#007837"/>
<mask id="mask1_334_9266" style="mask-type:luminance" maskUnits="userSpaceOnUse" x="3" y="22" width="44" height="69">
<path d="M8.29004 46.8449C10.72 -9.92515 96.02 42.0948 3.54004 90.6948C43.47 62.4248 19.17 17.4749 8.29004 46.8449Z" fill="white"/>
</mask>
<g mask="url(#mask1_334_9266)">
<path d="M96.0201 -9.92517H3.54004V90.7048H96.0201V-9.92517Z" fill="url(#paint3_linear_334_9266)"/>
</g>
<defs>
<linearGradient id="paint0_linear_334_9266" x1="25.4904" y1="67.2948" x2="12.0304" y2="43.9848" gradientUnits="userSpaceOnUse">
<stop stop-color="#007D41"/>
<stop offset="0.18" stop-color="#69A765"/>
<stop offset="0.38" stop-color="#0075BE"/>
<stop offset="0.59" stop-color="#00ADEE"/>
<stop offset="1" stop-color="#223F99"/>
</linearGradient>
<linearGradient id="paint1_linear_334_9266" x1="68.7706" y1="61.3748" x2="40.6506" y2="12.6648" gradientUnits="userSpaceOnUse">
<stop stop-color="#007D41"/>
<stop offset="0.2" stop-color="#007D41"/>
<stop offset="0.35" stop-color="#A5CD39"/>
<stop offset="0.54" stop-color="#FFCA05"/>
<stop offset="0.64" stop-color="#FFCA05"/>
<stop offset="0.87" stop-color="#F26F21"/>
<stop offset="1" stop-color="#F26F21"/>
</linearGradient>
<linearGradient id="paint2_linear_334_9266" x1="105.04" y1="64.4948" x2="60.3002" y2="-12.9852" gradientUnits="userSpaceOnUse">
<stop stop-color="#007837"/>
<stop offset="0.2" stop-color="#007837"/>
<stop offset="0.35" stop-color="#AEC90B"/>
<stop offset="0.54" stop-color="#FFCB00"/>
<stop offset="0.64" stop-color="#FFCB00"/>
<stop offset="0.87" stop-color="#EB6608"/>
<stop offset="1" stop-color="#EB6707"/>
</linearGradient>
<linearGradient id="paint3_linear_334_9266" x1="61.2401" y1="60.2548" x2="39.8401" y2="23.1748" gradientUnits="userSpaceOnUse">
<stop stop-color="#007837"/>
<stop offset="0.18" stop-color="#6EA65B"/>
<stop offset="0.38" stop-color="#006DB6"/>
<stop offset="0.59" stop-color="#009EE2"/>
<stop offset="1" stop-color="#28348A"/>
</linearGradient>
</defs>
</svg>
