<svg width="94" height="105" viewBox="0 0 94 105" fill="none" xmlns="http://www.w3.org/2000/svg">
<path d="M18.005 7.68481C18.775 7.68481 19.405 7.05491 19.405 6.28491V1.59497C19.405 0.824971 18.775 0.194824 18.005 0.194824C17.235 0.194824 16.605 0.824971 16.605 1.59497V6.28491C16.605 7.05491 17.235 7.68481 18.005 7.68481Z" fill="url(#paint0_linear_321_6936)"/>
<path d="M84.565 61.325C84.565 61.325 84.565 61.2849 84.565 61.2749V41.095C84.775 41.105 84.985 41.0949 85.195 41.0249L93.9149 38.1948L84.885 16.2048L62.675 7.43481L41.005 16.585L32.765 38.355L41.055 41.1948C41.055 41.1948 41.135 41.1948 41.175 41.2148V62.6748C40.695 62.9248 40.215 63.1948 39.745 63.4648C32.855 48.8848 6.39498 47.885 5.22498 47.855C4.29498 47.785 3.56497 48.5348 3.53497 49.4448C3.50497 50.3548 4.21497 51.1048 5.12497 51.1348C5.38497 51.1348 30.795 52.0748 36.805 64.9048C26.495 69.2448 4.97498 72.7349 3.47498 72.7749C2.56498 72.7749 1.83496 73.5148 1.83496 74.4148C1.83496 75.3148 2.57498 76.0549 3.47498 76.0549C4.96498 76.0549 28.465 72.3448 39.125 67.4648C39.235 67.4548 39.355 67.4448 39.465 67.4148C39.725 67.3248 39.955 67.1749 40.135 66.9849C40.485 66.8149 40.815 66.6348 41.115 66.4548C50.865 60.8548 60.245 59.025 72.495 60.325C82.655 61.405 89.585 69.9149 89.685 70.0349C90.255 70.7449 91.285 70.8649 91.995 70.2949C92.705 69.7349 92.825 68.6949 92.255 67.9849C92.065 67.7449 89.265 64.305 84.575 61.325H84.565ZM37.035 36.335L43.575 19.0549L62.715 10.9648L82.375 18.7349L89.525 36.1548L84.565 37.7649V33.875L79.795 21.105L62.115 14.6448L45.755 21.4949L41.165 33.1648V37.7549L37.025 36.335H37.035ZM44.455 33.7849L48.305 23.9849L62.205 18.1648L77.255 23.6648L81.2849 34.4648V59.5049C80.1049 58.9449 78.845 58.4449 77.505 58.0249C77.525 57.9349 77.5349 57.8349 77.5349 57.7449V38.865H48.565V59.1548C48.565 59.2448 48.575 59.3248 48.595 59.4048C47.205 59.8848 45.835 60.4349 44.465 61.0549V33.7849H44.455ZM51.845 58.4048V42.1548H74.245V57.2749C73.775 57.1949 73.315 57.1149 72.835 57.0649C65.105 56.2349 58.285 56.6548 51.845 58.4048Z" fill="url(#paint1_linear_321_6936)"/>
<path d="M73.8347 23.3948H51.5547V36.0049H73.8347V23.3948ZM70.5547 32.7148H54.8347V26.6748H70.5547V32.7148Z" fill="url(#paint2_linear_321_6936)"/>
<path d="M17.4847 25.9749C22.1047 25.9749 25.8747 22.215 25.8747 17.585C25.8747 12.955 22.1147 9.19482 17.4847 9.19482C12.8547 9.19482 9.09473 12.955 9.09473 17.585C9.09473 22.215 12.8547 25.9749 17.4847 25.9749ZM17.4847 12.4849C20.2947 12.4849 22.5847 14.775 22.5847 17.585C22.5847 20.395 20.2947 22.6848 17.4847 22.6848C14.6747 22.6848 12.3847 20.395 12.3847 17.585C12.3847 14.775 14.6747 12.4849 17.4847 12.4849Z" fill="url(#paint3_linear_321_6936)"/>
<path d="M16.605 28.9048V33.595C16.605 34.365 17.235 34.9949 18.005 34.9949C18.775 34.9949 19.405 34.365 19.405 33.595V28.9048C19.405 28.1348 18.775 27.5049 18.005 27.5049C17.235 27.5049 16.605 28.1348 16.605 28.9048Z" fill="url(#paint4_linear_321_6936)"/>
<path d="M6.70477 18.9949C7.47477 18.9949 8.10477 18.365 8.10477 17.595C8.10477 16.825 7.47477 16.1948 6.70477 16.1948H2.01477C1.24477 16.1948 0.614746 16.825 0.614746 17.595C0.614746 18.365 1.24477 18.9949 2.01477 18.9949H6.70477Z" fill="url(#paint5_linear_321_6936)"/>
<path d="M27.9146 17.595C27.9146 18.365 28.5445 18.9949 29.3145 18.9949H34.0045C34.7745 18.9949 35.4045 18.365 35.4045 17.595C35.4045 16.825 34.7745 16.1948 34.0045 16.1948H29.3145C28.5445 16.1948 27.9146 16.825 27.9146 17.595Z" fill="url(#paint6_linear_321_6936)"/>
<path d="M9.0646 24.6547L5.76461 27.9948C5.22461 28.5448 5.22459 29.4348 5.77459 29.9748C6.04459 30.2448 6.4046 30.3749 6.7546 30.3749C7.1046 30.3749 7.4746 30.2348 7.7546 29.9548L11.0546 26.6149C11.5946 26.0649 11.5946 25.1747 11.0446 24.6347C10.4946 24.0947 9.6046 24.0947 9.0646 24.6447V24.6547Z" fill="url(#paint7_linear_321_6936)"/>
<path d="M25.9548 10.9448C26.3148 10.9448 26.6748 10.8048 26.9548 10.5248L30.2548 7.18476C30.7948 6.63476 30.7948 5.74478 30.2448 5.20478C29.6948 4.66478 28.8048 4.66479 28.2648 5.21479L24.9648 8.55488C24.4248 9.10488 24.4248 9.99486 24.9748 10.5349C25.2448 10.8049 25.6048 10.9348 25.9548 10.9348V10.9448Z" fill="url(#paint8_linear_321_6936)"/>
<path d="M8.95488 10.6747C9.22488 10.9447 9.58486 11.0748 9.93486 11.0748C10.2849 11.0748 10.6649 10.9347 10.9349 10.6547C11.4749 10.1047 11.4649 9.2147 10.9149 8.6747L7.56486 5.39467C7.01486 4.85467 6.12485 4.86469 5.58485 5.41469C5.04485 5.96469 5.05487 6.85467 5.60487 7.39467L8.95488 10.6747Z" fill="url(#paint9_linear_321_6936)"/>
<path d="M25.0849 24.5348C24.5449 25.0848 24.5549 25.9748 25.1049 26.5148L28.4549 29.7949C28.7249 30.0649 29.0849 30.1948 29.4349 30.1948C29.7849 30.1948 30.1649 30.0548 30.4349 29.7748C30.9749 29.2248 30.9649 28.3349 30.4149 27.7949L27.0649 24.5148C26.5149 23.9748 25.6249 23.9748 25.0849 24.5348Z" fill="url(#paint10_linear_321_6936)"/>
<path d="M76.5345 77.3948C76.3145 76.3048 76.1646 74.745 76.4646 74.065C77.2746 72.235 76.7046 70.4949 76.1246 69.7649C75.5346 69.0249 74.8346 69.0748 74.5646 69.1348C72.9246 69.4548 71.9946 70.9349 71.3146 72.0049C71.1846 72.2049 71.0246 72.4749 70.8746 72.6749C70.5446 72.3449 70.0946 71.7749 69.8246 71.4249C68.9746 70.3349 68.3046 69.475 67.3346 69.295C66.7946 69.195 66.2546 69.3549 65.8546 69.7249C65.6246 69.9349 64.9946 70.5049 64.9846 72.7649H35.7746C31.7346 72.7649 28.4546 76.045 28.4546 80.085V93.805H28.4846V97.6849C28.4846 98.4549 29.1146 99.085 29.8846 99.085C30.6546 99.085 31.2846 98.4549 31.2846 97.6849V93.805H33.3246V103.575C33.3246 104.345 33.9546 104.975 34.7246 104.975C35.4946 104.975 36.1246 104.345 36.1246 103.575V93.805H38.7646L38.6046 102.845C38.5946 103.615 39.2046 104.255 39.9746 104.275H40.0046C40.7646 104.275 41.3946 103.665 41.4046 102.905L41.5646 93.815H55.6646V103.495C55.6646 104.265 56.2946 104.895 57.0646 104.895C57.8346 104.895 58.4646 104.265 58.4646 103.495V93.815H61.6446V103.325C61.6446 104.095 62.2746 104.725 63.0446 104.725C63.8146 104.725 64.4446 104.095 64.4446 103.325V93.815H65.5946C68.2446 93.815 69.1946 89.0149 69.5146 86.2049C69.9746 85.7049 72.7746 85.755 74.1246 85.785C76.6946 85.835 78.7246 85.8749 79.7546 84.7249C80.2046 84.2249 80.4146 83.585 80.3546 82.875C80.2046 80.855 77.7245 78.4448 76.5345 77.4048V77.3948ZM74.1746 82.9749C71.0246 82.9149 67.1046 82.835 66.7546 85.825C66.4146 88.715 65.7146 90.5149 65.3346 91.0049H31.2546V80.095C31.2546 77.605 33.2846 75.575 35.7746 75.575H67.9745L67.8446 74.055C67.8246 73.835 67.8146 73.6148 67.8046 73.3948C68.7246 74.5648 69.6846 75.6949 70.9646 75.6949C72.3046 75.6949 73.0346 74.5349 73.6846 73.5049C73.6946 73.4849 73.7045 73.4649 73.7245 73.4449C73.1745 75.3649 73.7846 77.9649 73.9246 78.5049L74.0345 78.9449L74.3846 79.2349C75.8546 80.4649 77.2546 82.105 77.5246 82.865C76.8546 83.035 75.2746 82.9949 74.1846 82.9749H74.1746Z" fill="url(#paint11_linear_321_6936)"/>
<defs>
<linearGradient id="paint0_linear_321_6936" x1="16.095" y1="120.775" x2="18.205" y2="-7.99516" gradientUnits="userSpaceOnUse">
<stop stop-color="#ED7225"/>
<stop offset="0.17" stop-color="#FDC80A"/>
<stop offset="0.45" stop-color="#047F45"/>
<stop offset="0.76" stop-color="#0C98CA"/>
<stop offset="0.97" stop-color="white"/>
</linearGradient>
<linearGradient id="paint1_linear_321_6936" x1="46.805" y1="121.285" x2="48.915" y2="-7.49521" gradientUnits="userSpaceOnUse">
<stop stop-color="#ED7225"/>
<stop offset="0.17" stop-color="#FDC80A"/>
<stop offset="0.45" stop-color="#047F45"/>
<stop offset="0.76" stop-color="#0C98CA"/>
<stop offset="0.97" stop-color="white"/>
</linearGradient>
<linearGradient id="paint2_linear_321_6936" x1="61.1847" y1="121.516" x2="63.2947" y2="-7.25548" gradientUnits="userSpaceOnUse">
<stop stop-color="#ED7225"/>
<stop offset="0.17" stop-color="#FDC80A"/>
<stop offset="0.45" stop-color="#047F45"/>
<stop offset="0.76" stop-color="#0C98CA"/>
<stop offset="0.97" stop-color="white"/>
</linearGradient>
<linearGradient id="paint3_linear_321_6936" x1="15.7847" y1="120.775" x2="17.8947" y2="-8.00521" gradientUnits="userSpaceOnUse">
<stop stop-color="#ED7225"/>
<stop offset="0.17" stop-color="#FDC80A"/>
<stop offset="0.45" stop-color="#047F45"/>
<stop offset="0.76" stop-color="#0C98CA"/>
<stop offset="0.97" stop-color="white"/>
</linearGradient>
<linearGradient id="paint4_linear_321_6936" x1="16.545" y1="120.785" x2="18.655" y2="-7.99507" gradientUnits="userSpaceOnUse">
<stop stop-color="#ED7225"/>
<stop offset="0.17" stop-color="#FDC80A"/>
<stop offset="0.45" stop-color="#047F45"/>
<stop offset="0.76" stop-color="#0C98CA"/>
<stop offset="0.97" stop-color="white"/>
</linearGradient>
<linearGradient id="paint5_linear_321_6936" x1="2.66475" y1="120.557" x2="4.77482" y2="-8.2156" gradientUnits="userSpaceOnUse">
<stop stop-color="#ED7225"/>
<stop offset="0.17" stop-color="#FDC80A"/>
<stop offset="0.45" stop-color="#047F45"/>
<stop offset="0.76" stop-color="#0C98CA"/>
<stop offset="0.97" stop-color="white"/>
</linearGradient>
<linearGradient id="paint6_linear_321_6936" x1="29.9645" y1="121.007" x2="32.0746" y2="-7.77559" gradientUnits="userSpaceOnUse">
<stop stop-color="#ED7225"/>
<stop offset="0.17" stop-color="#FDC80A"/>
<stop offset="0.45" stop-color="#047F45"/>
<stop offset="0.76" stop-color="#0C98CA"/>
<stop offset="0.97" stop-color="white"/>
</linearGradient>
<linearGradient id="paint7_linear_321_6936" x1="6.8846" y1="120.628" x2="8.99475" y2="-8.14649" gradientUnits="userSpaceOnUse">
<stop stop-color="#ED7225"/>
<stop offset="0.17" stop-color="#FDC80A"/>
<stop offset="0.45" stop-color="#047F45"/>
<stop offset="0.76" stop-color="#0C98CA"/>
<stop offset="0.97" stop-color="white"/>
</linearGradient>
<linearGradient id="paint8_linear_321_6936" x1="25.7448" y1="120.935" x2="27.8548" y2="-7.83519" gradientUnits="userSpaceOnUse">
<stop stop-color="#ED7225"/>
<stop offset="0.17" stop-color="#FDC80A"/>
<stop offset="0.45" stop-color="#047F45"/>
<stop offset="0.76" stop-color="#0C98CA"/>
<stop offset="0.97" stop-color="white"/>
</linearGradient>
<linearGradient id="paint9_linear_321_6936" x1="6.41486" y1="120.628" x2="8.52498" y2="-8.15568" gradientUnits="userSpaceOnUse">
<stop stop-color="#ED7225"/>
<stop offset="0.17" stop-color="#FDC80A"/>
<stop offset="0.45" stop-color="#047F45"/>
<stop offset="0.76" stop-color="#0C98CA"/>
<stop offset="0.97" stop-color="white"/>
</linearGradient>
<linearGradient id="paint10_linear_321_6936" x1="26.2149" y1="120.944" x2="28.3248" y2="-7.83475" gradientUnits="userSpaceOnUse">
<stop stop-color="#ED7225"/>
<stop offset="0.17" stop-color="#FDC80A"/>
<stop offset="0.45" stop-color="#047F45"/>
<stop offset="0.76" stop-color="#0C98CA"/>
<stop offset="0.97" stop-color="white"/>
</linearGradient>
<linearGradient id="paint11_linear_321_6936" x1="53.7546" y1="121.395" x2="55.8646" y2="-7.3853" gradientUnits="userSpaceOnUse">
<stop stop-color="#ED7225"/>
<stop offset="0.17" stop-color="#FDC80A"/>
<stop offset="0.45" stop-color="#047F45"/>
<stop offset="0.76" stop-color="#0C98CA"/>
<stop offset="0.97" stop-color="white"/>
</linearGradient>
</defs>
</svg>
