<svg width="92" height="52" viewBox="0 0 92 52" fill="none" xmlns="http://www.w3.org/2000/svg">
<path d="M0.0849609 19.9648V1.57495H11.305V3.83496H2.58496V9.22485H9.31496V11.4849H2.58496V19.9749H0.0849609V19.9648Z" fill="white"/>
<path d="M16.325 20.2249C15.525 20.2249 14.835 20.0649 14.235 19.7349C13.635 19.4149 13.175 18.9648 12.845 18.4048C12.515 17.8448 12.355 17.2049 12.355 16.4849C12.355 15.7649 12.515 15.135 12.835 14.615C13.155 14.095 13.585 13.6649 14.125 13.3149C14.665 12.9649 15.265 12.6949 15.935 12.4849C16.605 12.2749 17.295 12.1349 18.005 12.0349C18.715 11.9449 19.405 11.8948 20.065 11.8848C20.065 10.6548 19.825 9.85486 19.345 9.48486C18.865 9.10486 18.165 8.91479 17.255 8.91479C16.775 8.91479 16.255 8.98477 15.715 9.13477C15.165 9.28477 14.555 9.59494 13.865 10.0649L13.525 8.14478C14.045 7.75478 14.685 7.4248 15.455 7.1748C16.225 6.9248 17.035 6.80493 17.885 6.80493C18.975 6.80493 19.845 6.995 20.515 7.375C21.185 7.755 21.665 8.39492 21.975 9.29492C22.285 10.1949 22.435 11.4249 22.435 12.9749V15.605C22.435 16.215 22.465 16.725 22.515 17.125C22.565 17.525 22.705 17.8249 22.905 18.0149C23.115 18.2149 23.445 18.3149 23.895 18.3149H24.135L23.765 20.2048H23.585C22.825 20.2048 22.235 20.1349 21.815 19.9849C21.395 19.8349 21.085 19.625 20.865 19.345C20.645 19.065 20.445 18.725 20.275 18.325C19.795 18.885 19.225 19.3448 18.565 19.6948C17.905 20.0448 17.165 20.2249 16.335 20.2249H16.325ZM16.775 18.335C17.405 18.335 18.015 18.175 18.605 17.865C19.195 17.545 19.685 17.125 20.055 16.605V13.5349C18.805 13.5749 17.785 13.7048 17.015 13.9048C16.235 14.1048 15.675 14.4049 15.315 14.8149C14.955 15.2149 14.775 15.735 14.775 16.375C14.775 17.065 14.965 17.565 15.335 17.875C15.705 18.185 16.185 18.345 16.775 18.345V18.335Z" fill="white"/>
<path d="M24.915 19.9648L32.875 7.98486L33.165 9.16479H25.335V7.08496H36.055L28.095 19.0649L27.805 17.8848H35.925V19.9648H24.915Z" fill="white"/>
<path d="M44.4852 20.2249C42.9752 20.2249 41.6952 19.9149 40.6652 19.2949C39.6352 18.6749 38.8451 17.8449 38.3251 16.8149C37.7951 15.7849 37.5352 14.6548 37.5352 13.4148C37.5352 12.1748 37.7852 11.115 38.2752 10.115C38.7652 9.11499 39.4852 8.31484 40.4252 7.71484C41.3652 7.11484 42.5052 6.81494 43.8352 6.81494C44.9052 6.81494 45.8552 7.02483 46.6952 7.45483C47.5352 7.87483 48.1852 8.49493 48.6652 9.30493C49.1452 10.1149 49.3852 11.0949 49.3852 12.2549C49.3852 12.4349 49.3851 12.635 49.3651 12.855C49.3551 13.065 49.3251 13.2949 49.2751 13.5149H39.9452C40.0552 14.7049 40.3452 15.6349 40.7952 16.3049C41.2552 16.9749 41.8252 17.4348 42.5152 17.7148C43.2052 17.9848 43.9552 18.125 44.7752 18.125C45.3752 18.125 45.9952 18.0648 46.6452 17.9448C47.2952 17.8248 47.9052 17.625 48.4852 17.365L48.8051 19.2349C48.3051 19.4549 47.6952 19.6748 46.9752 19.8948C46.2552 20.1148 45.4351 20.2249 44.4951 20.2249H44.4852ZM40.1552 11.8948H46.9352C46.9352 11.2948 46.8252 10.7649 46.5952 10.3149C46.3652 9.86494 46.0252 9.52491 45.5552 9.28491C45.0952 9.04491 44.4952 8.9248 43.7852 8.9248C42.7352 8.9248 41.9252 9.18483 41.3652 9.70483C40.8052 10.2248 40.4052 10.9548 40.1652 11.8948H40.1552Z" fill="white"/>
<path d="M51.7651 19.9648V7.09497H53.6051L54.0751 9.56494L53.1551 9.1748C54.0251 8.2148 54.8651 7.58491 55.6951 7.28491C56.5251 6.98491 57.3351 6.83496 58.1151 6.83496C59.9951 6.83496 61.3451 7.37484 62.1551 8.46484C62.9651 9.55484 63.3651 11.025 63.3651 12.875V19.9648H61.0051V12.875C61.0051 11.505 60.7551 10.5148 60.2451 9.88477C59.7351 9.25477 58.8651 8.93481 57.6451 8.93481C56.7751 8.93481 55.9851 9.12488 55.2651 9.50488C54.5451 9.88488 54.0651 10.495 53.8451 11.325L54.1351 9.88477V19.9749H51.7751L51.7651 19.9648Z" fill="white"/>
<path d="M71.5451 20.2249C70.4551 20.2249 69.4651 19.925 68.5751 19.335C67.6951 18.745 66.9851 17.9348 66.4651 16.9348C65.9451 15.9248 65.6851 14.8049 65.6851 13.5549C65.6851 12.3049 65.9251 11.2649 66.4051 10.2449C66.8851 9.22487 67.5551 8.39489 68.4351 7.76489C69.3151 7.13489 70.3451 6.82495 71.5451 6.82495C72.4051 6.82495 73.2351 7.01477 74.0351 7.38477C74.8351 7.75477 75.4851 8.37487 75.9851 9.24487L75.4851 9.58496V0.254883H77.8451V19.9548H75.7451L75.2951 17.2249L75.8951 17.6448C75.5151 18.4948 74.9251 19.1349 74.1251 19.5649C73.3151 19.9949 72.4551 20.2148 71.5351 20.2148L71.5451 20.2249ZM71.9651 18.125C72.5651 18.125 73.1451 17.9748 73.7351 17.6648C74.3151 17.3548 74.7951 16.8748 75.1851 16.2048C75.5751 15.5348 75.7551 14.6549 75.7551 13.5549C75.7551 12.5349 75.5651 11.6849 75.1851 11.0049C74.8051 10.3249 74.3251 9.80483 73.7351 9.45483C73.1551 9.10483 72.5651 8.93481 71.9651 8.93481C71.1551 8.93481 70.4651 9.13491 69.8851 9.53491C69.3051 9.93491 68.8651 10.4848 68.5551 11.1848C68.2451 11.8848 68.0951 12.6749 68.0951 13.5549C68.0951 14.3849 68.2451 15.145 68.5551 15.845C68.8651 16.535 69.3051 17.0949 69.8851 17.5049C70.4651 17.9149 71.1551 18.125 71.9651 18.125Z" fill="white"/>
<path d="M84.0252 20.2249C83.2252 20.2249 82.5352 20.0649 81.9352 19.7349C81.3352 19.4149 80.8752 18.9648 80.5452 18.4048C80.2152 17.8448 80.0552 17.2049 80.0552 16.4849C80.0552 15.7649 80.2152 15.135 80.5352 14.615C80.8552 14.095 81.2852 13.6649 81.8252 13.3149C82.3652 12.9649 82.9652 12.6949 83.6352 12.4849C84.3052 12.2749 84.9852 12.1349 85.7052 12.0349C86.4252 11.9349 87.1052 11.8948 87.7652 11.8848C87.7652 10.6548 87.5252 9.85486 87.0452 9.48486C86.5652 9.10486 85.8652 8.91479 84.9552 8.91479C84.4752 8.91479 83.9552 8.98477 83.4152 9.13477C82.8652 9.28477 82.2552 9.59494 81.5652 10.0649L81.2252 8.14478C81.7452 7.75478 82.3852 7.4248 83.1552 7.1748C83.9252 6.9248 84.7352 6.80493 85.5852 6.80493C86.6752 6.80493 87.5452 6.995 88.2152 7.375C88.8852 7.755 89.3652 8.39492 89.6752 9.29492C89.9852 10.1949 90.1352 11.4249 90.1352 12.9749V15.605C90.1352 16.215 90.1652 16.725 90.2252 17.125C90.2852 17.525 90.4152 17.8249 90.6152 18.0149C90.8252 18.2149 91.1552 18.3149 91.6052 18.3149H91.8452L91.4752 20.2048H91.2952C90.5352 20.2048 89.9452 20.1349 89.5252 19.9849C89.1052 19.8349 88.7952 19.625 88.5752 19.345C88.3552 19.065 88.1552 18.725 87.9852 18.325C87.5052 18.885 86.9352 19.3448 86.2752 19.6948C85.6152 20.0448 84.8752 20.2249 84.0452 20.2249H84.0252ZM84.4752 18.335C85.1052 18.335 85.7152 18.175 86.3052 17.865C86.8952 17.555 87.3852 17.125 87.7552 16.605V13.5349C86.5052 13.5749 85.4852 13.7048 84.7152 13.9048C83.9452 14.1048 83.3752 14.4049 83.0152 14.8149C82.6552 15.2149 82.4752 15.735 82.4752 16.375C82.4752 17.065 82.6652 17.565 83.0352 17.875C83.4052 18.185 83.8852 18.345 84.4752 18.345V18.335Z" fill="white"/>
<path d="M0.0849609 51.4949V33.105H2.58496V51.4949H0.0849609Z" fill="white"/>
<path d="M6.28516 51.4949V38.625H8.12515L8.59515 41.095L7.67516 40.7048C8.54516 39.7448 9.38515 39.1149 10.2151 38.8149C11.0451 38.5149 11.8552 38.365 12.6352 38.365C14.5152 38.365 15.8652 38.9049 16.6752 39.9949C17.4852 41.0849 17.8852 42.5548 17.8852 44.4048V51.4949H15.5252V44.4048C15.5252 43.0348 15.2752 42.0448 14.7652 41.4148C14.2552 40.7848 13.3852 40.4648 12.1652 40.4648C11.2952 40.4648 10.5052 40.6549 9.78516 41.0349C9.06516 41.4149 8.58516 42.025 8.36516 42.855L8.65515 41.4148V51.5049H6.29515L6.28516 51.4949Z" fill="white"/>
<path d="M26.0651 51.7549C24.9751 51.7549 23.9851 51.455 23.0951 50.865C22.2151 50.275 21.5051 49.4648 20.9851 48.4648C20.4651 47.4548 20.2051 46.335 20.2051 45.085C20.2051 43.835 20.4451 42.7949 20.9251 41.7749C21.4051 40.7549 22.0751 39.9249 22.9551 39.2949C23.8351 38.6649 24.8651 38.355 26.0651 38.355C26.9251 38.355 27.7551 38.5448 28.5551 38.9148C29.3551 39.2848 30.0051 39.9049 30.5051 40.7749L30.0051 41.115V31.7849H32.3651V51.4849H30.2651L29.8151 48.7549L30.4151 49.1748C30.0351 50.0248 29.4451 50.665 28.6451 51.095C27.8351 51.525 26.9751 51.7449 26.0551 51.7449L26.0651 51.7549ZM26.4851 49.6548C27.0851 49.6548 27.6651 49.5048 28.2551 49.1948C28.8351 48.8848 29.3151 48.4049 29.7051 47.7349C30.0951 47.0649 30.2751 46.185 30.2751 45.085C30.2751 44.065 30.0851 43.2149 29.7051 42.5349C29.3251 41.8549 28.8451 41.3349 28.2551 40.9849C27.6751 40.6349 27.0851 40.4648 26.4851 40.4648C25.6751 40.4648 24.9851 40.6649 24.4051 41.0649C23.8251 41.4649 23.3851 42.0148 23.0751 42.7148C22.7651 43.4148 22.6151 44.205 22.6151 45.085C22.6151 45.915 22.7651 46.675 23.0751 47.375C23.3851 48.065 23.8251 48.6249 24.4051 49.0349C24.9851 49.4449 25.6751 49.6548 26.4851 49.6548Z" fill="white"/>
<path d="M35.5552 35.7249V33.095H37.9152V35.7249H35.5552ZM35.5552 51.4849V38.615H37.9152V51.4849H35.5552Z" fill="white"/>
<path d="M41.1247 51.4949V38.625H43.0647L43.3547 40.7549C44.0147 39.9449 44.6447 39.3348 45.2347 38.9448C45.8247 38.5548 46.4747 38.365 47.1547 38.365C47.3747 38.365 47.5747 38.3948 47.7547 38.4448L47.5147 41.0449C47.4047 41.0149 47.2847 40.9949 47.1547 40.9849C47.0247 40.9749 46.8847 40.9648 46.7247 40.9648C46.0447 40.9648 45.4147 41.1148 44.8447 41.4148C44.2747 41.7148 43.8648 42.0448 43.6348 42.4048V51.4949H41.1147H41.1247Z" fill="white"/>
<path d="M55.595 51.7549C54.085 51.7549 52.805 51.445 51.775 50.825C50.745 50.205 49.955 49.375 49.435 48.345C48.905 47.315 48.645 46.1848 48.645 44.9448C48.645 43.7048 48.895 42.6448 49.385 41.6448C49.875 40.6448 50.595 39.8449 51.535 39.2449C52.475 38.6449 53.615 38.345 54.945 38.345C56.015 38.345 56.965 38.5549 57.805 38.9849C58.645 39.4049 59.295 40.025 59.775 40.835C60.255 41.645 60.495 42.6249 60.495 43.7849C60.495 43.9649 60.495 44.1648 60.475 44.3848C60.465 44.5948 60.435 44.8249 60.385 45.0449H51.055C51.165 46.2349 51.455 47.165 51.905 47.835C52.365 48.505 52.935 48.9649 53.625 49.2449C54.315 49.5149 55.065 49.6548 55.885 49.6548C56.485 49.6548 57.105 49.5949 57.755 49.4749C58.405 49.3549 59.015 49.1548 59.595 48.8948L59.915 50.7649C59.415 50.9849 58.805 51.2048 58.085 51.4248C57.365 51.6448 56.545 51.7549 55.605 51.7549H55.595ZM51.265 43.4248H58.045C58.045 42.8248 57.935 42.295 57.705 41.845C57.475 41.395 57.135 41.0549 56.665 40.8149C56.205 40.5749 55.605 40.4548 54.895 40.4548C53.845 40.4548 53.035 40.7149 52.475 41.2349C51.915 41.7549 51.515 42.4848 51.275 43.4248H51.265Z" fill="white"/>
<path d="M67.3151 51.7549C66.5051 51.7549 65.8451 51.6049 65.3551 51.3049C64.8651 51.0049 64.5051 50.6248 64.2851 50.1548C64.0651 49.6848 63.9551 49.1948 63.9551 48.6748V40.4548H61.7451L61.9551 38.615H63.9551V35.4348L66.3151 35.1948V38.615H69.7051V40.4548H66.3151V47.2349C66.3151 48.0549 66.3651 48.6549 66.4551 49.0249C66.5551 49.3949 66.7851 49.6249 67.1751 49.7249C67.5551 49.8249 68.1751 49.865 69.0251 49.865H69.6251L69.4451 51.7549H67.3151Z" fill="white"/>
<path d="M74.7249 51.7549C73.9249 51.7549 73.2349 51.5949 72.6349 51.2649C72.0349 50.9449 71.5749 50.4948 71.2449 49.9348C70.9149 49.3748 70.7549 48.7349 70.7549 48.0149C70.7549 47.2949 70.9149 46.6648 71.2349 46.1448C71.5549 45.6248 71.9849 45.195 72.5249 44.845C73.0649 44.495 73.6649 44.2249 74.3349 44.0149C75.0049 43.8049 75.6849 43.6649 76.4049 43.5649C77.1249 43.4649 77.8049 43.4248 78.4649 43.4148C78.4649 42.1848 78.2249 41.3849 77.7449 41.0149C77.2649 40.6349 76.5649 40.4448 75.6549 40.4448C75.1749 40.4448 74.6549 40.5148 74.1149 40.6648C73.5649 40.8148 72.9549 41.125 72.2649 41.595L71.9249 39.6748C72.4449 39.2848 73.0849 38.9548 73.8549 38.7048C74.6249 38.4548 75.4349 38.335 76.2849 38.335C77.3749 38.335 78.2449 38.5248 78.9149 38.9048C79.5849 39.2848 80.0649 39.925 80.3749 40.825C80.6849 41.725 80.8349 42.9549 80.8349 44.5049V47.1348C80.8349 47.7448 80.8649 48.2548 80.9249 48.6548C80.9849 49.0548 81.1149 49.3549 81.3149 49.5449C81.5249 49.7449 81.8549 49.845 82.3049 49.845H82.5449L82.1749 51.7349H81.9949C81.2349 51.7349 80.6449 51.6649 80.2249 51.5149C79.8049 51.3649 79.4949 51.155 79.2749 50.875C79.0549 50.595 78.8549 50.255 78.6849 49.855C78.2049 50.415 77.6349 50.8749 76.9749 51.2249C76.3149 51.5749 75.5749 51.7549 74.7449 51.7549H74.7249ZM75.1749 49.865C75.8049 49.865 76.4149 49.7048 77.0049 49.3948C77.5949 49.0848 78.0849 48.6548 78.4549 48.1348V45.0649C77.2049 45.1049 76.1849 45.2348 75.4149 45.4348C74.6449 45.6348 74.0749 45.935 73.7149 46.345C73.3549 46.745 73.1749 47.2648 73.1749 47.9048C73.1749 48.5948 73.3649 49.0948 73.7349 49.4048C74.1049 49.7148 74.5849 49.875 75.1749 49.875V49.865Z" fill="white"/>
</svg>
