<svg width="126" height="120" viewBox="0 0 126 120" fill="none" xmlns="http://www.w3.org/2000/svg">
<path d="M36.7327 117.41C15.8127 107.34 2.5127 86.6999 2.0127 63.5699L4.1427 63.52C4.6227 85.84 17.4727 105.77 37.6527 115.49L36.7327 117.41Z" fill="#009EE2"/>
<path d="M42.2626 111.4H41.2026V119.14H42.2626V111.4Z" fill="#1D1D1B"/>
<path d="M44.6427 116.64C44.6727 117.08 44.7627 117.44 44.9427 117.71C45.2727 118.22 45.8727 118.48 46.7127 118.48C47.0827 118.48 47.4327 118.43 47.7527 118.31C48.3627 118.09 48.6627 117.7 48.6527 117.13C48.6527 116.71 48.5227 116.41 48.2727 116.23C48.0027 116.05 47.6026 115.9 47.0526 115.77L46.0426 115.53C45.3726 115.38 44.9027 115.21 44.6227 115.02C44.1527 114.69 43.9026 114.21 43.9126 113.57C43.9126 112.88 44.1426 112.31 44.6126 111.86C45.0826 111.42 45.7426 111.19 46.6026 111.19C47.3926 111.19 48.0627 111.39 48.6227 111.78C49.1727 112.17 49.4527 112.8 49.4527 113.66H48.4627C48.4127 113.24 48.3027 112.93 48.1327 112.71C47.8327 112.31 47.3027 112.1 46.5727 112.1C45.9827 112.1 45.5626 112.23 45.3026 112.49C45.0426 112.75 44.9126 113.05 44.9126 113.4C44.9126 113.78 45.0627 114.05 45.3727 114.23C45.5727 114.34 46.0326 114.49 46.7326 114.66L47.7926 114.9C48.3026 115.03 48.6927 115.18 48.9627 115.39C49.4427 115.75 49.6827 116.28 49.6827 116.96C49.6827 117.82 49.3727 118.43 48.7727 118.8C48.1627 119.17 47.4527 119.35 46.6427 119.35C45.7127 119.35 44.9727 119.11 44.4427 118.61C43.9127 118.12 43.6526 117.46 43.6626 116.62H44.6427V116.64Z" fill="#1D1D1B"/>
<path d="M57.5327 112.5C58.0427 113.19 58.3027 114.06 58.3027 115.13C58.3027 116.29 58.0127 117.25 57.4227 118.01C56.7327 118.91 55.7527 119.36 54.4727 119.36C53.2827 119.36 52.3427 118.96 51.6627 118.18C51.0627 117.42 50.7627 116.46 50.7527 115.3C50.7527 114.25 51.0127 113.36 51.5327 112.62C52.2027 111.66 53.1927 111.18 54.4927 111.18C55.8627 111.18 56.8727 111.62 57.5327 112.5ZM56.6127 117.43C57.0327 116.77 57.2327 116.01 57.2327 115.15C57.2327 114.24 56.9927 113.5 56.5227 112.95C56.0427 112.4 55.3927 112.12 54.5727 112.12C53.7527 112.12 53.1227 112.4 52.6127 112.95C52.1027 113.5 51.8527 114.31 51.8527 115.38C51.8527 116.24 52.0727 116.97 52.5127 117.55C52.9427 118.14 53.6527 118.43 54.6227 118.43C55.5527 118.43 56.2127 118.1 56.6227 117.43" fill="#1D1D1B"/>
<path d="M63.1726 117.3C63.2026 117.83 63.4026 118.19 63.7826 118.38C63.9726 118.49 64.1926 118.54 64.4326 118.54C64.8826 118.54 65.2627 118.35 65.5927 117.97C65.9127 117.59 66.1327 116.82 66.2727 115.67C66.0627 116 65.8026 116.24 65.4926 116.37C65.1826 116.51 64.8426 116.58 64.4826 116.58C63.7626 116.58 63.1827 116.35 62.7627 115.9C62.3427 115.44 62.1227 114.86 62.1327 114.15C62.1327 113.46 62.3426 112.86 62.7526 112.35C63.1726 111.83 63.7926 111.57 64.6026 111.57C65.7026 111.57 66.4627 112.07 66.8827 113.05C67.1127 113.6 67.2326 114.28 67.2326 115.1C67.2326 116.02 67.0927 116.84 66.8227 117.55C66.3627 118.74 65.5726 119.33 64.4826 119.33C63.7426 119.33 63.1826 119.14 62.7926 118.75C62.4126 118.36 62.2226 117.88 62.2226 117.3H63.1826H63.1726ZM65.6427 115.38C65.9527 115.13 66.1026 114.7 66.1026 114.08C66.1026 113.53 65.9626 113.11 65.6826 112.84C65.4026 112.57 65.0426 112.43 64.6126 112.43C64.1526 112.43 63.7827 112.59 63.5127 112.9C63.2427 113.21 63.1026 113.63 63.1026 114.14C63.1026 114.63 63.2227 115.02 63.4627 115.31C63.7027 115.6 64.0826 115.74 64.6026 115.74C64.9826 115.74 65.3227 115.62 65.6327 115.37" fill="#1D1D1B"/>
<path d="M72.7726 112.79C73.1126 113.41 73.2826 114.26 73.2826 115.35C73.2826 116.38 73.1326 117.22 72.8226 117.9C72.3826 118.86 71.6626 119.34 70.6526 119.34C69.7426 119.34 69.0726 118.95 68.6326 118.16C68.2626 117.5 68.0726 116.62 68.0726 115.51C68.0726 114.65 68.1826 113.92 68.4026 113.31C68.8126 112.16 69.5626 111.59 70.6526 111.59C71.6326 111.59 72.3326 111.99 72.7726 112.79ZM71.8226 117.82C72.1126 117.38 72.2626 116.57 72.2626 115.39C72.2626 114.53 72.1526 113.82 71.9426 113.27C71.7326 112.72 71.3226 112.44 70.7126 112.44C70.1526 112.44 69.7426 112.7 69.4926 113.23C69.2326 113.76 69.1026 114.53 69.1126 115.55C69.1126 116.32 69.1926 116.94 69.3626 117.41C69.6126 118.12 70.0526 118.48 70.6626 118.47C71.1526 118.47 71.5527 118.26 71.8427 117.82" fill="#1D1D1B"/>
<path d="M78.7826 112.79C79.1126 113.41 79.2826 114.26 79.2826 115.35C79.2826 116.38 79.1326 117.22 78.8226 117.9C78.3826 118.86 77.6626 119.34 76.6526 119.34C75.7526 119.34 75.0726 118.95 74.6226 118.16C74.2526 117.5 74.0726 116.62 74.0726 115.52C74.0726 114.66 74.1826 113.93 74.4026 113.31C74.8226 112.16 75.5726 111.59 76.6526 111.59C77.6326 111.59 78.3326 111.99 78.7726 112.8M77.8226 117.83C78.1126 117.39 78.2526 116.58 78.2526 115.4C78.2526 114.54 78.1526 113.83 77.9426 113.28C77.7326 112.72 77.3226 112.45 76.7126 112.45C76.1526 112.45 75.7426 112.71 75.4826 113.24C75.2226 113.76 75.0927 114.54 75.0927 115.56C75.0927 116.33 75.1827 116.95 75.3427 117.41C75.5927 118.13 76.0326 118.48 76.6426 118.48C77.1426 118.48 77.5226 118.27 77.8226 117.83Z" fill="#1D1D1B"/>
<path d="M80.7727 113.78V113.05C81.4527 112.98 81.9327 112.87 82.2127 112.72C82.4727 112.56 82.6827 112.19 82.8127 111.61H83.5627V119.12H82.5527V113.78H80.7827H80.7727Z" fill="#1D1D1B"/>
<path d="M8.39263 52.2803L8.9226 52.8702L7.90264 53.9003C8.02264 54.2003 8.09263 54.5202 8.14263 54.8502C8.19263 55.1902 8.18263 55.5403 8.14263 55.9203C7.98263 57.0803 7.49263 57.9202 6.64263 58.4702C5.82263 58.9502 4.86262 59.1102 3.76262 58.9502C2.76262 58.8202 1.9326 58.4602 1.3026 57.8602C0.472603 57.0902 0.132603 56.0802 0.302603 54.8302C0.482603 53.5202 1.03264 52.6102 1.96264 52.1002C2.69264 51.7002 3.55263 51.5702 4.58263 51.7102C5.05263 51.7702 5.51261 51.8902 5.93261 52.0702C6.58261 52.3302 7.09263 52.7103 7.45263 53.1903L8.39263 52.2803ZM7.29259 55.0802C7.29259 54.8902 7.25262 54.7202 7.19262 54.5802L6.44262 55.3103L5.88262 54.7202L6.78258 53.8502C6.46258 53.4902 6.10262 53.2403 5.69262 53.0603C5.26262 52.8903 4.85264 52.7802 4.46264 52.7302C3.59264 52.6002 2.86262 52.7302 2.26262 53.1202C1.67262 53.5102 1.31264 54.1003 1.21264 54.8903C1.10264 55.6903 1.27264 56.3603 1.71264 56.9003C2.17264 57.4403 2.9226 57.7803 3.9826 57.9303C4.8826 58.0403 5.61263 57.9203 6.20263 57.5403C6.79263 57.1603 7.15258 56.5403 7.28258 55.6703C7.30258 55.4603 7.32261 55.2602 7.31261 55.0702" fill="#1D1D1B"/>
<path d="M1.75262 48.2002L6.20264 49.4502C6.73264 49.6002 7.18265 49.6203 7.59265 49.5203C8.19265 49.3703 8.5926 48.9503 8.7926 48.2603C9.0226 47.4103 8.9026 46.7803 8.4126 46.3103C8.1526 46.0703 7.76261 45.8702 7.24261 45.7302L2.78259 44.4802L3.06262 43.4902L7.1026 44.6302C7.9926 44.8802 8.64261 45.1803 9.05261 45.5603C9.80261 46.2403 10.0126 47.2003 9.6626 48.4203C9.3126 49.6503 8.6526 50.3503 7.6626 50.5403C7.1126 50.6503 6.40263 50.5802 5.51263 50.3302L1.46265 49.2002L1.74261 48.2202L1.75262 48.2002Z" fill="#1D1D1B"/>
<path d="M4.67261 39.3701L5.11261 38.3201L13.0726 38.7201L12.6426 39.7501L10.2726 39.6001L9.13263 42.3102L10.8826 43.9302L10.4826 44.8901L4.68262 39.3701H4.67261ZM9.39264 39.5402L5.90265 39.3201L8.49261 41.7101L9.40265 39.5502L9.39264 39.5402Z" fill="#1D1D1B"/>
<path d="M6.93262 34.4401L7.42261 33.5699L13.1726 36.8L15.0126 33.52L15.7926 33.95L13.4626 38.11L6.93262 34.4401Z" fill="#1D1D1B"/>
<path d="M10.2327 28.88L10.7927 28.02L17.0327 32.17L16.4527 33.03L10.2327 28.88Z" fill="#1D1D1B"/>
<path d="M15.3226 22.02L16.0226 22.58L14.4726 24.5601L19.6526 28.65L19.0026 29.45L13.8326 25.36L12.2626 27.35L11.5626 26.79L15.3226 22.02Z" fill="#1D1D1B"/>
<path d="M15.9927 21.2703L16.8227 20.4303L20.8927 21.4403L19.8627 17.3702L20.7127 16.5303L21.8727 21.6903L24.0127 23.8202L23.2927 24.5403L21.1527 22.4103L15.9927 21.2703Z" fill="#1D1D1B"/>
<path d="M27.8326 17.2803C28.0926 17.6103 28.3726 17.8402 28.6726 17.9602C29.2226 18.1802 29.8326 18.0502 30.4926 17.5702C30.7926 17.3602 31.0426 17.1202 31.2226 16.8602C31.5826 16.3502 31.5926 15.8703 31.2826 15.4303C31.0426 15.1003 30.7726 14.9403 30.4726 14.9403C30.1726 14.9403 29.7526 15.0503 29.2526 15.2603L28.3226 15.6403C27.7126 15.8803 27.2426 16.0103 26.9326 16.0203C26.3726 16.0403 25.9126 15.7803 25.5526 15.2703C25.1726 14.7303 25.0326 14.1403 25.1526 13.5303C25.2726 12.9103 25.6726 12.3703 26.3426 11.8903C26.9726 11.4503 27.6026 11.2202 28.2626 11.2202C28.9126 11.2202 29.4826 11.5702 29.9626 12.2402L29.1826 12.8003C28.9026 12.5003 28.6526 12.3102 28.4026 12.2302C27.9326 12.0802 27.4026 12.2102 26.8326 12.6202C26.3626 12.9502 26.0926 13.2903 26.0426 13.6403C25.9726 13.9903 26.0426 14.3002 26.2426 14.5702C26.4426 14.8702 26.7326 15.0002 27.0726 14.9702C27.2926 14.9402 27.7326 14.8003 28.3926 14.5303L29.3526 14.1403C29.8226 13.9603 30.2226 13.8602 30.5626 13.8602C31.1426 13.8902 31.6226 14.1702 32.0126 14.7102C32.4926 15.3802 32.5926 16.0403 32.3126 16.6603C32.0426 17.3003 31.5826 17.8403 30.9526 18.2903C30.2126 18.8203 29.4926 19.0403 28.7926 18.9403C28.1026 18.8603 27.5226 18.4703 27.0726 17.8103L27.8526 17.2603L27.8326 17.2803Z" fill="#1D1D1B"/>
<path d="M30.1626 9.49011L31.2026 8.93018L34.8126 11.0801L34.9926 6.89014L36.0426 6.32007L35.6626 11.6101L37.1126 14.2601L36.2126 14.7401L34.7726 12.0801L30.1626 9.49011Z" fill="#1D1D1B"/>
<path d="M39.9427 10.1803C40.1127 10.5803 40.3327 10.8603 40.5827 11.0403C41.0627 11.3903 41.6927 11.4102 42.4527 11.1102C42.7927 10.9802 43.0827 10.8002 43.3327 10.6002C43.7927 10.1802 43.9327 9.73023 43.7227 9.22023C43.5927 8.85023 43.3627 8.62031 43.0627 8.55031C42.7727 8.49031 42.3527 8.4902 41.8127 8.5702L40.8127 8.71022C40.1527 8.81022 39.6727 8.81025 39.3627 8.74025C38.8127 8.62025 38.4427 8.27032 38.2027 7.69032C37.9527 7.07032 37.9727 6.47029 38.2227 5.91029C38.5027 5.34029 39.0127 4.90023 39.7927 4.60023C40.5027 4.32023 41.1727 4.2603 41.8127 4.4203C42.4527 4.5703 42.9127 5.04032 43.2227 5.81032L42.3327 6.16029C42.1327 5.80029 41.9327 5.55029 41.7127 5.41029C41.3027 5.16029 40.7527 5.16029 40.0927 5.41029C39.5627 5.63029 39.2127 5.89022 39.0727 6.21022C38.9227 6.54022 38.9227 6.86029 39.0327 7.16029C39.1727 7.51029 39.4127 7.70026 39.7527 7.75026C39.9627 7.79026 40.4327 7.75028 41.1227 7.65028L42.1527 7.50026C42.6527 7.43026 43.0627 7.4403 43.3827 7.5403C43.9427 7.6903 44.3427 8.08022 44.5827 8.71022C44.8827 9.47022 44.8327 10.1303 44.4127 10.6903C43.9927 11.2303 43.4127 11.6403 42.6927 11.9203C41.8527 12.2603 41.1027 12.2903 40.4527 12.0403C39.8027 11.7903 39.3327 11.2803 39.0527 10.5303L39.9327 10.1703L39.9427 10.1803Z" fill="#1D1D1B"/>
<path d="M49.8927 1.7002L50.1027 2.5603L47.6627 3.19031L49.3327 9.5802L48.3427 9.8302L46.6827 3.46021L44.2327 4.09021L44.0027 3.23022L49.8927 1.7002Z" fill="#1D1D1B"/>
<path d="M51.5326 1.39014L56.9226 0.630127L57.0526 1.54016L52.6426 2.16016L52.9626 4.41016L57.0226 3.84009L57.1526 4.70007L53.0726 5.27014L53.4326 7.79016L57.9126 7.15015L58.0326 8.04016L52.5726 8.81018L51.5326 1.39014Z" fill="#1D1D1B"/>
<path d="M58.9626 0.470093L60.4126 0.440186L62.6826 6.74011L64.7126 0.380127L66.1526 0.360107L66.2726 7.8501L65.3126 7.87012L65.2326 3.44019C65.2326 3.28019 65.2326 3.03018 65.2326 2.68018C65.2326 2.33018 65.2326 1.95017 65.2226 1.55017L63.1926 7.89014L62.1826 7.92017L59.9126 1.64014L59.9326 1.87012C59.9326 2.05012 59.9426 2.33007 59.9626 2.70007C59.9726 3.08007 59.9926 3.35015 59.9926 3.53015L60.0626 7.95007L59.0927 7.97009L58.9626 0.480103V0.470093Z" fill="#1D1D1B"/>
<path d="M76.8026 2.46009C77.2126 3.05009 77.3926 3.66017 77.3326 4.29017L76.3525 4.11012C76.3425 3.62012 76.1925 3.20012 75.9225 2.86012C75.6525 2.52012 75.2326 2.29019 74.6426 2.19019C73.9226 2.05019 73.3126 2.19013 72.7626 2.62013C72.2426 3.04013 71.8725 3.7901 71.6625 4.8401C71.5025 5.7001 71.5726 6.44018 71.8726 7.05018C72.1626 7.66018 72.7026 8.05008 73.4926 8.20008C74.2126 8.33008 74.8126 8.15017 75.3026 7.66017C75.5626 7.40017 75.7726 7.04008 75.9626 6.57008L76.9326 6.75013C76.7126 7.51013 76.3025 8.10017 75.7225 8.54017C75.0125 9.06017 74.1826 9.23018 73.1926 9.05018C72.3626 8.89018 71.6826 8.50014 71.2026 7.88014C70.5826 7.04014 70.4025 5.91012 70.6725 4.49012C70.8825 3.40012 71.3425 2.57012 72.0325 1.99012C72.7825 1.34012 73.6925 1.12009 74.7825 1.33009C75.7025 1.50009 76.3725 1.88009 76.7925 2.46009" fill="#1D1D1B"/>
<path d="M79.9125 2.68018L85.0726 4.3501L84.7925 5.22009L80.5626 3.8501L79.8625 6.02014L83.7626 7.28015L83.5026 8.11011L79.6025 6.8501L78.8126 9.25012L83.1125 10.6501L82.8326 11.5001L77.6025 9.80017L79.9125 2.68018Z" fill="#1D1D1B"/>
<path d="M87.1626 5.18018L90.2426 6.64014C90.7526 6.87014 91.1326 7.15007 91.4026 7.45007C91.8726 8.03007 91.9426 8.71011 91.5726 9.49011C91.3926 9.91011 91.1426 10.1901 90.8526 10.3701C90.5626 10.5501 90.2326 10.6402 89.8626 10.6602C90.0726 10.8902 90.2026 11.1301 90.2626 11.3601C90.3126 11.6101 90.2526 11.9201 90.0826 12.3201L89.6826 13.2401C89.5726 13.5001 89.5026 13.7101 89.4726 13.8501C89.4326 14.1001 89.4526 14.2802 89.5626 14.4102L89.4926 14.5602L88.3726 14.0302C88.3726 13.9502 88.3926 13.8701 88.4026 13.7701C88.4326 13.6701 88.5026 13.4901 88.6126 13.2101L89.0826 12.0602C89.2726 11.6102 89.2426 11.2302 89.0226 10.9402C88.8926 10.7802 88.6526 10.6102 88.2826 10.4302L86.2626 9.47009L84.8926 12.3801L83.9626 11.9402L87.1626 5.17017V5.18018ZM88.6826 9.69019C89.0926 9.88019 89.4726 9.96015 89.7926 9.90015C90.1226 9.84015 90.3926 9.59014 90.6026 9.14014C90.8226 8.66014 90.8126 8.25016 90.5626 7.91016C90.4126 7.73016 90.1826 7.58018 89.8926 7.43018L87.7026 6.39014L86.6226 8.70007L88.6826 9.67017V9.69019Z" fill="#1D1D1B"/>
<path d="M99.0527 11.7002L98.5728 12.4602L96.4227 11.1102L92.9227 16.6903L92.0527 16.1403L95.5627 10.5702L93.4327 9.21021L93.9028 8.47021L99.0527 11.7002Z" fill="#1D1D1B"/>
<path d="M100.292 12.6902L101.112 13.3102L96.6325 19.3002L95.8125 18.6902L100.292 12.6902Z" fill="#1D1D1B"/>
<path d="M102.843 14.6101L106.743 18.0502L106.133 18.7501L102.993 15.9701L101.493 17.6802L104.253 20.1101L103.663 20.7902L100.893 18.3501L98.6526 20.9102L97.8926 20.2401L102.843 14.6101Z" fill="#1D1D1B"/>
<path d="M107.953 19.3501L108.662 20.0801L103.273 25.3002L102.562 24.5502L107.953 19.3501Z" fill="#1D1D1B"/>
<path d="M113.053 26.0901C112.993 26.8101 112.723 27.3901 112.263 27.8301L111.653 27.0701C111.953 26.6801 112.123 26.2701 112.133 25.8301C112.153 25.4001 111.973 24.9601 111.593 24.4901C111.143 23.9301 110.563 23.6301 109.883 23.6101C109.203 23.5901 108.433 23.9101 107.593 24.5901C106.923 25.1301 106.493 25.7401 106.313 26.4001C106.133 27.0501 106.313 27.6902 106.803 28.3102C107.263 28.8802 107.843 29.1401 108.533 29.0701C108.893 29.0501 109.293 28.9202 109.743 28.6802L110.363 29.4501C109.693 29.8801 109.003 30.0701 108.273 30.0201C107.403 29.9601 106.663 29.5501 106.043 28.7701C105.503 28.1001 105.263 27.3801 105.293 26.5901C105.363 25.5501 105.953 24.5802 107.083 23.6702C107.943 22.9702 108.833 22.6301 109.743 22.6301C110.733 22.6301 111.573 23.0702 112.263 23.9202C112.843 24.6602 113.103 25.3701 113.043 26.0901" fill="#1D1D1B"/>
<path d="M116.343 30L116.953 30.98L112.003 37.22L111.423 36.27L112.923 34.42L111.373 31.92L109.043 32.41L108.503 31.52L116.353 30H116.343ZM113.463 33.75L115.673 31.04L112.243 31.76L113.463 33.76V33.75Z" fill="#1D1D1B"/>
<path d="M121.372 39.6702L120.562 40.0302L119.503 37.7501L113.523 40.5302L113.083 39.6001L119.073 36.8201L118.003 34.5302L118.823 34.1501L121.372 39.6702Z" fill="#1D1D1B"/>
<path d="M121.86 41.2561L114.827 43.8325L115.181 44.7997L122.214 42.2232L121.86 41.2561Z" fill="#1D1D1B"/>
<path d="M123.573 50.4501C123.053 51.1001 122.293 51.5502 121.293 51.8102C120.213 52.1002 119.243 52.0601 118.383 51.7001C117.363 51.2701 116.713 50.4702 116.393 49.2802C116.113 48.1602 116.243 47.1902 116.813 46.3602C117.363 45.6102 118.193 45.0902 119.293 44.8102C120.263 44.5502 121.173 44.5702 121.993 44.8802C123.043 45.2602 123.743 46.0602 124.063 47.2902C124.393 48.5702 124.233 49.6201 123.583 50.4601M118.733 50.8102C119.463 51.0302 120.213 51.0401 121.013 50.8301C121.873 50.6001 122.503 50.1902 122.903 49.6202C123.303 49.0402 123.403 48.3601 123.193 47.5901C123.003 46.8401 122.583 46.2901 121.943 45.9601C121.303 45.6301 120.493 45.5802 119.473 45.8502C118.683 46.0602 118.043 46.4402 117.613 46.9902C117.173 47.5402 117.063 48.2702 117.303 49.1902C117.533 50.0502 118.013 50.6001 118.733 50.8201" fill="#1D1D1B"/>
<path d="M125.103 52.8201L125.253 54.0001L119.683 58.4302L125.693 57.7101L125.813 58.6602L118.373 59.5701L118.243 58.4402L123.793 53.9402L117.783 54.6702L117.673 53.7201L125.103 52.8201Z" fill="#1D1D1B"/>
<path d="M51.7426 84.13H49.1926L42.6226 76.78V84.14H40.0826V73.21L42.6226 73.22L49.1926 80.52V73.21H51.7426V84.13Z" fill="#1D1D1B"/>
<path d="M68.4326 73.2102L62.8625 84.1302H60.6926L55.1025 73.2102L57.9526 73.2002L61.8026 80.6903L65.5826 73.2002L68.4326 73.2102Z" fill="#1D1D1B"/>
<path d="M72.0027 79.9601H69.2627L69.2727 77.3901L72.0027 77.3801V79.9601Z" fill="#1D1D1B"/>
<path d="M87.7326 84.1101H79.2726C78.2826 84.1101 77.4326 83.7901 76.7326 83.1301C76.0526 82.4801 75.7026 81.6501 75.7026 80.6601V76.6401C75.6926 75.6501 76.0426 74.8401 76.7326 74.1701C77.4226 73.5201 78.2726 73.1802 79.2626 73.1902H87.7226V75.7401H79.2626C78.5726 75.7401 78.2426 76.0501 78.2326 76.6601V80.6701C78.2426 81.2701 78.5826 81.57 79.2626 81.57H85.1726V79.9301H81.7026V77.3801H87.7226V84.1201L87.7326 84.1101Z" fill="#1D1D1B"/>
<path d="M102.523 84.1001L91.5725 84.1101L91.5625 73.1902H94.1225V81.5602H102.523V84.1001Z" fill="#1D1D1B"/>
<path d="M35.0026 74.2002C34.3226 73.5502 33.4826 73.2202 32.4926 73.2202H24.0626V74.7803V75.7803V77.2803V79.0802L24.0726 84.1703H32.5026C33.4926 84.1603 34.3226 83.8403 35.0226 83.1703C35.7126 82.5203 36.0526 81.6902 36.0526 80.7002V76.6903C36.0426 75.7003 35.7026 74.8902 35.0126 74.2202M33.5026 80.7102C33.5026 81.3102 33.1826 81.6102 32.5326 81.6102H26.6326V79.0802H26.6526V75.7903H32.5326C33.1826 75.7903 33.5026 76.0903 33.5126 76.6903V80.7002L33.5026 80.7102Z" fill="#1D1D1B"/>
<path d="M36.7026 112.31C18.5926 102.7 7.05263 84.0101 6.57263 63.5601L8.71265 63.52C9.17265 83.19 20.2826 101.18 37.6926 110.42L36.7126 112.31H36.7026Z" fill="#009EE2"/>
<path d="M88.6927 117.91L87.7927 115.96C108.283 106.54 121.823 85.9502 122.293 63.4702L124.433 63.5103C123.953 86.8103 109.913 108.15 88.6827 117.91" fill="#009EE2"/>
<path d="M88.2227 113.1L87.2727 111.18C105.603 102.14 117.283 83.8702 117.743 63.4702L119.873 63.5203C119.403 84.7203 107.273 103.71 88.2227 113.09" fill="#009EE2"/>
<path d="M101.133 62.96H24.0227V67.0601H101.133V62.96Z" fill="#304191"/>
<path d="M101.133 43H24.0227V55.03H101.133V43Z" fill="#B1D8EF"/>
<path d="M101.095 58.9521L23.9856 59.0732L23.9887 61.0632L101.099 60.9421L101.095 58.9521Z" fill="#6AA62F"/>
</svg>
