<svg width="1244" height="276" viewBox="0 0 1244 276" fill="none" xmlns="http://www.w3.org/2000/svg">
<path d="M18.005 140.685C17.235 140.685 16.605 140.055 16.605 139.285V134.595C16.605 133.825 17.235 133.195 18.005 133.195C18.775 133.195 19.405 133.825 19.405 134.595V139.285C19.405 140.055 18.775 140.685 18.005 140.685Z" fill="#5DC4EC" stroke="white" stroke-width="0.5" stroke-miterlimit="10"/>
<path d="M3.46469 209.055C2.55469 209.055 1.82471 208.315 1.82471 207.415C1.82471 206.515 2.56469 205.775 3.46469 205.775C5.11469 205.725 30.9047 201.525 39.4747 196.615C49.7347 190.725 60.0247 188.705 72.8347 190.075C84.4147 191.305 91.9247 200.615 92.2447 201.005C92.8047 201.715 92.6947 202.745 91.9847 203.315C91.2747 203.885 90.2447 203.765 89.6747 203.055C89.5747 202.935 82.6547 194.425 72.4847 193.345C60.2347 192.045 50.8547 193.875 41.1047 199.475C31.7447 204.845 5.05469 209.075 3.46469 209.075V209.055Z" fill="#5DC4EC" stroke="white" stroke-width="0.5" stroke-miterlimit="10"/>
<path d="M38.9449 200.485C38.2549 200.485 37.6149 200.045 37.3849 199.355C32.6949 185.125 5.39484 184.125 5.11484 184.125C4.20484 184.095 3.49484 183.345 3.52484 182.435C3.55484 181.525 4.28484 180.775 5.21484 180.845C6.43484 180.885 35.1049 181.945 40.5049 198.335C40.7849 199.195 40.3249 200.125 39.4549 200.405C39.2849 200.465 39.1149 200.485 38.9449 200.485Z" fill="#5DC4EC" stroke="white" stroke-width="0.5" stroke-miterlimit="10"/>
<path d="M42.8148 197.325C41.9048 197.325 41.1748 196.585 41.1748 195.685V166.175L45.7648 154.505L62.1248 147.655L79.8048 154.115L84.5748 166.885V194.275C84.5748 195.185 83.8348 195.915 82.9348 195.915C82.0348 195.915 81.2948 195.175 81.2948 194.275V167.475L77.2648 156.675L62.2148 151.175L48.3148 156.995L44.4648 166.795V195.685C44.4648 196.595 43.7248 197.325 42.8248 197.325H42.8148Z" fill="#5DC4EC" stroke="white" stroke-width="0.5" stroke-miterlimit="10"/>
<path d="M41.5846 174.275C41.4046 174.275 41.2346 174.245 41.0546 174.185L32.7646 171.345L41.0046 149.575L62.6746 140.425L84.8846 149.195L93.9146 171.185L85.1946 174.015C84.3246 174.295 83.4046 173.825 83.1246 172.965C82.8446 172.105 83.3146 171.175 84.1746 170.895L89.5247 169.155L82.3746 151.735L62.7147 143.965L43.5746 152.055L37.0346 169.335L42.1146 171.075C42.9746 171.365 43.4346 172.305 43.1346 173.155C42.9046 173.835 42.2646 174.265 41.5846 174.265V174.275Z" fill="#5DC4EC" stroke="white" stroke-width="0.5" stroke-miterlimit="10"/>
<path d="M50.205 193.805C49.295 193.805 48.5649 193.065 48.5649 192.165V171.875H77.5349V190.755C77.5349 191.665 76.795 192.395 75.895 192.395C74.995 192.395 74.2549 191.655 74.2549 190.755V175.155H51.8549V192.165C51.8549 193.075 51.115 193.805 50.215 193.805H50.205Z" fill="#5DC4EC" stroke="white" stroke-width="0.5" stroke-miterlimit="10"/>
<path d="M73.8347 168.995H51.5547V156.385H73.8347V168.995ZM54.8347 165.715H70.5547V159.675H54.8347V165.715Z" fill="#5DC4EC" stroke="white" stroke-width="0.5" stroke-miterlimit="10"/>
<path d="M17.4847 158.975C12.8647 158.975 9.09473 155.215 9.09473 150.585C9.09473 145.955 12.8547 142.195 17.4847 142.195C22.1147 142.195 25.8747 145.955 25.8747 150.585C25.8747 155.215 22.1147 158.975 17.4847 158.975ZM17.4847 145.485C14.6747 145.485 12.3847 147.775 12.3847 150.585C12.3847 153.395 14.6747 155.685 17.4847 155.685C20.2947 155.685 22.5847 153.395 22.5847 150.585C22.5847 147.775 20.2947 145.485 17.4847 145.485Z" fill="#5DC4EC" stroke="white" stroke-width="0.5" stroke-miterlimit="10"/>
<path d="M18.005 167.995C17.235 167.995 16.605 167.365 16.605 166.595V161.905C16.605 161.135 17.235 160.505 18.005 160.505C18.775 160.505 19.405 161.135 19.405 161.905V166.595C19.405 167.365 18.775 167.995 18.005 167.995Z" fill="#5DC4EC" stroke="white" stroke-width="0.5" stroke-miterlimit="10"/>
<path d="M6.70477 151.995H2.01477C1.24477 151.995 0.614746 151.365 0.614746 150.595C0.614746 149.825 1.24477 149.195 2.01477 149.195H6.70477C7.47477 149.195 8.10477 149.825 8.10477 150.595C8.10477 151.365 7.47477 151.995 6.70477 151.995Z" fill="#5DC4EC" stroke="white" stroke-width="0.5" stroke-miterlimit="10"/>
<path d="M34.0045 151.995H29.3145C28.5445 151.995 27.9146 151.365 27.9146 150.595C27.9146 149.825 28.5445 149.195 29.3145 149.195H34.0045C34.7745 149.195 35.4045 149.825 35.4045 150.595C35.4045 151.365 34.7745 151.995 34.0045 151.995Z" fill="#5DC4EC" stroke="white" stroke-width="0.5" stroke-miterlimit="10"/>
<path d="M6.76474 163.375C6.40474 163.375 6.05473 163.245 5.78473 162.975C5.23473 162.435 5.22472 161.545 5.77472 160.995L9.07474 157.655C9.61474 157.105 10.5047 157.095 11.0547 157.645C11.6047 158.185 11.6147 159.075 11.0647 159.625L7.76474 162.965C7.49474 163.245 7.13474 163.385 6.76474 163.385V163.375Z" fill="#5DC4EC" stroke="white" stroke-width="0.5" stroke-miterlimit="10"/>
<path d="M25.9547 143.945C25.5947 143.945 25.2447 143.815 24.9747 143.545C24.4247 143.005 24.4147 142.115 24.9647 141.565L28.2647 138.225C28.8047 137.675 29.6947 137.665 30.2447 138.215C30.7947 138.755 30.8047 139.645 30.2547 140.195L26.9547 143.535C26.6847 143.815 26.3247 143.955 25.9547 143.955V143.945Z" fill="#5DC4EC" stroke="white" stroke-width="0.5" stroke-miterlimit="10"/>
<path d="M9.93486 144.075C9.58486 144.075 9.22488 143.945 8.95488 143.675L5.60487 140.395C5.05487 139.855 5.04485 138.965 5.58485 138.415C6.12485 137.865 7.01486 137.855 7.56486 138.395L10.9149 141.675C11.4649 142.215 11.4749 143.105 10.9349 143.655C10.6649 143.935 10.2949 144.075 9.93486 144.075Z" fill="#5DC4EC" stroke="white" stroke-width="0.5" stroke-miterlimit="10"/>
<path d="M29.4246 163.195C29.0746 163.195 28.7146 163.065 28.4446 162.795L25.0946 159.515C24.5446 158.975 24.5346 158.085 25.0746 157.535C25.6146 156.985 26.5046 156.975 27.0546 157.515L30.4046 160.795C30.9546 161.335 30.9646 162.225 30.4246 162.775C30.1546 163.055 29.7846 163.195 29.4246 163.195Z" fill="#5DC4EC" stroke="white" stroke-width="0.5" stroke-miterlimit="10"/>
<path d="M65.5946 226.815H28.4546V213.095C28.4546 209.055 31.7346 205.775 35.7746 205.775H64.9846C65.0046 203.515 65.6246 202.945 65.8546 202.735C66.2646 202.365 66.7946 202.205 67.3346 202.305C68.2946 202.485 68.9646 203.345 69.8246 204.435C70.0946 204.785 70.5346 205.345 70.8746 205.685C71.0246 205.475 71.1846 205.215 71.3146 205.015C71.9946 203.935 72.9246 202.465 74.5646 202.145C74.8346 202.095 75.5446 202.045 76.1246 202.775C76.7046 203.505 77.2746 205.245 76.4646 207.075C76.1646 207.755 76.3145 209.315 76.5345 210.405C77.7245 211.455 80.2046 213.855 80.3546 215.875C80.4046 216.585 80.1946 217.225 79.7546 217.725C78.7246 218.875 76.6946 218.835 74.1246 218.785C72.7746 218.755 69.9746 218.705 69.5146 219.205C69.2046 222.015 68.2446 226.815 65.5946 226.815ZM31.2546 224.015H65.3346C65.7146 223.515 66.4146 221.725 66.7546 218.835C67.1046 215.845 71.0246 215.925 74.1746 215.985C75.2646 216.005 76.8346 216.035 77.5146 215.875C77.2446 215.115 75.8446 213.475 74.3746 212.245L74.0246 211.955L73.9146 211.515C73.7746 210.975 73.1646 208.375 73.7146 206.455C73.7046 206.475 73.6946 206.495 73.6746 206.515C73.0246 207.545 72.2946 208.705 70.9546 208.705C69.6146 208.705 68.7146 207.575 67.7946 206.405C67.7946 206.625 67.8146 206.855 67.8346 207.065L67.9646 208.585H35.7646C33.2746 208.585 31.2446 210.615 31.2446 213.105V224.015H31.2546Z" fill="#5DC4EC" stroke="white" stroke-width="0.5" stroke-miterlimit="10"/>
<path d="M29.8849 232.085C29.1149 232.085 28.4849 231.455 28.4849 230.685V225.935C28.4849 225.165 29.1149 224.535 29.8849 224.535C30.6549 224.535 31.2849 225.165 31.2849 225.935V230.685C31.2849 231.455 30.6549 232.085 29.8849 232.085Z" fill="#5DC4EC" stroke="white" stroke-width="0.5" stroke-miterlimit="10"/>
<path d="M34.7247 237.985C33.9547 237.985 33.3247 237.355 33.3247 236.585V225.595C33.3247 224.825 33.9547 224.195 34.7247 224.195C35.4947 224.195 36.1247 224.825 36.1247 225.595V236.585C36.1247 237.355 35.4947 237.985 34.7247 237.985Z" fill="#5DC4EC" stroke="white" stroke-width="0.5" stroke-miterlimit="10"/>
<path d="M39.9947 237.275H39.9647C39.1947 237.265 38.5747 236.625 38.5947 235.845L38.7747 226.025C38.7847 225.255 39.3747 224.625 40.2047 224.655C40.9747 224.665 41.5947 225.305 41.5747 226.085L41.3947 235.905C41.3847 236.665 40.7547 237.275 39.9947 237.275Z" fill="#5DC4EC" stroke="white" stroke-width="0.5" stroke-miterlimit="10"/>
<path d="M57.0646 237.895C56.2946 237.895 55.6646 237.265 55.6646 236.495V226.465C55.6646 225.695 56.2946 225.065 57.0646 225.065C57.8346 225.065 58.4646 225.695 58.4646 226.465V236.495C58.4646 237.265 57.8346 237.895 57.0646 237.895Z" fill="#5DC4EC" stroke="white" stroke-width="0.5" stroke-miterlimit="10"/>
<path d="M63.0445 237.715C62.2745 237.715 61.6445 237.085 61.6445 236.315V226.205C61.6445 225.435 62.2745 224.805 63.0445 224.805C63.8145 224.805 64.4445 225.435 64.4445 226.205V236.315C64.4445 237.085 63.8145 237.715 63.0445 237.715Z" fill="#5DC4EC" stroke="white" stroke-width="0.5" stroke-miterlimit="10"/>
<path d="M322.705 235.435H241.615V192.345H248.495L248.605 184.155L270.275 172.815L291.385 183.565V192.695H322.695V235.435H322.705ZM244.415 232.635H319.905V195.505H288.595V185.285L270.305 175.975L251.395 185.865L251.275 195.145H244.435V232.635H244.415Z" fill="#5DC4EC" stroke="white" stroke-width="0.5" stroke-miterlimit="10"/>
<path d="M282.595 235.085H257.745V205.775H282.595V235.085ZM260.545 232.285H279.795V208.575H260.545V232.285Z" fill="#5DC4EC" stroke="white" stroke-width="0.5" stroke-miterlimit="10"/>
<path d="M280.375 216.435H259.965C259.195 216.435 258.565 215.805 258.565 215.035C258.565 214.265 259.195 213.635 259.965 213.635H280.375C281.145 213.635 281.775 214.265 281.775 215.035C281.775 215.805 281.145 216.435 280.375 216.435Z" fill="#5DC4EC" stroke="white" stroke-width="0.5" stroke-miterlimit="10"/>
<path d="M280.375 222.295H259.965C259.195 222.295 258.565 221.665 258.565 220.895C258.565 220.125 259.195 219.495 259.965 219.495H280.375C281.145 219.495 281.775 220.125 281.775 220.895C281.775 221.665 281.145 222.295 280.375 222.295Z" fill="#5DC4EC" stroke="white" stroke-width="0.5" stroke-miterlimit="10"/>
<path d="M280.375 229.095H259.965C259.195 229.095 258.565 228.465 258.565 227.695C258.565 226.925 259.195 226.295 259.965 226.295H280.375C281.145 226.295 281.775 226.925 281.775 227.695C281.775 228.465 281.145 229.095 280.375 229.095Z" fill="#5DC4EC" stroke="white" stroke-width="0.5" stroke-miterlimit="10"/>
<path d="M299.245 226.045H288.354V209.875H299.245V226.045ZM291.155 223.245H296.445V212.675H291.155V223.245Z" fill="#5DC4EC" stroke="white" stroke-width="0.5" stroke-miterlimit="10"/>
<path d="M313.435 226.045H302.545V209.875H313.435V226.045ZM305.345 223.245H310.635V212.675H305.345V223.245Z" fill="#5DC4EC" stroke="white" stroke-width="0.5" stroke-miterlimit="10"/>
<path d="M314.965 195.795C314.195 195.795 313.565 195.165 313.565 194.395V168.935H301.355V193.575C301.355 194.345 300.725 194.975 299.955 194.975C299.185 194.975 298.555 194.345 298.555 193.575V166.135H316.365V194.395C316.365 195.165 315.735 195.795 314.965 195.795Z" fill="#5DC4EC" stroke="white" stroke-width="0.5" stroke-miterlimit="10"/>
<path d="M315.085 175.145H306.175C305.405 175.145 304.775 174.515 304.775 173.745C304.775 172.975 305.405 172.345 306.175 172.345H315.085C315.855 172.345 316.485 172.975 316.485 173.745C316.485 174.515 315.855 175.145 315.085 175.145Z" fill="#5DC4EC" stroke="white" stroke-width="0.5" stroke-miterlimit="10"/>
<path d="M665.575 235.605H593.105V167.195L609.455 167.085V198.445L636.545 181.735V197.945L665.575 182.815V235.605ZM595.905 232.805H662.775V187.435L633.745 202.565V186.755L606.655 203.465V169.905L595.905 169.975V232.805Z" fill="#5DC4EC" stroke="white" stroke-width="0.5" stroke-miterlimit="10"/>
<path d="M607.415 176.325H595.745C594.975 176.325 594.345 175.695 594.345 174.925C594.345 174.155 594.975 173.525 595.745 173.525H607.415C608.185 173.525 608.815 174.155 608.815 174.925C608.815 175.695 608.185 176.325 607.415 176.325Z" fill="#5DC4EC" stroke="white" stroke-width="0.5" stroke-miterlimit="10"/>
<path d="M618.415 226.165H603.415V210.225H618.415V226.165ZM606.215 223.365H615.615V213.035H606.215V223.365Z" fill="#5DC4EC" stroke="white" stroke-width="0.5" stroke-miterlimit="10"/>
<path d="M637.415 226.165H622.415V210.225H637.415V226.165ZM625.215 223.365H634.615V213.035H625.215V223.365Z" fill="#5DC4EC" stroke="white" stroke-width="0.5" stroke-miterlimit="10"/>
<path d="M656.175 226.165H641.175V210.225H656.175V226.165ZM643.975 223.365H653.375V213.035H643.975V223.365Z" fill="#5DC4EC" stroke="white" stroke-width="0.5" stroke-miterlimit="10"/>
<path d="M168.705 32.5148C167.695 32.5148 166.745 32.1247 166.035 31.4047L160.945 26.3148C160.235 25.6048 159.835 24.6547 159.835 23.6447C159.835 22.6347 160.225 21.6848 160.945 20.9748L174.205 7.71475C175.635 6.29475 178.115 6.28475 179.545 7.71475L184.635 12.8048C185.345 13.5148 185.745 14.4648 185.745 15.4748C185.745 16.4848 185.355 17.4347 184.635 18.1447L171.375 31.4047C170.665 32.1147 169.715 32.5148 168.705 32.5148ZM176.885 9.10489C176.555 9.10489 176.225 9.23477 175.975 9.48477L162.715 22.7448C162.215 23.2448 162.215 24.0548 162.715 24.5648L167.805 29.6547C168.305 30.1547 169.125 30.1547 169.625 29.6547L182.885 16.3947C183.385 15.8947 183.385 15.0849 182.885 14.5749L177.795 9.48477C177.545 9.23477 177.215 9.10489 176.885 9.10489Z" fill="#5DC4EC" stroke="white" stroke-width="0.5" stroke-miterlimit="10"/>
<path d="M172.555 23.875C170.395 23.875 168.645 22.1148 168.645 19.9648C168.645 17.8148 170.405 16.0549 172.555 16.0549C174.705 16.0549 176.465 17.8148 176.465 19.9648C176.465 22.1148 174.705 23.875 172.555 23.875ZM172.555 18.5349C171.775 18.5349 171.135 19.1748 171.135 19.9548C171.135 20.7348 171.775 21.375 172.555 21.375C173.335 21.375 173.974 20.7348 173.974 19.9548C173.974 19.1748 173.335 18.5349 172.555 18.5349Z" fill="#5DC4EC" stroke="white" stroke-width="0.5" stroke-miterlimit="10"/>
<path d="M164.825 20.2849L153.555 9.01488C152.965 8.42488 152.645 7.64493 152.645 6.81493C152.645 5.98493 152.965 5.20498 153.555 4.61498L156.924 1.24486C158.104 0.0648633 160.155 0.0648633 161.335 1.24486L172.604 12.5149L164.825 20.2949V20.2849ZM159.125 2.96483C159.055 2.96483 158.914 2.98497 158.794 3.10497L155.424 6.47484C155.304 6.59484 155.284 6.73492 155.284 6.80492C155.284 6.87492 155.304 7.01476 155.424 7.13476L164.825 16.5349L168.865 12.4949L159.465 3.09496C159.345 2.97496 159.205 2.95482 159.135 2.95482L159.125 2.96483Z" fill="#5DC4EC" stroke="white" stroke-width="0.5" stroke-miterlimit="10"/>
<path d="M156.815 10.8751C156.485 10.8751 156.145 10.745 155.885 10.495C155.365 9.98497 155.355 9.1451 155.865 8.6251L160.795 3.61509C161.305 3.09509 162.145 3.08507 162.665 3.59507C163.185 4.10507 163.195 4.94495 162.685 5.46495L157.755 10.475C157.495 10.735 157.155 10.8751 156.815 10.8751Z" fill="#5DC4EC" stroke="white" stroke-width="0.5" stroke-miterlimit="10"/>
<path d="M160.155 13.8651C159.825 13.8651 159.485 13.735 159.225 13.485C158.705 12.975 158.695 12.1351 159.205 11.6151L164.135 6.60508C164.645 6.08508 165.485 6.07506 166.005 6.58506C166.525 7.09506 166.535 7.93494 166.025 8.45494L161.095 13.4649C160.835 13.7249 160.495 13.8651 160.155 13.8651Z" fill="#5DC4EC" stroke="white" stroke-width="0.5" stroke-miterlimit="10"/>
<path d="M186.065 39.355C185.235 39.355 184.445 39.0348 183.865 38.4448L172.595 27.1748L180.375 19.3948L191.645 30.6648C192.235 31.2548 192.555 32.035 192.555 32.865C192.555 33.695 192.235 34.4749 191.645 35.0649L188.275 38.4348C187.685 39.0248 186.905 39.345 186.075 39.345L186.065 39.355ZM176.325 27.1748L185.725 36.575C185.965 36.815 186.155 36.815 186.395 36.575L189.765 33.2048C189.885 33.0848 189.905 32.945 189.905 32.875C189.905 32.805 189.885 32.6649 189.765 32.5449L180.365 23.1448L176.325 27.1848V27.1748Z" fill="#5DC4EC" stroke="white" stroke-width="0.5" stroke-miterlimit="10"/>
<path d="M183.455 36.4649C183.125 36.4649 182.785 36.3351 182.525 36.0851C182.005 35.5751 181.995 34.7349 182.505 34.2149L187.435 29.2049C187.945 28.6849 188.785 28.6749 189.305 29.1849C189.825 29.6949 189.835 30.535 189.325 31.055L184.395 36.065C184.135 36.325 183.795 36.4649 183.455 36.4649Z" fill="#5DC4EC" stroke="white" stroke-width="0.5" stroke-miterlimit="10"/>
<path d="M180.114 33.4649C179.784 33.4649 179.444 33.3351 179.184 33.0851C178.664 32.5751 178.654 31.7349 179.164 31.2149L184.094 26.2049C184.604 25.6849 185.444 25.6749 185.964 26.1849C186.484 26.6949 186.494 27.535 185.984 28.055L181.054 33.065C180.794 33.325 180.454 33.4649 180.114 33.4649Z" fill="#5DC4EC" stroke="white" stroke-width="0.5" stroke-miterlimit="10"/>
<path d="M161.615 42.8651L148.935 30.295L149.905 29.3551C151.345 27.9651 153.035 27.175 154.915 27.005C157.515 26.765 160.035 27.785 161.805 29.785C163.665 31.895 164.405 34.795 163.805 37.535C163.335 39.675 162.485 41.245 162.455 41.315L161.615 42.8651ZM152.815 30.4149L160.835 38.3651C160.975 37.9451 161.115 37.475 161.225 36.965C161.655 35.045 161.125 33.005 159.825 31.535C158.625 30.165 156.915 29.4749 155.155 29.6349C154.305 29.7149 153.525 29.9649 152.805 30.4149H152.815Z" fill="#5DC4EC" stroke="white" stroke-width="0.5" stroke-miterlimit="10"/>
<path d="M153.945 46.6447C153.835 46.6447 153.725 46.6349 153.615 46.6049C146.495 44.7649 144.985 39.9049 145.185 37.5949C145.245 36.8649 145.865 36.3247 146.615 36.3847C147.335 36.4447 147.875 37.0748 147.825 37.8048C147.815 38.0148 147.645 42.3348 154.285 44.0548C154.995 44.2348 155.415 44.9547 155.235 45.6647C155.085 46.2647 154.545 46.6547 153.955 46.6547L153.945 46.6447Z" fill="#5DC4EC" stroke="white" stroke-width="0.5" stroke-miterlimit="10"/>
<path d="M152.945 51.2748C152.885 51.2748 152.825 51.2748 152.765 51.2648C140.505 49.5548 139.785 38.5847 139.785 38.4747C139.745 37.7447 140.305 37.1248 141.035 37.0848C141.735 37.0348 142.385 37.6048 142.425 38.3348C142.445 38.7148 143.085 47.2447 153.135 48.6547C153.855 48.7547 154.365 49.4247 154.265 50.1447C154.175 50.8047 153.605 51.2848 152.955 51.2848L152.945 51.2748Z" fill="#5DC4EC" stroke="white" stroke-width="0.5" stroke-miterlimit="10"/>
<path d="M152.535 40.5749C152.175 40.5749 151.805 40.4247 151.545 40.1347C151.065 39.5847 151.105 38.7548 151.655 38.2648C152.205 37.7748 153.055 37.8149 153.535 38.3649C154.025 38.9149 153.985 39.7348 153.435 40.2148L153.405 40.2448C153.155 40.4648 152.835 40.5749 152.525 40.5749H152.535Z" fill="#5DC4EC" stroke="white" stroke-width="0.5" stroke-miterlimit="10"/>
<path d="M456.515 32.5149C455.505 32.5149 454.555 32.1247 453.845 31.4047L448.755 26.3149C448.045 25.6049 447.645 24.6547 447.645 23.6447C447.645 22.6347 448.035 21.6848 448.755 20.9748L462.015 7.7148C463.485 6.2448 465.884 6.2448 467.354 7.7148L472.445 12.8049C473.155 13.5149 473.555 14.4648 473.555 15.4748C473.555 16.4848 473.165 17.4347 472.445 18.1447L459.185 31.4047C458.475 32.1147 457.525 32.5149 456.515 32.5149ZM464.685 9.10494C464.355 9.10494 464.025 9.23482 463.775 9.48482L450.515 22.7448C450.015 23.2448 450.015 24.0549 450.515 24.5649L455.604 29.6547C456.104 30.1547 456.924 30.1547 457.424 29.6547L470.685 16.3947C471.185 15.8947 471.185 15.0849 470.685 14.5749L465.595 9.48482C465.345 9.23482 465.015 9.10494 464.685 9.10494Z" fill="#5DC4EC" stroke="white" stroke-width="0.5" stroke-miterlimit="10"/>
<path d="M460.375 23.875C458.215 23.875 456.465 22.1148 456.465 19.9648C456.465 17.8148 458.225 16.0549 460.375 16.0549C462.525 16.0549 464.285 17.8148 464.285 19.9648C464.285 22.1148 462.525 23.875 460.375 23.875ZM460.375 18.5349C459.595 18.5349 458.955 19.1748 458.955 19.9548C458.955 20.7348 459.595 21.375 460.375 21.375C461.155 21.375 461.795 20.7348 461.795 19.9548C461.795 19.1748 461.155 18.5349 460.375 18.5349Z" fill="#5DC4EC" stroke="white" stroke-width="0.5" stroke-miterlimit="10"/>
<path d="M452.635 20.2849L441.365 9.01488C440.775 8.42488 440.455 7.64493 440.455 6.81493C440.455 5.98493 440.775 5.20498 441.365 4.61498L444.735 1.24486C445.915 0.0648633 447.965 0.0648633 449.145 1.24486L460.415 12.5149L452.635 20.2949V20.2849ZM446.935 2.96483C446.865 2.96483 446.725 2.98497 446.605 3.10497L443.235 6.47484C443.115 6.59484 443.095 6.73492 443.095 6.80492C443.095 6.87492 443.115 7.01476 443.235 7.13476L452.635 16.5349L456.675 12.4949L447.275 3.09496C447.155 2.97496 447.015 2.95482 446.945 2.95482L446.935 2.96483Z" fill="#5DC4EC" stroke="white" stroke-width="0.5" stroke-miterlimit="10"/>
<path d="M444.625 10.8751C444.295 10.8751 443.955 10.745 443.695 10.495C443.175 9.98497 443.165 9.1451 443.675 8.6251L448.605 3.61509C449.115 3.09509 449.955 3.08507 450.475 3.59507C450.995 4.10507 451.005 4.94495 450.495 5.46495L445.565 10.475C445.305 10.735 444.965 10.8751 444.625 10.8751Z" fill="#5DC4EC" stroke="white" stroke-width="0.5" stroke-miterlimit="10"/>
<path d="M447.965 13.8651C447.635 13.8651 447.295 13.735 447.035 13.485C446.515 12.975 446.505 12.1351 447.015 11.6151L451.945 6.60508C452.455 6.08508 453.295 6.07506 453.815 6.58506C454.335 7.09506 454.345 7.93494 453.835 8.45494L448.905 13.4649C448.645 13.7249 448.305 13.8651 447.965 13.8651Z" fill="#5DC4EC" stroke="white" stroke-width="0.5" stroke-miterlimit="10"/>
<path d="M473.875 39.355C473.075 39.355 472.285 39.0548 471.675 38.4448L460.405 27.1748L468.185 19.3948L479.455 30.6648C480.045 31.2548 480.365 32.035 480.365 32.865C480.365 33.695 480.045 34.4749 479.455 35.0649L476.085 38.4348C475.475 39.0448 474.675 39.345 473.885 39.345L473.875 39.355ZM464.135 27.1748L473.535 36.575C473.715 36.755 474.015 36.755 474.205 36.575L477.575 33.2048C477.695 33.0848 477.715 32.945 477.715 32.875C477.715 32.805 477.695 32.6649 477.575 32.5449L468.175 23.1448L464.135 27.1848V27.1748Z" fill="#5DC4EC" stroke="white" stroke-width="0.5" stroke-miterlimit="10"/>
<path d="M471.265 36.4649C470.935 36.4649 470.595 36.3351 470.335 36.0851C469.815 35.5751 469.805 34.7349 470.315 34.2149L475.245 29.2049C475.755 28.6849 476.595 28.6749 477.115 29.1849C477.635 29.6949 477.645 30.535 477.135 31.055L472.205 36.065C471.945 36.325 471.605 36.4649 471.265 36.4649Z" fill="#5DC4EC" stroke="white" stroke-width="0.5" stroke-miterlimit="10"/>
<path d="M467.925 33.4649C467.595 33.4649 467.255 33.3351 466.995 33.0851C466.475 32.5751 466.465 31.7349 466.975 31.2149L471.905 26.2049C472.415 25.6849 473.255 25.6749 473.775 26.1849C474.295 26.6949 474.305 27.535 473.795 28.055L468.865 33.065C468.605 33.325 468.265 33.4649 467.925 33.4649Z" fill="#5DC4EC" stroke="white" stroke-width="0.5" stroke-miterlimit="10"/>
<path d="M449.435 42.8651L436.755 30.295L437.725 29.3551C439.165 27.9651 440.855 27.175 442.735 27.005C445.335 26.765 447.855 27.785 449.625 29.785C451.485 31.895 452.225 34.795 451.625 37.535C451.155 39.675 450.305 41.245 450.275 41.315L449.435 42.8651ZM440.635 30.4149L448.655 38.3651C448.795 37.9551 448.935 37.475 449.045 36.965C449.475 35.045 448.945 33.005 447.645 31.535C446.445 30.165 444.735 29.4749 442.975 29.6349C442.135 29.7149 441.355 29.9749 440.625 30.4149H440.635Z" fill="#5DC4EC" stroke="white" stroke-width="0.5" stroke-miterlimit="10"/>
<path d="M441.755 46.6447C441.645 46.6447 441.535 46.6349 441.425 46.6049C434.315 44.7649 432.795 39.9049 432.995 37.5949C433.055 36.8649 433.655 36.3247 434.425 36.3847C435.145 36.4447 435.685 37.0748 435.635 37.8048C435.625 38.0148 435.455 42.3348 442.095 44.0548C442.805 44.2348 443.225 44.9547 443.045 45.6647C442.895 46.2647 442.355 46.6547 441.765 46.6547L441.755 46.6447Z" fill="#5DC4EC" stroke="white" stroke-width="0.5" stroke-miterlimit="10"/>
<path d="M440.755 51.2748C440.695 51.2748 440.635 51.2748 440.575 51.2648C428.315 49.5548 427.595 38.5847 427.595 38.4747C427.555 37.7447 428.115 37.1248 428.845 37.0848C429.575 37.0348 430.195 37.6048 430.235 38.3348C430.255 38.7148 430.895 47.2447 440.945 48.6547C441.665 48.7547 442.175 49.4247 442.075 50.1447C441.985 50.8047 441.415 51.2848 440.765 51.2848L440.755 51.2748Z" fill="#5DC4EC" stroke="white" stroke-width="0.5" stroke-miterlimit="10"/>
<path d="M440.345 40.5749C439.985 40.5749 439.615 40.4247 439.355 40.1347C438.875 39.5847 438.915 38.7548 439.465 38.2648C440.015 37.7748 440.865 37.8149 441.345 38.3649C441.835 38.9149 441.795 39.7348 441.245 40.2148L441.215 40.2448C440.965 40.4648 440.645 40.5749 440.335 40.5749H440.345Z" fill="#5DC4EC" stroke="white" stroke-width="0.5" stroke-miterlimit="10"/>
<path d="M992.515 188.435C988.105 188.435 984.505 184.845 984.505 180.425C984.505 176.005 988.095 172.415 992.515 172.415C996.935 172.415 1000.52 176.005 1000.52 180.425C1000.52 184.845 996.935 188.435 992.515 188.435ZM992.515 175.065C989.555 175.065 987.155 177.475 987.155 180.425C987.155 183.375 989.565 185.785 992.515 185.785C995.465 185.785 997.875 183.375 997.875 180.425C997.875 177.475 995.465 175.065 992.515 175.065Z" fill="#5DC4EC" stroke="white" stroke-width="0.5" stroke-miterlimit="10"/>
<path d="M1042.59 188.435C1038.18 188.435 1034.58 184.845 1034.58 180.425C1034.58 176.005 1038.17 172.415 1042.59 172.415C1047.01 172.415 1050.6 176.005 1050.6 180.425C1050.6 184.845 1047.01 188.435 1042.59 188.435ZM1042.59 175.065C1039.63 175.065 1037.23 177.475 1037.23 180.425C1037.23 183.375 1039.64 185.785 1042.59 185.785C1045.54 185.785 1047.95 183.375 1047.95 180.425C1047.95 177.475 1045.54 175.065 1042.59 175.065Z" fill="#5DC4EC" stroke="white" stroke-width="0.5" stroke-miterlimit="10"/>
<path d="M1035.67 182.925H1022.97V146.735H1039.16L1055.99 164.055V182.335H1049.63C1048.9 182.335 1048.31 181.745 1048.31 181.015C1048.31 180.285 1048.9 179.695 1049.63 179.695H1053.35V165.135L1038.05 149.385H1025.62V180.285H1035.67C1036.4 180.285 1036.99 180.875 1036.99 181.605C1036.99 182.335 1036.4 182.925 1035.67 182.925Z" fill="#5DC4EC" stroke="white" stroke-width="0.5" stroke-miterlimit="10"/>
<path d="M1053.85 166.275H1031.65V152.725H1044.11C1044.84 152.725 1045.43 153.315 1045.43 154.045C1045.43 154.775 1044.84 155.365 1044.11 155.365H1034.29V163.625H1053.84C1054.57 163.625 1055.16 164.215 1055.16 164.945C1055.16 165.675 1054.57 166.265 1053.84 166.265L1053.85 166.275Z" fill="#5DC4EC" stroke="white" stroke-width="0.5" stroke-miterlimit="10"/>
<path d="M985.125 183.045H971.955V140.765H1024.79V147.955C1024.79 148.685 1024.2 149.275 1023.47 149.275C1022.74 149.275 1022.15 148.685 1022.15 147.955V143.415H974.605V180.415H985.135C985.865 180.415 986.455 181.005 986.455 181.735C986.455 182.465 985.865 183.055 985.135 183.055L985.125 183.045Z" fill="#5DC4EC" stroke="white" stroke-width="0.5" stroke-miterlimit="10"/>
<path d="M1025.11 183.045H999.785C999.055 183.045 998.465 182.455 998.465 181.725C998.465 180.995 999.055 180.405 999.785 180.405H1025.11C1025.84 180.405 1026.43 180.995 1026.43 181.725C1026.43 182.455 1025.84 183.045 1025.11 183.045Z" fill="#5DC4EC" stroke="white" stroke-width="0.5" stroke-miterlimit="10"/>
<path d="M1023.68 170.265H974.225C973.495 170.265 972.905 169.675 972.905 168.945C972.905 168.215 973.495 167.625 974.225 167.625H1023.68C1024.41 167.625 1025 168.215 1025 168.945C1025 169.675 1024.41 170.265 1023.68 170.265Z" fill="#5DC4EC" stroke="white" stroke-width="0.5" stroke-miterlimit="10"/>
<path d="M1051.52 275.465H971.445L975.455 263.425C973.475 261.415 967.595 254.735 967.905 246.825L967.955 245.555H1047.9L1050.89 241.505H1067.35L1051.52 275.465ZM975.105 272.825H1049.83L1063.2 244.155H1052.22L1049.23 248.205H970.555C970.995 255.745 977.785 262.025 977.855 262.095L978.485 262.675L975.095 272.835L975.105 272.825Z" fill="#5DC4EC" stroke="white" stroke-width="0.5" stroke-miterlimit="10"/>
<path d="M1034.97 264.085H978.095C977.365 264.085 976.775 263.495 976.775 262.765C976.775 262.035 977.365 261.445 978.095 261.445H1034.97C1035.7 261.445 1036.29 262.035 1036.29 262.765C1036.29 263.495 1035.7 264.085 1034.97 264.085Z" fill="#5DC4EC" stroke="white" stroke-width="0.5" stroke-miterlimit="10"/>
<path d="M1055.61 263.965H1039.78C1039.05 263.965 1038.46 263.375 1038.46 262.645C1038.46 261.915 1039.05 261.325 1039.78 261.325H1055.61C1056.34 261.325 1056.93 261.915 1056.93 262.645C1056.93 263.375 1056.34 263.965 1055.61 263.965Z" fill="#5DC4EC" stroke="white" stroke-width="0.5" stroke-miterlimit="10"/>
<path d="M1006.58 248.015C1005.85 248.015 1005.26 247.425 1005.26 246.695V220.045H1034.53V245.765C1034.53 246.495 1033.94 247.085 1033.21 247.085C1032.48 247.085 1031.89 246.495 1031.89 245.765V222.695H1007.91V246.705C1007.91 247.435 1007.32 248.025 1006.59 248.025L1006.58 248.015Z" fill="#5DC4EC" stroke="white" stroke-width="0.5" stroke-miterlimit="10"/>
<path d="M1047.16 248.845C1046.43 248.845 1045.84 248.255 1045.84 247.525V236.175H1007.17C1006.44 236.175 1005.85 235.585 1005.85 234.855C1005.85 234.125 1006.44 233.535 1007.17 233.535H1048.48V247.525C1048.48 248.255 1047.89 248.845 1047.16 248.845Z" fill="#5DC4EC" stroke="white" stroke-width="0.5" stroke-miterlimit="10"/>
<path d="M1020.19 247.905C1019.46 247.905 1018.88 247.315 1018.88 246.585V221.255C1018.88 220.525 1019.46 219.935 1020.19 219.935C1020.92 219.935 1021.51 220.525 1021.51 221.255V246.585C1021.51 247.315 1020.92 247.905 1020.19 247.905Z" fill="#5DC4EC" stroke="white" stroke-width="0.5" stroke-miterlimit="10"/>
<path d="M973.635 247.665C972.905 247.665 972.315 247.075 972.315 246.345V235.905C972.315 235.175 972.905 234.585 973.635 234.585C974.365 234.585 974.955 235.175 974.955 235.905V246.345C974.955 247.075 974.365 247.665 973.635 247.665Z" fill="#5DC4EC" stroke="white" stroke-width="0.5" stroke-miterlimit="10"/>
<path d="M1003.33 236.765H981.955C981.225 236.765 980.635 236.175 980.635 235.445C980.635 234.715 981.225 234.125 981.955 234.125H1000.68V231.025H971.545V233.895H978.315C979.045 233.895 979.635 234.485 979.635 235.215C979.635 235.945 979.045 236.535 978.315 236.535H968.905V228.385H1003.33V236.775V236.765Z" fill="#5DC4EC" stroke="white" stroke-width="0.5" stroke-miterlimit="10"/>
<path d="M999.315 247.785C998.585 247.785 997.995 247.195 997.995 246.465V235.445C997.995 234.715 998.585 234.125 999.315 234.125C1000.04 234.125 1000.63 234.715 1000.63 235.445V246.465C1000.63 247.195 1000.04 247.785 999.315 247.785Z" fill="#5DC4EC" stroke="white" stroke-width="0.5" stroke-miterlimit="10"/>
<path d="M995.685 231.135C994.955 231.135 994.365 230.545 994.365 229.815V220.225H979.295V228.985C979.295 229.715 978.705 230.305 977.975 230.305C977.245 230.305 976.655 229.715 976.655 228.985V217.575H997.005V229.805C997.005 230.535 996.415 231.125 995.685 231.125V231.135Z" fill="#5DC4EC" stroke="white" stroke-width="0.5" stroke-miterlimit="10"/>
<path d="M986.765 219.875C986.035 219.875 985.445 219.285 985.445 218.555V208.235C985.445 207.505 986.035 206.915 986.765 206.915C987.495 206.915 988.085 207.505 988.085 208.235V218.555C988.085 219.285 987.495 219.875 986.765 219.875Z" fill="#5DC4EC" stroke="white" stroke-width="0.5" stroke-miterlimit="10"/>
<path d="M1210.19 219.495C1201.52 219.495 1194.47 209.395 1194.47 196.975C1194.47 184.555 1201.52 174.455 1210.19 174.455C1218.86 174.455 1225.91 184.555 1225.91 196.975C1225.91 209.395 1218.86 219.495 1210.19 219.495ZM1210.19 177.035C1202.95 177.035 1197.06 185.975 1197.06 196.965C1197.06 207.955 1202.95 216.905 1210.19 216.905C1217.43 216.905 1223.32 207.965 1223.32 196.965C1223.32 185.965 1217.43 177.035 1210.19 177.035Z" fill="#5DC4EC" stroke="white" stroke-width="0.5" stroke-miterlimit="10"/>
<path d="M1176.93 242.485L1177.14 241.015C1178.53 231.105 1189.98 226.375 1197.56 223.245C1198.65 222.795 1199.77 222.335 1200.46 221.565C1201.83 220.025 1201.47 217.405 1201.02 215.075L1200.14 210.525L1203.24 213.965C1205.06 215.975 1207.9 217.105 1210.86 217.035C1213.22 216.965 1216.03 215.635 1217.27 214.025L1220.57 209.725L1219.57 215.045C1219.13 217.365 1218.81 219.765 1219.99 221.325C1220.15 221.535 1220.35 221.745 1220.57 221.935C1221.41 222.635 1222.6 223.105 1223.75 223.545L1224.03 223.655C1227.31 224.935 1230.48 226.525 1233.47 228.385C1239.47 232.115 1242.84 236.365 1243.47 241.015L1243.67 242.485H1176.92H1176.93ZM1204 217.855C1204.08 219.685 1203.78 221.715 1202.39 223.275C1201.31 224.495 1199.84 225.095 1198.55 225.635C1191.94 228.365 1182.15 232.405 1180.01 239.895H1240.59C1239.59 236.585 1236.74 233.465 1232.1 230.575C1229.25 228.805 1226.22 227.285 1223.09 226.065L1222.81 225.955C1221.52 225.455 1220.07 224.885 1218.9 223.915C1218.53 223.605 1218.2 223.255 1217.92 222.885C1216.81 221.415 1216.52 219.675 1216.59 217.915C1214.77 218.975 1212.64 219.555 1210.94 219.615C1208.46 219.695 1206.02 219.065 1203.99 217.865L1204 217.855Z" fill="#5DC4EC" stroke="white" stroke-width="0.5" stroke-miterlimit="10"/>
<path d="M450.575 191.735L449.645 189.945C449.425 189.535 444.065 179.875 428.295 180.085H427.675L419.635 170.385L420.675 169.565C420.755 169.495 429.085 162.825 429.365 154.015C429.525 148.995 427.055 144.165 422.015 139.645L421.515 139.195L423.135 125.955L424.225 125.895C430.995 125.545 442.345 123.605 443.985 119.865L444.325 119.095H456.955L457.335 119.465C457.415 119.545 465.505 127.265 476.295 126.605L477.195 126.545L481.785 136.875L480.765 137.455C480.665 137.515 470.685 143.315 471.335 153.605C471.985 164.055 480.525 169.915 480.615 169.965L481.715 170.705L474.175 181.315L473.425 181.235C473.295 181.225 459.715 179.935 451.825 190.125L450.595 191.725L450.575 191.735ZM428.875 177.495C442.155 177.515 448.605 184.075 450.915 187.185C458.665 178.545 469.865 178.455 472.915 178.625L478.095 171.325C475.545 169.265 469.335 163.305 468.735 153.775C468.115 143.815 475.685 137.735 478.475 135.845L475.535 129.225C465.345 129.515 457.725 123.295 455.915 121.685H445.915C442.535 126.785 429.555 128.115 425.435 128.415L424.235 138.185C429.535 143.115 432.125 148.475 431.935 154.125C431.665 162.275 425.695 168.525 423.265 170.745L428.865 177.505L428.875 177.495Z" fill="#5DC4EC" stroke="white" stroke-width="0.5" stroke-miterlimit="10"/>
<path d="M824.305 258.485L823.155 256.285C822.895 255.785 816.475 244.125 797.485 244.125C797.265 244.125 797.055 244.125 796.835 244.125H796.075L786.165 232.175L787.445 231.165C787.545 231.085 797.815 222.865 798.155 211.995C798.355 205.815 795.305 199.855 789.105 194.285L788.485 193.735L790.485 177.415L791.825 177.345C800.165 176.915 814.155 174.515 816.185 169.915L816.605 168.965H832.165L832.635 169.415C832.735 169.515 842.785 179.025 856.005 178.215L857.105 178.145L862.765 190.885L861.505 191.605C861.375 191.675 849.085 198.825 849.875 211.515C850.685 224.405 861.205 231.615 861.315 231.685L862.675 232.595L853.385 245.675L852.455 245.575C852.295 245.555 835.555 243.975 825.835 256.535L824.315 258.505L824.305 258.485ZM797.555 240.935C813.915 240.955 821.875 249.055 824.715 252.875C834.265 242.225 848.085 242.125 851.825 242.325L858.215 233.335C855.075 230.795 847.415 223.445 846.675 211.695C845.905 199.425 855.235 191.925 858.685 189.585L855.055 181.425C842.475 181.735 833.095 174.115 830.875 172.125H818.555C814.385 178.405 798.395 180.055 793.305 180.425L791.835 192.465C798.365 198.545 801.555 205.145 801.325 212.105C800.995 222.155 793.635 229.865 790.635 232.595L797.545 240.925L797.555 240.935Z" fill="#5DC4EC" stroke="white" stroke-width="0.5" stroke-miterlimit="10"/>
</svg>
