<svg width="103" height="325" viewBox="0 0 103 325" fill="none" xmlns="http://www.w3.org/2000/svg">
<path d="M83.6699 13.8348C-15.4101 86.7648 -16.2101 238.385 83.6699 311.635C83.2999 312.675 83.0899 313.795 83.0899 314.955C83.0899 320.375 87.4799 324.755 92.8899 324.755C98.2999 324.755 102.69 320.365 102.69 314.955C102.69 309.545 98.2999 305.155 92.8899 305.155C89.5799 305.155 86.6499 306.795 84.8699 309.315C-12.8801 237.245 -12.6002 88.2248 84.8699 16.1548C86.6399 18.6748 89.5799 20.3248 92.8899 20.3248C98.3099 20.3248 102.69 15.9348 102.69 10.5248C102.69 5.11478 98.2999 0.724854 92.8899 0.724854C87.4799 0.724854 83.0899 5.11478 83.0899 10.5248C83.0899 11.6848 83.2899 12.8048 83.6699 13.8448V13.8348Z" fill="white"/>
<path fill-rule="evenodd" clip-rule="evenodd" d="M19.89 162.895C19.89 157.475 15.5 153.095 10.09 153.095C4.68003 153.095 0.290039 157.485 0.290039 162.895C0.290039 168.305 4.68003 172.695 10.09 172.695C15.5 172.695 19.89 168.305 19.89 162.895Z" fill="white"/>
<path d="M49.9402 162.705L37.7402 155.995V161.425H4.22021V163.995H37.7402V169.415L49.9402 162.705Z" fill="white"/>
</svg>
