<svg width="1056" height="40" viewBox="0 0 1056 40" fill="none" xmlns="http://www.w3.org/2000/svg">
<path d="M6.36475 3.75488H104.855" stroke="white" stroke-width="1.5" stroke-miterlimit="10"/>
<path d="M0.00488281 3.75488L8.9649 7.41479L6.8349 3.75488L8.9649 0.0949707L0.00488281 3.75488Z" fill="white"/>
<path d="M98.5049 35.4248H0.00488281" stroke="white" stroke-width="1.5" stroke-miterlimit="10"/>
<path d="M104.855 35.4248L95.9048 31.7649L98.0248 35.4248L95.9048 39.075L104.855 35.4248Z" fill="white"/>
<path d="M460.905 24.865H225.895" stroke="white" stroke-width="1.5" stroke-miterlimit="10"/>
<path d="M467.265 24.865L458.305 21.2048L460.435 24.865L458.305 28.5249L467.265 24.865Z" fill="white"/>
<path d="M663.225 24.865H564.725" stroke="white" stroke-width="1.5" stroke-miterlimit="10"/>
<path d="M669.575 24.865L660.625 21.2048L662.745 24.865L660.625 28.5249L669.575 24.865Z" fill="white"/>
<path d="M844.775 24.865H746.285" stroke="white" stroke-width="1.5" stroke-miterlimit="10"/>
<path d="M851.135 24.865L842.175 21.2048L844.305 24.865L842.175 28.5249L851.135 24.865Z" fill="white"/>
<path d="M1049.55 24.865H951.055" stroke="white" stroke-width="1.5" stroke-miterlimit="10"/>
<path d="M1055.9 24.865L1046.95 21.2048L1049.07 24.865L1046.95 28.5249L1055.9 24.865Z" fill="white"/>
</svg>
