<svg width="54" height="52" viewBox="0 0 54 52" fill="none" xmlns="http://www.w3.org/2000/svg">
<path d="M33.3948 16.0449C31.2348 16.0449 29.4849 17.8048 29.4849 19.9548C29.4849 22.1048 31.2448 23.865 33.3948 23.865C35.5448 23.865 37.3048 22.1048 37.3048 19.9548C37.3048 17.8048 35.5448 16.0449 33.3948 16.0449ZM33.3948 21.3848C32.6148 21.3848 31.9749 20.7448 31.9749 19.9648C31.9749 19.1848 32.6148 18.5449 33.3948 18.5449C34.1748 18.5449 34.8148 19.1848 34.8148 19.9648C34.8148 20.7448 34.1748 21.3848 33.3948 21.3848Z" fill="url(#paint0_linear_321_7064)"/>
<path d="M52.4746 30.6648L42.7146 20.9048L45.4746 18.1448C46.1846 17.4348 46.5846 16.4848 46.5846 15.4748C46.5846 14.4648 46.1946 13.5149 45.4746 12.8049L40.3846 7.71483C38.9146 6.24483 36.5146 6.24483 35.0446 7.71483L31.8446 10.9148L22.1646 1.23485C20.9846 0.0548536 18.9346 0.0548536 17.7546 1.23485L14.3846 4.60497C13.7946 5.19497 13.4746 5.97492 13.4746 6.80492C13.4746 7.63492 13.7946 8.42487 14.3846 9.00487L24.0646 18.6848L21.7746 20.9748C21.0646 21.6848 20.6646 22.6348 20.6646 23.6448C20.6646 24.6548 21.0546 25.6049 21.7746 26.3149L26.8646 31.4048C27.5746 32.1148 28.5246 32.5149 29.5346 32.5149C30.5446 32.5149 31.4946 32.1248 32.2046 31.4048L34.9346 28.6748L44.6946 38.4348C45.3046 39.0448 46.0946 39.345 46.8946 39.345C47.6946 39.345 48.4846 39.0448 49.0946 38.4348L52.4646 35.0649C53.0546 34.4749 53.3746 33.695 53.3746 32.865C53.3746 32.035 53.0546 31.2448 52.4646 30.6648H52.4746ZM25.6646 16.5449L22.2546 13.1348L26.2546 9.05492L29.6946 12.4949L25.6546 16.5349L25.6646 16.5449ZM19.0846 9.97484L23.0846 5.89477L24.3846 7.19481L20.3846 11.2749L19.0846 9.97484ZM16.1146 6.81493C16.1146 6.74493 16.1346 6.60485 16.2546 6.48485L19.6246 3.11498C19.7446 2.99498 19.8846 2.97484 19.9546 2.97484C20.0246 2.97484 20.1646 2.99498 20.2846 3.11498L21.2046 4.0349L17.2046 8.11498L16.2446 7.15478C16.1246 7.03478 16.1046 6.89494 16.1046 6.82494L16.1146 6.81493ZM30.4446 29.6548C29.9446 30.1548 29.1346 30.1548 28.6246 29.6548L23.5346 24.5649C23.0346 24.0649 23.0346 23.2549 23.5346 22.7449L36.7946 9.48485C37.0446 9.23485 37.3746 9.10497 37.7046 9.10497C38.0346 9.10497 38.3646 9.23485 38.6146 9.48485L43.7046 14.5749C44.2046 15.0749 44.2046 15.8848 43.7046 16.3948L30.4446 29.6548ZM42.4746 32.4849L46.4746 28.4048L47.7746 29.7048L43.7746 33.7849L42.4746 32.4849ZM41.2046 23.1348L44.6146 26.5449L40.6146 30.625L37.1746 27.1848L41.2146 23.1448L41.2046 23.1348ZM50.6046 33.2048L47.2346 36.5749C47.0446 36.7549 46.7446 36.7649 46.5646 36.5749L45.6446 35.6548L49.6446 31.5749L50.6046 32.5349C50.7246 32.6549 50.7446 32.795 50.7446 32.865C50.7446 32.935 50.7246 33.0748 50.6046 33.1948V33.2048Z" fill="url(#paint1_linear_321_7064)"/>
<path d="M15.7647 27.005C13.8847 27.175 12.1947 27.9651 10.7547 29.3551L9.78467 30.295L22.4647 42.8651L23.3047 41.3151C23.3447 41.2451 24.1847 39.675 24.6547 37.535C25.2647 34.785 24.5147 31.895 22.6547 29.785C20.8847 27.775 18.3647 26.765 15.7647 27.005ZM22.0747 36.975C21.9647 37.485 21.8247 37.9651 21.6847 38.3751L13.6647 30.4249C14.3847 29.9749 15.1747 29.7149 16.0147 29.6449C17.7747 29.4849 19.4747 30.175 20.6847 31.545C21.9847 33.025 22.5047 35.055 22.0847 36.975H22.0747Z" fill="url(#paint2_linear_321_7064)"/>
<path d="M15.1051 44.0448C8.46506 42.3248 8.63503 38.0148 8.64503 37.7948C8.69503 37.0748 8.16504 36.4449 7.43504 36.3749C6.66504 36.3049 6.06505 36.8549 6.00505 37.5849C5.81505 39.8949 7.32504 44.7549 14.435 46.5949C14.545 46.6249 14.6551 46.6347 14.7651 46.6347C15.3551 46.6347 15.8851 46.2447 16.0451 45.6447C16.2251 44.9347 15.805 44.2148 15.095 44.0348L15.1051 44.0448Z" fill="url(#paint3_linear_321_7064)"/>
<path d="M13.9648 48.6447C3.91481 47.2347 3.27482 38.7048 3.25482 38.3248C3.21482 37.5948 2.59481 37.0248 1.86481 37.0748C1.13481 37.1148 0.574809 37.7347 0.614809 38.4647C0.614809 38.5747 1.34482 49.5448 13.5948 51.2548C13.6548 51.2548 13.7148 51.2648 13.7748 51.2648C14.4248 51.2648 14.9848 50.7849 15.0848 50.1249C15.1848 49.4049 14.6848 48.7346 13.9548 48.6346L13.9648 48.6447Z" fill="url(#paint4_linear_321_7064)"/>
<path d="M14.245 40.235L14.275 40.2049C14.825 39.7149 14.8551 38.8951 14.3751 38.3551C13.8951 37.8051 13.045 37.775 12.495 38.255C11.945 38.735 11.9051 39.5751 12.3851 40.1251C12.6451 40.4151 13.0051 40.565 13.3751 40.565C13.6851 40.565 14.0051 40.455 14.2551 40.235H14.245Z" fill="url(#paint5_linear_321_7064)"/>
<defs>
<linearGradient id="paint0_linear_321_7064" x1="5.45494" y1="39.2151" x2="57.5252" y2="3.33538" gradientUnits="userSpaceOnUse">
<stop stop-color="#ED7225"/>
<stop offset="0.17" stop-color="#FDC80A"/>
<stop offset="0.45" stop-color="#047F45"/>
<stop offset="0.76" stop-color="#0C98CA"/>
<stop offset="0.97" stop-color="white"/>
</linearGradient>
<linearGradient id="paint1_linear_321_7064" x1="5.40461" y1="39.155" x2="57.4847" y2="3.265" gradientUnits="userSpaceOnUse">
<stop stop-color="#ED7225"/>
<stop offset="0.17" stop-color="#FDC80A"/>
<stop offset="0.45" stop-color="#047F45"/>
<stop offset="0.76" stop-color="#0C98CA"/>
<stop offset="0.97" stop-color="white"/>
</linearGradient>
<linearGradient id="paint2_linear_321_7064" x1="7.55467" y1="42.2751" x2="59.6249" y2="6.3852" gradientUnits="userSpaceOnUse">
<stop stop-color="#ED7225"/>
<stop offset="0.17" stop-color="#FDC80A"/>
<stop offset="0.45" stop-color="#047F45"/>
<stop offset="0.76" stop-color="#0C98CA"/>
<stop offset="0.97" stop-color="white"/>
</linearGradient>
<linearGradient id="paint3_linear_321_7064" x1="8.32505" y1="43.3847" x2="60.3943" y2="7.49442" gradientUnits="userSpaceOnUse">
<stop stop-color="#ED7225"/>
<stop offset="0.17" stop-color="#FDC80A"/>
<stop offset="0.45" stop-color="#047F45"/>
<stop offset="0.76" stop-color="#0C98CA"/>
<stop offset="0.97" stop-color="white"/>
</linearGradient>
<linearGradient id="paint4_linear_321_7064" x1="8.54481" y1="43.7048" x2="60.6147" y2="7.81474" gradientUnits="userSpaceOnUse">
<stop stop-color="#ED7225"/>
<stop offset="0.17" stop-color="#FDC80A"/>
<stop offset="0.45" stop-color="#047F45"/>
<stop offset="0.76" stop-color="#0C98CA"/>
<stop offset="0.97" stop-color="white"/>
</linearGradient>
<linearGradient id="paint5_linear_321_7064" x1="8.01506" y1="42.9451" x2="60.0852" y2="7.05523" gradientUnits="userSpaceOnUse">
<stop stop-color="#ED7225"/>
<stop offset="0.17" stop-color="#FDC80A"/>
<stop offset="0.45" stop-color="#047F45"/>
<stop offset="0.76" stop-color="#0C98CA"/>
<stop offset="0.97" stop-color="white"/>
</linearGradient>
</defs>
</svg>
