<svg width="25" height="21" viewBox="0 0 25 21" fill="none" xmlns="http://www.w3.org/2000/svg">
<path d="M3.18295 13.898L4.60776 9.46658L0.851562 6.7181L5.50449 6.70814L6.9591 2.29663L8.40373 6.70814L13.0467 6.72806L9.29048 9.46658L10.7153 13.898L6.94912 11.1595L3.18295 13.898Z" fill="#FFDE00"/>
<path d="M16.1453 16.2781L17.7096 16.9154L18.8056 15.6208L18.686 17.3038L20.2602 17.9411L18.6162 18.3594L18.4867 20.0324L17.5901 18.6083L15.9561 19.0067L17.0321 17.7121L16.1453 16.2781Z" fill="#FFDE00"/>
<path d="M24.634 7.78376L22.97 7.49497L22.1731 8.98871L21.9339 7.31572L20.27 7.00702L21.7845 6.2701L21.5553 4.58716L22.7409 5.80207L24.2554 5.06515L23.4582 6.55889L24.634 7.78376Z" fill="#FFDE00"/>
<path d="M21.0971 15.3519L21.6152 13.7387L20.2502 12.7429H21.9441L22.472 11.1296L22.9902 12.7429H24.694L23.3289 13.7387L23.837 15.3519L22.472 14.3661L21.0971 15.3519Z" fill="#FFDE00"/>
<path d="M16.2251 0.663578L17.7594 1.38057L18.9152 0.145752L18.7159 1.81874L20.2402 2.54569L18.5864 2.86435L18.3771 4.5473L17.5502 3.07348L15.8962 3.38219L17.042 2.1374L16.2251 0.663578Z" fill="#FFDE00"/>
</svg>
