<svg width="91" height="90" viewBox="0 0 91 90" fill="none" xmlns="http://www.w3.org/2000/svg">
<path d="M45.1803 82.7751C65.9849 82.7751 82.8503 65.9097 82.8503 45.1051C82.8503 24.3005 65.9849 7.43506 45.1803 7.43506C24.3757 7.43506 7.51025 24.3005 7.51025 45.1051C7.51025 65.9097 24.3757 82.7751 45.1803 82.7751Z" fill="url(#paint0_linear_334_9503)"/>
<path d="M31.0503 37.6851C28.2903 33.9351 26.3303 29.5451 25.3903 24.9851L25.2402 24.2551L25.9503 24.4551C28.0003 25.0451 29.9902 25.8451 31.8802 26.8351C31.6802 24.1451 31.3603 21.4351 30.9503 18.7751L30.7603 17.5651L31.6903 18.3651C33.3203 19.7651 35.0803 21.0051 36.9403 22.0751C36.8903 19.6951 37.0903 17.3151 37.5403 14.9851L37.6703 14.2952L38.2402 14.7051C39.8202 15.8351 41.1903 17.2051 42.3303 18.7651C42.9603 16.4851 43.8902 14.3052 45.1302 12.2852L45.5403 11.6051L45.9103 12.3151C46.9803 14.3651 48.0803 16.4851 49.2203 18.3851C50.4303 17.0051 51.7303 15.6851 53.0803 14.4451L53.6603 13.9152L53.8303 14.675C54.3803 17.195 54.8903 19.7551 55.3503 22.3051C56.5803 20.7451 57.9903 19.3351 59.5603 18.1151L60.2402 17.5851L60.2903 18.4451C60.4503 21.1951 60.7903 23.9552 61.3203 26.6552C62.1503 25.5152 63.1003 24.4851 64.1703 23.5651L64.8403 22.9951L64.9103 23.8751C65.0903 26.0751 65.1903 28.3051 65.2003 30.5051H64.3003C64.3003 28.6351 64.2203 26.7351 64.0803 24.8551C63.0803 25.8051 62.2003 26.8752 61.4603 28.0352L60.8702 28.9651L60.6403 27.8851C60.0503 25.0851 59.6503 22.2251 59.4403 19.3651C57.9403 20.6351 56.6003 22.0752 55.4503 23.6652L54.8303 24.5251L54.6503 23.4751C54.2003 20.8651 53.6802 18.2351 53.1302 15.6351C51.8602 16.8351 50.6503 18.1151 49.5203 19.4351L49.1202 19.9052L48.8003 19.3751C47.6703 17.5251 46.5803 15.4651 45.5203 13.4451C44.3703 15.4751 43.5202 17.6651 42.9902 19.9451L42.7502 20.9751L42.1703 20.0851C41.1403 18.4951 39.8103 17.0451 38.3103 15.8651C37.9203 18.1651 37.7802 20.5051 37.8802 22.8351L37.9103 23.6251L37.2103 23.2451C35.3803 22.2551 33.6403 21.1051 32.0203 19.8051C32.3903 22.3851 32.6703 24.9951 32.8403 27.5951L32.9003 28.425L32.1803 28.0151C30.3603 26.9951 28.4403 26.1552 26.4503 25.5352C27.4103 29.7052 29.2503 33.7051 31.7903 37.1451L31.0703 37.675L31.0503 37.6851Z" fill="white"/>
<path d="M61.2302 36.8751L60.4102 36.4951C61.1702 34.8551 62.1301 33.3051 63.2601 31.8851L63.9602 32.4451C62.8802 33.8051 61.9502 35.2951 61.2202 36.8751H61.2302Z" fill="white"/>
<path d="M38.4506 37.1051H37.5505C37.5905 33.3751 36.6606 29.685 34.8506 26.425L35.6405 25.9851C37.5205 29.3751 38.4906 33.2251 38.4506 37.1051Z" fill="white"/>
<path d="M41.2705 36.8651C41.2205 32.7451 41.0706 28.5751 40.8506 24.4651L41.7505 24.4152C41.9805 28.5452 42.1205 32.7251 42.1705 36.8551H41.2705V36.8651Z" fill="white"/>
<path d="M46.0905 37.1051L45.1904 37.0851C45.2804 32.2051 45.4304 27.2451 45.6404 22.3651L46.5404 22.4052C46.3304 27.2752 46.1705 32.2251 46.0905 37.0951V37.1051Z" fill="white"/>
<path d="M49.7902 37.1652C49.7302 32.5052 49.8303 27.7951 50.1003 23.1451L51.0002 23.1951C50.7402 27.8251 50.6303 32.5152 50.6903 37.1552H49.7902V37.1652Z" fill="white"/>
<path d="M54.9 36.8151L54 36.7651C54.26 32.0051 55.2201 27.3151 56.8601 22.8351L57.7001 23.1451C56.0901 27.5451 55.15 32.1351 54.9 36.8151Z" fill="white"/>
<path d="M64.0701 41.6251H28.5V36.9651H64.0701V41.6251ZM29.4 40.7251H63.1801V37.8651H29.4V40.7251Z" fill="white"/>
<path d="M50.4603 59.6851H42.6103L42.5102 59.6351C42.4002 59.5851 31.8203 54.0151 32.4803 42.1851L32.5002 41.7651H59.1803L59.2402 42.1451C59.2602 42.2751 61.0803 55.2352 50.5503 59.6552L50.4703 59.6851H50.4603ZM42.8303 58.7852H50.2803C59.0903 55.0252 58.6002 44.7752 58.3902 42.6552H33.3603C33.0203 53.0352 41.8303 58.2252 42.8303 58.7852Z" fill="white"/>
<mask id="mask0_334_9503" style="mask-type:luminance" maskUnits="userSpaceOnUse" x="29" y="59" width="18" height="16">
<path d="M46.4403 59.0651H29.5303V74.4751H46.4403V59.0651Z" fill="white"/>
</mask>
<g mask="url(#mask0_334_9503)">
<path d="M46.4403 74.4651H29.5303L29.6703 68.925C30.3303 64.395 35.0603 64.2151 35.5403 64.2051L38.8203 63.7651H38.8702C39.7202 63.8451 40.3903 63.6351 40.9103 63.1351C42.2503 61.8451 42.1503 59.1151 42.1503 59.0951L43.0503 59.0551C43.0503 59.1851 43.1703 62.2252 41.5303 63.7852C40.8303 64.4552 39.9303 64.755 38.8403 64.675L35.5903 65.1151H35.5603C35.3803 65.1051 31.1403 65.0952 30.5603 69.0352L30.4503 73.5651H46.4303V74.4651H46.4403Z" fill="white"/>
</g>
<mask id="mask1_334_9503" style="mask-type:luminance" maskUnits="userSpaceOnUse" x="46" y="59" width="18" height="16">
<path d="M63.3505 59.0651H46.4404V74.4751H63.3505V59.0651Z" fill="white"/>
</mask>
<g mask="url(#mask1_334_9503)">
<path d="M63.3407 74.4651H46.4307V73.5651H62.4106L62.3007 69.0352C61.7107 65.0852 57.4807 65.1151 57.3007 65.1151H57.2706L54.0206 64.675C52.9406 64.755 52.0307 64.4552 51.3307 63.7852C49.7007 62.2252 49.8107 59.1851 49.8107 59.0551L50.7107 59.0951C50.7107 59.0951 50.6107 61.8551 51.9507 63.1351C52.4707 63.6351 53.1406 63.8451 53.9906 63.7751H54.0406L57.3207 64.2151C57.8007 64.2151 62.5407 64.3951 63.1907 68.9351V68.9851L63.3307 74.4651H63.3407Z" fill="white"/>
</g>
<path d="M33.1102 50.4751C31.5302 50.4751 30.0301 49.4851 29.1501 47.7551C28.1301 45.7551 28.2901 43.0151 28.5001 41.1251L29.3901 41.2251C29.1901 43.0051 29.0402 45.5651 29.9502 47.3451C30.7002 48.8151 32.2702 50.0252 34.0702 49.4152L34.3602 50.2651C33.9502 50.4051 33.5301 50.4751 33.1201 50.4751H33.1102Z" fill="white"/>
<path d="M59.3005 50.4751C58.8905 50.4751 58.4705 50.4051 58.0605 50.2651L58.3506 49.4152C60.1506 50.0252 61.7106 48.8151 62.4706 47.3451C63.3806 45.5651 63.2205 42.9951 63.0305 41.2251L63.9205 41.1251C64.1305 43.0151 64.2905 45.7651 63.2705 47.7551C62.3905 49.4851 60.8905 50.4751 59.3105 50.4751H59.3005Z" fill="white"/>
<path d="M37.1703 54.2251L36.4703 53.6652L39.3702 49.9551L38.1302 48.3851L34.8403 50.9951L34.2803 50.2952L38.2803 47.1151L40.5203 49.9551L37.1703 54.2251Z" fill="white"/>
<path d="M46.1002 53.5951C45.2602 53.5951 44.4202 53.3851 43.7002 52.9551L44.1602 52.1851C45.5302 53.0051 47.4101 52.8451 48.6301 51.8051L49.2102 52.4851C48.3502 53.2151 47.2302 53.5951 46.1002 53.5951Z" fill="white"/>
<path d="M55.8505 54.8251L51.6304 49.8451L54.2004 47.7051L58.1804 50.7151L57.6404 51.425L54.2205 48.8551L52.9004 49.9551L56.5304 54.2451L55.8505 54.8251Z" fill="white"/>
<path opacity="0.8" d="M45.2804 0.245117C20.5404 0.245117 0.42041 20.3751 0.42041 45.1051C0.42041 69.8351 20.5504 89.9651 45.2804 89.9651C70.0104 89.9651 90.1404 69.8351 90.1404 45.1051C90.1404 20.3751 70.0104 0.245117 45.2804 0.245117ZM45.2804 7.43506C66.0504 7.43506 82.9504 24.3351 82.9504 45.1051C82.9504 51.8051 81.1904 58.0952 78.1204 63.5452L15.2504 22.3951C22.1304 13.3151 33.0404 7.43506 45.2904 7.43506H45.2804ZM45.2804 82.7751C24.5104 82.7751 7.61047 65.8751 7.61047 45.1051C7.61047 39.3151 8.93039 33.8252 11.2704 28.9152L73.7205 69.7852C66.8105 77.7352 56.6204 82.7751 45.2804 82.7751Z" fill="#EA660A"/>
<defs>
<linearGradient id="paint0_linear_334_9503" x1="7.51025" y1="45.1051" x2="82.8503" y2="45.1051" gradientUnits="userSpaceOnUse">
<stop stop-color="#046DB5"/>
<stop offset="1" stop-color="#253785"/>
</linearGradient>
</defs>
</svg>
