<svg width="90" height="90" viewBox="0 0 90 90" fill="none" xmlns="http://www.w3.org/2000/svg">
<path d="M45.3102 82.7751C66.1147 82.7751 82.9801 65.9097 82.9801 45.1051C82.9801 24.3005 66.1147 7.43506 45.3102 7.43506C24.5056 7.43506 7.64014 24.3005 7.64014 45.1051C7.64014 65.9097 24.5056 82.7751 45.3102 82.7751Z" fill="url(#paint0_linear_334_9536)"/>
<path d="M45.0601 66.4651C43.2601 66.4651 42.3 64.9451 42.04 64.1051L42.02 64.0452V49.7752C40.91 49.6952 37.9401 49.3752 35.4301 48.0352C33.8401 47.1852 32.53 45.4251 32.02 43.4351C31.5 41.3851 31.84 39.3051 32.97 37.5751C34.03 35.9551 35.63 35.0551 37.1 34.3451C37.1 33.0951 37.3301 28.3251 40.0701 25.6851C41.3901 24.4051 43.1 23.8251 45.15 23.9551L45.0901 24.8551C43.3001 24.7451 41.8301 25.2451 40.6901 26.3351C37.8801 29.0451 38 34.5652 38 34.6252V34.9152L37.74 35.0452C36.32 35.7152 34.72 36.5551 33.72 38.0751C32.72 39.5951 32.43 41.4251 32.89 43.2251C33.34 44.9751 34.47 46.5252 35.85 47.2552C38.74 48.7952 42.44 48.9152 42.47 48.9152H42.91V63.9251C43.03 64.2451 43.66 65.7251 45.26 65.5851L45.3401 66.4851C45.2401 66.4851 45.1501 66.4952 45.0601 66.4952V66.4651Z" fill="white"/>
<path d="M45.2198 66.4651C45.1298 66.4651 45.0299 66.4651 44.9399 66.4551L45.0199 65.5551C46.6099 65.6851 47.2499 64.2152 47.3699 63.8952V48.9052H47.8099C47.8099 48.9052 51.5399 48.7752 54.4299 47.2352C55.8099 46.5052 56.9399 44.9551 57.3899 43.2051C57.8499 41.4051 57.5499 39.5751 56.5599 38.0551C55.5599 36.5351 53.9599 35.6952 52.5399 35.0252L52.2699 34.9052V34.6152C52.2699 34.5552 52.4 29.0451 49.59 26.3251C48.46 25.2351 46.9799 24.7351 45.1899 24.8451L45.1299 23.9451C47.1799 23.8151 48.89 24.4051 50.21 25.6751C52.94 28.3151 53.1699 33.0851 53.1799 34.3351C54.6499 35.0351 56.2499 35.9451 57.3099 37.5651C58.4499 39.3051 58.7899 41.3851 58.2599 43.4251C57.7499 45.4151 56.4499 47.1752 54.8499 48.0252C52.3399 49.3652 49.3699 49.6852 48.2599 49.7652V64.0352L48.2399 64.0951C47.9799 64.9351 47.0198 66.4551 45.2198 66.4551V66.4651Z" fill="white"/>
<path d="M29.8803 66.4651C28.0803 66.4651 27.1202 64.9451 26.8602 64.1051L26.8403 64.0452V49.7752C25.7303 49.6952 22.7602 49.3752 20.2502 48.0352C18.6602 47.1852 17.3503 45.4251 16.8403 43.4351C16.3203 41.3851 16.6603 39.3051 17.7903 37.5751C18.8503 35.9551 20.4503 35.0551 21.9203 34.3451C21.9203 33.0951 22.1503 28.3251 24.8903 25.6851C26.2103 24.4051 27.9202 23.8251 29.9702 23.9551L29.9103 24.8551C28.1203 24.7451 26.6503 25.2451 25.5103 26.3351C22.7003 29.0451 22.8203 34.5652 22.8203 34.6252V34.9152L22.5603 35.0452C21.1403 35.7152 19.5403 36.5551 18.5403 38.0751C17.5403 39.5951 17.2503 41.4251 17.7103 43.2251C18.1603 44.9751 19.2903 46.5252 20.6703 47.2552C23.5603 48.7952 27.2603 48.9152 27.2903 48.9152H27.7302V63.9251C27.8502 64.2451 28.4803 65.7251 30.0803 65.5851L30.1603 66.4851C30.0603 66.4851 29.9703 66.4952 29.8803 66.4952V66.4651Z" fill="white"/>
<path d="M37.9904 34.6252L37.0905 34.5951C37.0905 34.5351 37.2104 29.0251 34.4004 26.3051C33.2704 25.2151 31.7904 24.7151 30.0004 24.8251L29.9404 23.9251C31.9904 23.7951 33.7004 24.3852 35.0204 25.6552C38.1204 28.6452 37.9903 34.3652 37.9803 34.6152L37.9904 34.6252Z" fill="white"/>
<path d="M30.0403 66.4651C29.9503 66.4651 29.8503 66.4651 29.7603 66.4551L29.8403 65.5551C31.4303 65.6851 32.0703 64.2151 32.1903 63.8951V48.9052H32.6302C32.6302 48.9052 35.0203 48.8151 37.4403 48.0051L37.7302 48.8551C35.7902 49.5051 33.9203 49.7051 33.0903 49.7651V64.0352L33.0703 64.0951C32.8103 64.9351 31.8503 66.4551 30.0503 66.4551L30.0403 66.4651Z" fill="white"/>
<path d="M60.8501 66.4651C59.0501 66.4651 58.0902 64.9451 57.8302 64.1051L57.8102 64.0452V49.7751C56.9402 49.7151 54.9201 49.4951 52.8701 48.7551L53.1702 47.9052C55.6902 48.8152 58.2401 48.8951 58.2701 48.8951H58.7102V63.9052C58.8302 64.2252 59.4602 65.7051 61.0602 65.5651L61.1401 66.4651C61.0401 66.4651 60.9501 66.4751 60.8601 66.4751L60.8501 66.4651Z" fill="white"/>
<path d="M53.0803 35.0252C53.0703 34.7652 52.8502 28.7352 55.9802 25.6552C57.2702 24.3852 58.9403 23.8151 60.9503 23.9351L60.8903 24.8351C59.1503 24.7251 57.7102 25.2152 56.6102 26.2952C53.7602 29.0852 53.9702 34.9251 53.9702 34.9851L53.0703 35.0252H53.0803Z" fill="white"/>
<path d="M61.01 66.4651C60.92 66.4651 60.82 66.4651 60.73 66.4551L60.8101 65.5551C62.4001 65.6851 63.04 64.2152 63.16 63.8952V48.9052H63.6C63.6 48.9052 67.33 48.7752 70.22 47.2352C71.6 46.5052 72.7301 44.9551 73.1801 43.2051C73.6401 41.4051 73.34 39.5751 72.35 38.0551C71.35 36.5351 69.7501 35.6952 68.3301 35.0252L68.0601 34.9052V34.6152C68.0601 34.5552 68.19 29.0451 65.38 26.3251C64.25 25.2351 62.77 24.7351 60.98 24.8451L60.92 23.9451C62.97 23.8151 64.68 24.4051 66 25.6751C68.73 28.3151 68.96 33.0851 68.97 34.3351C70.44 35.0351 72.04 35.9451 73.1 37.5651C74.24 39.3051 74.58 41.3851 74.05 43.4251C73.54 45.4151 72.23 47.1752 70.64 48.0252C68.13 49.3652 65.16 49.6852 64.05 49.7652V64.0352L64.03 64.0951C63.77 64.9351 62.81 66.4551 61.01 66.4551V66.4651Z" fill="white"/>
<path opacity="0.8" d="M45.1403 0.245117C20.4003 0.245117 0.280273 20.3751 0.280273 45.1051C0.280273 69.8351 20.4103 89.9651 45.1403 89.9651C69.8703 89.9651 90.0002 69.8351 90.0002 45.1051C90.0002 20.3751 69.8703 0.245117 45.1403 0.245117ZM45.1403 7.43506C65.9103 7.43506 82.8103 24.3351 82.8103 45.1051C82.8103 51.8051 81.0502 58.0952 77.9802 63.5452L15.1102 22.3951C21.9902 13.3151 32.9003 7.43506 45.1503 7.43506H45.1403ZM45.1403 82.7751C24.3703 82.7751 7.47021 65.8751 7.47021 45.1051C7.47021 39.3151 8.79025 33.8252 11.1302 28.9152L73.5803 69.7852C66.6703 77.7352 56.4803 82.7751 45.1403 82.7751Z" fill="#EA660A"/>
<defs>
<linearGradient id="paint0_linear_334_9536" x1="7.64014" y1="45.1051" x2="82.9801" y2="45.1051" gradientUnits="userSpaceOnUse">
<stop stop-color="#046DB5"/>
<stop offset="1" stop-color="#253785"/>
</linearGradient>
</defs>
</svg>
