<svg width="91" height="90" viewBox="0 0 91 90" fill="none" xmlns="http://www.w3.org/2000/svg">
<path d="M45.2202 82.775C66.0248 82.775 82.8903 65.9095 82.8903 45.105C82.8903 24.3004 66.0248 7.43494 45.2202 7.43494C24.4156 7.43494 7.55029 24.3004 7.55029 45.105C7.55029 65.9095 24.4156 82.775 45.2202 82.775Z" fill="url(#paint0_linear_334_9581)"/>
<path d="M50.0605 35.6949L49.2305 34.885C49.0705 34.725 48.8204 34.725 48.4704 34.715H47.4505C47.2605 34.715 47.0305 34.7149 46.9005 34.8049L46.2705 35.215L46.2106 34.465C45.9406 31.065 48.1205 27.715 51.2805 26.665L53.2905 25.995L51.7305 27.4249C50.6905 28.3749 50.2704 29.7249 50.1004 30.6849C49.8704 31.9449 49.9305 33.225 50.0005 34.545L50.0705 35.705L50.0605 35.6949ZM48.5305 33.8149C48.6905 33.8149 48.8705 33.815 49.0505 33.845C49.0005 32.755 49.0005 31.615 49.2005 30.515C49.3105 29.885 49.5205 29.115 49.9005 28.365C48.2005 29.595 47.1006 31.675 47.0806 33.835C47.2106 33.825 47.3305 33.825 47.4405 33.825H48.4606C48.4606 33.825 48.5105 33.825 48.5305 33.825V33.8149Z" fill="white"/>
<path d="M65.0804 35.005L65.1504 33.845C65.2304 32.535 65.2804 31.245 65.0504 29.985C64.8804 29.015 64.4504 27.675 63.4204 26.725L61.8604 25.295L63.8704 25.965C67.0304 27.015 69.2104 30.375 68.9404 33.765L68.8804 34.515L68.2504 34.105C68.1204 34.025 67.8904 34.025 67.7004 34.025H66.6804C66.3204 34.025 66.0804 34.0249 65.9204 34.1849L65.0903 34.995L65.0804 35.005ZM65.2303 27.6749C65.6103 28.4349 65.8204 29.205 65.9304 29.835C66.1304 30.945 66.1304 32.075 66.0804 33.165C66.2904 33.135 66.4904 33.135 66.6704 33.135H67.6904C67.8004 33.135 67.9204 33.135 68.0504 33.155C68.0304 30.995 66.9303 28.9149 65.2303 27.6849V27.6749Z" fill="white"/>
<path d="M57.8505 57.1949C49.7105 57.1949 46.7105 54.485 46.5505 54.335L46.3306 54.135L51.7106 39.295C52.9206 36.115 55.0105 36.135 55.3005 36.145H61.1305L61.2006 36.135C61.6806 36.155 63.1505 36.215 64.1205 39.515C65.0505 42.675 68.9505 55.225 68.9905 55.345L69.1405 55.8149L68.6605 55.915C64.3305 56.845 60.7605 57.1949 57.8505 57.1949ZM47.3905 53.855C48.5405 54.675 54.2205 58.005 67.9905 55.135C67.2705 52.805 64.0905 42.575 63.2605 39.765C62.4705 37.085 61.4905 37.045 61.1705 37.035C61.1405 37.035 61.1205 37.035 61.1005 37.035H55.2705L55.2505 37.045C55.1905 37.045 53.5805 36.945 52.5605 39.615L47.3905 53.865V53.855Z" fill="white"/>
<path d="M33.7505 34.325C30.6105 34.325 28.0605 31.775 28.0605 28.635C28.0605 25.495 30.6105 22.9449 33.7505 22.9449C36.8905 22.9449 39.4406 25.495 39.4406 28.635C39.4406 31.775 36.8905 34.325 33.7505 34.325ZM33.7505 23.835C31.1105 23.835 28.9506 25.985 28.9506 28.635C28.9506 31.285 31.1005 33.4349 33.7505 33.4349C36.4005 33.4349 38.5505 31.285 38.5505 28.635C38.5505 25.985 36.4005 23.835 33.7505 23.835Z" fill="white"/>
<path d="M57.7202 34.325C54.5802 34.325 52.0303 31.775 52.0303 28.635C52.0303 25.495 54.5802 22.9449 57.7202 22.9449C60.8602 22.9449 63.4103 25.495 63.4103 28.635C63.4103 31.775 60.8602 34.325 57.7202 34.325ZM57.7202 23.835C55.0802 23.835 52.9203 25.985 52.9203 28.635C52.9203 31.285 55.0702 33.4349 57.7202 33.4349C60.3702 33.4349 62.5203 31.285 62.5203 28.635C62.5203 25.985 60.3702 23.835 57.7202 23.835Z" fill="white"/>
<mask id="mask0_334_9581" style="mask-type:luminance" maskUnits="userSpaceOnUse" x="24" y="36" width="10" height="33">
<path d="M33.9803 36.5549H24.5903V68.335H33.9803V36.5549Z" fill="white"/>
</mask>
<g mask="url(#mask0_334_9581)">
<path d="M34.2305 68.345L29.3205 68.265L28.3205 55.665C27.5305 55.375 25.4905 54.4249 24.9205 52.1949C24.2705 49.6549 24.7905 42.055 24.8105 41.735C24.8105 41.675 25.2805 36.805 29.8605 36.605L34.5705 36.5649V37.465L29.8805 37.505C26.1205 37.665 25.7206 41.6349 25.7106 41.8049C25.7106 41.8749 25.1805 49.575 25.7905 51.975C26.3605 54.185 28.8405 54.895 28.8705 54.905L29.1705 54.985L29.2005 55.295L30.1605 67.375L34.2505 67.4449V68.345H34.2305Z" fill="white"/>
</g>
<mask id="mask1_334_9581" style="mask-type:luminance" maskUnits="userSpaceOnUse" x="33" y="36" width="11" height="33">
<path d="M43.3705 36.5549H33.9805V68.335H43.3705V36.5549Z" fill="white"/>
</mask>
<g mask="url(#mask1_334_9581)">
<path d="M33.7303 68.345V67.4449L37.8104 67.375L38.7904 54.985L39.0903 54.905C39.0903 54.905 41.6004 54.185 42.1704 51.975C42.7904 49.575 42.2604 41.875 42.2504 41.795C42.2404 41.635 41.8404 37.665 38.0604 37.505L33.3804 37.465V36.5649L38.0903 36.605C42.6803 36.805 43.1504 41.675 43.1504 41.725C43.1704 42.055 43.6904 49.6549 43.0404 52.1949C42.4704 54.4249 40.4204 55.375 39.6404 55.665L38.6404 68.265L33.7303 68.345Z" fill="white"/>
</g>
<path d="M61.7701 67.845H53.8901L52.9502 56.515L53.8401 56.4349L54.7201 66.9449H60.9701L62.0901 56.5549L62.9901 56.655L61.7701 67.845Z" fill="white"/>
<path opacity="0.8" d="M45.2203 0.244995C20.4803 0.244995 0.360352 20.375 0.360352 45.105C0.360352 69.835 20.4903 89.965 45.2203 89.965C69.9503 89.965 90.0804 69.835 90.0804 45.105C90.0804 20.375 69.9503 0.244995 45.2203 0.244995ZM45.2203 7.43494C65.9903 7.43494 82.8904 24.335 82.8904 45.105C82.8904 51.805 81.1304 58.095 78.0604 63.545L15.1904 22.395C22.0704 13.315 32.9803 7.43494 45.2303 7.43494H45.2203ZM45.2203 82.775C24.4503 82.775 7.55042 65.875 7.55042 45.105C7.55042 39.315 8.87045 33.825 11.2104 28.915L73.6604 69.785C66.7504 77.735 56.5603 82.775 45.2203 82.775Z" fill="#EA660A"/>
<defs>
<linearGradient id="paint0_linear_334_9581" x1="7.55029" y1="45.105" x2="82.8903" y2="45.105" gradientUnits="userSpaceOnUse">
<stop stop-color="#046DB5"/>
<stop offset="1" stop-color="#253785"/>
</linearGradient>
</defs>
</svg>
