<svg width="63" height="73" viewBox="0 0 63 73" fill="none" xmlns="http://www.w3.org/2000/svg">
<path d="M31.5748 72.7349L30.6448 70.9448C30.4248 70.5348 25.0647 60.875 9.29474 61.085H8.67474L0.634766 51.3848L1.67474 50.5649C1.75474 50.4949 10.0847 43.8249 10.3647 35.0149C10.5247 29.9949 8.05477 25.1648 3.01477 20.6448L2.51477 20.1948L4.13477 6.95483L5.22473 6.89478C11.9947 6.54478 23.3447 4.60499 24.9847 0.86499L25.3248 0.0949707H37.9548L38.3348 0.464844C38.4148 0.544844 46.5047 8.26498 57.2947 7.60498L58.1948 7.54492L62.7847 17.875L61.7648 18.4548C61.6648 18.5148 51.6848 24.315 52.3348 34.605C52.9848 45.055 61.5247 50.9148 61.6147 50.9648L62.7148 51.7048L55.1747 62.3149L54.4247 62.2349C54.2947 62.2249 40.7148 60.935 32.8248 71.125L31.5948 72.7249L31.5748 72.7349ZM9.87476 58.4949C23.1548 58.5149 29.6047 65.0748 31.9147 68.1848C39.6647 59.5448 50.8647 59.455 53.9147 59.625L59.0948 52.325C56.5448 50.265 50.3347 44.3049 49.7347 34.7749C49.1147 24.8149 56.6847 18.735 59.4747 16.845L56.5347 10.2249C46.3447 10.5149 38.7247 4.29481 36.9147 2.68481H26.9147C23.5347 7.78481 10.5548 9.11479 6.43475 9.41479L5.23474 19.1848C10.5347 24.1148 13.1248 29.475 12.9348 35.125C12.6648 43.275 6.69477 49.5249 4.26477 51.7449L9.86475 58.5049L9.87476 58.4949Z" fill="url(#paint0_linear_321_7074)"/>
<defs>
<linearGradient id="paint0_linear_321_7074" x1="31.2147" y1="67.9549" x2="33.3247" y2="-10.155" gradientUnits="userSpaceOnUse">
<stop stop-color="#ED7225"/>
<stop offset="0.17" stop-color="#FDC80A"/>
<stop offset="0.45" stop-color="#047F45"/>
<stop offset="0.76" stop-color="#0C98CA"/>
<stop offset="0.97" stop-color="white"/>
</linearGradient>
</defs>
</svg>
