<svg width="274" height="140" viewBox="0 0 274 140" fill="none" xmlns="http://www.w3.org/2000/svg">
<g filter="url(#filter0_d_334_9226)">
<path d="M268.94 2.19482C268.94 75.7448 209.3 135.385 135.75 135.385C62.2001 135.385 2.56006 75.7448 2.56006 2.19482H52.7001C52.7001 48.0648 89.8801 85.2449 135.75 85.2449C181.62 85.2449 218.8 48.0648 218.8 2.19482H268.94Z" fill="url(#paint0_linear_334_9226)"/>
<path d="M268.94 2.19482C268.94 75.7448 209.3 135.385 135.75 135.385C62.2001 135.385 2.56006 75.7448 2.56006 2.19482H52.7001C52.7001 48.0648 89.8801 85.2449 135.75 85.2449C181.62 85.2449 218.8 48.0648 218.8 2.19482H268.94Z" stroke="white" stroke-width="0.7" stroke-miterlimit="10"/>
</g>
<defs>
<filter id="filter0_d_334_9226" x="0.789961" y="0.424849" width="272.76" height="139.57" filterUnits="userSpaceOnUse" color-interpolation-filters="sRGB">
<feFlood flood-opacity="0" result="BackgroundImageFix"/>
<feColorMatrix in="SourceAlpha" type="matrix" values="0 0 0 0 0 0 0 0 0 0 0 0 0 0 0 0 0 0 127 0" result="hardAlpha"/>
<feOffset dx="1.42" dy="1.42"/>
<feGaussianBlur stdDeviation="1.42"/>
<feColorMatrix type="matrix" values="0 0 0 0 1 0 0 0 0 1 0 0 0 0 1 0 0 0 0.5 0"/>
<feBlend mode="normal" in2="BackgroundImageFix" result="effect1_dropShadow_334_9226"/>
<feBlend mode="normal" in="SourceGraphic" in2="effect1_dropShadow_334_9226" result="shape"/>
</filter>
<linearGradient id="paint0_linear_334_9226" x1="2.56006" y1="68.7848" x2="268.94" y2="68.7848" gradientUnits="userSpaceOnUse">
<stop stop-color="#005693"/>
<stop offset="0.18" stop-color="#6DA55B"/>
<stop offset="0.38" stop-color="#009EE2"/>
<stop offset="0.59" stop-color="#28348A"/>
<stop offset="0.72" stop-color="#AEC90B"/>
<stop offset="0.85" stop-color="#FFCB00"/>
<stop offset="1" stop-color="#EB6608"/>
</linearGradient>
</defs>
</svg>
