<svg width="76" height="89" viewBox="0 0 76 89" fill="none" xmlns="http://www.w3.org/2000/svg">
<path d="M37.9152 88.4548L36.7852 86.2849C36.5252 85.7949 30.2151 74.3149 11.5151 74.3149C11.3051 74.3149 11.0852 74.3149 10.8752 74.3149H10.1252L0.365234 62.5549L1.62524 61.5549C1.72524 61.4749 11.8252 53.3848 12.1652 42.6848C12.3552 36.5948 9.35513 30.7349 3.25513 25.2549L2.64514 24.7048L4.61523 8.64478L5.93518 8.57495C14.1452 8.15495 27.9152 5.79488 29.9052 1.25488L30.3152 0.314941H45.6351L46.0952 0.754883C46.1952 0.844883 56.0852 10.2048 69.0952 9.4248L70.1852 9.35498L75.7551 21.8948L74.5151 22.595C74.3951 22.665 62.2952 29.7048 63.0652 42.1948C63.8552 54.8748 74.2152 61.9749 74.3252 62.0449L75.6652 62.9448L66.5151 75.825L65.6052 75.7349C65.4452 75.7149 48.9752 74.1649 39.4052 86.5149L37.9052 88.4548H37.9152ZM11.5852 71.1748C27.6852 71.1948 35.5252 79.1648 38.3252 82.9248C47.7252 72.4448 61.3251 72.3449 65.0151 72.5449L71.3052 63.6948C68.2152 61.1948 60.6752 53.9648 59.9552 42.3948C59.2052 30.3148 68.3851 22.9348 71.7751 20.6348L68.2052 12.605C55.8252 12.915 46.5952 5.40483 44.4052 3.45483H32.2751C28.1651 9.63483 12.4252 11.255 7.42517 11.625L5.97522 23.4749C12.3952 29.4549 15.5452 35.9549 15.3152 42.8049C14.9952 52.6949 7.74517 60.2849 4.79517 62.9749L11.5952 71.1748H11.5852Z" fill="url(#paint0_linear_321_7075)"/>
<defs>
<linearGradient id="paint0_linear_321_7075" x1="38.6252" y1="85.0748" x2="37.3452" y2="-12.255" gradientUnits="userSpaceOnUse">
<stop stop-color="#ED7225"/>
<stop offset="0.17" stop-color="#FDC80A"/>
<stop offset="0.45" stop-color="#047F45"/>
<stop offset="0.76" stop-color="#0C98CA"/>
<stop offset="0.97" stop-color="white"/>
</linearGradient>
</defs>
</svg>
