<svg width="101" height="70" viewBox="0 0 101 70" fill="none" xmlns="http://www.w3.org/2000/svg">
<path d="M83.9049 35.5049L81.495 38.7649V27.5249H67.5349V14.0349H53.735C53.575 13.9649 53.3949 13.9148 53.1949 13.9148C52.9949 13.9148 52.8249 13.9549 52.6549 14.0349H38.2649V39.5449H33.6349V30.7549H36.3349V22.365H30.0049V11.575H21.0949V2.22485C21.0949 1.49485 20.5049 0.904785 19.7749 0.904785C19.0449 0.904785 18.4549 1.49485 18.4549 2.22485V11.575H9.65488V22.365H1.91489V30.5149H5.31491V39.5449H0.964938L0.91489 40.8149C0.59489 48.7349 6.48494 55.4048 8.46494 57.4148L4.45493 69.4548H84.5349L100.365 35.4949H83.9049V35.5049ZM78.8549 30.1748V39.5549H67.5449V30.1748H78.8549ZM54.5249 39.5549V30.1748H64.9049V39.5549H54.5249ZM64.9049 27.5349H54.5249V16.6948H64.9049V27.5349ZM51.8849 16.6948V27.5349H40.9249V16.6948H51.8849ZM40.9249 30.1848H51.8849V39.5649H40.9249V30.1848ZM12.3049 14.2349H27.375V22.3848H12.3049V14.2349ZM7.96494 30.5349H11.3349C12.0649 30.5349 12.6549 29.9448 12.6549 29.2148C12.6549 28.4848 12.0649 27.8948 11.3349 27.8948H4.56491V25.0249H28.1649C28.3249 25.0949 28.5049 25.1448 28.6949 25.1448C28.8849 25.1448 29.0649 25.1049 29.2249 25.0249H33.7049V28.125H14.9749C14.2449 28.125 13.6549 28.7148 13.6549 29.4448C13.6549 30.1748 14.2449 30.7649 14.9749 30.7649H31.0149V39.5549H7.97495V30.5249L7.96494 30.5349ZM82.8549 66.835H8.12497L11.0449 58.085C11.0449 58.085 11.085 58.095 11.105 58.095H67.985C68.715 58.095 69.3049 57.5049 69.3049 56.7749C69.3049 56.0449 68.715 55.4548 67.985 55.4548H11.105C10.855 55.4548 10.6349 55.5448 10.4449 55.6548C8.93492 54.1248 3.96493 48.6248 3.58493 42.2048H79.0749C79.3049 42.5848 79.7049 42.845 80.1849 42.845C80.6649 42.845 81.0649 42.5748 81.2949 42.2048H82.2649L85.2549 38.1548H96.235L88.2249 55.335H72.7949C72.0649 55.335 71.4749 55.9248 71.4749 56.6548C71.4749 57.3848 72.0649 57.9749 72.7949 57.9749H86.985L82.8549 66.825V66.835Z" fill="url(#paint0_linear_321_7072)"/>
<defs>
<linearGradient id="paint0_linear_321_7072" x1="50.1549" y1="69.1748" x2="51.2049" y2="1.62479" gradientUnits="userSpaceOnUse">
<stop stop-color="#ED7225"/>
<stop offset="0.17" stop-color="#FDC80A"/>
<stop offset="0.45" stop-color="#047F45"/>
<stop offset="0.76" stop-color="#0C98CA"/>
<stop offset="0.97" stop-color="white"/>
</linearGradient>
</defs>
</svg>
