<svg width="75" height="52" viewBox="0 0 75 52" fill="none" xmlns="http://www.w3.org/2000/svg">
<path d="M69.3502 11.9348C69.0302 10.3848 68.8202 8.14477 69.2502 7.17477C70.4102 4.56477 69.6002 2.07475 68.7702 1.03475C67.9302 -0.0152494 66.9302 0.0547163 66.5402 0.124716C64.2102 0.584716 62.8702 2.68481 61.9002 4.22481C61.7202 4.51481 61.4802 4.88477 61.2702 5.18477C60.7902 4.70477 60.1602 3.89475 59.7702 3.40475C58.5502 1.84475 57.5902 0.624716 56.2202 0.374716C55.4502 0.234716 54.6802 0.464702 54.1002 0.984702C53.7702 1.2847 52.8802 2.10479 52.8502 5.32479H11.1502C5.39018 5.32479 0.700195 10.0148 0.700195 15.7848V35.3647H0.740173V40.9047C0.740173 42.0047 1.64017 42.9047 2.74017 42.9047C3.84017 42.9047 4.74017 42.0047 4.74017 40.9047V35.3647H7.65018V49.3148C7.65018 50.4148 8.55018 51.3148 9.65018 51.3148C10.7502 51.3148 11.6502 50.4148 11.6502 49.3148V35.3647H15.4202L15.1902 48.2747C15.1702 49.3747 16.0502 50.2948 17.1502 50.3148H17.1902C18.2802 50.3148 19.1702 49.4447 19.1902 48.3547L19.4202 35.3747H39.5502V49.1948C39.5502 50.2948 40.4502 51.1948 41.5502 51.1948C42.6502 51.1948 43.5502 50.2948 43.5502 49.1948V35.3747H48.0902V48.9448C48.0902 50.0448 48.9902 50.9448 50.0902 50.9448C51.1902 50.9448 52.0902 50.0448 52.0902 48.9448V35.3747H53.7302C57.5102 35.3747 58.8802 28.5247 59.3202 24.5147C59.9802 23.7947 63.9702 23.8748 65.9002 23.9148C69.5702 23.9848 72.4702 24.0447 73.9402 22.4047C74.5802 21.6847 74.8802 20.7747 74.8002 19.7647C74.5902 16.8747 71.0502 13.4448 69.3502 11.9548V11.9348ZM65.9902 19.9047C61.5002 19.8147 55.9002 19.7048 55.4002 23.9648C54.9102 28.0948 53.9102 30.6547 53.3702 31.3647H4.72018V15.7848C4.72018 12.2248 7.62018 9.32479 11.1802 9.32479H57.1502L56.9602 7.15475C56.9302 6.84475 56.9102 6.52479 56.9002 6.20479C58.2102 7.87479 59.5902 9.49471 61.4102 9.49471C63.3202 9.49471 64.3702 7.83472 65.2902 6.37472C65.3102 6.34472 65.3202 6.32476 65.3402 6.29476C64.5502 9.03476 65.4202 12.7447 65.6202 13.5247L65.7802 14.1447L66.2702 14.5548C68.3702 16.3048 70.3702 18.6547 70.7502 19.7447C69.7902 19.9847 67.5402 19.9347 65.9902 19.9047Z" fill="#AEC90B"/>
</svg>
