<svg width="274" height="141" viewBox="0 0 274 141" fill="none" xmlns="http://www.w3.org/2000/svg">
<g filter="url(#filter0_d_334_9224)">
<path d="M268.76 2.19482C268.76 75.7448 209.12 135.385 135.57 135.385C62.0198 135.385 2.37988 75.7448 2.37988 2.19482H52.5199C52.5199 48.0648 89.6998 85.2449 135.57 85.2449C181.44 85.2449 218.62 48.0648 218.62 2.19482H268.76Z" fill="url(#paint0_linear_334_9224)"/>
<path d="M268.76 2.19482C268.76 75.7448 209.12 135.385 135.57 135.385C62.0198 135.385 2.37988 75.7448 2.37988 2.19482H52.5199C52.5199 48.0648 89.6998 85.2449 135.57 85.2449C181.44 85.2449 218.62 48.0648 218.62 2.19482H268.76Z" stroke="white" stroke-miterlimit="10"/>
</g>
<defs>
<filter id="filter0_d_334_9224" x="0.459883" y="0.274824" width="273.06" height="139.87" filterUnits="userSpaceOnUse" color-interpolation-filters="sRGB">
<feFlood flood-opacity="0" result="BackgroundImageFix"/>
<feColorMatrix in="SourceAlpha" type="matrix" values="0 0 0 0 0 0 0 0 0 0 0 0 0 0 0 0 0 0 127 0" result="hardAlpha"/>
<feOffset dx="1.42" dy="1.42"/>
<feGaussianBlur stdDeviation="1.42"/>
<feColorMatrix type="matrix" values="0 0 0 0 1 0 0 0 0 1 0 0 0 0 1 0 0 0 0.5 0"/>
<feBlend mode="normal" in2="BackgroundImageFix" result="effect1_dropShadow_334_9224"/>
<feBlend mode="normal" in="SourceGraphic" in2="effect1_dropShadow_334_9224" result="shape"/>
</filter>
<linearGradient id="paint0_linear_334_9224" x1="2.37988" y1="68.7848" x2="268.76" y2="68.7848" gradientUnits="userSpaceOnUse">
<stop stop-color="#005693"/>
<stop offset="0.18" stop-color="#6DA55B"/>
<stop offset="0.38" stop-color="#009EE2"/>
<stop offset="0.59" stop-color="#28348A"/>
<stop offset="0.72" stop-color="#AEC90B"/>
<stop offset="0.85" stop-color="#FFCB00"/>
<stop offset="1" stop-color="#EB6608"/>
</linearGradient>
</defs>
</svg>
