<svg width="85" height="49" viewBox="0 0 85 49" fill="none" xmlns="http://www.w3.org/2000/svg">
<path d="M84.9951 24.0649L68.165 6.74487H53.795V0.764893H0.955078V43.0449H13.9551C15.0451 46.1749 18.015 48.4448 21.515 48.4448C25.015 48.4448 27.9851 46.1849 29.0751 43.0449H54.1151C54.3051 43.0449 54.485 43.0048 54.645 42.9248H63.9851C65.0351 46.1248 68.0451 48.4348 71.5851 48.4348C75.3451 48.4348 78.4951 45.835 79.3551 42.335H84.9851V24.0549L84.9951 24.0649ZM80.885 23.6348H63.295V15.375H72.8551L80.885 23.6348ZM51.155 3.40479V7.94482C51.155 8.49482 51.4951 8.96479 51.9751 9.16479V27.615H3.59509V3.39478H51.145L51.155 3.40479ZM21.515 45.7949C18.555 45.7949 16.155 43.3848 16.155 40.4348C16.155 37.4848 18.565 35.075 21.515 35.075C24.465 35.075 26.8751 37.4848 26.8751 40.4348C26.8751 43.3848 24.465 45.7949 21.515 45.7949ZM21.515 32.4248C17.115 32.4248 13.525 35.9948 13.505 40.3948H3.59509V30.2549H51.9751V40.3948H29.515C29.495 35.9948 25.915 32.4248 21.515 32.4248ZM71.5951 45.7949C68.6351 45.7949 66.2351 43.3848 66.2351 40.4348C66.2351 37.4848 68.6451 35.075 71.5951 35.075C74.5451 35.075 76.9551 37.4848 76.9551 40.4348C76.9551 43.3848 74.5451 45.7949 71.5951 45.7949ZM79.5651 39.6948C79.1951 35.6248 75.7651 32.4248 71.5951 32.4248C67.4251 32.4248 63.6751 35.9349 63.5951 40.2849H54.6151V9.38477H67.045L70.285 12.7249H60.645V26.2749H82.3451V39.7048H79.5551L79.5651 39.6948Z" fill="url(#paint0_linear_321_7071)"/>
<defs>
<linearGradient id="paint0_linear_321_7071" x1="43.7751" y1="56.9548" x2="41.6551" y2="-5.3251" gradientUnits="userSpaceOnUse">
<stop stop-color="#ED7225"/>
<stop offset="0.17" stop-color="#FDC80A"/>
<stop offset="0.45" stop-color="#047F45"/>
<stop offset="0.76" stop-color="#0C98CA"/>
<stop offset="0.97" stop-color="white"/>
</linearGradient>
</defs>
</svg>
