<svg width="68" height="69" viewBox="0 0 68 69" fill="none" xmlns="http://www.w3.org/2000/svg">
<path d="M67.4648 67.0149C66.8348 62.3649 63.4648 58.1148 57.4648 54.3848C54.4748 52.5248 51.3048 50.9348 48.0248 49.6548L47.7449 49.5449C46.5949 49.0949 45.4048 48.6348 44.5648 47.9348C44.3448 47.7448 44.1449 47.545 43.9849 47.325C42.7949 45.755 43.1248 43.3649 43.5648 41.0449V41.0049C47.4148 36.8949 49.9148 30.3549 49.9148 22.9749C49.9148 10.5549 42.8648 0.454834 34.1948 0.454834C25.5248 0.454834 18.4749 10.5549 18.4749 22.9749C18.4749 30.4949 21.0748 37.1549 25.0448 41.2449C25.4748 43.5349 25.7948 46.0549 24.4548 47.5549C23.7648 48.3249 22.6448 48.7949 21.5548 49.2349C13.9748 52.3649 2.52477 57.0849 1.13477 67.0049L0.924805 68.4749H67.6748L67.4749 67.0049L67.4648 67.0149ZM34.1848 3.03491C41.4248 3.03491 47.3148 11.9748 47.3148 22.9648C47.3148 33.9548 41.4248 42.9048 34.1848 42.9048C26.9448 42.9048 21.0548 33.9648 21.0548 22.9648C21.0548 11.9648 26.9448 3.03491 34.1848 3.03491ZM3.99487 65.8948C6.12487 58.4048 15.9148 54.3648 22.5348 51.6348C23.8248 51.1048 25.2949 50.4949 26.3749 49.2749C27.7649 47.7149 28.0549 45.685 27.9849 43.855C30.0249 45.055 32.4548 45.685 34.9348 45.605C36.6448 45.555 38.7648 44.9648 40.5848 43.9048C40.5148 45.6648 40.8048 47.415 41.9148 48.875C42.1948 49.245 42.5248 49.5848 42.8948 49.9048C44.0548 50.8848 45.5148 51.4448 46.8048 51.9448L47.0848 52.0549C50.2148 53.2749 53.2448 54.7949 56.0948 56.5649C60.7348 59.4449 63.5848 62.5748 64.5848 65.8848H4.00476L3.99487 65.8948Z" fill="url(#paint0_linear_321_7073)"/>
<defs>
<linearGradient id="paint0_linear_321_7073" x1="33.6848" y1="81.3349" x2="37.9148" y2="-8.39517" gradientUnits="userSpaceOnUse">
<stop stop-color="#ED7225"/>
<stop offset="0.17" stop-color="#FDC80A"/>
<stop offset="0.45" stop-color="#047F45"/>
<stop offset="0.76" stop-color="#0C98CA"/>
<stop offset="0.97" stop-color="white"/>
</linearGradient>
</defs>
</svg>
