<svg width="57" height="57" viewBox="0 0 57 57" fill="none" xmlns="http://www.w3.org/2000/svg">
<path d="M54.3694 17.502H32.4994V21.822H55.7494C55.3994 20.342 54.9394 18.892 54.3594 17.502M48.7793 8.85203H32.4894V13.182H52.1293C51.1593 11.642 50.0393 10.192 48.7793 8.85203ZM7.86938 47.762H48.6493C49.9093 46.442 51.0493 45.002 52.0493 43.442H4.47937C5.46937 44.982 6.59938 46.432 7.86938 47.762ZM35.0393 0.842033C34.1893 0.632033 33.3394 0.462031 32.4994 0.332031V4.53203H43.5994C41.0394 2.87203 38.1693 1.61203 35.0393 0.832031M56.4093 26.142H32.4994V30.472H56.3993C56.5193 29.022 56.5193 27.572 56.4193 26.142M2.21936 39.112H54.3093C54.8593 37.802 55.3093 36.432 55.6593 35.012C55.6793 34.942 55.6894 34.862 55.7094 34.792H0.799316C1.15932 36.272 1.62935 37.722 2.20935 39.122M21.4694 55.642C23.1394 56.052 24.8094 56.312 26.4694 56.422H30.0593C34.8393 56.112 39.3994 54.592 43.3494 52.092H13.1393C15.6393 53.672 18.4394 54.892 21.4694 55.642Z" fill="#E42918"/>
</svg>
