<svg width="274" height="140" viewBox="0 0 274 140" fill="none" xmlns="http://www.w3.org/2000/svg">
<g filter="url(#filter0_d_334_9258)">
<path d="M268.95 2.19482C268.95 75.7448 209.31 135.385 135.76 135.385C62.2098 135.385 2.56982 75.7448 2.56982 2.19482H52.7098C52.7098 48.0648 89.8898 85.2449 135.76 85.2449C181.63 85.2449 218.81 48.0648 218.81 2.19482H268.95Z" fill="url(#paint0_linear_334_9258)"/>
<path d="M268.95 2.19482C268.95 75.7448 209.31 135.385 135.76 135.385C62.2098 135.385 2.56982 75.7448 2.56982 2.19482H52.7098C52.7098 48.0648 89.8898 85.2449 135.76 85.2449C181.63 85.2449 218.81 48.0648 218.81 2.19482H268.95Z" stroke="white" stroke-width="0.7" stroke-miterlimit="10"/>
</g>
<defs>
<filter id="filter0_d_334_9258" x="0.799727" y="0.424849" width="272.76" height="139.57" filterUnits="userSpaceOnUse" color-interpolation-filters="sRGB">
<feFlood flood-opacity="0" result="BackgroundImageFix"/>
<feColorMatrix in="SourceAlpha" type="matrix" values="0 0 0 0 0 0 0 0 0 0 0 0 0 0 0 0 0 0 127 0" result="hardAlpha"/>
<feOffset dx="1.42" dy="1.42"/>
<feGaussianBlur stdDeviation="1.42"/>
<feColorMatrix type="matrix" values="0 0 0 0 1 0 0 0 0 1 0 0 0 0 1 0 0 0 0.5 0"/>
<feBlend mode="normal" in2="BackgroundImageFix" result="effect1_dropShadow_334_9258"/>
<feBlend mode="normal" in="SourceGraphic" in2="effect1_dropShadow_334_9258" result="shape"/>
</filter>
<linearGradient id="paint0_linear_334_9258" x1="2.56982" y1="68.7848" x2="268.95" y2="68.7848" gradientUnits="userSpaceOnUse">
<stop stop-color="#005693"/>
<stop offset="0.18" stop-color="#6DA55B"/>
<stop offset="0.38" stop-color="#009EE2"/>
<stop offset="0.59" stop-color="#28348A"/>
<stop offset="0.72" stop-color="#AEC90B"/>
<stop offset="0.85" stop-color="#FFCB00"/>
<stop offset="1" stop-color="#EB6608"/>
</linearGradient>
</defs>
</svg>
