<svg width="32" height="32" viewBox="0 0 32 32" fill="none" xmlns="http://www.w3.org/2000/svg">
<path d="M28.2884 3.70389C26.0848 1.50019 23.1451 0.187842 20.0333 0.0186597C16.9215 -0.150522 13.8568 0.83538 11.4272 2.78719C8.99774 4.73899 7.37456 7.51922 6.86916 10.5944C6.36377 13.6695 7.01176 16.823 8.6888 19.4497L0.140505 28.0004C0.0505295 28.0906 0 28.2128 0 28.3402C0 28.4676 0.0505295 28.5898 0.140505 28.68L2.36328 30.9028C2.70494 31.244 3.16804 31.4356 3.65088 31.4356C4.13371 31.4356 4.59681 31.244 4.93847 30.9028L11.7247 24.1166C11.8157 24.0266 11.8674 23.9042 11.8681 23.7762C11.8689 23.6482 11.8188 23.5251 11.7289 23.434C11.6389 23.3429 11.5165 23.2913 11.3885 23.2905C11.2604 23.2897 11.1374 23.3398 11.0463 23.4298L4.25889 30.222C4.09746 30.3829 3.87882 30.4733 3.65088 30.4733C3.42294 30.4733 3.20429 30.3829 3.04286 30.222L1.15807 28.3372L9.5476 19.9477C9.6532 19.8417 9.71882 19.7024 9.73329 19.5535C9.74777 19.4046 9.7102 19.2553 9.62699 19.131C8.34033 17.2095 7.65489 14.9484 7.658 12.6359C7.658 6.27186 12.83 1.02525 19.1941 0.938649C20.7551 0.925013 22.3033 1.22243 23.7482 1.81354C25.193 2.40465 26.5057 3.27762 27.6096 4.3815C28.7135 5.48538 29.5865 6.79807 30.1776 8.24295C30.7687 9.68784 31.0661 11.236 31.0525 12.7971C30.9659 19.1587 25.7192 24.3331 19.3444 24.3331C19.3083 24.3331 15.7805 24.3836 13.2691 21.8902C12.4404 21.0613 11.8413 20.0313 11.5304 18.9012C11.2194 17.7711 11.2074 16.5796 11.4954 15.4435C11.7833 14.3073 12.3615 13.2654 13.1732 12.4199C13.9849 11.5744 15.0023 10.9541 16.1257 10.62C18.126 10.116 25.5172 8.96012 25.5172 8.96012L18.12 16.3585V12.8343C18.12 12.7067 18.0693 12.5844 17.979 12.4941C17.8888 12.4039 17.7664 12.3532 17.6388 12.3532C17.5112 12.3532 17.3889 12.4039 17.2986 12.4941C17.2084 12.5844 17.1577 12.7067 17.1577 12.8343V17.316L14.959 19.5159C14.8687 19.6062 14.818 19.7286 14.818 19.8563C14.818 19.984 14.8687 20.1064 14.959 20.1967C15.0493 20.287 15.1717 20.3377 15.2994 20.3377C15.4271 20.3377 15.5495 20.287 15.6398 20.1967L17.8385 17.9968H22.3201C22.4477 17.9968 22.5701 17.9461 22.6603 17.8558C22.7506 17.7656 22.8013 17.6432 22.8013 17.5156C22.8013 17.388 22.7506 17.2657 22.6603 17.1754C22.5701 17.0852 22.4477 17.0345 22.3201 17.0345H18.8031L27.3791 8.45735C27.3847 8.45123 27.3899 8.44481 27.3947 8.43811C27.4054 8.42439 27.415 8.40991 27.4236 8.3948L27.4477 8.35752C27.4558 8.34399 27.4631 8.32992 27.4693 8.31542C27.4764 8.30143 27.4824 8.28696 27.4874 8.27212C27.4874 8.25769 27.497 8.24325 27.5006 8.22762C27.5042 8.21198 27.5006 8.19875 27.509 8.18311C27.5174 8.16747 27.509 8.15184 27.509 8.135V8.0941C27.509 8.07847 27.509 8.06283 27.509 8.0472C27.5066 8.03052 27.5029 8.01405 27.4982 7.99788C27.4988 7.98947 27.4988 7.98103 27.4982 7.97262C27.4963 7.9668 27.4939 7.96117 27.491 7.95578C27.4852 7.93972 27.4783 7.92405 27.4705 7.90887C27.4644 7.89489 27.4576 7.88124 27.4501 7.86798L27.4236 7.83189C27.4141 7.81724 27.4033 7.80355 27.3911 7.791L27.3791 7.77657L27.3611 7.76093C27.3478 7.7501 27.3346 7.73808 27.3202 7.72845C27.3057 7.71883 27.2949 7.71161 27.2829 7.70319L27.2408 7.68154L27.1975 7.66471C27.1831 7.65903 27.1682 7.65461 27.153 7.65147L27.1085 7.64185H27.0616H27.0147H26.9702L26.9184 7.65268H26.8944C26.8944 7.65268 18.5397 9.02146 15.8046 9.69744H15.7937C14.522 10.0862 13.3722 10.7967 12.4555 11.76C11.5388 12.7234 10.8864 13.9071 10.5612 15.1966C10.2361 16.486 10.2493 17.8376 10.5995 19.1204C10.9498 20.4033 11.6253 21.574 12.5606 22.5193C12.5642 22.5248 12.5683 22.53 12.5726 22.5349C15.3511 25.3134 19.1207 25.2821 19.3612 25.2761C21.8614 25.278 24.3059 24.5377 26.385 23.1491C28.4641 21.7605 30.0842 19.7861 31.0402 17.4759C31.9962 15.1658 32.2451 12.6238 31.7552 10.1721C31.2653 7.72043 30.0588 5.46929 28.2884 3.70389Z" fill="white"/>
<path d="M19.3473 24.3305C19.3112 24.3305 15.7834 24.381 13.2719 21.8876C12.4433 21.0586 11.8442 20.0287 11.5332 18.8986C11.2223 17.7685 11.2102 16.577 11.4982 15.4408C11.7862 14.3047 12.3644 13.2628 13.176 12.4172C13.9877 11.5717 15.0051 10.9515 16.1286 10.6173C18.1288 10.1134 25.52 8.95746 25.52 8.95746L18.1228 16.3559V12.8341C18.1228 12.7065 18.0721 12.5841 17.9819 12.4939C17.8917 12.4037 17.7693 12.353 17.6417 12.353C17.5141 12.353 17.3917 12.4037 17.3015 12.4939C17.2113 12.5841 17.1606 12.7065 17.1606 12.8341V17.3157L14.9619 19.5156C14.8716 19.6059 14.8209 19.7284 14.8209 19.856C14.8209 19.9837 14.8716 20.1061 14.9619 20.1964C15.0521 20.2867 15.1746 20.3374 15.3023 20.3374C15.4299 20.3374 15.5524 20.2867 15.6426 20.1964L17.8414 17.9965H22.323C22.4506 17.9965 22.573 17.9458 22.6632 17.8556C22.7534 17.7654 22.8041 17.643 22.8041 17.5154C22.8041 17.3878 22.7534 17.2654 22.6632 17.1752C22.573 17.085 22.4506 17.0343 22.323 17.0343H18.806L27.382 8.4571C27.3875 8.45098 27.3928 8.44456 27.3976 8.43786C27.4083 8.42414 27.4179 8.40966 27.4265 8.39455L27.4505 8.35727C27.4587 8.34374 27.4659 8.32967 27.4722 8.31517C27.4792 8.30118 27.4852 8.28671 27.4902 8.27187C27.4902 8.25744 27.4998 8.243 27.5035 8.22737C27.5071 8.21173 27.5035 8.1985 27.5119 8.18286C27.5203 8.16722 27.5119 8.15159 27.5119 8.13475V8.09385C27.5119 8.07822 27.5119 8.06258 27.5119 8.04695C27.5094 8.03027 27.5058 8.0138 27.5011 7.99763C27.5016 7.98922 27.5016 7.98078 27.5011 7.97237C27.4992 7.96655 27.4967 7.96091 27.4938 7.95553C27.488 7.93947 27.4812 7.9238 27.4734 7.90862C27.4673 7.89464 27.4605 7.88099 27.4529 7.86773L27.4265 7.83164C27.417 7.81699 27.4061 7.8033 27.394 7.79075L27.382 7.77632L27.3639 7.76068C27.3507 7.74985 27.3375 7.73783 27.323 7.7282C27.3086 7.71858 27.2978 7.71136 27.2858 7.70294L27.2437 7.68129L27.2004 7.66445C27.1859 7.65878 27.171 7.65436 27.1558 7.65122L27.1113 7.6416H27.0644H27.0175H26.973L26.9213 7.65243H26.8972C26.8972 7.65243 18.5426 9.02121 15.8074 9.69719H15.7966C14.5249 10.086 13.3751 10.7964 12.4584 11.7598C11.5417 12.7232 10.8892 13.9069 10.5641 15.1963C10.2389 16.4858 10.2521 17.8373 10.6024 19.1202C10.9527 20.403 11.6282 21.5737 12.5635 22.519C12.5671 22.5245 12.5711 22.5298 12.5755 22.5347C15.354 25.3131 19.1236 25.2819 19.3641 25.2759C22.6929 25.2827 25.8887 23.97 28.2516 21.6254C30.6331 19.2883 25.7221 24.3305 19.3473 24.3305Z" fill="white"/>
</svg>
