<svg width="24" height="24" viewBox="0 0 24 24" fill="none" xmlns="http://www.w3.org/2000/svg">
<path d="M5.74627 19.6155C5.36615 19.6155 5.0442 19.4836 4.78042 19.2198C4.51665 18.956 4.38477 18.6341 4.38477 18.254C4.38477 17.8738 4.51665 17.5519 4.78042 17.2881C5.0442 17.0243 5.36615 16.8924 5.74627 16.8924C6.1264 16.8924 6.44835 17.0243 6.71212 17.2881C6.9759 17.5519 7.10779 17.8738 7.10779 18.254C7.10779 18.6341 6.9759 18.956 6.71212 19.2198C6.44835 19.4836 6.1264 19.6155 5.74627 19.6155ZM12.0001 19.6155C11.62 19.6155 11.298 19.4836 11.0343 19.2198C10.7705 18.956 10.6386 18.6341 10.6386 18.254C10.6386 17.8738 10.7705 17.5519 11.0343 17.2881C11.298 17.0243 11.62 16.8924 12.0001 16.8924C12.3802 16.8924 12.7022 17.0243 12.966 17.2881C13.2297 17.5519 13.3616 17.8738 13.3616 18.254C13.3616 18.6341 13.2297 18.956 12.966 19.2198C12.7022 19.4836 12.3802 19.6155 12.0001 19.6155ZM18.254 19.6155C17.8738 19.6155 17.5519 19.4836 17.2881 19.2198C17.0243 18.956 16.8924 18.6341 16.8924 18.254C16.8924 17.8738 17.0243 17.5519 17.2881 17.2881C17.5519 17.0243 17.8738 16.8924 18.254 16.8924C18.6341 16.8924 18.956 17.0243 19.2198 17.2881C19.4836 17.5519 19.6155 17.8738 19.6155 18.254C19.6155 18.6341 19.4836 18.956 19.2198 19.2198C18.956 19.4836 18.6341 19.6155 18.254 19.6155ZM5.74627 13.3616C5.36615 13.3616 5.0442 13.2297 4.78042 12.966C4.51665 12.7022 4.38477 12.3802 4.38477 12.0001C4.38477 11.62 4.51665 11.298 4.78042 11.0343C5.0442 10.7705 5.36615 10.6386 5.74627 10.6386C6.1264 10.6386 6.44835 10.7705 6.71212 11.0343C6.9759 11.298 7.10779 11.62 7.10779 12.0001C7.10779 12.3802 6.9759 12.7022 6.71212 12.966C6.44835 13.2297 6.1264 13.3616 5.74627 13.3616ZM12.0001 13.3616C11.62 13.3616 11.298 13.2297 11.0343 12.966C10.7705 12.7022 10.6386 12.3802 10.6386 12.0001C10.6386 11.62 10.7705 11.298 11.0343 11.0343C11.298 10.7705 11.62 10.6386 12.0001 10.6386C12.3802 10.6386 12.7022 10.7705 12.966 11.0343C13.2297 11.298 13.3616 11.62 13.3616 12.0001C13.3616 12.3802 13.2297 12.7022 12.966 12.966C12.7022 13.2297 12.3802 13.3616 12.0001 13.3616ZM18.254 13.3616C17.8738 13.3616 17.5519 13.2297 17.2881 12.966C17.0243 12.7022 16.8924 12.3802 16.8924 12.0001C16.8924 11.62 17.0243 11.298 17.2881 11.0343C17.5519 10.7705 17.8738 10.6386 18.254 10.6386C18.6341 10.6386 18.956 10.7705 19.2198 11.0343C19.4836 11.298 19.6155 11.62 19.6155 12.0001C19.6155 12.3802 19.4836 12.7022 19.2198 12.966C18.956 13.2297 18.6341 13.3616 18.254 13.3616ZM5.74627 7.10779C5.36615 7.10779 5.0442 6.9759 4.78042 6.71212C4.51665 6.44835 4.38477 6.1264 4.38477 5.74627C4.38477 5.36615 4.51665 5.0442 4.78042 4.78042C5.0442 4.51665 5.36615 4.38477 5.74627 4.38477C6.1264 4.38477 6.44835 4.51665 6.71212 4.78042C6.9759 5.0442 7.10779 5.36615 7.10779 5.74627C7.10779 6.1264 6.9759 6.44835 6.71212 6.71212C6.44835 6.9759 6.1264 7.10779 5.74627 7.10779ZM12.0001 7.10779C11.62 7.10779 11.298 6.9759 11.0343 6.71212C10.7705 6.44835 10.6386 6.1264 10.6386 5.74627C10.6386 5.36615 10.7705 5.0442 11.0343 4.78042C11.298 4.51665 11.62 4.38477 12.0001 4.38477C12.3802 4.38477 12.7022 4.51665 12.966 4.78042C13.2297 5.0442 13.3616 5.36615 13.3616 5.74627C13.3616 6.1264 13.2297 6.44835 12.966 6.71212C12.7022 6.9759 12.3802 7.10779 12.0001 7.10779ZM18.254 7.10779C17.8738 7.10779 17.5519 6.9759 17.2881 6.71212C17.0243 6.44835 16.8924 6.1264 16.8924 5.74627C16.8924 5.36615 17.0243 5.0442 17.2881 4.78042C17.5519 4.51665 17.8738 4.38477 18.254 4.38477C18.6341 4.38477 18.956 4.51665 19.2198 4.78042C19.4836 5.0442 19.6155 5.36615 19.6155 5.74627C19.6155 6.1264 19.4836 6.44835 19.2198 6.71212C18.956 6.9759 18.6341 7.10779 18.254 7.10779Z" fill="#F8F8F8"/>
</svg>
