<svg width="24" height="24" viewBox="0 0 24 24" fill="none" xmlns="http://www.w3.org/2000/svg">
<path d="M12.9442 9.72115V14.2788C12.9442 14.4371 13.0218 14.546 13.1769 14.6053C13.332 14.6646 13.4647 14.6391 13.575 14.5288L15.598 12.5058C15.7416 12.361 15.8134 12.1921 15.8134 11.9991C15.8134 11.8061 15.7416 11.6378 15.598 11.4942L13.575 9.47115C13.4647 9.36088 13.332 9.3354 13.1769 9.3947C13.0218 9.454 12.9442 9.56282 12.9442 9.72115ZM4.94232 20.5C4.54906 20.5 4.21035 20.3579 3.9262 20.0738C3.64207 19.7896 3.5 19.4509 3.5 19.0576V4.94232C3.5 4.54906 3.64207 4.21035 3.9262 3.9262C4.21035 3.64207 4.54906 3.5 4.94232 3.5H19.0576C19.4509 3.5 19.7896 3.64207 20.0738 3.9262C20.3579 4.21035 20.5 4.54906 20.5 4.94232V19.0576C20.5 19.4509 20.3579 19.7896 20.0738 20.0738C19.7896 20.3579 19.4509 20.5 19.0576 20.5H4.94232ZM8.1269 19.3654V4.6346H4.94232C4.86539 4.6346 4.79487 4.66665 4.73075 4.73075C4.66665 4.79487 4.6346 4.86539 4.6346 4.94232V19.0576C4.6346 19.1346 4.66665 19.2051 4.73075 19.2692C4.79487 19.3333 4.86539 19.3654 4.94232 19.3654H8.1269ZM9.26148 19.3654H19.0576C19.1346 19.3654 19.2051 19.3333 19.2692 19.2692C19.3333 19.2051 19.3654 19.1346 19.3654 19.0576V4.94232C19.3654 4.86539 19.3333 4.79487 19.2692 4.73075C19.2051 4.66665 19.1346 4.6346 19.0576 4.6346H9.26148V19.3654Z" fill="#6E7469"/>
</svg>
