<svg width="24" height="24" viewBox="0 0 24 24" fill="none" xmlns="http://www.w3.org/2000/svg">
<path d="M21.638 6.0088L11.9006 1.0693C11.7091 0.976902 11.4892 0.976902 11.2977 1.0693L1.37588 6.0088C1.14184 6.12251 1 6.35705 1 6.61291V16.4066C1 16.6625 1.14893 16.897 1.37588 17.0107L11.2977 21.9289C11.3899 21.9716 11.4963 22 11.5956 22C11.702 22 11.8084 21.9716 11.9006 21.9289L21.631 16.9112C21.8579 16.7975 21.9997 16.563 21.9997 16.3142V6.61291C22.0068 6.35705 21.865 6.12251 21.638 6.0088ZM20.2976 6.52052L11.5956 10.9341L9.17011 9.72587L17.6736 5.19147L20.2976 6.52052ZM6.26235 8.2831L14.7091 3.68474L16.5175 4.60157L8.00701 9.14307L6.26235 8.2831ZM6.35455 12.6896L8.54601 14.7791V10.6001L11.0708 11.858V20.6212L2.06382 16.1579V7.38049L4.52478 8.60293V12.6896H6.35455ZM7.48219 12.2987L6.78007 11.6235H5.5886V9.13597L7.48219 10.0741V12.2987ZM2.73048 6.52052L11.6027 2.11405L13.5601 3.10906L5.09924 7.70031L2.73048 6.52052ZM20.943 7.3876V16.0655L12.1346 20.607V11.858L20.943 7.3876Z" fill="#6E7469"/>
</svg>
