<svg width="24" height="24" viewBox="0 0 24 24" fill="none" xmlns="http://www.w3.org/2000/svg">
<path d="M11.9253 12.4126C10.8951 12.4126 9.88801 12.1069 9.03159 11.5343C8.17517 10.9617 7.50787 10.1479 7.11417 9.19591C6.72047 8.2439 6.61806 7.19649 6.8199 6.18624C7.02175 5.176 7.51877 4.24835 8.24806 3.52071C8.97736 2.79307 9.90613 2.29815 10.9168 2.0986C11.9275 1.89905 12.9747 2.00384 13.9258 2.3997C14.8769 2.79557 15.6892 3.46471 16.2599 4.32243C16.8305 5.18015 17.1339 6.18789 17.1316 7.2181C17.1272 8.59646 16.5769 9.91694 15.6011 10.8905C14.6254 11.864 13.3036 12.4113 11.9253 12.4126ZM11.9253 2.94445C11.0847 2.94445 10.263 3.19371 9.56408 3.66071C8.86517 4.12771 8.32043 4.79148 7.99875 5.56807C7.67708 6.34466 7.59291 7.1992 7.7569 8.02362C7.92089 8.84805 8.32567 9.60533 8.92005 10.1997C9.51442 10.7941 10.2717 11.1989 11.0961 11.3629C11.9206 11.5268 12.7751 11.4427 13.5517 11.121C14.3283 10.7993 14.992 10.2546 15.459 9.55567C15.926 8.85676 16.1753 8.03506 16.1753 7.19448C16.1716 6.06845 15.7226 4.98961 14.9264 4.19338C14.1301 3.39716 13.0513 2.94819 11.9253 2.94445Z" fill="#F8F8F8"/>
<path d="M17.3181 21.0001C16.4776 21.0001 15.6559 20.7508 14.957 20.2838C14.258 19.8168 13.7133 19.153 13.3916 18.3764C13.07 17.5999 12.9858 16.7453 13.1498 15.9209C13.3138 15.0965 13.7185 14.3392 14.3129 13.7448C14.9073 13.1504 15.6646 12.7457 16.489 12.5817C17.3134 12.4177 18.168 12.5018 18.9446 12.8235C19.7212 13.1452 20.3849 13.6899 20.8519 14.3888C21.3189 15.0878 21.5682 15.9095 21.5682 16.75C21.5644 17.8761 21.1155 18.9549 20.3192 19.7511C19.523 20.5474 18.4442 20.9963 17.3181 21.0001ZM17.3181 13.2556C16.6289 13.2556 15.9551 13.46 15.382 13.8429C14.8089 14.2258 14.3622 14.7701 14.0984 15.4069C13.8346 16.0437 13.7656 16.7445 13.9001 17.4205C14.0346 18.0965 14.3665 18.7175 14.8539 19.2049C15.3413 19.6923 15.9622 20.0242 16.6383 20.1586C17.3143 20.2931 18.015 20.2241 18.6518 19.9603C19.2886 19.6966 19.8329 19.2499 20.2158 18.6768C20.5988 18.1037 20.8032 17.4299 20.8032 16.7406C20.8019 15.8167 20.4344 14.931 19.7811 14.2777C19.1278 13.6244 18.2421 13.2568 17.3181 13.2556Z" fill="#F8F8F8"/>
<path d="M13.2924 13.8549C13.2924 13.9183 13.2797 13.9811 13.2549 14.0395C13.2302 14.0979 13.1939 14.1507 13.1483 14.1948C13.1027 14.2389 13.0487 14.2733 12.9894 14.296C12.9302 14.3188 12.867 14.3293 12.8036 14.3271C12.5392 14.3153 12.27 14.3082 11.9938 14.3082C8.6882 14.3082 6.25624 15.2102 4.95054 16.9173C4.36619 17.6647 4.0162 18.5684 3.9447 19.5145C3.9447 19.6398 3.99445 19.7599 4.08301 19.8484C4.17157 19.937 4.29168 19.9867 4.41692 19.9867H13.6017C13.727 19.9867 13.8471 20.0365 13.9356 20.1251C14.0242 20.2136 14.0739 20.3337 14.0739 20.459C14.0739 20.5842 14.0242 20.7043 13.9356 20.7929C13.8471 20.8814 13.727 20.9312 13.6017 20.9312H4.41692C4.04119 20.9312 3.68086 20.7819 3.41518 20.5163C3.1495 20.2506 3.00024 19.8902 3.00024 19.5145C3.06444 18.3798 3.46837 17.2906 4.15956 16.3884C4.86807 15.463 5.80329 14.7359 6.87486 14.2775C8.26084 13.6613 9.98446 13.3496 11.9938 13.3496C12.2771 13.3496 12.5652 13.3496 12.8461 13.3732C12.9668 13.3799 13.0804 13.4325 13.1634 13.5204C13.2464 13.6082 13.2926 13.7246 13.2924 13.8454V13.8549Z" fill="#F8F8F8"/>
<path d="M19.3203 16.1672H17.8753V14.7222C17.8753 14.597 17.8255 14.4769 17.737 14.3883C17.6484 14.2998 17.5283 14.25 17.4031 14.25C17.2778 14.25 17.1577 14.2998 17.0691 14.3883C16.9806 14.4769 16.9308 14.597 16.9308 14.7222V16.1672H15.4835C15.3582 16.1672 15.2381 16.217 15.1495 16.3055C15.061 16.3941 15.0112 16.5142 15.0112 16.6395C15.0112 16.7647 15.061 16.8848 15.1495 16.9734C15.2381 17.0619 15.3582 17.1117 15.4835 17.1117H16.9308V18.5591C16.9308 18.6843 16.9806 18.8044 17.0691 18.893C17.1577 18.9815 17.2778 19.0313 17.4031 19.0313C17.5283 19.0313 17.6484 18.9815 17.737 18.893C17.8255 18.8044 17.8753 18.6843 17.8753 18.5591V17.1117H19.3203C19.4455 17.1117 19.5656 17.0619 19.6542 16.9734C19.7428 16.8848 19.7925 16.7647 19.7925 16.6395C19.7925 16.5142 19.7428 16.3941 19.6542 16.3055C19.5656 16.217 19.4455 16.1672 19.3203 16.1672Z" fill="#F8F8F8"/>
</svg>
