<svg width="24" height="24" viewBox="0 0 24 24" fill="none" xmlns="http://www.w3.org/2000/svg">
<path d="M5.6096 18.1727V18.1977H5.6346H18.3654H18.3904V18.1727V17.4092C18.3904 17.1433 18.3061 16.8891 18.1388 16.647C17.9716 16.405 17.7534 16.2151 17.4844 16.0774L17.484 16.0771C16.4993 15.5983 15.5699 15.2626 14.6958 15.0704C13.8223 14.8783 12.9237 14.7823 12 14.7823C11.0763 14.7823 10.1709 14.8783 9.28398 15.0704C8.39647 15.2626 7.46861 15.5983 6.50044 16.0772L6.50013 16.0774C6.23111 16.2151 6.01533 16.4051 5.85325 16.6473C5.69117 16.8894 5.6096 17.1435 5.6096 17.4092V18.1727ZM12 11.6515C11.0435 11.6515 10.2565 11.3415 9.63715 10.7221C9.01779 10.1027 8.7077 9.3142 8.7077 8.35447C8.7077 7.39472 9.01778 6.60782 9.63711 5.99167C10.2565 5.37548 11.0434 5.06699 12 5.06699C12.9565 5.06699 13.7435 5.37548 14.3628 5.99167L14.3805 5.97394L14.3628 5.99167C14.9822 6.60782 15.2922 7.39472 15.2922 8.35447C15.2922 9.3142 14.9822 10.1027 14.3628 10.7221C13.7434 11.3415 12.9565 11.6515 12 11.6515ZM4.525 19.2823V17.4092C4.525 16.8768 4.66597 16.414 4.94727 16.0199C5.22928 15.6249 5.59569 15.3213 6.04694 15.1089C7.09823 14.6416 8.11136 14.2896 9.08635 14.0528C10.0612 13.8161 11.0323 13.6977 11.9997 13.6977C12.967 13.6977 13.9356 13.8186 14.9055 14.0605C15.8757 14.3024 16.8844 14.6541 17.9316 15.1158C18.4007 15.3277 18.775 15.63 19.0552 16.0229C19.3348 16.415 19.475 16.8767 19.475 17.4092V19.2823H4.525ZM12 10.567C12.6305 10.567 13.1569 10.357 13.5773 9.93654C13.9976 9.51616 14.2077 8.98979 14.2077 8.35927C14.2077 7.72875 13.9976 7.20238 13.5773 6.78199C13.1569 6.3616 12.6305 6.15159 12 6.15159C11.3695 6.15159 10.8431 6.3616 10.4227 6.78199C10.0023 7.20238 9.7923 7.72875 9.7923 8.35927C9.7923 8.98979 10.0023 9.51616 10.4227 9.93655C10.8431 10.357 11.3695 10.567 12 10.567Z" fill="#6E7469" stroke="#6E7469" stroke-width="0.05"/>
</svg>
