<svg width="24" height="24" viewBox="0 0 24 24" fill="none" xmlns="http://www.w3.org/2000/svg">
<path d="M16.73 19.4918C16.73 19.6306 16.6749 19.7637 16.5767 19.8619C16.4786 19.96 16.3455 20.0151 16.2067 20.0151H9.07575C8.65194 20.0151 8.24549 19.8468 7.94582 19.5471C7.64614 19.2474 7.47778 18.841 7.47778 18.4172C7.53368 17.5091 7.87956 16.643 8.46453 15.9463C9.07296 15.2213 9.85492 14.662 10.7376 14.3204C11.8802 13.851 13.2984 13.6133 14.9523 13.6133C15.152 13.6133 15.3258 13.6133 15.5056 13.6253C15.64 13.6315 15.7668 13.6894 15.8595 13.7869C15.9522 13.8844 16.0036 14.014 16.0029 14.1486V14.1706C16.003 14.2411 15.9888 14.3109 15.9611 14.3758C15.9334 14.4406 15.8928 14.4992 15.8419 14.548C15.7909 14.5967 15.7305 14.6346 15.6645 14.6593C15.5985 14.6841 15.5281 14.6952 15.4576 14.6919C15.2878 14.6919 15.1161 14.6919 14.9523 14.6919C12.3176 14.6919 10.3741 15.3451 9.33542 16.5795C8.87936 17.0963 8.59954 17.7448 8.53644 18.4311C8.5367 18.5009 8.5507 18.57 8.57764 18.6343C8.60459 18.6987 8.64394 18.7571 8.69347 18.8063C8.74299 18.8554 8.80171 18.8943 8.86628 18.9208C8.93084 18.9473 8.99998 18.9607 9.06976 18.9605L16.2027 18.9824C16.2713 18.9824 16.3393 18.996 16.4026 19.0223C16.466 19.0486 16.5236 19.0872 16.572 19.1358C16.6205 19.1845 16.6588 19.2422 16.6849 19.3057C16.711 19.3691 16.7243 19.4372 16.724 19.5058L16.73 19.4918Z" fill="#6E7469"/>
<path d="M14.8802 12.5411C14.0355 12.5411 13.2099 12.2907 12.5076 11.8214C11.8053 11.3522 11.2579 10.6852 10.9347 9.90484C10.6115 9.1245 10.5269 8.26583 10.6917 7.43742C10.8565 6.60901 11.2632 5.84807 11.8604 5.25082C12.4577 4.65357 13.2186 4.24684 14.047 4.08206C14.8754 3.91728 15.7341 4.00185 16.5145 4.32508C17.2948 4.64831 17.9618 5.19568 18.431 5.89797C18.9003 6.60026 19.1508 7.42593 19.1508 8.27057C19.1497 9.40287 18.6994 10.4885 17.8988 11.2891C17.0981 12.0898 16.0125 12.5401 14.8802 12.5411ZM14.8802 5.06864C14.2481 5.06864 13.6302 5.25608 13.1046 5.60725C12.5791 5.95843 12.1694 6.45756 11.9275 7.04154C11.6856 7.62552 11.6223 8.26812 11.7457 8.88807C11.869 9.50802 12.1734 10.0775 12.6203 10.5244C13.0673 10.9714 13.6367 11.2758 14.2567 11.3991C14.8766 11.5224 15.5192 11.4591 16.1032 11.2172C16.6872 10.9753 17.1863 10.5657 17.5375 10.0401C17.8887 9.51457 18.0761 8.89667 18.0761 8.26457C18.073 7.41793 17.7352 6.60687 17.1366 6.0082C16.5379 5.40953 15.7268 5.0718 14.8802 5.06864Z" fill="#6E7469"/>
<path d="M5.80389 20.0157H2.59797C2.17416 20.0157 1.76771 19.8474 1.46803 19.5477C1.16836 19.248 1 18.8416 1 18.4178C1.03765 17.7208 1.28402 17.0513 1.7071 16.4962C2.13436 15.939 2.69866 15.5021 3.34502 15.2278C4.29475 14.8388 5.31526 14.6524 6.3412 14.6805C6.54095 14.6805 6.72072 14.6805 6.90448 14.6965C6.97452 14.7002 7.04315 14.7176 7.10645 14.7478C7.16975 14.778 7.22648 14.8203 7.27341 14.8725C7.32034 14.9246 7.35654 14.9854 7.37995 15.0516C7.40336 15.1177 7.41351 15.1877 7.40984 15.2578C7.40617 15.3278 7.38874 15.3964 7.35854 15.4597C7.32835 15.523 7.28598 15.5798 7.23386 15.6267C7.18174 15.6736 7.12089 15.7098 7.05478 15.7332C6.98867 15.7566 6.91859 15.7668 6.84856 15.7631C6.68476 15.7631 6.51498 15.7491 6.3432 15.7491C2.18249 15.7452 2.07263 18.2859 2.07064 18.4178C2.07115 18.5578 2.12675 18.6921 2.22542 18.7915C2.32409 18.8909 2.45791 18.9475 2.59797 18.9491H5.7939C5.93534 18.9491 6.071 19.0053 6.17101 19.1053C6.27103 19.2053 6.32722 19.341 6.32722 19.4824C6.32722 19.6238 6.27103 19.7595 6.17101 19.8595C6.071 19.9595 5.93534 20.0157 5.7939 20.0157H5.80389Z" fill="#6E7469"/>
<path d="M6.339 13.6096C5.7069 13.6096 5.089 13.4222 4.56344 13.071C4.03787 12.7199 3.62824 12.2207 3.38634 11.6367C3.14445 11.0528 3.08116 10.4102 3.20448 9.79021C3.32779 9.17026 3.63218 8.6008 4.07913 8.15384C4.52609 7.70688 5.09555 7.4025 5.7155 7.27918C6.33545 7.15587 6.97805 7.21916 7.56203 7.46105C8.14601 7.70294 8.64515 8.11257 8.99632 8.63814C9.34749 9.16371 9.53493 9.78161 9.53493 10.4137C9.53178 11.2603 9.19405 12.0714 8.59538 12.6701C7.99671 13.2688 7.18564 13.6065 6.339 13.6096ZM6.339 8.27044C5.91668 8.27044 5.50385 8.39567 5.1527 8.6303C4.80156 8.86492 4.52787 9.19841 4.36626 9.58858C4.20464 9.97875 4.16236 10.4081 4.24475 10.8223C4.32714 11.2365 4.5305 11.617 4.82913 11.9156C5.12775 12.2142 5.50822 12.4176 5.92243 12.5C6.33663 12.5824 6.76597 12.5401 7.15614 12.3785C7.54631 12.2168 7.8798 11.9432 8.11442 11.592C8.34905 11.2409 8.47428 10.828 8.47428 10.4057C8.47375 9.83957 8.24862 9.29676 7.84829 8.89643C7.44796 8.4961 6.90515 8.27096 6.339 8.27044Z" fill="#6E7469"/>
<path d="M19.4045 20.016C18.6934 20.016 17.9983 19.8052 17.407 19.4101C16.8157 19.015 16.3549 18.4535 16.0828 17.7965C15.8106 17.1396 15.7394 16.4166 15.8782 15.7192C16.0169 15.0217 16.3593 14.3811 16.8622 13.8783C17.365 13.3754 18.0056 13.033 18.7031 12.8943C19.4005 12.7556 20.1234 12.8268 20.7804 13.0989C21.4374 13.371 21.9989 13.8318 22.394 14.4231C22.7891 15.0144 22.9999 15.7095 22.9999 16.4206C22.9968 17.3732 22.617 18.2859 21.9434 18.9595C21.2698 19.6331 20.3571 20.0129 19.4045 20.016ZM19.4045 13.4644C18.8214 13.4644 18.2514 13.6373 17.7665 13.9613C17.2817 14.2852 16.9038 14.7457 16.6807 15.2844C16.4575 15.8231 16.3992 16.4159 16.5129 16.9878C16.6267 17.5597 16.9075 18.085 17.3198 18.4974C17.7321 18.9097 18.2574 19.1905 18.8293 19.3042C19.4012 19.418 19.994 19.3596 20.5328 19.1365C21.0715 18.9133 21.5319 18.5354 21.8559 18.0506C22.1798 17.5658 22.3528 16.9957 22.3528 16.4126C22.3517 15.631 22.0407 14.8817 21.4881 14.3291C20.9354 13.7764 20.1861 13.4654 19.4045 13.4644Z" fill="#6E7469"/>
<path d="M21.0982 15.9266H19.8758V14.7042C19.8758 14.5982 19.8337 14.4966 19.7588 14.4217C19.6839 14.3468 19.5823 14.3047 19.4763 14.3047C19.3704 14.3047 19.2687 14.3468 19.1938 14.4217C19.1189 14.4966 19.0768 14.5982 19.0768 14.7042V15.9266H17.8524C17.7464 15.9266 17.6448 15.9687 17.5699 16.0436C17.495 16.1186 17.4529 16.2202 17.4529 16.3261C17.4529 16.4321 17.495 16.5337 17.5699 16.6086C17.6448 16.6835 17.7464 16.7256 17.8524 16.7256H19.0768V17.95C19.0768 18.056 19.1189 18.1576 19.1938 18.2325C19.2687 18.3074 19.3704 18.3495 19.4763 18.3495C19.5823 18.3495 19.6839 18.3074 19.7588 18.2325C19.8337 18.1576 19.8758 18.056 19.8758 17.95V16.7256H21.0982C21.2042 16.7256 21.3058 16.6835 21.3807 16.6086C21.4556 16.5337 21.4977 16.4321 21.4977 16.3261C21.4977 16.2202 21.4556 16.1186 21.3807 16.0436C21.3058 15.9687 21.2042 15.9266 21.0982 15.9266Z" fill="#6E7469"/>
</svg>
