<svg width="24" height="24" viewBox="0 0 24 24" fill="none" xmlns="http://www.w3.org/2000/svg">
<path d="M12 11.6765C11.0375 11.6765 10.244 11.3643 9.61947 10.7398C8.99496 10.1153 8.6827 9.32015 8.6827 8.35447C8.6827 7.38877 8.99496 6.59526 9.61947 5.97394C10.244 5.35264 11.0375 5.04199 12 5.04199C12.9625 5.04199 13.756 5.35264 14.3805 5.97394C15.005 6.59526 15.3172 7.38877 15.3172 8.35447C15.3172 9.32015 15.005 10.1153 14.3805 10.7398C13.756 11.3643 12.9625 11.6765 12 11.6765ZM4.5 19.3073V17.4092C4.5 16.8721 4.64231 16.4041 4.92692 16.0054C5.21154 15.6067 5.58142 15.3003 6.03655 15.0862C7.0891 14.6182 8.10373 14.2657 9.08045 14.0285C10.0572 13.7913 11.0303 13.6727 11.9997 13.6727C12.9691 13.6727 13.9397 13.7939 14.9115 14.0362C15.8833 14.2785 16.8934 14.6308 17.9418 15.093C18.4147 15.3065 18.7926 15.6117 19.0755 16.0084C19.3585 16.4051 19.5 16.8721 19.5 17.4092V19.3073H4.5ZM5.6346 18.1727H18.3654V17.4092C18.3654 17.149 18.283 16.8996 18.1182 16.6612C17.9535 16.4227 17.7384 16.2355 17.473 16.0996C16.4897 15.6214 15.5622 15.2865 14.6905 15.0948C13.8188 14.9032 12.9219 14.8073 12 14.8073C11.078 14.8073 10.1744 14.9032 9.28927 15.0948C8.40411 15.2865 7.47819 15.6214 6.51152 16.0996C6.24614 16.2355 6.03364 16.4227 5.87402 16.6612C5.71441 16.8996 5.6346 17.149 5.6346 17.4092V18.1727ZM12 10.542C12.6243 10.542 13.1442 10.3343 13.5596 9.91887C13.975 9.50348 14.1827 8.98362 14.1827 8.35927C14.1827 7.73492 13.975 7.21505 13.5596 6.79967C13.1442 6.38428 12.6243 6.17659 12 6.17659C11.3756 6.17659 10.8558 6.38428 10.4404 6.79967C10.025 7.21505 9.8173 7.73492 9.8173 8.35927C9.8173 8.98362 10.025 9.50348 10.4404 9.91887C10.8558 10.3343 11.3756 10.542 12 10.542Z" fill="#6E7469"/>
</svg>
