<svg width="24" height="24" viewBox="0 0 24 24" fill="none" xmlns="http://www.w3.org/2000/svg">
<path d="M12.1005 17.4884C12.3219 17.4884 12.5099 17.4094 12.6644 17.2513C12.8189 17.0933 12.8961 16.9035 12.8961 16.6821C12.8961 16.4671 12.8187 16.2807 12.6639 16.1231C12.509 15.9654 12.3209 15.8865 12.0994 15.8865C11.878 15.8865 11.6884 15.9655 11.5308 16.1236C11.3731 16.2817 11.2942 16.4682 11.2942 16.6832C11.2942 16.9046 11.3733 17.0942 11.5313 17.2519C11.6894 17.4096 11.8791 17.4884 12.1005 17.4884ZM11.4077 14.05H12.5461C12.5525 13.6423 12.6163 13.2753 12.7375 12.949C12.8586 12.6227 13.1673 12.2487 13.6634 11.8269C14.1609 11.3872 14.5147 10.9718 14.725 10.5808C14.9352 10.1897 15.0404 9.75921 15.0404 9.28918C15.0404 8.46563 14.7708 7.8 14.2317 7.2923C13.6926 6.78462 12.9955 6.53078 12.1404 6.53078C11.4006 6.53078 10.7455 6.72052 10.175 7.1C9.60448 7.47948 9.18397 7.97628 8.91345 8.59038L9.9596 8.9942C10.1493 8.54677 10.4195 8.19869 10.7702 7.94998C11.1208 7.70126 11.5525 7.5769 12.0654 7.5769C12.6769 7.5769 13.1545 7.74389 13.498 8.07788C13.8417 8.41184 14.0135 8.8237 14.0135 9.31345C14.0135 9.6737 13.9115 10.0083 13.7077 10.3173C13.5038 10.6263 13.2096 10.9461 12.825 11.2769C12.3378 11.7102 11.9798 12.1378 11.751 12.5596C11.5221 12.9814 11.4077 13.4782 11.4077 14.05ZM12.0016 21.5C10.698 21.5 9.46966 21.2506 8.31673 20.752C7.16379 20.2533 6.15555 19.5724 5.292 18.7092C4.42843 17.846 3.74721 16.8382 3.24833 15.6858C2.74944 14.5334 2.5 13.3053 2.5 12.0017C2.5 10.6877 2.74933 9.45268 3.248 8.29655C3.74667 7.1404 4.42758 6.13472 5.29075 5.2795C6.15393 4.42427 7.16173 3.74721 8.31415 3.24833C9.46658 2.74944 10.6946 2.5 11.9983 2.5C13.3122 2.5 14.5473 2.74933 15.7034 3.248C16.8596 3.74667 17.8652 4.42342 18.7205 5.27825C19.5757 6.1331 20.2527 7.13834 20.7516 8.29398C21.2505 9.44959 21.5 10.6844 21.5 11.9983C21.5 13.302 21.2506 14.5303 20.752 15.6832C20.2533 16.8362 19.5765 17.8444 18.7217 18.708C17.8669 19.5715 16.8616 20.2527 15.706 20.7516C14.5504 21.2505 13.3156 21.5 12.0016 21.5ZM12 20.3654C14.3282 20.3654 16.3045 19.5506 17.9288 17.9211C19.5532 16.2916 20.3654 14.3179 20.3654 12C20.3654 9.67178 19.5532 7.69549 17.9288 6.07113C16.3045 4.44678 14.3282 3.6346 12 3.6346C9.68203 3.6346 7.70831 4.44678 6.07883 6.07113C4.44934 7.69549 3.6346 9.67178 3.6346 12C3.6346 14.3179 4.44934 16.2916 6.07883 17.9211C7.70831 19.5506 9.68203 20.3654 12 20.3654Z" fill="#6E7469"/>
</svg>
