<svg width="24" height="24" viewBox="0 0 24 24" fill="none" xmlns="http://www.w3.org/2000/svg">
<path d="M4.8173 18.8653C4.65655 18.8653 4.52182 18.8104 4.4131 18.7008C4.30437 18.5911 4.25 18.4552 4.25 18.2931C4.25 18.131 4.30437 17.9967 4.4131 17.8903C4.52182 17.7839 4.65655 17.7307 4.8173 17.7307H6.32115V10.0037C6.32115 8.68196 6.73525 7.48133 7.56345 6.40184C8.39165 5.32236 9.47755 4.65377 10.8211 4.39607V3.68069C10.8211 3.34811 10.9326 3.07778 11.1556 2.86972C11.3786 2.66165 11.6581 2.55762 11.9941 2.55762C12.3301 2.55762 12.6115 2.66165 12.8384 2.86972C13.0653 3.07778 13.1788 3.34811 13.1788 3.68069V4.39607C14.5224 4.65377 15.6109 5.32236 16.4442 6.40184C17.2775 7.48133 17.6942 8.68196 17.6942 10.0037V17.7307H19.1827C19.3434 17.7307 19.4781 17.7855 19.5869 17.8952C19.6956 18.0049 19.75 18.1408 19.75 18.3029C19.75 18.465 19.6956 18.5993 19.5869 18.7057C19.4781 18.8121 19.3434 18.8653 19.1827 18.8653H4.8173ZM12 21.8076C11.5179 21.8076 11.0961 21.6326 10.7346 21.2826C10.3731 20.9326 10.1923 20.505 10.1923 19.9999H13.8077C13.8077 20.505 13.6327 20.9326 13.2826 21.2826C12.9327 21.6326 12.5051 21.8076 12 21.8076ZM7.45573 17.7307H16.5596V10.0037C16.5596 8.72986 16.1221 7.64889 15.2472 6.76084C14.3722 5.87277 13.2985 5.42874 12.026 5.42874C10.7535 5.42874 9.67368 5.87277 8.7865 6.76084C7.89932 7.64889 7.45573 8.72986 7.45573 10.0037V17.7307Z" fill="#6E7469"/>
</svg>
