<svg width="24" height="24" viewBox="0 0 24 24" fill="none" xmlns="http://www.w3.org/2000/svg">
<path d="M20.5502 22H3.57818C3.36175 22.0006 3.14753 21.9565 2.9489 21.8705C2.75027 21.7845 2.57149 21.6585 2.42374 21.5004C2.27598 21.3422 2.16242 21.1553 2.09014 20.9513C2.01787 20.7473 1.98843 20.5306 2.00366 20.3147L2.76799 9.81787C2.78087 9.63254 2.86344 9.45897 2.9991 9.33206C3.13476 9.20515 3.31344 9.13431 3.4992 9.13379H4.9336C5.11685 9.13356 5.29375 9.20085 5.43052 9.32282C5.56729 9.44478 5.65432 9.61286 5.675 9.79494L6.51831 17.1682L10.8814 14.251C10.9955 14.1873 11.1237 14.1529 11.2544 14.1508C11.385 14.1488 11.5142 14.1792 11.6303 14.2392C11.7464 14.2993 11.8458 14.3872 11.9196 14.495C11.9934 14.6029 12.0394 14.7274 12.0533 14.8574V14.907L11.7081 17.1784L15.9056 14.3567C16.0153 14.284 16.1423 14.2413 16.2737 14.233C16.4051 14.2247 16.5364 14.2509 16.6545 14.3092C16.7726 14.3675 16.8733 14.4557 16.9467 14.5651C17.02 14.6744 17.0634 14.8011 17.0724 14.9325V14.9758L16.7323 17.1873L21.0279 14.321C21.1396 14.257 21.2662 14.2234 21.3949 14.2237C21.5237 14.2239 21.6502 14.258 21.7616 14.3225C21.8731 14.387 21.9656 14.4797 22.03 14.5912C22.0944 14.7027 22.1284 14.8292 22.1285 14.958V20.423C22.1268 20.8409 21.9599 21.2413 21.6643 21.5367C21.3686 21.8321 20.9681 21.9987 20.5502 22ZM3.53232 9.89812L2.76799 20.3695C2.7601 20.4805 2.77522 20.592 2.81241 20.6969C2.84959 20.8019 2.90804 20.898 2.98409 20.9793C3.06014 21.0607 3.15216 21.1254 3.25439 21.1695C3.35662 21.2136 3.46685 21.2362 3.57818 21.2357H20.5502C20.7663 21.235 20.9734 21.149 21.1264 20.9962C21.2793 20.8435 21.3657 20.6365 21.3667 20.4204V15.0115L16.9081 17.9847C16.807 18.0454 16.6912 18.0774 16.5733 18.0771C16.4554 18.0769 16.3397 18.0445 16.2388 17.9834C16.1379 17.9224 16.0556 17.835 16.0007 17.7306C15.9458 17.6262 15.9204 17.5088 15.9272 17.3911V17.3554L16.2877 15.0128L11.9017 17.9733C11.7995 18.0337 11.6827 18.0651 11.5639 18.0643C11.4451 18.0636 11.3288 18.0305 11.2273 17.9688C11.1258 17.9071 11.043 17.819 10.9877 17.7139C10.9324 17.6088 10.9066 17.4906 10.9132 17.372V17.3351L11.2801 14.921C11.2739 14.9187 11.2671 14.9187 11.261 14.921L6.83296 17.879C6.73032 17.9363 6.61521 17.9677 6.49767 17.9704C6.38014 17.973 6.26373 17.9469 6.1586 17.8943C6.05347 17.8416 5.9628 17.7641 5.8945 17.6684C5.82619 17.5727 5.78233 17.4618 5.76672 17.3453L4.91449 9.89812H3.53232Z" fill="#F8F8F8"/>
<path d="M4.28013 7.98751C3.98596 7.98751 3.69839 7.90031 3.45377 7.73693C3.20914 7.57355 3.01843 7.34133 2.90574 7.0696C2.79305 6.79787 2.76344 6.49883 2.82064 6.21028C2.87785 5.92172 3.0193 5.6566 3.22713 5.44841C3.43496 5.24023 3.69984 5.09832 3.9883 5.04062C4.27676 4.98292 4.57584 5.01202 4.84776 5.12425C5.11968 5.23647 5.35224 5.42678 5.51604 5.67113C5.67983 5.91548 5.76753 6.2029 5.76803 6.49707C5.7682 6.69263 5.72984 6.88631 5.65516 7.06705C5.58048 7.24779 5.47093 7.41205 5.33276 7.55045C5.1946 7.68885 5.03053 7.79868 4.84992 7.87367C4.66931 7.94866 4.47569 7.98735 4.28013 7.98751ZM4.28013 5.77605C4.13702 5.77605 3.99713 5.81849 3.87814 5.89799C3.75915 5.9775 3.66641 6.09051 3.61164 6.22272C3.55688 6.35493 3.54255 6.50042 3.57047 6.64078C3.59839 6.78114 3.6673 6.91006 3.76849 7.01126C3.86969 7.11245 3.99861 7.18136 4.13897 7.20928C4.27933 7.2372 4.42481 7.22287 4.55703 7.16811C4.68924 7.11334 4.80225 7.0206 4.88176 6.90161C4.96126 6.78262 5.0037 6.64272 5.0037 6.49962C5.00387 6.40443 4.98528 6.31014 4.94901 6.22214C4.91274 6.13413 4.85949 6.05413 4.7923 5.9867C4.72511 5.91928 4.6453 5.86575 4.55742 5.82916C4.46954 5.79258 4.37532 5.77367 4.28013 5.7735V5.77605Z" fill="#F8F8F8"/>
<path d="M7.90696 5.90548C6.71715 5.90548 5.78467 5.25198 5.78467 4.42013C5.78467 3.58829 6.71715 2.92969 7.90696 2.92969C9.09677 2.92969 10.0293 3.58319 10.0293 4.42013C10.0293 5.25708 9.09677 5.90548 7.90696 5.90548ZM7.90696 3.69402C7.12989 3.69402 6.549 4.07618 6.549 4.41759C6.549 4.75899 7.12989 5.14115 7.90696 5.14115C8.68403 5.14115 9.26492 4.75899 9.26492 4.42013C9.26492 4.08128 8.68403 3.69402 7.90696 3.69402Z" fill="#F8F8F8"/>
<path d="M13.9503 5.77325C12.3325 5.77325 11.0637 4.94395 11.0637 3.88662C11.0637 2.8293 12.3325 2 13.9503 2C15.5682 2 16.837 2.82803 16.837 3.88662C16.837 4.94522 15.5695 5.77325 13.9503 5.77325ZM13.9503 2.76433C12.7045 2.76433 11.8281 3.35541 11.8281 3.88662C11.8281 4.41783 12.7045 5.00892 13.9503 5.00892C15.1962 5.00892 16.0726 4.41783 16.0726 3.88662C16.0726 3.35541 15.2013 2.76433 13.9503 2.76433Z" fill="#F8F8F8"/>
</svg>
