<svg width="24" height="25" viewBox="0 0 24 25" fill="none" xmlns="http://www.w3.org/2000/svg">
<path d="M4 18.4355H20C20.55 18.4355 21 17.9855 21 17.4355C21 16.8855 20.55 16.4355 20 16.4355H4C3.45 16.4355 3 16.8855 3 17.4355C3 17.9855 3.45 18.4355 4 18.4355ZM4 13.4355H20C20.55 13.4355 21 12.9855 21 12.4355C21 11.8855 20.55 11.4355 20 11.4355H4C3.45 11.4355 3 11.8855 3 12.4355C3 12.9855 3.45 13.4355 4 13.4355ZM3 7.43555C3 7.98555 3.45 8.43555 4 8.43555H20C20.55 8.43555 21 7.98555 21 7.43555C21 6.88555 20.55 6.43555 20 6.43555H4C3.45 6.43555 3 6.88555 3 7.43555Z" fill="black"/>
</svg>
