<svg width="24" height="24" viewBox="0 0 24 24" fill="none" xmlns="http://www.w3.org/2000/svg">
<path d="M13.3423 21.5H10.6481C10.4712 21.5 10.3151 21.4432 10.1798 21.3298C10.0446 21.2163 9.96028 21.0711 9.92695 20.8942L9.5654 18.4942C9.2231 18.3775 8.8545 18.208 8.45962 17.9855C8.06475 17.7631 7.72437 17.5275 7.43847 17.2788L5.23847 18.2961C5.06797 18.373 4.89425 18.3823 4.71732 18.324C4.5404 18.2656 4.40515 18.148 4.31157 17.9711L2.95005 15.575C2.85645 15.4147 2.83305 15.2461 2.87985 15.0692C2.92665 14.8923 3.02184 14.7487 3.16542 14.6385L5.1712 13.1596C5.13786 12.984 5.11382 12.7923 5.09907 12.5846C5.08432 12.3769 5.07695 12.1852 5.07695 12.0096C5.07695 11.8404 5.08432 11.6519 5.09907 11.4442C5.11382 11.2365 5.13786 11.0352 5.1712 10.8404L3.16542 9.3615C3.02184 9.25125 2.92665 9.10767 2.87985 8.93075C2.83305 8.75382 2.85645 8.58523 2.95005 8.42498L4.31157 6.03848C4.41157 5.87438 4.54682 5.76156 4.71732 5.70003C4.88784 5.63848 5.05835 5.64617 5.22887 5.7231L7.42885 6.72118C7.73398 6.47244 8.07757 6.23846 8.45962 6.01923C8.84169 5.79999 9.20708 5.63718 9.5558 5.53078L9.92695 3.10578C9.96028 2.92886 10.0446 2.78367 10.1798 2.6702C10.3151 2.55673 10.4712 2.5 10.6481 2.5H13.3423C13.5192 2.5 13.6769 2.55673 13.8153 2.6702C13.9538 2.78367 14.0397 2.92886 14.073 3.10578L14.4346 5.51538C14.8025 5.65128 15.1705 5.81987 15.5384 6.02115C15.9064 6.22243 16.2378 6.45578 16.5327 6.72118L18.7711 5.7231C18.9416 5.64617 19.1138 5.63527 19.2875 5.6904C19.4612 5.74553 19.5948 5.85835 19.6884 6.02885L21.0499 8.4096C21.1435 8.56985 21.1711 8.741 21.1326 8.92305C21.0942 9.1051 20.9948 9.25125 20.8346 9.3615L18.7903 10.8288C18.8365 11.0275 18.8653 11.2275 18.8769 11.4288C18.8884 11.6301 18.8942 11.8205 18.8942 12C18.8942 12.1731 18.8868 12.3577 18.8721 12.5538C18.8573 12.75 18.8301 12.9538 18.7903 13.1654L20.8249 14.6385C20.9685 14.7423 21.0637 14.8843 21.1105 15.0644C21.1573 15.2445 21.1307 15.4147 21.0307 15.575L19.6788 17.9807C19.5788 18.1512 19.442 18.264 19.2682 18.3192C19.0945 18.3743 18.9192 18.3634 18.7423 18.2865L16.5327 17.2692C16.2211 17.5307 15.8849 17.7721 15.524 17.9932C15.1631 18.2144 14.8 18.3782 14.4346 18.4846L14.073 20.8942C14.0397 21.0711 13.9538 21.2163 13.8153 21.3298C13.6769 21.4432 13.5192 21.5 13.3423 21.5ZM11.9711 14.8173C12.7557 14.8173 13.4214 14.5439 13.9682 13.9971C14.515 13.4503 14.7884 12.7846 14.7884 12C14.7884 11.2154 14.515 10.5497 13.9682 10.0029C13.4214 9.45609 12.7557 9.1827 11.9711 9.1827C11.1929 9.1827 10.5289 9.45609 9.97887 10.0029C9.42887 10.5497 9.15387 11.2154 9.15387 12C9.15387 12.7846 9.42887 13.4503 9.97887 13.9971C10.5289 14.5439 11.1929 14.8173 11.9711 14.8173ZM11.9711 13.6827C11.507 13.6827 11.1106 13.5182 10.7817 13.1894C10.4529 12.8606 10.2885 12.4641 10.2885 12C10.2885 11.5359 10.4529 11.1394 10.7817 10.8106C11.1106 10.4817 11.507 10.3173 11.9711 10.3173C12.4417 10.3173 12.8397 10.4817 13.1654 10.8106C13.491 11.1394 13.6538 11.5359 13.6538 12C13.6538 12.4641 13.491 12.8606 13.1654 13.1894C12.8397 13.5182 12.4417 13.6827 11.9711 13.6827ZM10.9288 20.3654H13.0615L13.4211 17.575C13.9519 17.4416 14.4471 17.2429 14.9067 16.9788C15.3663 16.7147 15.8058 16.3795 16.225 15.9731L18.8365 17.1038L19.8365 15.3327L17.525 13.6269C17.5917 13.3307 17.6442 13.0516 17.6827 12.7894C17.7211 12.5272 17.7404 12.2641 17.7404 12C17.7404 11.7231 17.7237 11.4567 17.6904 11.201C17.657 10.9452 17.6019 10.6756 17.525 10.3923L19.8557 8.6673L18.8557 6.89613L16.2154 8.0269C15.8641 7.63204 15.4404 7.28396 14.9442 6.98268C14.4481 6.68139 13.9372 6.49549 13.4115 6.42498L13.0711 3.6346H10.9288L10.5981 6.41538C10.0442 6.52563 9.5343 6.7144 9.06827 6.9817C8.60225 7.24902 8.16796 7.59422 7.7654 8.0173L5.14425 6.89613L4.14425 8.6673L6.45577 10.3635C6.38269 10.6276 6.32692 10.8955 6.28847 11.1673C6.25 11.4391 6.23077 11.7199 6.23077 12.0096C6.23077 12.2865 6.25 12.5577 6.28847 12.8231C6.32692 13.0884 6.37948 13.3564 6.44615 13.6269L4.14425 15.3327L5.14425 17.1038L7.75577 15.9827C8.15577 16.3891 8.59039 16.7243 9.05962 16.9884C9.52885 17.2525 10.0385 17.4512 10.5885 17.5846L10.9288 20.3654Z" fill="#6E7469"/>
</svg>
