<svg width="40" height="41" viewBox="0 0 40 41" fill="none" xmlns="http://www.w3.org/2000/svg">
<rect y="0.435547" width="40" height="40" rx="20" fill="#3FAB36"/>
<path fill-rule="evenodd" clip-rule="evenodd" d="M26.0002 16.4355C26.0002 19.7493 23.314 22.4355 20.0002 22.4355C16.6865 22.4355 14.0002 19.7493 14.0002 16.4355C14.0002 13.1218 16.6865 10.4355 20.0002 10.4355C23.314 10.4355 26.0002 13.1218 26.0002 16.4355ZM24.0002 16.4355C24.0002 18.6447 22.2094 20.4355 20.0002 20.4355C17.7911 20.4355 16.0002 18.6447 16.0002 16.4355C16.0002 14.2264 17.7911 12.4355 20.0002 12.4355C22.2094 12.4355 24.0002 14.2264 24.0002 16.4355Z" fill="white"/>
<path d="M20.0002 25.4355C13.5259 25.4355 8.00952 29.264 5.9082 34.6276C6.4201 35.1359 6.95934 35.6167 7.52353 36.0676C9.08827 31.1432 13.997 27.4355 20.0002 27.4355C26.0035 27.4355 30.9122 31.1432 32.477 36.0676C33.0412 35.6167 33.5804 35.1359 34.0923 34.6276C31.991 29.264 26.4746 25.4355 20.0002 25.4355Z" fill="white"/>
</svg>
